ISO-10303-21;
HEADER;
FILE_DESCRIPTION(('FreeCAD Model'),'2;1');
FILE_NAME('Open CASCADE Shape Model','2026-10-01T04:02:05',(''),(''),
  'Open CASCADE STEP processor 7.8','FreeCAD','Unknown');
FILE_SCHEMA(('AUTOMOTIVE_DESIGN { 1 0 10303 214 1 1 1 1 }'));
ENDSEC;
DATA;
#1 = APPLICATION_PROTOCOL_DEFINITION('international standard',
  'automotive_design',2000,#2);
#2 = APPLICATION_CONTEXT(
  'core data for automotive mechanical design processes');
#3 = SHAPE_DEFINITION_REPRESENTATION(#4,#10);
#4 = PRODUCT_DEFINITION_SHAPE('','',#5);
#5 = PRODUCT_DEFINITION('design','',#6,#9);
#6 = PRODUCT_DEFINITION_FORMATION('','',#7);
#7 = PRODUCT('cavity_casette_new','cavity_casette_new','',(#8));
#8 = PRODUCT_CONTEXT('',#2,'mechanical');
#9 = PRODUCT_DEFINITION_CONTEXT('part definition',#2,'design');
#10 = ADVANCED_BREP_SHAPE_REPRESENTATION('',(#11,#15),#1289);
#11 = AXIS2_PLACEMENT_3D('',#12,#13,#14);
#12 = CARTESIAN_POINT('',(0.,0.,0.));
#13 = DIRECTION('',(0.,0.,1.));
#14 = DIRECTION('',(1.,0.,-0.));
#15 = MANIFOLD_SOLID_BREP('',#16);
#16 = CLOSED_SHELL('',(#17,#59,#419,#444,#796,#813,#830,#847,#864,#881,
    #898,#915,#932,#949,#961,#978,#995,#1012,#1029,#1046,#1063,#1080,
    #1097,#1114,#1131,#1148,#1165,#1182,#1199,#1217,#1235,#1253,#1271));
#17 = ADVANCED_FACE('',(#18),#54,.T.);
#18 = FACE_BOUND('',#19,.F.);
#19 = EDGE_LOOP('',(#20,#31,#39,#48));
#20 = ORIENTED_EDGE('',*,*,#21,.F.);
#21 = EDGE_CURVE('',#22,#24,#26,.T.);
#22 = VERTEX_POINT('',#23);
#23 = CARTESIAN_POINT('',(45.529569892473,9.450305043035,0.));
#24 = VERTEX_POINT('',#25);
#25 = CARTESIAN_POINT('',(30.902619912411,34.745907421581,0.));
#26 = CIRCLE('',#27,46.5);
#27 = AXIS2_PLACEMENT_3D('',#28,#29,#30);
#28 = CARTESIAN_POINT('',(0.,0.,0.));
#29 = DIRECTION('',(0.,0.,1.));
#30 = DIRECTION('',(1.,0.,0.));
#31 = ORIENTED_EDGE('',*,*,#32,.F.);
#32 = EDGE_CURVE('',#33,#22,#35,.T.);
#33 = VERTEX_POINT('',#34);
#34 = CARTESIAN_POINT('',(45.529569892473,9.450305043034,20.));
#35 = LINE('',#36,#37);
#36 = CARTESIAN_POINT('',(45.529569892473,9.450305043035,0.));
#37 = VECTOR('',#38,1.);
#38 = DIRECTION('',(-0.,-0.,-1.));
#39 = ORIENTED_EDGE('',*,*,#40,.T.);
#40 = EDGE_CURVE('',#33,#41,#43,.T.);
#41 = VERTEX_POINT('',#42);
#42 = CARTESIAN_POINT('',(30.902619912411,34.745907421581,20.));
#43 = CIRCLE('',#44,46.5);
#44 = AXIS2_PLACEMENT_3D('',#45,#46,#47);
#45 = CARTESIAN_POINT('',(0.,0.,20.));
#46 = DIRECTION('',(0.,0.,1.));
#47 = DIRECTION('',(1.,0.,0.));
#48 = ORIENTED_EDGE('',*,*,#49,.T.);
#49 = EDGE_CURVE('',#41,#24,#50,.T.);
#50 = LINE('',#51,#52);
#51 = CARTESIAN_POINT('',(30.902619912411,34.745907421581,0.));
#52 = VECTOR('',#53,1.);
#53 = DIRECTION('',(-0.,-0.,-1.));
#54 = CYLINDRICAL_SURFACE('',#55,46.5);
#55 = AXIS2_PLACEMENT_3D('',#56,#57,#58);
#56 = CARTESIAN_POINT('',(0.,0.,0.));
#57 = DIRECTION('',(-0.,-0.,-1.));
#58 = DIRECTION('',(1.,0.,0.));
#59 = ADVANCED_FACE('',(#60,#160,#180,#191,#202,#213,#224,#244,#255,#266
    ,#277,#288,#299,#319,#330,#350,#370,#381,#392,#403),#414,.F.);
#60 = FACE_BOUND('',#61,.F.);
#61 = EDGE_LOOP('',(#62,#71,#72,#81,#90,#99,#108,#117,#126,#135,#144,
    #153));
#62 = ORIENTED_EDGE('',*,*,#63,.F.);
#63 = EDGE_CURVE('',#22,#64,#66,.T.);
#64 = VERTEX_POINT('',#65);
#65 = CARTESIAN_POINT('',(45.529569892473,-9.450305043035,0.));
#66 = CIRCLE('',#67,9.5);
#67 = AXIS2_PLACEMENT_3D('',#68,#69,#70);
#68 = CARTESIAN_POINT('',(46.5,0.,0.));
#69 = DIRECTION('',(0.,0.,1.));
#70 = DIRECTION('',(1.,0.,0.));
#71 = ORIENTED_EDGE('',*,*,#21,.T.);
#72 = ORIENTED_EDGE('',*,*,#73,.F.);
#73 = EDGE_CURVE('',#74,#24,#76,.T.);
#74 = VERTEX_POINT('',#75);
#75 = CARTESIAN_POINT('',(14.642527999974,44.134412579868,0.));
#76 = CIRCLE('',#77,9.5);
#77 = AXIS2_PLACEMENT_3D('',#78,#79,#80);
#78 = CARTESIAN_POINT('',(23.5,40.7,0.));
#79 = DIRECTION('',(0.,0.,1.));
#80 = DIRECTION('',(1.,0.,0.));
#81 = ORIENTED_EDGE('',*,*,#82,.T.);
#82 = EDGE_CURVE('',#74,#83,#85,.T.);
#83 = VERTEX_POINT('',#84);
#84 = CARTESIAN_POINT('',(-14.64252799997,44.134412579868,0.));
#85 = CIRCLE('',#86,46.5);
#86 = AXIS2_PLACEMENT_3D('',#87,#88,#89);
#87 = CARTESIAN_POINT('',(0.,0.,0.));
#88 = DIRECTION('',(0.,0.,1.));
#89 = DIRECTION('',(1.,0.,0.));
#90 = ORIENTED_EDGE('',*,*,#91,.F.);
#91 = EDGE_CURVE('',#92,#83,#94,.T.);
#92 = VERTEX_POINT('',#93);
#93 = CARTESIAN_POINT('',(-30.90261991241,34.745907421581,0.));
#94 = CIRCLE('',#95,9.5);
#95 = AXIS2_PLACEMENT_3D('',#96,#97,#98);
#96 = CARTESIAN_POINT('',(-23.5,40.7,0.));
#97 = DIRECTION('',(-2.22044604925E-16,2.465190328816E-32,1.));
#98 = DIRECTION('',(-1.,2.22044604925E-16,-2.22044604925E-16));
#99 = ORIENTED_EDGE('',*,*,#100,.T.);
#100 = EDGE_CURVE('',#92,#101,#103,.T.);
#101 = VERTEX_POINT('',#102);
#102 = CARTESIAN_POINT('',(-45.52956989247,9.450305043035,0.));
#103 = CIRCLE('',#104,46.5);
#104 = AXIS2_PLACEMENT_3D('',#105,#106,#107);
#105 = CARTESIAN_POINT('',(0.,0.,0.));
#106 = DIRECTION('',(0.,0.,1.));
#107 = DIRECTION('',(1.,0.,0.));
#108 = ORIENTED_EDGE('',*,*,#109,.F.);
#109 = EDGE_CURVE('',#110,#101,#112,.T.);
#110 = VERTEX_POINT('',#111);
#111 = CARTESIAN_POINT('',(-45.52956989247,-9.450305043035,0.));
#112 = CIRCLE('',#113,9.5);
#113 = AXIS2_PLACEMENT_3D('',#114,#115,#116);
#114 = CARTESIAN_POINT('',(-46.5,-1.032507412901E-14,0.));
#115 = DIRECTION('',(-2.22044604925E-16,-2.465190328816E-32,1.));
#116 = DIRECTION('',(-1.,-2.22044604925E-16,-2.22044604925E-16));
#117 = ORIENTED_EDGE('',*,*,#118,.T.);
#118 = EDGE_CURVE('',#110,#119,#121,.T.);
#119 = VERTEX_POINT('',#120);
#120 = CARTESIAN_POINT('',(-30.90261991241,-34.74590742158,0.));
#121 = CIRCLE('',#122,46.5);
#122 = AXIS2_PLACEMENT_3D('',#123,#124,#125);
#123 = CARTESIAN_POINT('',(0.,0.,0.));
#124 = DIRECTION('',(0.,0.,1.));
#125 = DIRECTION('',(1.,0.,0.));
#126 = ORIENTED_EDGE('',*,*,#127,.F.);
#127 = EDGE_CURVE('',#128,#119,#130,.T.);
#128 = VERTEX_POINT('',#129);
#129 = CARTESIAN_POINT('',(-14.64252799997,-44.13441257986,0.));
#130 = CIRCLE('',#131,9.5);
#131 = AXIS2_PLACEMENT_3D('',#132,#133,#134);
#132 = CARTESIAN_POINT('',(-23.5,-40.7,0.));
#133 = DIRECTION('',(-2.22044604925E-16,-2.465190328816E-32,1.));
#134 = DIRECTION('',(-1.,-2.22044604925E-16,-2.22044604925E-16));
#135 = ORIENTED_EDGE('',*,*,#136,.T.);
#136 = EDGE_CURVE('',#128,#137,#139,.T.);
#137 = VERTEX_POINT('',#138);
#138 = CARTESIAN_POINT('',(14.642527999974,-44.13441257986,0.));
#139 = CIRCLE('',#140,46.5);
#140 = AXIS2_PLACEMENT_3D('',#141,#142,#143);
#141 = CARTESIAN_POINT('',(0.,0.,0.));
#142 = DIRECTION('',(0.,0.,1.));
#143 = DIRECTION('',(1.,0.,0.));
#144 = ORIENTED_EDGE('',*,*,#145,.F.);
#145 = EDGE_CURVE('',#146,#137,#148,.T.);
#146 = VERTEX_POINT('',#147);
#147 = CARTESIAN_POINT('',(30.902619912411,-34.74590742158,0.));
#148 = CIRCLE('',#149,9.5);
#149 = AXIS2_PLACEMENT_3D('',#150,#151,#152);
#150 = CARTESIAN_POINT('',(23.5,-40.7,0.));
#151 = DIRECTION('',(0.,0.,1.));
#152 = DIRECTION('',(1.,0.,0.));
#153 = ORIENTED_EDGE('',*,*,#154,.T.);
#154 = EDGE_CURVE('',#146,#64,#155,.T.);
#155 = CIRCLE('',#156,46.5);
#156 = AXIS2_PLACEMENT_3D('',#157,#158,#159);
#157 = CARTESIAN_POINT('',(0.,0.,0.));
#158 = DIRECTION('',(0.,0.,1.));
#159 = DIRECTION('',(1.,0.,0.));
#160 = FACE_BOUND('',#161,.F.);
#161 = EDGE_LOOP('',(#162,#173));
#162 = ORIENTED_EDGE('',*,*,#163,.F.);
#163 = EDGE_CURVE('',#164,#166,#168,.T.);
#164 = VERTEX_POINT('',#165);
#165 = CARTESIAN_POINT('',(-2.,-30.,0.));
#166 = VERTEX_POINT('',#167);
#167 = CARTESIAN_POINT('',(2.,-30.,0.));
#168 = CIRCLE('',#169,2.);
#169 = AXIS2_PLACEMENT_3D('',#170,#171,#172);
#170 = CARTESIAN_POINT('',(6.661338147751E-15,-30.,0.));
#171 = DIRECTION('',(-2.22044604925E-16,-2.465190328816E-32,1.));
#172 = DIRECTION('',(-1.,-2.22044604925E-16,-2.22044604925E-16));
#173 = ORIENTED_EDGE('',*,*,#174,.F.);
#174 = EDGE_CURVE('',#166,#164,#175,.T.);
#175 = CIRCLE('',#176,2.);
#176 = AXIS2_PLACEMENT_3D('',#177,#178,#179);
#177 = CARTESIAN_POINT('',(6.661338147751E-15,-30.,0.));
#178 = DIRECTION('',(-2.22044604925E-16,-2.465190328816E-32,1.));
#179 = DIRECTION('',(-1.,-2.22044604925E-16,-2.22044604925E-16));
#180 = FACE_BOUND('',#181,.F.);
#181 = EDGE_LOOP('',(#182));
#182 = ORIENTED_EDGE('',*,*,#183,.F.);
#183 = EDGE_CURVE('',#184,#184,#186,.T.);
#184 = VERTEX_POINT('',#185);
#185 = CARTESIAN_POINT('',(-36.64,-20.,0.));
#186 = CIRCLE('',#187,2.);
#187 = AXIS2_PLACEMENT_3D('',#188,#189,#190);
#188 = CARTESIAN_POINT('',(-34.64,-20.,0.));
#189 = DIRECTION('',(-2.22044604925E-16,-2.465190328816E-32,1.));
#190 = DIRECTION('',(-1.,-2.22044604925E-16,-2.22044604925E-16));
#191 = FACE_BOUND('',#192,.F.);
#192 = EDGE_LOOP('',(#193));
#193 = ORIENTED_EDGE('',*,*,#194,.F.);
#194 = EDGE_CURVE('',#195,#195,#197,.T.);
#195 = VERTEX_POINT('',#196);
#196 = CARTESIAN_POINT('',(-27.98,-15.,0.));
#197 = CIRCLE('',#198,2.);
#198 = AXIS2_PLACEMENT_3D('',#199,#200,#201);
#199 = CARTESIAN_POINT('',(-25.98,-15.,0.));
#200 = DIRECTION('',(-2.22044604925E-16,-2.465190328816E-32,1.));
#201 = DIRECTION('',(-1.,-2.22044604925E-16,-2.22044604925E-16));
#202 = FACE_BOUND('',#203,.F.);
#203 = EDGE_LOOP('',(#204));
#204 = ORIENTED_EDGE('',*,*,#205,.F.);
#205 = EDGE_CURVE('',#206,#206,#208,.T.);
#206 = VERTEX_POINT('',#207);
#207 = CARTESIAN_POINT('',(-25.,0.,0.));
#208 = CIRCLE('',#209,5.);
#209 = AXIS2_PLACEMENT_3D('',#210,#211,#212);
#210 = CARTESIAN_POINT('',(-20.,-4.440892098501E-15,0.));
#211 = DIRECTION('',(-2.22044604925E-16,-2.465190328816E-32,1.));
#212 = DIRECTION('',(-1.,-2.22044604925E-16,-2.22044604925E-16));
#213 = FACE_BOUND('',#214,.F.);
#214 = EDGE_LOOP('',(#215));
#215 = ORIENTED_EDGE('',*,*,#216,.F.);
#216 = EDGE_CURVE('',#217,#217,#219,.T.);
#217 = VERTEX_POINT('',#218);
#218 = CARTESIAN_POINT('',(-15.,-17.32,0.));
#219 = CIRCLE('',#220,5.);
#220 = AXIS2_PLACEMENT_3D('',#221,#222,#223);
#221 = CARTESIAN_POINT('',(-10.,-17.32,0.));
#222 = DIRECTION('',(-2.22044604925E-16,-2.465190328816E-32,1.));
#223 = DIRECTION('',(-1.,-2.22044604925E-16,-2.22044604925E-16));
#224 = FACE_BOUND('',#225,.F.);
#225 = EDGE_LOOP('',(#226,#237));
#226 = ORIENTED_EDGE('',*,*,#227,.F.);
#227 = EDGE_CURVE('',#228,#230,#232,.T.);
#228 = VERTEX_POINT('',#229);
#229 = CARTESIAN_POINT('',(-2.,-40.,0.));
#230 = VERTEX_POINT('',#231);
#231 = CARTESIAN_POINT('',(2.,-40.,0.));
#232 = CIRCLE('',#233,2.);
#233 = AXIS2_PLACEMENT_3D('',#234,#235,#236);
#234 = CARTESIAN_POINT('',(8.881784197001E-15,-40.,0.));
#235 = DIRECTION('',(-2.22044604925E-16,-2.465190328816E-32,1.));
#236 = DIRECTION('',(-1.,-2.22044604925E-16,-2.22044604925E-16));
#237 = ORIENTED_EDGE('',*,*,#238,.F.);
#238 = EDGE_CURVE('',#230,#228,#239,.T.);
#239 = CIRCLE('',#240,2.);
#240 = AXIS2_PLACEMENT_3D('',#241,#242,#243);
#241 = CARTESIAN_POINT('',(8.881784197001E-15,-40.,0.));
#242 = DIRECTION('',(-2.22044604925E-16,-2.465190328816E-32,1.));
#243 = DIRECTION('',(-1.,-2.22044604925E-16,-2.22044604925E-16));
#244 = FACE_BOUND('',#245,.F.);
#245 = EDGE_LOOP('',(#246));
#246 = ORIENTED_EDGE('',*,*,#247,.F.);
#247 = EDGE_CURVE('',#248,#248,#250,.T.);
#248 = VERTEX_POINT('',#249);
#249 = CARTESIAN_POINT('',(15.,-17.32,0.));
#250 = CIRCLE('',#251,5.);
#251 = AXIS2_PLACEMENT_3D('',#252,#253,#254);
#252 = CARTESIAN_POINT('',(10.,-17.32,0.));
#253 = DIRECTION('',(0.,0.,1.));
#254 = DIRECTION('',(1.,0.,0.));
#255 = FACE_BOUND('',#256,.F.);
#256 = EDGE_LOOP('',(#257));
#257 = ORIENTED_EDGE('',*,*,#258,.F.);
#258 = EDGE_CURVE('',#259,#259,#261,.T.);
#259 = VERTEX_POINT('',#260);
#260 = CARTESIAN_POINT('',(27.98,-15.,0.));
#261 = CIRCLE('',#262,2.);
#262 = AXIS2_PLACEMENT_3D('',#263,#264,#265);
#263 = CARTESIAN_POINT('',(25.98,-15.,0.));
#264 = DIRECTION('',(0.,0.,1.));
#265 = DIRECTION('',(1.,0.,0.));
#266 = FACE_BOUND('',#267,.F.);
#267 = EDGE_LOOP('',(#268));
#268 = ORIENTED_EDGE('',*,*,#269,.F.);
#269 = EDGE_CURVE('',#270,#270,#272,.T.);
#270 = VERTEX_POINT('',#271);
#271 = CARTESIAN_POINT('',(36.64,-20.,0.));
#272 = CIRCLE('',#273,2.);
#273 = AXIS2_PLACEMENT_3D('',#274,#275,#276);
#274 = CARTESIAN_POINT('',(34.64,-20.,0.));
#275 = DIRECTION('',(0.,0.,1.));
#276 = DIRECTION('',(1.,0.,0.));
#277 = FACE_BOUND('',#278,.F.);
#278 = EDGE_LOOP('',(#279));
#279 = ORIENTED_EDGE('',*,*,#280,.F.);
#280 = EDGE_CURVE('',#281,#281,#283,.T.);
#281 = VERTEX_POINT('',#282);
#282 = CARTESIAN_POINT('',(-36.64,20.,0.));
#283 = CIRCLE('',#284,2.);
#284 = AXIS2_PLACEMENT_3D('',#285,#286,#287);
#285 = CARTESIAN_POINT('',(-34.64,20.,0.));
#286 = DIRECTION('',(-2.22044604925E-16,2.465190328816E-32,1.));
#287 = DIRECTION('',(-1.,2.22044604925E-16,-2.22044604925E-16));
#288 = FACE_BOUND('',#289,.F.);
#289 = EDGE_LOOP('',(#290));
#290 = ORIENTED_EDGE('',*,*,#291,.F.);
#291 = EDGE_CURVE('',#292,#292,#294,.T.);
#292 = VERTEX_POINT('',#293);
#293 = CARTESIAN_POINT('',(-27.98,15.,0.));
#294 = CIRCLE('',#295,2.);
#295 = AXIS2_PLACEMENT_3D('',#296,#297,#298);
#296 = CARTESIAN_POINT('',(-25.98,15.,0.));
#297 = DIRECTION('',(-2.22044604925E-16,2.465190328816E-32,1.));
#298 = DIRECTION('',(-1.,2.22044604925E-16,-2.22044604925E-16));
#299 = FACE_BOUND('',#300,.F.);
#300 = EDGE_LOOP('',(#301,#312));
#301 = ORIENTED_EDGE('',*,*,#302,.F.);
#302 = EDGE_CURVE('',#303,#305,#307,.T.);
#303 = VERTEX_POINT('',#304);
#304 = CARTESIAN_POINT('',(5.,0.,0.));
#305 = VERTEX_POINT('',#306);
#306 = CARTESIAN_POINT('',(-5.,1.274266980194E-13,0.));
#307 = CIRCLE('',#308,5.);
#308 = AXIS2_PLACEMENT_3D('',#309,#310,#311);
#309 = CARTESIAN_POINT('',(0.,0.,0.));
#310 = DIRECTION('',(0.,0.,1.));
#311 = DIRECTION('',(1.,0.,0.));
#312 = ORIENTED_EDGE('',*,*,#313,.F.);
#313 = EDGE_CURVE('',#305,#303,#314,.T.);
#314 = CIRCLE('',#315,5.);
#315 = AXIS2_PLACEMENT_3D('',#316,#317,#318);
#316 = CARTESIAN_POINT('',(0.,0.,0.));
#317 = DIRECTION('',(0.,0.,1.));
#318 = DIRECTION('',(1.,0.,0.));
#319 = FACE_BOUND('',#320,.F.);
#320 = EDGE_LOOP('',(#321));
#321 = ORIENTED_EDGE('',*,*,#322,.F.);
#322 = EDGE_CURVE('',#323,#323,#325,.T.);
#323 = VERTEX_POINT('',#324);
#324 = CARTESIAN_POINT('',(-15.,17.32,0.));
#325 = CIRCLE('',#326,5.);
#326 = AXIS2_PLACEMENT_3D('',#327,#328,#329);
#327 = CARTESIAN_POINT('',(-10.,17.32,0.));
#328 = DIRECTION('',(-2.22044604925E-16,2.465190328816E-32,1.));
#329 = DIRECTION('',(-1.,2.22044604925E-16,-2.22044604925E-16));
#330 = FACE_BOUND('',#331,.F.);
#331 = EDGE_LOOP('',(#332,#343));
#332 = ORIENTED_EDGE('',*,*,#333,.F.);
#333 = EDGE_CURVE('',#334,#336,#338,.T.);
#334 = VERTEX_POINT('',#335);
#335 = CARTESIAN_POINT('',(2.,30.,0.));
#336 = VERTEX_POINT('',#337);
#337 = CARTESIAN_POINT('',(-2.,30.,0.));
#338 = CIRCLE('',#339,2.);
#339 = AXIS2_PLACEMENT_3D('',#340,#341,#342);
#340 = CARTESIAN_POINT('',(0.,30.,0.));
#341 = DIRECTION('',(0.,0.,1.));
#342 = DIRECTION('',(1.,0.,0.));
#343 = ORIENTED_EDGE('',*,*,#344,.F.);
#344 = EDGE_CURVE('',#336,#334,#345,.T.);
#345 = CIRCLE('',#346,2.);
#346 = AXIS2_PLACEMENT_3D('',#347,#348,#349);
#347 = CARTESIAN_POINT('',(0.,30.,0.));
#348 = DIRECTION('',(0.,0.,1.));
#349 = DIRECTION('',(1.,0.,0.));
#350 = FACE_BOUND('',#351,.F.);
#351 = EDGE_LOOP('',(#352,#363));
#352 = ORIENTED_EDGE('',*,*,#353,.F.);
#353 = EDGE_CURVE('',#354,#356,#358,.T.);
#354 = VERTEX_POINT('',#355);
#355 = CARTESIAN_POINT('',(2.,40.,0.));
#356 = VERTEX_POINT('',#357);
#357 = CARTESIAN_POINT('',(-2.,40.,0.));
#358 = CIRCLE('',#359,2.);
#359 = AXIS2_PLACEMENT_3D('',#360,#361,#362);
#360 = CARTESIAN_POINT('',(0.,40.,0.));
#361 = DIRECTION('',(0.,0.,1.));
#362 = DIRECTION('',(1.,0.,0.));
#363 = ORIENTED_EDGE('',*,*,#364,.F.);
#364 = EDGE_CURVE('',#356,#354,#365,.T.);
#365 = CIRCLE('',#366,2.);
#366 = AXIS2_PLACEMENT_3D('',#367,#368,#369);
#367 = CARTESIAN_POINT('',(0.,40.,0.));
#368 = DIRECTION('',(0.,0.,1.));
#369 = DIRECTION('',(1.,0.,0.));
#370 = FACE_BOUND('',#371,.F.);
#371 = EDGE_LOOP('',(#372));
#372 = ORIENTED_EDGE('',*,*,#373,.F.);
#373 = EDGE_CURVE('',#374,#374,#376,.T.);
#374 = VERTEX_POINT('',#375);
#375 = CARTESIAN_POINT('',(15.,17.32,0.));
#376 = CIRCLE('',#377,5.);
#377 = AXIS2_PLACEMENT_3D('',#378,#379,#380);
#378 = CARTESIAN_POINT('',(10.,17.32,0.));
#379 = DIRECTION('',(0.,0.,1.));
#380 = DIRECTION('',(1.,0.,0.));
#381 = FACE_BOUND('',#382,.F.);
#382 = EDGE_LOOP('',(#383));
#383 = ORIENTED_EDGE('',*,*,#384,.F.);
#384 = EDGE_CURVE('',#385,#385,#387,.T.);
#385 = VERTEX_POINT('',#386);
#386 = CARTESIAN_POINT('',(25.,0.,0.));
#387 = CIRCLE('',#388,5.);
#388 = AXIS2_PLACEMENT_3D('',#389,#390,#391);
#389 = CARTESIAN_POINT('',(20.,0.,0.));
#390 = DIRECTION('',(0.,0.,1.));
#391 = DIRECTION('',(1.,0.,0.));
#392 = FACE_BOUND('',#393,.F.);
#393 = EDGE_LOOP('',(#394));
#394 = ORIENTED_EDGE('',*,*,#395,.F.);
#395 = EDGE_CURVE('',#396,#396,#398,.T.);
#396 = VERTEX_POINT('',#397);
#397 = CARTESIAN_POINT('',(27.98,15.,0.));
#398 = CIRCLE('',#399,2.);
#399 = AXIS2_PLACEMENT_3D('',#400,#401,#402);
#400 = CARTESIAN_POINT('',(25.98,15.,0.));
#401 = DIRECTION('',(0.,0.,1.));
#402 = DIRECTION('',(1.,0.,0.));
#403 = FACE_BOUND('',#404,.F.);
#404 = EDGE_LOOP('',(#405));
#405 = ORIENTED_EDGE('',*,*,#406,.F.);
#406 = EDGE_CURVE('',#407,#407,#409,.T.);
#407 = VERTEX_POINT('',#408);
#408 = CARTESIAN_POINT('',(36.64,20.,0.));
#409 = CIRCLE('',#410,2.);
#410 = AXIS2_PLACEMENT_3D('',#411,#412,#413);
#411 = CARTESIAN_POINT('',(34.64,20.,0.));
#412 = DIRECTION('',(0.,0.,1.));
#413 = DIRECTION('',(1.,0.,0.));
#414 = PLANE('',#415);
#415 = AXIS2_PLACEMENT_3D('',#416,#417,#418);
#416 = CARTESIAN_POINT('',(-3.764136278818E-15,-1.61343992693E-17,0.));
#417 = DIRECTION('',(0.,0.,1.));
#418 = DIRECTION('',(1.,0.,0.));
#419 = ADVANCED_FACE('',(#420),#439,.F.);
#420 = FACE_BOUND('',#421,.F.);
#421 = EDGE_LOOP('',(#422,#431,#437,#438));
#422 = ORIENTED_EDGE('',*,*,#423,.F.);
#423 = EDGE_CURVE('',#424,#41,#426,.T.);
#424 = VERTEX_POINT('',#425);
#425 = CARTESIAN_POINT('',(14.642527999973,44.134412579868,20.));
#426 = CIRCLE('',#427,9.5);
#427 = AXIS2_PLACEMENT_3D('',#428,#429,#430);
#428 = CARTESIAN_POINT('',(23.5,40.7,20.));
#429 = DIRECTION('',(0.,0.,1.));
#430 = DIRECTION('',(1.,0.,0.));
#431 = ORIENTED_EDGE('',*,*,#432,.T.);
#432 = EDGE_CURVE('',#424,#74,#433,.T.);
#433 = LINE('',#434,#435);
#434 = CARTESIAN_POINT('',(14.642527999974,44.134412579868,0.));
#435 = VECTOR('',#436,1.);
#436 = DIRECTION('',(-0.,-0.,-1.));
#437 = ORIENTED_EDGE('',*,*,#73,.T.);
#438 = ORIENTED_EDGE('',*,*,#49,.F.);
#439 = CYLINDRICAL_SURFACE('',#440,9.5);
#440 = AXIS2_PLACEMENT_3D('',#441,#442,#443);
#441 = CARTESIAN_POINT('',(23.5,40.7,20.));
#442 = DIRECTION('',(0.,0.,1.));
#443 = DIRECTION('',(1.,0.,0.));
#444 = ADVANCED_FACE('',(#445,#537,#548,#559,#570,#590,#610,#621,#632,
    #643,#654,#665,#676,#687,#707,#718,#729,#740,#751,#771),#791,.T.);
#445 = FACE_BOUND('',#446,.T.);
#446 = EDGE_LOOP('',(#447,#456,#457,#458,#467,#476,#485,#494,#503,#512,
    #521,#530));
#447 = ORIENTED_EDGE('',*,*,#448,.F.);
#448 = EDGE_CURVE('',#33,#449,#451,.T.);
#449 = VERTEX_POINT('',#450);
#450 = CARTESIAN_POINT('',(45.529569892473,-9.450305043034,20.));
#451 = CIRCLE('',#452,9.5);
#452 = AXIS2_PLACEMENT_3D('',#453,#454,#455);
#453 = CARTESIAN_POINT('',(46.5,0.,20.));
#454 = DIRECTION('',(0.,0.,1.));
#455 = DIRECTION('',(1.,0.,0.));
#456 = ORIENTED_EDGE('',*,*,#40,.T.);
#457 = ORIENTED_EDGE('',*,*,#423,.F.);
#458 = ORIENTED_EDGE('',*,*,#459,.T.);
#459 = EDGE_CURVE('',#424,#460,#462,.T.);
#460 = VERTEX_POINT('',#461);
#461 = CARTESIAN_POINT('',(-14.64252799997,44.134412579868,20.));
#462 = CIRCLE('',#463,46.5);
#463 = AXIS2_PLACEMENT_3D('',#464,#465,#466);
#464 = CARTESIAN_POINT('',(0.,0.,20.));
#465 = DIRECTION('',(0.,0.,1.));
#466 = DIRECTION('',(1.,0.,0.));
#467 = ORIENTED_EDGE('',*,*,#468,.T.);
#468 = EDGE_CURVE('',#460,#469,#471,.T.);
#469 = VERTEX_POINT('',#470);
#470 = CARTESIAN_POINT('',(-30.90261991241,34.745907421581,20.));
#471 = CIRCLE('',#472,9.5);
#472 = AXIS2_PLACEMENT_3D('',#473,#474,#475);
#473 = CARTESIAN_POINT('',(-23.5,40.7,20.));
#474 = DIRECTION('',(2.22044604925E-16,-2.465190328816E-32,-1.));
#475 = DIRECTION('',(-1.,2.22044604925E-16,-2.22044604925E-16));
#476 = ORIENTED_EDGE('',*,*,#477,.T.);
#477 = EDGE_CURVE('',#469,#478,#480,.T.);
#478 = VERTEX_POINT('',#479);
#479 = CARTESIAN_POINT('',(-45.52956989247,9.450305043035,20.));
#480 = CIRCLE('',#481,46.5);
#481 = AXIS2_PLACEMENT_3D('',#482,#483,#484);
#482 = CARTESIAN_POINT('',(0.,0.,20.));
#483 = DIRECTION('',(0.,0.,1.));
#484 = DIRECTION('',(1.,0.,0.));
#485 = ORIENTED_EDGE('',*,*,#486,.T.);
#486 = EDGE_CURVE('',#478,#487,#489,.T.);
#487 = VERTEX_POINT('',#488);
#488 = CARTESIAN_POINT('',(-45.52956989247,-9.450305043035,20.));
#489 = CIRCLE('',#490,9.5);
#490 = AXIS2_PLACEMENT_3D('',#491,#492,#493);
#491 = CARTESIAN_POINT('',(-46.5,1.032507412901E-14,20.));
#492 = DIRECTION('',(2.22044604925E-16,-2.465190328816E-32,-1.));
#493 = DIRECTION('',(-1.,2.22044604925E-16,-2.22044604925E-16));
#494 = ORIENTED_EDGE('',*,*,#495,.T.);
#495 = EDGE_CURVE('',#487,#496,#498,.T.);
#496 = VERTEX_POINT('',#497);
#497 = CARTESIAN_POINT('',(-30.90261991241,-34.74590742158,20.));
#498 = CIRCLE('',#499,46.5);
#499 = AXIS2_PLACEMENT_3D('',#500,#501,#502);
#500 = CARTESIAN_POINT('',(0.,0.,20.));
#501 = DIRECTION('',(0.,0.,1.));
#502 = DIRECTION('',(1.,0.,0.));
#503 = ORIENTED_EDGE('',*,*,#504,.F.);
#504 = EDGE_CURVE('',#505,#496,#507,.T.);
#505 = VERTEX_POINT('',#506);
#506 = CARTESIAN_POINT('',(-14.64252799997,-44.13441257986,20.));
#507 = CIRCLE('',#508,9.5);
#508 = AXIS2_PLACEMENT_3D('',#509,#510,#511);
#509 = CARTESIAN_POINT('',(-23.5,-40.7,20.));
#510 = DIRECTION('',(-2.22044604925E-16,-2.465190328816E-32,1.));
#511 = DIRECTION('',(-1.,-2.22044604925E-16,-2.22044604925E-16));
#512 = ORIENTED_EDGE('',*,*,#513,.T.);
#513 = EDGE_CURVE('',#505,#514,#516,.T.);
#514 = VERTEX_POINT('',#515);
#515 = CARTESIAN_POINT('',(14.642527999974,-44.13441257986,20.));
#516 = CIRCLE('',#517,46.5);
#517 = AXIS2_PLACEMENT_3D('',#518,#519,#520);
#518 = CARTESIAN_POINT('',(0.,0.,20.));
#519 = DIRECTION('',(0.,0.,1.));
#520 = DIRECTION('',(1.,0.,0.));
#521 = ORIENTED_EDGE('',*,*,#522,.T.);
#522 = EDGE_CURVE('',#514,#523,#525,.T.);
#523 = VERTEX_POINT('',#524);
#524 = CARTESIAN_POINT('',(30.902619912411,-34.74590742158,20.));
#525 = CIRCLE('',#526,9.5);
#526 = AXIS2_PLACEMENT_3D('',#527,#528,#529);
#527 = CARTESIAN_POINT('',(23.5,-40.7,20.));
#528 = DIRECTION('',(0.,0.,-1.));
#529 = DIRECTION('',(1.,0.,0.));
#530 = ORIENTED_EDGE('',*,*,#531,.T.);
#531 = EDGE_CURVE('',#523,#449,#532,.T.);
#532 = CIRCLE('',#533,46.5);
#533 = AXIS2_PLACEMENT_3D('',#534,#535,#536);
#534 = CARTESIAN_POINT('',(0.,0.,20.));
#535 = DIRECTION('',(0.,0.,1.));
#536 = DIRECTION('',(1.,0.,0.));
#537 = FACE_BOUND('',#538,.T.);
#538 = EDGE_LOOP('',(#539));
#539 = ORIENTED_EDGE('',*,*,#540,.F.);
#540 = EDGE_CURVE('',#541,#541,#543,.T.);
#541 = VERTEX_POINT('',#542);
#542 = CARTESIAN_POINT('',(-36.64,-20.,20.));
#543 = CIRCLE('',#544,2.);
#544 = AXIS2_PLACEMENT_3D('',#545,#546,#547);
#545 = CARTESIAN_POINT('',(-34.64,-20.,20.));
#546 = DIRECTION('',(-2.22044604925E-16,-2.465190328816E-32,1.));
#547 = DIRECTION('',(-1.,-2.22044604925E-16,-2.22044604925E-16));
#548 = FACE_BOUND('',#549,.T.);
#549 = EDGE_LOOP('',(#550));
#550 = ORIENTED_EDGE('',*,*,#551,.F.);
#551 = EDGE_CURVE('',#552,#552,#554,.T.);
#552 = VERTEX_POINT('',#553);
#553 = CARTESIAN_POINT('',(-27.98,-15.,20.));
#554 = CIRCLE('',#555,2.);
#555 = AXIS2_PLACEMENT_3D('',#556,#557,#558);
#556 = CARTESIAN_POINT('',(-25.98,-15.,20.));
#557 = DIRECTION('',(-2.22044604925E-16,-2.465190328816E-32,1.));
#558 = DIRECTION('',(-1.,-2.22044604925E-16,-2.22044604925E-16));
#559 = FACE_BOUND('',#560,.T.);
#560 = EDGE_LOOP('',(#561));
#561 = ORIENTED_EDGE('',*,*,#562,.F.);
#562 = EDGE_CURVE('',#563,#563,#565,.T.);
#563 = VERTEX_POINT('',#564);
#564 = CARTESIAN_POINT('',(-15.,-17.32,20.));
#565 = CIRCLE('',#566,5.);
#566 = AXIS2_PLACEMENT_3D('',#567,#568,#569);
#567 = CARTESIAN_POINT('',(-10.,-17.32,20.));
#568 = DIRECTION('',(-2.22044604925E-16,-2.465190328816E-32,1.));
#569 = DIRECTION('',(-1.,-2.22044604925E-16,-2.22044604925E-16));
#570 = FACE_BOUND('',#571,.T.);
#571 = EDGE_LOOP('',(#572,#583));
#572 = ORIENTED_EDGE('',*,*,#573,.T.);
#573 = EDGE_CURVE('',#574,#576,#578,.T.);
#574 = VERTEX_POINT('',#575);
#575 = CARTESIAN_POINT('',(-2.,-40.,20.));
#576 = VERTEX_POINT('',#577);
#577 = CARTESIAN_POINT('',(2.,-40.,20.));
#578 = CIRCLE('',#579,2.);
#579 = AXIS2_PLACEMENT_3D('',#580,#581,#582);
#580 = CARTESIAN_POINT('',(0.,-40.,20.));
#581 = DIRECTION('',(0.,0.,-1.));
#582 = DIRECTION('',(1.,0.,0.));
#583 = ORIENTED_EDGE('',*,*,#584,.T.);
#584 = EDGE_CURVE('',#576,#574,#585,.T.);
#585 = CIRCLE('',#586,2.);
#586 = AXIS2_PLACEMENT_3D('',#587,#588,#589);
#587 = CARTESIAN_POINT('',(0.,-40.,20.));
#588 = DIRECTION('',(0.,0.,-1.));
#589 = DIRECTION('',(1.,0.,0.));
#590 = FACE_BOUND('',#591,.T.);
#591 = EDGE_LOOP('',(#592,#603));
#592 = ORIENTED_EDGE('',*,*,#593,.T.);
#593 = EDGE_CURVE('',#594,#596,#598,.T.);
#594 = VERTEX_POINT('',#595);
#595 = CARTESIAN_POINT('',(-2.,-30.,20.));
#596 = VERTEX_POINT('',#597);
#597 = CARTESIAN_POINT('',(2.,-30.,20.));
#598 = CIRCLE('',#599,2.);
#599 = AXIS2_PLACEMENT_3D('',#600,#601,#602);
#600 = CARTESIAN_POINT('',(0.,-30.,20.));
#601 = DIRECTION('',(0.,0.,-1.));
#602 = DIRECTION('',(1.,0.,0.));
#603 = ORIENTED_EDGE('',*,*,#604,.T.);
#604 = EDGE_CURVE('',#596,#594,#605,.T.);
#605 = CIRCLE('',#606,2.);
#606 = AXIS2_PLACEMENT_3D('',#607,#608,#609);
#607 = CARTESIAN_POINT('',(0.,-30.,20.));
#608 = DIRECTION('',(0.,0.,-1.));
#609 = DIRECTION('',(1.,0.,0.));
#610 = FACE_BOUND('',#611,.T.);
#611 = EDGE_LOOP('',(#612));
#612 = ORIENTED_EDGE('',*,*,#613,.T.);
#613 = EDGE_CURVE('',#614,#614,#616,.T.);
#614 = VERTEX_POINT('',#615);
#615 = CARTESIAN_POINT('',(15.,-17.32,20.));
#616 = CIRCLE('',#617,5.);
#617 = AXIS2_PLACEMENT_3D('',#618,#619,#620);
#618 = CARTESIAN_POINT('',(10.,-17.32,20.));
#619 = DIRECTION('',(0.,0.,-1.));
#620 = DIRECTION('',(1.,0.,0.));
#621 = FACE_BOUND('',#622,.T.);
#622 = EDGE_LOOP('',(#623));
#623 = ORIENTED_EDGE('',*,*,#624,.T.);
#624 = EDGE_CURVE('',#625,#625,#627,.T.);
#625 = VERTEX_POINT('',#626);
#626 = CARTESIAN_POINT('',(27.98,-15.,20.));
#627 = CIRCLE('',#628,2.);
#628 = AXIS2_PLACEMENT_3D('',#629,#630,#631);
#629 = CARTESIAN_POINT('',(25.98,-15.,20.));
#630 = DIRECTION('',(0.,0.,-1.));
#631 = DIRECTION('',(1.,0.,0.));
#632 = FACE_BOUND('',#633,.T.);
#633 = EDGE_LOOP('',(#634));
#634 = ORIENTED_EDGE('',*,*,#635,.T.);
#635 = EDGE_CURVE('',#636,#636,#638,.T.);
#636 = VERTEX_POINT('',#637);
#637 = CARTESIAN_POINT('',(36.64,-20.,20.));
#638 = CIRCLE('',#639,2.);
#639 = AXIS2_PLACEMENT_3D('',#640,#641,#642);
#640 = CARTESIAN_POINT('',(34.64,-20.,20.));
#641 = DIRECTION('',(0.,0.,-1.));
#642 = DIRECTION('',(1.,0.,0.));
#643 = FACE_BOUND('',#644,.T.);
#644 = EDGE_LOOP('',(#645));
#645 = ORIENTED_EDGE('',*,*,#646,.T.);
#646 = EDGE_CURVE('',#647,#647,#649,.T.);
#647 = VERTEX_POINT('',#648);
#648 = CARTESIAN_POINT('',(-25.,0.,20.));
#649 = CIRCLE('',#650,5.);
#650 = AXIS2_PLACEMENT_3D('',#651,#652,#653);
#651 = CARTESIAN_POINT('',(-20.,4.440892098501E-15,20.));
#652 = DIRECTION('',(2.22044604925E-16,-2.465190328816E-32,-1.));
#653 = DIRECTION('',(-1.,2.22044604925E-16,-2.22044604925E-16));
#654 = FACE_BOUND('',#655,.T.);
#655 = EDGE_LOOP('',(#656));
#656 = ORIENTED_EDGE('',*,*,#657,.T.);
#657 = EDGE_CURVE('',#658,#658,#660,.T.);
#658 = VERTEX_POINT('',#659);
#659 = CARTESIAN_POINT('',(-36.64,20.,20.));
#660 = CIRCLE('',#661,2.);
#661 = AXIS2_PLACEMENT_3D('',#662,#663,#664);
#662 = CARTESIAN_POINT('',(-34.64,20.,20.));
#663 = DIRECTION('',(2.22044604925E-16,-2.465190328816E-32,-1.));
#664 = DIRECTION('',(-1.,2.22044604925E-16,-2.22044604925E-16));
#665 = FACE_BOUND('',#666,.T.);
#666 = EDGE_LOOP('',(#667));
#667 = ORIENTED_EDGE('',*,*,#668,.T.);
#668 = EDGE_CURVE('',#669,#669,#671,.T.);
#669 = VERTEX_POINT('',#670);
#670 = CARTESIAN_POINT('',(-27.98,15.,20.));
#671 = CIRCLE('',#672,2.);
#672 = AXIS2_PLACEMENT_3D('',#673,#674,#675);
#673 = CARTESIAN_POINT('',(-25.98,15.,20.));
#674 = DIRECTION('',(2.22044604925E-16,-2.465190328816E-32,-1.));
#675 = DIRECTION('',(-1.,2.22044604925E-16,-2.22044604925E-16));
#676 = FACE_BOUND('',#677,.T.);
#677 = EDGE_LOOP('',(#678));
#678 = ORIENTED_EDGE('',*,*,#679,.T.);
#679 = EDGE_CURVE('',#680,#680,#682,.T.);
#680 = VERTEX_POINT('',#681);
#681 = CARTESIAN_POINT('',(-15.,17.32,20.));
#682 = CIRCLE('',#683,5.);
#683 = AXIS2_PLACEMENT_3D('',#684,#685,#686);
#684 = CARTESIAN_POINT('',(-10.,17.32,20.));
#685 = DIRECTION('',(2.22044604925E-16,-2.465190328816E-32,-1.));
#686 = DIRECTION('',(-1.,2.22044604925E-16,-2.22044604925E-16));
#687 = FACE_BOUND('',#688,.T.);
#688 = EDGE_LOOP('',(#689,#700));
#689 = ORIENTED_EDGE('',*,*,#690,.F.);
#690 = EDGE_CURVE('',#691,#693,#695,.T.);
#691 = VERTEX_POINT('',#692);
#692 = CARTESIAN_POINT('',(5.,0.,20.));
#693 = VERTEX_POINT('',#694);
#694 = CARTESIAN_POINT('',(-5.,0.,20.));
#695 = CIRCLE('',#696,5.);
#696 = AXIS2_PLACEMENT_3D('',#697,#698,#699);
#697 = CARTESIAN_POINT('',(0.,0.,20.));
#698 = DIRECTION('',(0.,0.,1.));
#699 = DIRECTION('',(1.,0.,0.));
#700 = ORIENTED_EDGE('',*,*,#701,.F.);
#701 = EDGE_CURVE('',#693,#691,#702,.T.);
#702 = CIRCLE('',#703,5.);
#703 = AXIS2_PLACEMENT_3D('',#704,#705,#706);
#704 = CARTESIAN_POINT('',(0.,0.,20.));
#705 = DIRECTION('',(0.,0.,1.));
#706 = DIRECTION('',(1.,0.,0.));
#707 = FACE_BOUND('',#708,.T.);
#708 = EDGE_LOOP('',(#709));
#709 = ORIENTED_EDGE('',*,*,#710,.F.);
#710 = EDGE_CURVE('',#711,#711,#713,.T.);
#711 = VERTEX_POINT('',#712);
#712 = CARTESIAN_POINT('',(15.,17.32,20.));
#713 = CIRCLE('',#714,5.);
#714 = AXIS2_PLACEMENT_3D('',#715,#716,#717);
#715 = CARTESIAN_POINT('',(10.,17.32,20.));
#716 = DIRECTION('',(0.,0.,1.));
#717 = DIRECTION('',(1.,0.,0.));
#718 = FACE_BOUND('',#719,.T.);
#719 = EDGE_LOOP('',(#720));
#720 = ORIENTED_EDGE('',*,*,#721,.F.);
#721 = EDGE_CURVE('',#722,#722,#724,.T.);
#722 = VERTEX_POINT('',#723);
#723 = CARTESIAN_POINT('',(25.,0.,20.));
#724 = CIRCLE('',#725,5.);
#725 = AXIS2_PLACEMENT_3D('',#726,#727,#728);
#726 = CARTESIAN_POINT('',(20.,0.,20.));
#727 = DIRECTION('',(0.,0.,1.));
#728 = DIRECTION('',(1.,0.,0.));
#729 = FACE_BOUND('',#730,.T.);
#730 = EDGE_LOOP('',(#731));
#731 = ORIENTED_EDGE('',*,*,#732,.F.);
#732 = EDGE_CURVE('',#733,#733,#735,.T.);
#733 = VERTEX_POINT('',#734);
#734 = CARTESIAN_POINT('',(27.98,15.,20.));
#735 = CIRCLE('',#736,2.);
#736 = AXIS2_PLACEMENT_3D('',#737,#738,#739);
#737 = CARTESIAN_POINT('',(25.98,15.,20.));
#738 = DIRECTION('',(0.,0.,1.));
#739 = DIRECTION('',(1.,0.,0.));
#740 = FACE_BOUND('',#741,.T.);
#741 = EDGE_LOOP('',(#742));
#742 = ORIENTED_EDGE('',*,*,#743,.F.);
#743 = EDGE_CURVE('',#744,#744,#746,.T.);
#744 = VERTEX_POINT('',#745);
#745 = CARTESIAN_POINT('',(36.64,20.,20.));
#746 = CIRCLE('',#747,2.);
#747 = AXIS2_PLACEMENT_3D('',#748,#749,#750);
#748 = CARTESIAN_POINT('',(34.64,20.,20.));
#749 = DIRECTION('',(0.,0.,1.));
#750 = DIRECTION('',(1.,0.,0.));
#751 = FACE_BOUND('',#752,.T.);
#752 = EDGE_LOOP('',(#753,#764));
#753 = ORIENTED_EDGE('',*,*,#754,.F.);
#754 = EDGE_CURVE('',#755,#757,#759,.T.);
#755 = VERTEX_POINT('',#756);
#756 = CARTESIAN_POINT('',(2.,30.,20.));
#757 = VERTEX_POINT('',#758);
#758 = CARTESIAN_POINT('',(-2.,30.,20.));
#759 = CIRCLE('',#760,2.);
#760 = AXIS2_PLACEMENT_3D('',#761,#762,#763);
#761 = CARTESIAN_POINT('',(0.,30.,20.));
#762 = DIRECTION('',(0.,0.,1.));
#763 = DIRECTION('',(1.,0.,0.));
#764 = ORIENTED_EDGE('',*,*,#765,.F.);
#765 = EDGE_CURVE('',#757,#755,#766,.T.);
#766 = CIRCLE('',#767,2.);
#767 = AXIS2_PLACEMENT_3D('',#768,#769,#770);
#768 = CARTESIAN_POINT('',(0.,30.,20.));
#769 = DIRECTION('',(0.,0.,1.));
#770 = DIRECTION('',(1.,0.,0.));
#771 = FACE_BOUND('',#772,.T.);
#772 = EDGE_LOOP('',(#773,#784));
#773 = ORIENTED_EDGE('',*,*,#774,.F.);
#774 = EDGE_CURVE('',#775,#777,#779,.T.);
#775 = VERTEX_POINT('',#776);
#776 = CARTESIAN_POINT('',(2.,40.,20.));
#777 = VERTEX_POINT('',#778);
#778 = CARTESIAN_POINT('',(-2.,40.,20.));
#779 = CIRCLE('',#780,2.);
#780 = AXIS2_PLACEMENT_3D('',#781,#782,#783);
#781 = CARTESIAN_POINT('',(0.,40.,20.));
#782 = DIRECTION('',(0.,0.,1.));
#783 = DIRECTION('',(1.,0.,0.));
#784 = ORIENTED_EDGE('',*,*,#785,.F.);
#785 = EDGE_CURVE('',#777,#775,#786,.T.);
#786 = CIRCLE('',#787,2.);
#787 = AXIS2_PLACEMENT_3D('',#788,#789,#790);
#788 = CARTESIAN_POINT('',(0.,40.,20.));
#789 = DIRECTION('',(0.,0.,1.));
#790 = DIRECTION('',(1.,0.,0.));
#791 = PLANE('',#792);
#792 = AXIS2_PLACEMENT_3D('',#793,#794,#795);
#793 = CARTESIAN_POINT('',(-3.764136278818E-15,-1.61343992693E-17,20.));
#794 = DIRECTION('',(0.,0.,1.));
#795 = DIRECTION('',(1.,0.,0.));
#796 = ADVANCED_FACE('',(#797),#808,.F.);
#797 = FACE_BOUND('',#798,.F.);
#798 = EDGE_LOOP('',(#799,#800,#801,#802));
#799 = ORIENTED_EDGE('',*,*,#448,.F.);
#800 = ORIENTED_EDGE('',*,*,#32,.T.);
#801 = ORIENTED_EDGE('',*,*,#63,.T.);
#802 = ORIENTED_EDGE('',*,*,#803,.F.);
#803 = EDGE_CURVE('',#449,#64,#804,.T.);
#804 = LINE('',#805,#806);
#805 = CARTESIAN_POINT('',(45.529569892473,-9.450305043035,0.));
#806 = VECTOR('',#807,1.);
#807 = DIRECTION('',(-0.,-0.,-1.));
#808 = CYLINDRICAL_SURFACE('',#809,9.5);
#809 = AXIS2_PLACEMENT_3D('',#810,#811,#812);
#810 = CARTESIAN_POINT('',(46.5,0.,20.));
#811 = DIRECTION('',(0.,0.,1.));
#812 = DIRECTION('',(1.,0.,0.));
#813 = ADVANCED_FACE('',(#814),#825,.T.);
#814 = FACE_BOUND('',#815,.F.);
#815 = EDGE_LOOP('',(#816,#817,#818,#819));
#816 = ORIENTED_EDGE('',*,*,#531,.T.);
#817 = ORIENTED_EDGE('',*,*,#803,.T.);
#818 = ORIENTED_EDGE('',*,*,#154,.F.);
#819 = ORIENTED_EDGE('',*,*,#820,.F.);
#820 = EDGE_CURVE('',#523,#146,#821,.T.);
#821 = LINE('',#822,#823);
#822 = CARTESIAN_POINT('',(30.902619912411,-34.74590742158,0.));
#823 = VECTOR('',#824,1.);
#824 = DIRECTION('',(-0.,-0.,-1.));
#825 = CYLINDRICAL_SURFACE('',#826,46.5);
#826 = AXIS2_PLACEMENT_3D('',#827,#828,#829);
#827 = CARTESIAN_POINT('',(0.,0.,0.));
#828 = DIRECTION('',(-0.,-0.,-1.));
#829 = DIRECTION('',(1.,0.,0.));
#830 = ADVANCED_FACE('',(#831),#842,.F.);
#831 = FACE_BOUND('',#832,.T.);
#832 = EDGE_LOOP('',(#833,#834,#840,#841));
#833 = ORIENTED_EDGE('',*,*,#522,.F.);
#834 = ORIENTED_EDGE('',*,*,#835,.T.);
#835 = EDGE_CURVE('',#514,#137,#836,.T.);
#836 = LINE('',#837,#838);
#837 = CARTESIAN_POINT('',(14.642527999974,-44.13441257986,0.));
#838 = VECTOR('',#839,1.);
#839 = DIRECTION('',(-0.,-0.,-1.));
#840 = ORIENTED_EDGE('',*,*,#145,.F.);
#841 = ORIENTED_EDGE('',*,*,#820,.F.);
#842 = CYLINDRICAL_SURFACE('',#843,9.5);
#843 = AXIS2_PLACEMENT_3D('',#844,#845,#846);
#844 = CARTESIAN_POINT('',(23.5,-40.7,20.));
#845 = DIRECTION('',(0.,0.,1.));
#846 = DIRECTION('',(1.,0.,0.));
#847 = ADVANCED_FACE('',(#848),#859,.T.);
#848 = FACE_BOUND('',#849,.F.);
#849 = EDGE_LOOP('',(#850,#851,#852,#853));
#850 = ORIENTED_EDGE('',*,*,#513,.T.);
#851 = ORIENTED_EDGE('',*,*,#835,.T.);
#852 = ORIENTED_EDGE('',*,*,#136,.F.);
#853 = ORIENTED_EDGE('',*,*,#854,.F.);
#854 = EDGE_CURVE('',#505,#128,#855,.T.);
#855 = LINE('',#856,#857);
#856 = CARTESIAN_POINT('',(-14.64252799997,-44.13441257986,0.));
#857 = VECTOR('',#858,1.);
#858 = DIRECTION('',(-0.,-0.,-1.));
#859 = CYLINDRICAL_SURFACE('',#860,46.5);
#860 = AXIS2_PLACEMENT_3D('',#861,#862,#863);
#861 = CARTESIAN_POINT('',(0.,0.,0.));
#862 = DIRECTION('',(-0.,-0.,-1.));
#863 = DIRECTION('',(1.,0.,0.));
#864 = ADVANCED_FACE('',(#865),#876,.F.);
#865 = FACE_BOUND('',#866,.F.);
#866 = EDGE_LOOP('',(#867,#868,#869,#870));
#867 = ORIENTED_EDGE('',*,*,#504,.F.);
#868 = ORIENTED_EDGE('',*,*,#854,.T.);
#869 = ORIENTED_EDGE('',*,*,#127,.T.);
#870 = ORIENTED_EDGE('',*,*,#871,.F.);
#871 = EDGE_CURVE('',#496,#119,#872,.T.);
#872 = LINE('',#873,#874);
#873 = CARTESIAN_POINT('',(-30.90261991241,-34.74590742158,0.));
#874 = VECTOR('',#875,1.);
#875 = DIRECTION('',(-0.,-0.,-1.));
#876 = CYLINDRICAL_SURFACE('',#877,9.5);
#877 = AXIS2_PLACEMENT_3D('',#878,#879,#880);
#878 = CARTESIAN_POINT('',(-23.5,-40.7,20.));
#879 = DIRECTION('',(-2.22044604925E-16,-2.465190328816E-32,1.));
#880 = DIRECTION('',(-1.,-2.22044604925E-16,-2.22044604925E-16));
#881 = ADVANCED_FACE('',(#882),#893,.T.);
#882 = FACE_BOUND('',#883,.F.);
#883 = EDGE_LOOP('',(#884,#885,#886,#887));
#884 = ORIENTED_EDGE('',*,*,#495,.T.);
#885 = ORIENTED_EDGE('',*,*,#871,.T.);
#886 = ORIENTED_EDGE('',*,*,#118,.F.);
#887 = ORIENTED_EDGE('',*,*,#888,.F.);
#888 = EDGE_CURVE('',#487,#110,#889,.T.);
#889 = LINE('',#890,#891);
#890 = CARTESIAN_POINT('',(-45.52956989247,-9.450305043035,0.));
#891 = VECTOR('',#892,1.);
#892 = DIRECTION('',(-0.,-0.,-1.));
#893 = CYLINDRICAL_SURFACE('',#894,46.5);
#894 = AXIS2_PLACEMENT_3D('',#895,#896,#897);
#895 = CARTESIAN_POINT('',(0.,0.,0.));
#896 = DIRECTION('',(-0.,-0.,-1.));
#897 = DIRECTION('',(1.,0.,0.));
#898 = ADVANCED_FACE('',(#899),#910,.F.);
#899 = FACE_BOUND('',#900,.T.);
#900 = EDGE_LOOP('',(#901,#902,#908,#909));
#901 = ORIENTED_EDGE('',*,*,#486,.F.);
#902 = ORIENTED_EDGE('',*,*,#903,.T.);
#903 = EDGE_CURVE('',#478,#101,#904,.T.);
#904 = LINE('',#905,#906);
#905 = CARTESIAN_POINT('',(-45.52956989247,9.450305043035,0.));
#906 = VECTOR('',#907,1.);
#907 = DIRECTION('',(-0.,-0.,-1.));
#908 = ORIENTED_EDGE('',*,*,#109,.F.);
#909 = ORIENTED_EDGE('',*,*,#888,.F.);
#910 = CYLINDRICAL_SURFACE('',#911,9.5);
#911 = AXIS2_PLACEMENT_3D('',#912,#913,#914);
#912 = CARTESIAN_POINT('',(-46.5,1.032507412901E-14,20.));
#913 = DIRECTION('',(-2.22044604925E-16,2.465190328816E-32,1.));
#914 = DIRECTION('',(-1.,2.22044604925E-16,-2.22044604925E-16));
#915 = ADVANCED_FACE('',(#916),#927,.T.);
#916 = FACE_BOUND('',#917,.F.);
#917 = EDGE_LOOP('',(#918,#919,#920,#921));
#918 = ORIENTED_EDGE('',*,*,#477,.T.);
#919 = ORIENTED_EDGE('',*,*,#903,.T.);
#920 = ORIENTED_EDGE('',*,*,#100,.F.);
#921 = ORIENTED_EDGE('',*,*,#922,.F.);
#922 = EDGE_CURVE('',#469,#92,#923,.T.);
#923 = LINE('',#924,#925);
#924 = CARTESIAN_POINT('',(-30.90261991241,34.745907421581,0.));
#925 = VECTOR('',#926,1.);
#926 = DIRECTION('',(-0.,-0.,-1.));
#927 = CYLINDRICAL_SURFACE('',#928,46.5);
#928 = AXIS2_PLACEMENT_3D('',#929,#930,#931);
#929 = CARTESIAN_POINT('',(0.,0.,0.));
#930 = DIRECTION('',(-0.,-0.,-1.));
#931 = DIRECTION('',(1.,0.,0.));
#932 = ADVANCED_FACE('',(#933),#944,.F.);
#933 = FACE_BOUND('',#934,.T.);
#934 = EDGE_LOOP('',(#935,#936,#942,#943));
#935 = ORIENTED_EDGE('',*,*,#468,.F.);
#936 = ORIENTED_EDGE('',*,*,#937,.T.);
#937 = EDGE_CURVE('',#460,#83,#938,.T.);
#938 = LINE('',#939,#940);
#939 = CARTESIAN_POINT('',(-14.64252799997,44.134412579868,0.));
#940 = VECTOR('',#941,1.);
#941 = DIRECTION('',(-0.,-0.,-1.));
#942 = ORIENTED_EDGE('',*,*,#91,.F.);
#943 = ORIENTED_EDGE('',*,*,#922,.F.);
#944 = CYLINDRICAL_SURFACE('',#945,9.5);
#945 = AXIS2_PLACEMENT_3D('',#946,#947,#948);
#946 = CARTESIAN_POINT('',(-23.5,40.7,20.));
#947 = DIRECTION('',(-2.22044604925E-16,2.465190328816E-32,1.));
#948 = DIRECTION('',(-1.,2.22044604925E-16,-2.22044604925E-16));
#949 = ADVANCED_FACE('',(#950),#956,.T.);
#950 = FACE_BOUND('',#951,.F.);
#951 = EDGE_LOOP('',(#952,#953,#954,#955));
#952 = ORIENTED_EDGE('',*,*,#459,.T.);
#953 = ORIENTED_EDGE('',*,*,#937,.T.);
#954 = ORIENTED_EDGE('',*,*,#82,.F.);
#955 = ORIENTED_EDGE('',*,*,#432,.F.);
#956 = CYLINDRICAL_SURFACE('',#957,46.5);
#957 = AXIS2_PLACEMENT_3D('',#958,#959,#960);
#958 = CARTESIAN_POINT('',(0.,0.,0.));
#959 = DIRECTION('',(-0.,-0.,-1.));
#960 = DIRECTION('',(1.,0.,0.));
#961 = ADVANCED_FACE('',(#962),#973,.F.);
#962 = FACE_BOUND('',#963,.F.);
#963 = EDGE_LOOP('',(#964,#965,#971,#972));
#964 = ORIENTED_EDGE('',*,*,#540,.F.);
#965 = ORIENTED_EDGE('',*,*,#966,.T.);
#966 = EDGE_CURVE('',#541,#184,#967,.T.);
#967 = LINE('',#968,#969);
#968 = CARTESIAN_POINT('',(-36.64,-20.,20.));
#969 = VECTOR('',#970,1.);
#970 = DIRECTION('',(2.22044604925E-16,2.465190328816E-32,-1.));
#971 = ORIENTED_EDGE('',*,*,#183,.T.);
#972 = ORIENTED_EDGE('',*,*,#966,.F.);
#973 = CYLINDRICAL_SURFACE('',#974,2.);
#974 = AXIS2_PLACEMENT_3D('',#975,#976,#977);
#975 = CARTESIAN_POINT('',(-34.64,-20.,20.));
#976 = DIRECTION('',(-2.22044604925E-16,-2.465190328816E-32,1.));
#977 = DIRECTION('',(-1.,-2.22044604925E-16,-2.22044604925E-16));
#978 = ADVANCED_FACE('',(#979),#990,.F.);
#979 = FACE_BOUND('',#980,.F.);
#980 = EDGE_LOOP('',(#981,#982,#988,#989));
#981 = ORIENTED_EDGE('',*,*,#551,.F.);
#982 = ORIENTED_EDGE('',*,*,#983,.T.);
#983 = EDGE_CURVE('',#552,#195,#984,.T.);
#984 = LINE('',#985,#986);
#985 = CARTESIAN_POINT('',(-27.98,-15.,20.));
#986 = VECTOR('',#987,1.);
#987 = DIRECTION('',(2.22044604925E-16,2.465190328816E-32,-1.));
#988 = ORIENTED_EDGE('',*,*,#194,.T.);
#989 = ORIENTED_EDGE('',*,*,#983,.F.);
#990 = CYLINDRICAL_SURFACE('',#991,2.);
#991 = AXIS2_PLACEMENT_3D('',#992,#993,#994);
#992 = CARTESIAN_POINT('',(-25.98,-15.,20.));
#993 = DIRECTION('',(-2.22044604925E-16,-2.465190328816E-32,1.));
#994 = DIRECTION('',(-1.,-2.22044604925E-16,-2.22044604925E-16));
#995 = ADVANCED_FACE('',(#996),#1007,.F.);
#996 = FACE_BOUND('',#997,.T.);
#997 = EDGE_LOOP('',(#998,#999,#1005,#1006));
#998 = ORIENTED_EDGE('',*,*,#646,.F.);
#999 = ORIENTED_EDGE('',*,*,#1000,.T.);
#1000 = EDGE_CURVE('',#647,#206,#1001,.T.);
#1001 = LINE('',#1002,#1003);
#1002 = CARTESIAN_POINT('',(-25.,5.551115123126E-15,20.));
#1003 = VECTOR('',#1004,1.);
#1004 = DIRECTION('',(2.22044604925E-16,-2.465190328816E-32,-1.));
#1005 = ORIENTED_EDGE('',*,*,#205,.F.);
#1006 = ORIENTED_EDGE('',*,*,#1000,.F.);
#1007 = CYLINDRICAL_SURFACE('',#1008,5.);
#1008 = AXIS2_PLACEMENT_3D('',#1009,#1010,#1011);
#1009 = CARTESIAN_POINT('',(-20.,4.440892098501E-15,20.));
#1010 = DIRECTION('',(-2.22044604925E-16,2.465190328816E-32,1.));
#1011 = DIRECTION('',(-1.,2.22044604925E-16,-2.22044604925E-16));
#1012 = ADVANCED_FACE('',(#1013),#1024,.F.);
#1013 = FACE_BOUND('',#1014,.F.);
#1014 = EDGE_LOOP('',(#1015,#1016,#1022,#1023));
#1015 = ORIENTED_EDGE('',*,*,#562,.F.);
#1016 = ORIENTED_EDGE('',*,*,#1017,.T.);
#1017 = EDGE_CURVE('',#563,#217,#1018,.T.);
#1018 = LINE('',#1019,#1020);
#1019 = CARTESIAN_POINT('',(-15.,-17.32,20.));
#1020 = VECTOR('',#1021,1.);
#1021 = DIRECTION('',(2.22044604925E-16,2.465190328816E-32,-1.));
#1022 = ORIENTED_EDGE('',*,*,#216,.T.);
#1023 = ORIENTED_EDGE('',*,*,#1017,.F.);
#1024 = CYLINDRICAL_SURFACE('',#1025,5.);
#1025 = AXIS2_PLACEMENT_3D('',#1026,#1027,#1028);
#1026 = CARTESIAN_POINT('',(-10.,-17.32,20.));
#1027 = DIRECTION('',(-2.22044604925E-16,-2.465190328816E-32,1.));
#1028 = DIRECTION('',(-1.,-2.22044604925E-16,-2.22044604925E-16));
#1029 = ADVANCED_FACE('',(#1030),#1041,.F.);
#1030 = FACE_BOUND('',#1031,.T.);
#1031 = EDGE_LOOP('',(#1032,#1033,#1039,#1040));
#1032 = ORIENTED_EDGE('',*,*,#613,.F.);
#1033 = ORIENTED_EDGE('',*,*,#1034,.T.);
#1034 = EDGE_CURVE('',#614,#248,#1035,.T.);
#1035 = LINE('',#1036,#1037);
#1036 = CARTESIAN_POINT('',(15.,-17.32,20.));
#1037 = VECTOR('',#1038,1.);
#1038 = DIRECTION('',(0.,0.,-1.));
#1039 = ORIENTED_EDGE('',*,*,#247,.F.);
#1040 = ORIENTED_EDGE('',*,*,#1034,.F.);
#1041 = CYLINDRICAL_SURFACE('',#1042,5.);
#1042 = AXIS2_PLACEMENT_3D('',#1043,#1044,#1045);
#1043 = CARTESIAN_POINT('',(10.,-17.32,20.));
#1044 = DIRECTION('',(0.,0.,1.));
#1045 = DIRECTION('',(1.,0.,0.));
#1046 = ADVANCED_FACE('',(#1047),#1058,.F.);
#1047 = FACE_BOUND('',#1048,.T.);
#1048 = EDGE_LOOP('',(#1049,#1050,#1056,#1057));
#1049 = ORIENTED_EDGE('',*,*,#624,.F.);
#1050 = ORIENTED_EDGE('',*,*,#1051,.T.);
#1051 = EDGE_CURVE('',#625,#259,#1052,.T.);
#1052 = LINE('',#1053,#1054);
#1053 = CARTESIAN_POINT('',(27.98,-15.,20.));
#1054 = VECTOR('',#1055,1.);
#1055 = DIRECTION('',(0.,0.,-1.));
#1056 = ORIENTED_EDGE('',*,*,#258,.F.);
#1057 = ORIENTED_EDGE('',*,*,#1051,.F.);
#1058 = CYLINDRICAL_SURFACE('',#1059,2.);
#1059 = AXIS2_PLACEMENT_3D('',#1060,#1061,#1062);
#1060 = CARTESIAN_POINT('',(25.98,-15.,20.));
#1061 = DIRECTION('',(0.,0.,1.));
#1062 = DIRECTION('',(1.,0.,0.));
#1063 = ADVANCED_FACE('',(#1064),#1075,.F.);
#1064 = FACE_BOUND('',#1065,.T.);
#1065 = EDGE_LOOP('',(#1066,#1067,#1073,#1074));
#1066 = ORIENTED_EDGE('',*,*,#635,.F.);
#1067 = ORIENTED_EDGE('',*,*,#1068,.T.);
#1068 = EDGE_CURVE('',#636,#270,#1069,.T.);
#1069 = LINE('',#1070,#1071);
#1070 = CARTESIAN_POINT('',(36.64,-20.,20.));
#1071 = VECTOR('',#1072,1.);
#1072 = DIRECTION('',(0.,0.,-1.));
#1073 = ORIENTED_EDGE('',*,*,#269,.F.);
#1074 = ORIENTED_EDGE('',*,*,#1068,.F.);
#1075 = CYLINDRICAL_SURFACE('',#1076,2.);
#1076 = AXIS2_PLACEMENT_3D('',#1077,#1078,#1079);
#1077 = CARTESIAN_POINT('',(34.64,-20.,20.));
#1078 = DIRECTION('',(0.,0.,1.));
#1079 = DIRECTION('',(1.,0.,0.));
#1080 = ADVANCED_FACE('',(#1081),#1092,.F.);
#1081 = FACE_BOUND('',#1082,.T.);
#1082 = EDGE_LOOP('',(#1083,#1084,#1090,#1091));
#1083 = ORIENTED_EDGE('',*,*,#657,.F.);
#1084 = ORIENTED_EDGE('',*,*,#1085,.T.);
#1085 = EDGE_CURVE('',#658,#281,#1086,.T.);
#1086 = LINE('',#1087,#1088);
#1087 = CARTESIAN_POINT('',(-36.64,20.,20.));
#1088 = VECTOR('',#1089,1.);
#1089 = DIRECTION('',(2.22044604925E-16,-2.465190328816E-32,-1.));
#1090 = ORIENTED_EDGE('',*,*,#280,.F.);
#1091 = ORIENTED_EDGE('',*,*,#1085,.F.);
#1092 = CYLINDRICAL_SURFACE('',#1093,2.);
#1093 = AXIS2_PLACEMENT_3D('',#1094,#1095,#1096);
#1094 = CARTESIAN_POINT('',(-34.64,20.,20.));
#1095 = DIRECTION('',(-2.22044604925E-16,2.465190328816E-32,1.));
#1096 = DIRECTION('',(-1.,2.22044604925E-16,-2.22044604925E-16));
#1097 = ADVANCED_FACE('',(#1098),#1109,.F.);
#1098 = FACE_BOUND('',#1099,.T.);
#1099 = EDGE_LOOP('',(#1100,#1101,#1107,#1108));
#1100 = ORIENTED_EDGE('',*,*,#668,.F.);
#1101 = ORIENTED_EDGE('',*,*,#1102,.T.);
#1102 = EDGE_CURVE('',#669,#292,#1103,.T.);
#1103 = LINE('',#1104,#1105);
#1104 = CARTESIAN_POINT('',(-27.98,15.,20.));
#1105 = VECTOR('',#1106,1.);
#1106 = DIRECTION('',(2.22044604925E-16,-2.465190328816E-32,-1.));
#1107 = ORIENTED_EDGE('',*,*,#291,.F.);
#1108 = ORIENTED_EDGE('',*,*,#1102,.F.);
#1109 = CYLINDRICAL_SURFACE('',#1110,2.);
#1110 = AXIS2_PLACEMENT_3D('',#1111,#1112,#1113);
#1111 = CARTESIAN_POINT('',(-25.98,15.,20.));
#1112 = DIRECTION('',(-2.22044604925E-16,2.465190328816E-32,1.));
#1113 = DIRECTION('',(-1.,2.22044604925E-16,-2.22044604925E-16));
#1114 = ADVANCED_FACE('',(#1115),#1126,.F.);
#1115 = FACE_BOUND('',#1116,.T.);
#1116 = EDGE_LOOP('',(#1117,#1118,#1124,#1125));
#1117 = ORIENTED_EDGE('',*,*,#679,.F.);
#1118 = ORIENTED_EDGE('',*,*,#1119,.T.);
#1119 = EDGE_CURVE('',#680,#323,#1120,.T.);
#1120 = LINE('',#1121,#1122);
#1121 = CARTESIAN_POINT('',(-15.,17.32,20.));
#1122 = VECTOR('',#1123,1.);
#1123 = DIRECTION('',(2.22044604925E-16,-2.465190328816E-32,-1.));
#1124 = ORIENTED_EDGE('',*,*,#322,.F.);
#1125 = ORIENTED_EDGE('',*,*,#1119,.F.);
#1126 = CYLINDRICAL_SURFACE('',#1127,5.);
#1127 = AXIS2_PLACEMENT_3D('',#1128,#1129,#1130);
#1128 = CARTESIAN_POINT('',(-10.,17.32,20.));
#1129 = DIRECTION('',(-2.22044604925E-16,2.465190328816E-32,1.));
#1130 = DIRECTION('',(-1.,2.22044604925E-16,-2.22044604925E-16));
#1131 = ADVANCED_FACE('',(#1132),#1143,.F.);
#1132 = FACE_BOUND('',#1133,.F.);
#1133 = EDGE_LOOP('',(#1134,#1135,#1141,#1142));
#1134 = ORIENTED_EDGE('',*,*,#710,.F.);
#1135 = ORIENTED_EDGE('',*,*,#1136,.T.);
#1136 = EDGE_CURVE('',#711,#374,#1137,.T.);
#1137 = LINE('',#1138,#1139);
#1138 = CARTESIAN_POINT('',(15.,17.32,20.));
#1139 = VECTOR('',#1140,1.);
#1140 = DIRECTION('',(-0.,-0.,-1.));
#1141 = ORIENTED_EDGE('',*,*,#373,.T.);
#1142 = ORIENTED_EDGE('',*,*,#1136,.F.);
#1143 = CYLINDRICAL_SURFACE('',#1144,5.);
#1144 = AXIS2_PLACEMENT_3D('',#1145,#1146,#1147);
#1145 = CARTESIAN_POINT('',(10.,17.32,20.));
#1146 = DIRECTION('',(0.,0.,1.));
#1147 = DIRECTION('',(1.,0.,0.));
#1148 = ADVANCED_FACE('',(#1149),#1160,.F.);
#1149 = FACE_BOUND('',#1150,.F.);
#1150 = EDGE_LOOP('',(#1151,#1157,#1158,#1159));
#1151 = ORIENTED_EDGE('',*,*,#1152,.F.);
#1152 = EDGE_CURVE('',#722,#385,#1153,.T.);
#1153 = LINE('',#1154,#1155);
#1154 = CARTESIAN_POINT('',(25.,0.,20.));
#1155 = VECTOR('',#1156,1.);
#1156 = DIRECTION('',(-0.,-0.,-1.));
#1157 = ORIENTED_EDGE('',*,*,#721,.F.);
#1158 = ORIENTED_EDGE('',*,*,#1152,.T.);
#1159 = ORIENTED_EDGE('',*,*,#384,.T.);
#1160 = CYLINDRICAL_SURFACE('',#1161,5.);
#1161 = AXIS2_PLACEMENT_3D('',#1162,#1163,#1164);
#1162 = CARTESIAN_POINT('',(20.,0.,20.));
#1163 = DIRECTION('',(0.,0.,1.));
#1164 = DIRECTION('',(1.,0.,0.));
#1165 = ADVANCED_FACE('',(#1166),#1177,.F.);
#1166 = FACE_BOUND('',#1167,.F.);
#1167 = EDGE_LOOP('',(#1168,#1169,#1175,#1176));
#1168 = ORIENTED_EDGE('',*,*,#732,.F.);
#1169 = ORIENTED_EDGE('',*,*,#1170,.T.);
#1170 = EDGE_CURVE('',#733,#396,#1171,.T.);
#1171 = LINE('',#1172,#1173);
#1172 = CARTESIAN_POINT('',(27.98,15.,20.));
#1173 = VECTOR('',#1174,1.);
#1174 = DIRECTION('',(-0.,-0.,-1.));
#1175 = ORIENTED_EDGE('',*,*,#395,.T.);
#1176 = ORIENTED_EDGE('',*,*,#1170,.F.);
#1177 = CYLINDRICAL_SURFACE('',#1178,2.);
#1178 = AXIS2_PLACEMENT_3D('',#1179,#1180,#1181);
#1179 = CARTESIAN_POINT('',(25.98,15.,20.));
#1180 = DIRECTION('',(0.,0.,1.));
#1181 = DIRECTION('',(1.,0.,0.));
#1182 = ADVANCED_FACE('',(#1183),#1194,.F.);
#1183 = FACE_BOUND('',#1184,.F.);
#1184 = EDGE_LOOP('',(#1185,#1186,#1192,#1193));
#1185 = ORIENTED_EDGE('',*,*,#743,.F.);
#1186 = ORIENTED_EDGE('',*,*,#1187,.T.);
#1187 = EDGE_CURVE('',#744,#407,#1188,.T.);
#1188 = LINE('',#1189,#1190);
#1189 = CARTESIAN_POINT('',(36.64,20.,20.));
#1190 = VECTOR('',#1191,1.);
#1191 = DIRECTION('',(-0.,-0.,-1.));
#1192 = ORIENTED_EDGE('',*,*,#406,.T.);
#1193 = ORIENTED_EDGE('',*,*,#1187,.F.);
#1194 = CYLINDRICAL_SURFACE('',#1195,2.);
#1195 = AXIS2_PLACEMENT_3D('',#1196,#1197,#1198);
#1196 = CARTESIAN_POINT('',(34.64,20.,20.));
#1197 = DIRECTION('',(0.,0.,1.));
#1198 = DIRECTION('',(1.,0.,0.));
#1199 = ADVANCED_FACE('',(#1200),#1212,.F.);
#1200 = FACE_BOUND('',#1201,.T.);
#1201 = EDGE_LOOP('',(#1202,#1203,#1208,#1209,#1210,#1211));
#1202 = ORIENTED_EDGE('',*,*,#174,.F.);
#1203 = ORIENTED_EDGE('',*,*,#1204,.T.);
#1204 = EDGE_CURVE('',#166,#596,#1205,.T.);
#1205 = B_SPLINE_CURVE_WITH_KNOTS('',1,(#1206,#1207),.UNSPECIFIED.,.F.,
  .F.,(2,2),(-20.,0.),.PIECEWISE_BEZIER_KNOTS.);
#1206 = CARTESIAN_POINT('',(2.,-30.,0.));
#1207 = CARTESIAN_POINT('',(2.,-30.,20.));
#1208 = ORIENTED_EDGE('',*,*,#593,.F.);
#1209 = ORIENTED_EDGE('',*,*,#604,.F.);
#1210 = ORIENTED_EDGE('',*,*,#1204,.F.);
#1211 = ORIENTED_EDGE('',*,*,#163,.F.);
#1212 = CYLINDRICAL_SURFACE('',#1213,2.);
#1213 = AXIS2_PLACEMENT_3D('',#1214,#1215,#1216);
#1214 = CARTESIAN_POINT('',(0.,-30.,20.));
#1215 = DIRECTION('',(0.,0.,1.));
#1216 = DIRECTION('',(1.,0.,0.));
#1217 = ADVANCED_FACE('',(#1218),#1230,.F.);
#1218 = FACE_BOUND('',#1219,.T.);
#1219 = EDGE_LOOP('',(#1220,#1221,#1226,#1227,#1228,#1229));
#1220 = ORIENTED_EDGE('',*,*,#238,.F.);
#1221 = ORIENTED_EDGE('',*,*,#1222,.T.);
#1222 = EDGE_CURVE('',#230,#576,#1223,.T.);
#1223 = B_SPLINE_CURVE_WITH_KNOTS('',1,(#1224,#1225),.UNSPECIFIED.,.F.,
  .F.,(2,2),(-20.,0.),.PIECEWISE_BEZIER_KNOTS.);
#1224 = CARTESIAN_POINT('',(2.,-40.,0.));
#1225 = CARTESIAN_POINT('',(2.,-40.,20.));
#1226 = ORIENTED_EDGE('',*,*,#573,.F.);
#1227 = ORIENTED_EDGE('',*,*,#584,.F.);
#1228 = ORIENTED_EDGE('',*,*,#1222,.F.);
#1229 = ORIENTED_EDGE('',*,*,#227,.F.);
#1230 = CYLINDRICAL_SURFACE('',#1231,2.);
#1231 = AXIS2_PLACEMENT_3D('',#1232,#1233,#1234);
#1232 = CARTESIAN_POINT('',(0.,-40.,20.));
#1233 = DIRECTION('',(0.,0.,1.));
#1234 = DIRECTION('',(1.,0.,0.));
#1235 = ADVANCED_FACE('',(#1236),#1248,.F.);
#1236 = FACE_BOUND('',#1237,.F.);
#1237 = EDGE_LOOP('',(#1238,#1239,#1244,#1245,#1246,#1247));
#1238 = ORIENTED_EDGE('',*,*,#690,.F.);
#1239 = ORIENTED_EDGE('',*,*,#1240,.F.);
#1240 = EDGE_CURVE('',#303,#691,#1241,.T.);
#1241 = B_SPLINE_CURVE_WITH_KNOTS('',1,(#1242,#1243),.UNSPECIFIED.,.F.,
  .F.,(2,2),(-20.,0.),.PIECEWISE_BEZIER_KNOTS.);
#1242 = CARTESIAN_POINT('',(5.,-1.224646799147E-15,0.));
#1243 = CARTESIAN_POINT('',(5.,-1.224646799147E-15,20.));
#1244 = ORIENTED_EDGE('',*,*,#302,.T.);
#1245 = ORIENTED_EDGE('',*,*,#313,.T.);
#1246 = ORIENTED_EDGE('',*,*,#1240,.T.);
#1247 = ORIENTED_EDGE('',*,*,#701,.F.);
#1248 = CYLINDRICAL_SURFACE('',#1249,5.);
#1249 = AXIS2_PLACEMENT_3D('',#1250,#1251,#1252);
#1250 = CARTESIAN_POINT('',(0.,0.,20.));
#1251 = DIRECTION('',(0.,0.,1.));
#1252 = DIRECTION('',(1.,0.,0.));
#1253 = ADVANCED_FACE('',(#1254),#1266,.F.);
#1254 = FACE_BOUND('',#1255,.F.);
#1255 = EDGE_LOOP('',(#1256,#1257,#1258,#1263,#1264,#1265));
#1256 = ORIENTED_EDGE('',*,*,#333,.T.);
#1257 = ORIENTED_EDGE('',*,*,#344,.T.);
#1258 = ORIENTED_EDGE('',*,*,#1259,.T.);
#1259 = EDGE_CURVE('',#334,#755,#1260,.T.);
#1260 = B_SPLINE_CURVE_WITH_KNOTS('',1,(#1261,#1262),.UNSPECIFIED.,.F.,
  .F.,(2,2),(-20.,0.),.PIECEWISE_BEZIER_KNOTS.);
#1261 = CARTESIAN_POINT('',(2.,30.,0.));
#1262 = CARTESIAN_POINT('',(2.,30.,20.));
#1263 = ORIENTED_EDGE('',*,*,#765,.F.);
#1264 = ORIENTED_EDGE('',*,*,#754,.F.);
#1265 = ORIENTED_EDGE('',*,*,#1259,.F.);
#1266 = CYLINDRICAL_SURFACE('',#1267,2.);
#1267 = AXIS2_PLACEMENT_3D('',#1268,#1269,#1270);
#1268 = CARTESIAN_POINT('',(0.,30.,20.));
#1269 = DIRECTION('',(0.,0.,1.));
#1270 = DIRECTION('',(1.,0.,0.));
#1271 = ADVANCED_FACE('',(#1272),#1284,.F.);
#1272 = FACE_BOUND('',#1273,.F.);
#1273 = EDGE_LOOP('',(#1274,#1275,#1276,#1281,#1282,#1283));
#1274 = ORIENTED_EDGE('',*,*,#353,.T.);
#1275 = ORIENTED_EDGE('',*,*,#364,.T.);
#1276 = ORIENTED_EDGE('',*,*,#1277,.T.);
#1277 = EDGE_CURVE('',#354,#775,#1278,.T.);
#1278 = B_SPLINE_CURVE_WITH_KNOTS('',1,(#1279,#1280),.UNSPECIFIED.,.F.,
  .F.,(2,2),(-20.,0.),.PIECEWISE_BEZIER_KNOTS.);
#1279 = CARTESIAN_POINT('',(2.,40.,0.));
#1280 = CARTESIAN_POINT('',(2.,40.,20.));
#1281 = ORIENTED_EDGE('',*,*,#785,.F.);
#1282 = ORIENTED_EDGE('',*,*,#774,.F.);
#1283 = ORIENTED_EDGE('',*,*,#1277,.F.);
#1284 = CYLINDRICAL_SURFACE('',#1285,2.);
#1285 = AXIS2_PLACEMENT_3D('',#1286,#1287,#1288);
#1286 = CARTESIAN_POINT('',(0.,40.,20.));
#1287 = DIRECTION('',(0.,0.,1.));
#1288 = DIRECTION('',(1.,0.,0.));
#1289 = ( GEOMETRIC_REPRESENTATION_CONTEXT(3) 
GLOBAL_UNCERTAINTY_ASSIGNED_CONTEXT((#1293)) 
GLOBAL_UNIT_ASSIGNED_CONTEXT((#1290,#1291,#1292)) REPRESENTATION_CONTEXT
('Context #1','3D Context with UNIT and UNCERTAINTY') );
#1290 = ( LENGTH_UNIT() NAMED_UNIT(*) SI_UNIT(.MILLI.,.METRE.) );
#1291 = ( NAMED_UNIT(*) PLANE_ANGLE_UNIT() SI_UNIT($,.RADIAN.) );
#1292 = ( NAMED_UNIT(*) SI_UNIT($,.STERADIAN.) SOLID_ANGLE_UNIT() );
#1293 = UNCERTAINTY_MEASURE_WITH_UNIT(LENGTH_MEASURE(1.E-05),#1290,
  'distance_accuracy_value','confusion accuracy');
#1294 = PRODUCT_RELATED_PRODUCT_CATEGORY('part',$,(#7));
#1295 = MECHANICAL_DESIGN_GEOMETRIC_PRESENTATION_REPRESENTATION('',(
    #1296),#1289);
#1296 = STYLED_ITEM('color',(#1297),#15);
#1297 = PRESENTATION_STYLE_ASSIGNMENT((#1298,#1304));
#1298 = SURFACE_STYLE_USAGE(.BOTH.,#1299);
#1299 = SURFACE_SIDE_STYLE('',(#1300));
#1300 = SURFACE_STYLE_FILL_AREA(#1301);
#1301 = FILL_AREA_STYLE('',(#1302));
#1302 = FILL_AREA_STYLE_COLOUR('',#1303);
#1303 = COLOUR_RGB('',0.678431390124,0.709803936702,0.741176476869);
#1304 = CURVE_STYLE('',#1305,POSITIVE_LENGTH_MEASURE(0.1),#1306);
#1305 = DRAUGHTING_PRE_DEFINED_CURVE_FONT('continuous');
#1306 = COLOUR_RGB('',9.803921802644E-02,9.803921802644E-02,
  9.803921802644E-02);
ENDSEC;
END-ISO-10303-21;
