ISO-10303-21;
HEADER;
FILE_DESCRIPTION(('FreeCAD Model'),'2;1');
FILE_NAME('Open CASCADE Shape Model','2026-10-01T13:52:38',(''),(''),
  'Open CASCADE STEP processor 7.8','FreeCAD','Unknown');
FILE_SCHEMA(('AUTOMOTIVE_DESIGN { 1 0 10303 214 1 1 1 1 }'));
ENDSEC;
DATA;
#1 = APPLICATION_PROTOCOL_DEFINITION('international standard',
  'automotive_design',2000,#2);
#2 = APPLICATION_CONTEXT(
  'core data for automotive mechanical design processes');
#3 = SHAPE_DEFINITION_REPRESENTATION(#4,#10);
#4 = PRODUCT_DEFINITION_SHAPE('','',#5);
#5 = PRODUCT_DEFINITION('design','',#6,#9);
#6 = PRODUCT_DEFINITION_FORMATION('','',#7);
#7 = PRODUCT('Body','Body','',(#8));
#8 = PRODUCT_CONTEXT('',#2,'mechanical');
#9 = PRODUCT_DEFINITION_CONTEXT('part definition',#2,'design');
#10 = ADVANCED_BREP_SHAPE_REPRESENTATION('',(#11,#15),#662);
#11 = AXIS2_PLACEMENT_3D('',#12,#13,#14);
#12 = CARTESIAN_POINT('',(0.,0.,0.));
#13 = DIRECTION('',(0.,0.,1.));
#14 = DIRECTION('',(1.,0.,-0.));
#15 = MANIFOLD_SOLID_BREP('',#16);
#16 = CLOSED_SHELL('',(#17,#50,#143,#313,#330,#348,#365,#382,#400,#417,
    #443,#469,#495,#521,#547,#573,#599,#608,#617,#626,#635,#644,#653));
#17 = ADVANCED_FACE('',(#18),#45,.T.);
#18 = FACE_BOUND('',#19,.F.);
#19 = EDGE_LOOP('',(#20,#30,#37,#38));
#20 = ORIENTED_EDGE('',*,*,#21,.T.);
#21 = EDGE_CURVE('',#22,#24,#26,.T.);
#22 = VERTEX_POINT('',#23);
#23 = CARTESIAN_POINT('',(34.5,0.,0.));
#24 = VERTEX_POINT('',#25);
#25 = CARTESIAN_POINT('',(34.5,0.,5.));
#26 = LINE('',#27,#28);
#27 = CARTESIAN_POINT('',(34.5,0.,0.));
#28 = VECTOR('',#29,1.);
#29 = DIRECTION('',(0.,0.,1.));
#30 = ORIENTED_EDGE('',*,*,#31,.T.);
#31 = EDGE_CURVE('',#24,#24,#32,.T.);
#32 = CIRCLE('',#33,34.5);
#33 = AXIS2_PLACEMENT_3D('',#34,#35,#36);
#34 = CARTESIAN_POINT('',(0.,0.,5.));
#35 = DIRECTION('',(0.,0.,1.));
#36 = DIRECTION('',(1.,0.,0.));
#37 = ORIENTED_EDGE('',*,*,#21,.F.);
#38 = ORIENTED_EDGE('',*,*,#39,.F.);
#39 = EDGE_CURVE('',#22,#22,#40,.T.);
#40 = CIRCLE('',#41,34.5);
#41 = AXIS2_PLACEMENT_3D('',#42,#43,#44);
#42 = CARTESIAN_POINT('',(0.,0.,0.));
#43 = DIRECTION('',(0.,0.,1.));
#44 = DIRECTION('',(1.,0.,0.));
#45 = CYLINDRICAL_SURFACE('',#46,34.5);
#46 = AXIS2_PLACEMENT_3D('',#47,#48,#49);
#47 = CARTESIAN_POINT('',(0.,0.,0.));
#48 = DIRECTION('',(-0.,-0.,-1.));
#49 = DIRECTION('',(1.,0.,0.));
#50 = ADVANCED_FACE('',(#51,#54,#65,#85,#96,#107,#127),#138,.F.);
#51 = FACE_BOUND('',#52,.F.);
#52 = EDGE_LOOP('',(#53));
#53 = ORIENTED_EDGE('',*,*,#39,.T.);
#54 = FACE_BOUND('',#55,.F.);
#55 = EDGE_LOOP('',(#56));
#56 = ORIENTED_EDGE('',*,*,#57,.F.);
#57 = EDGE_CURVE('',#58,#58,#60,.T.);
#58 = VERTEX_POINT('',#59);
#59 = CARTESIAN_POINT('',(-27.98,-15.,0.));
#60 = CIRCLE('',#61,2.);
#61 = AXIS2_PLACEMENT_3D('',#62,#63,#64);
#62 = CARTESIAN_POINT('',(-25.98,-15.,0.));
#63 = DIRECTION('',(-2.22044604925E-16,-2.465190328816E-32,1.));
#64 = DIRECTION('',(-1.,-2.22044604925E-16,-2.22044604925E-16));
#65 = FACE_BOUND('',#66,.F.);
#66 = EDGE_LOOP('',(#67,#78));
#67 = ORIENTED_EDGE('',*,*,#68,.F.);
#68 = EDGE_CURVE('',#69,#71,#73,.T.);
#69 = VERTEX_POINT('',#70);
#70 = CARTESIAN_POINT('',(-2.,-30.,0.));
#71 = VERTEX_POINT('',#72);
#72 = CARTESIAN_POINT('',(2.,-30.,0.));
#73 = CIRCLE('',#74,2.);
#74 = AXIS2_PLACEMENT_3D('',#75,#76,#77);
#75 = CARTESIAN_POINT('',(6.661338147751E-15,-30.,0.));
#76 = DIRECTION('',(-2.22044604925E-16,-2.465190328816E-32,1.));
#77 = DIRECTION('',(-1.,-2.22044604925E-16,-2.22044604925E-16));
#78 = ORIENTED_EDGE('',*,*,#79,.F.);
#79 = EDGE_CURVE('',#71,#69,#80,.T.);
#80 = CIRCLE('',#81,2.);
#81 = AXIS2_PLACEMENT_3D('',#82,#83,#84);
#82 = CARTESIAN_POINT('',(6.661338147751E-15,-30.,0.));
#83 = DIRECTION('',(-2.22044604925E-16,-2.465190328816E-32,1.));
#84 = DIRECTION('',(-1.,-2.22044604925E-16,-2.22044604925E-16));
#85 = FACE_BOUND('',#86,.F.);
#86 = EDGE_LOOP('',(#87));
#87 = ORIENTED_EDGE('',*,*,#88,.F.);
#88 = EDGE_CURVE('',#89,#89,#91,.T.);
#89 = VERTEX_POINT('',#90);
#90 = CARTESIAN_POINT('',(27.98,-15.,0.));
#91 = CIRCLE('',#92,2.);
#92 = AXIS2_PLACEMENT_3D('',#93,#94,#95);
#93 = CARTESIAN_POINT('',(25.98,-15.,0.));
#94 = DIRECTION('',(0.,0.,1.));
#95 = DIRECTION('',(1.,0.,0.));
#96 = FACE_BOUND('',#97,.F.);
#97 = EDGE_LOOP('',(#98));
#98 = ORIENTED_EDGE('',*,*,#99,.F.);
#99 = EDGE_CURVE('',#100,#100,#102,.T.);
#100 = VERTEX_POINT('',#101);
#101 = CARTESIAN_POINT('',(-27.98,15.,0.));
#102 = CIRCLE('',#103,2.);
#103 = AXIS2_PLACEMENT_3D('',#104,#105,#106);
#104 = CARTESIAN_POINT('',(-25.98,15.,0.));
#105 = DIRECTION('',(-2.22044604925E-16,2.465190328816E-32,1.));
#106 = DIRECTION('',(-1.,2.22044604925E-16,-2.22044604925E-16));
#107 = FACE_BOUND('',#108,.F.);
#108 = EDGE_LOOP('',(#109,#120));
#109 = ORIENTED_EDGE('',*,*,#110,.F.);
#110 = EDGE_CURVE('',#111,#113,#115,.T.);
#111 = VERTEX_POINT('',#112);
#112 = CARTESIAN_POINT('',(2.,30.,0.));
#113 = VERTEX_POINT('',#114);
#114 = CARTESIAN_POINT('',(-2.,30.,0.));
#115 = CIRCLE('',#116,2.);
#116 = AXIS2_PLACEMENT_3D('',#117,#118,#119);
#117 = CARTESIAN_POINT('',(0.,30.,0.));
#118 = DIRECTION('',(0.,0.,1.));
#119 = DIRECTION('',(1.,0.,0.));
#120 = ORIENTED_EDGE('',*,*,#121,.F.);
#121 = EDGE_CURVE('',#113,#111,#122,.T.);
#122 = CIRCLE('',#123,2.);
#123 = AXIS2_PLACEMENT_3D('',#124,#125,#126);
#124 = CARTESIAN_POINT('',(0.,30.,0.));
#125 = DIRECTION('',(0.,0.,1.));
#126 = DIRECTION('',(1.,0.,0.));
#127 = FACE_BOUND('',#128,.F.);
#128 = EDGE_LOOP('',(#129));
#129 = ORIENTED_EDGE('',*,*,#130,.F.);
#130 = EDGE_CURVE('',#131,#131,#133,.T.);
#131 = VERTEX_POINT('',#132);
#132 = CARTESIAN_POINT('',(27.98,15.,0.));
#133 = CIRCLE('',#134,2.);
#134 = AXIS2_PLACEMENT_3D('',#135,#136,#137);
#135 = CARTESIAN_POINT('',(25.98,15.,0.));
#136 = DIRECTION('',(0.,0.,1.));
#137 = DIRECTION('',(1.,0.,0.));
#138 = PLANE('',#139);
#139 = AXIS2_PLACEMENT_3D('',#140,#141,#142);
#140 = CARTESIAN_POINT('',(-1.268350267863E-15,-1.408343819019E-15,0.));
#141 = DIRECTION('',(0.,0.,1.));
#142 = DIRECTION('',(1.,0.,0.));
#143 = ADVANCED_FACE('',(#144,#147,#158,#169,#189,#200,#211,#222,#233,
    #244,#255,#266,#277,#288),#308,.T.);
#144 = FACE_BOUND('',#145,.T.);
#145 = EDGE_LOOP('',(#146));
#146 = ORIENTED_EDGE('',*,*,#31,.T.);
#147 = FACE_BOUND('',#148,.T.);
#148 = EDGE_LOOP('',(#149));
#149 = ORIENTED_EDGE('',*,*,#150,.F.);
#150 = EDGE_CURVE('',#151,#151,#153,.T.);
#151 = VERTEX_POINT('',#152);
#152 = CARTESIAN_POINT('',(-18.,-17.32,5.));
#153 = CIRCLE('',#154,8.);
#154 = AXIS2_PLACEMENT_3D('',#155,#156,#157);
#155 = CARTESIAN_POINT('',(-10.,-17.32,5.));
#156 = DIRECTION('',(-2.22044604925E-16,-2.22044604925E-16,1.));
#157 = DIRECTION('',(-1.,-2.22044604925E-16,-2.22044604925E-16));
#158 = FACE_BOUND('',#159,.T.);
#159 = EDGE_LOOP('',(#160));
#160 = ORIENTED_EDGE('',*,*,#161,.F.);
#161 = EDGE_CURVE('',#162,#162,#164,.T.);
#162 = VERTEX_POINT('',#163);
#163 = CARTESIAN_POINT('',(-27.98,-15.,5.));
#164 = CIRCLE('',#165,2.);
#165 = AXIS2_PLACEMENT_3D('',#166,#167,#168);
#166 = CARTESIAN_POINT('',(-25.98,-15.,5.));
#167 = DIRECTION('',(-2.22044604925E-16,-2.465190328816E-32,1.));
#168 = DIRECTION('',(-1.,-2.22044604925E-16,-2.22044604925E-16));
#169 = FACE_BOUND('',#170,.T.);
#170 = EDGE_LOOP('',(#171,#182));
#171 = ORIENTED_EDGE('',*,*,#172,.T.);
#172 = EDGE_CURVE('',#173,#175,#177,.T.);
#173 = VERTEX_POINT('',#174);
#174 = CARTESIAN_POINT('',(-2.,-30.,5.));
#175 = VERTEX_POINT('',#176);
#176 = CARTESIAN_POINT('',(2.,-30.,5.));
#177 = CIRCLE('',#178,2.);
#178 = AXIS2_PLACEMENT_3D('',#179,#180,#181);
#179 = CARTESIAN_POINT('',(0.,-30.,5.));
#180 = DIRECTION('',(0.,0.,-1.));
#181 = DIRECTION('',(1.,0.,0.));
#182 = ORIENTED_EDGE('',*,*,#183,.T.);
#183 = EDGE_CURVE('',#175,#173,#184,.T.);
#184 = CIRCLE('',#185,2.);
#185 = AXIS2_PLACEMENT_3D('',#186,#187,#188);
#186 = CARTESIAN_POINT('',(0.,-30.,5.));
#187 = DIRECTION('',(0.,0.,-1.));
#188 = DIRECTION('',(1.,0.,0.));
#189 = FACE_BOUND('',#190,.T.);
#190 = EDGE_LOOP('',(#191));
#191 = ORIENTED_EDGE('',*,*,#192,.T.);
#192 = EDGE_CURVE('',#193,#193,#195,.T.);
#193 = VERTEX_POINT('',#194);
#194 = CARTESIAN_POINT('',(18.,-17.32,5.));
#195 = CIRCLE('',#196,8.);
#196 = AXIS2_PLACEMENT_3D('',#197,#198,#199);
#197 = CARTESIAN_POINT('',(10.,-17.32,5.));
#198 = DIRECTION('',(0.,2.22044604925E-16,-1.));
#199 = DIRECTION('',(1.,0.,0.));
#200 = FACE_BOUND('',#201,.T.);
#201 = EDGE_LOOP('',(#202));
#202 = ORIENTED_EDGE('',*,*,#203,.T.);
#203 = EDGE_CURVE('',#204,#204,#206,.T.);
#204 = VERTEX_POINT('',#205);
#205 = CARTESIAN_POINT('',(27.98,-15.,5.));
#206 = CIRCLE('',#207,2.);
#207 = AXIS2_PLACEMENT_3D('',#208,#209,#210);
#208 = CARTESIAN_POINT('',(25.98,-15.,5.));
#209 = DIRECTION('',(0.,0.,-1.));
#210 = DIRECTION('',(1.,0.,0.));
#211 = FACE_BOUND('',#212,.T.);
#212 = EDGE_LOOP('',(#213));
#213 = ORIENTED_EDGE('',*,*,#214,.T.);
#214 = EDGE_CURVE('',#215,#215,#217,.T.);
#215 = VERTEX_POINT('',#216);
#216 = CARTESIAN_POINT('',(-28.,0.,5.));
#217 = CIRCLE('',#218,8.);
#218 = AXIS2_PLACEMENT_3D('',#219,#220,#221);
#219 = CARTESIAN_POINT('',(-20.,5.551115123126E-15,5.));
#220 = DIRECTION('',(2.22044604925E-16,-2.22044604925E-16,-1.));
#221 = DIRECTION('',(-1.,2.22044604925E-16,-2.22044604925E-16));
#222 = FACE_BOUND('',#223,.T.);
#223 = EDGE_LOOP('',(#224));
#224 = ORIENTED_EDGE('',*,*,#225,.T.);
#225 = EDGE_CURVE('',#226,#226,#228,.T.);
#226 = VERTEX_POINT('',#227);
#227 = CARTESIAN_POINT('',(-27.98,15.,5.));
#228 = CIRCLE('',#229,2.);
#229 = AXIS2_PLACEMENT_3D('',#230,#231,#232);
#230 = CARTESIAN_POINT('',(-25.98,15.,5.));
#231 = DIRECTION('',(2.22044604925E-16,-2.465190328816E-32,-1.));
#232 = DIRECTION('',(-1.,2.22044604925E-16,-2.22044604925E-16));
#233 = FACE_BOUND('',#234,.T.);
#234 = EDGE_LOOP('',(#235));
#235 = ORIENTED_EDGE('',*,*,#236,.T.);
#236 = EDGE_CURVE('',#237,#237,#239,.T.);
#237 = VERTEX_POINT('',#238);
#238 = CARTESIAN_POINT('',(-18.,17.32,5.));
#239 = CIRCLE('',#240,8.);
#240 = AXIS2_PLACEMENT_3D('',#241,#242,#243);
#241 = CARTESIAN_POINT('',(-10.,17.32,5.));
#242 = DIRECTION('',(2.22044604925E-16,-2.22044604925E-16,-1.));
#243 = DIRECTION('',(-1.,2.22044604925E-16,-2.22044604925E-16));
#244 = FACE_BOUND('',#245,.T.);
#245 = EDGE_LOOP('',(#246));
#246 = ORIENTED_EDGE('',*,*,#247,.F.);
#247 = EDGE_CURVE('',#248,#248,#250,.T.);
#248 = VERTEX_POINT('',#249);
#249 = CARTESIAN_POINT('',(0.,8.,5.));
#250 = CIRCLE('',#251,8.);
#251 = AXIS2_PLACEMENT_3D('',#252,#253,#254);
#252 = CARTESIAN_POINT('',(0.,0.,5.));
#253 = DIRECTION('',(0.,-0.,1.));
#254 = DIRECTION('',(0.,1.,0.));
#255 = FACE_BOUND('',#256,.T.);
#256 = EDGE_LOOP('',(#257));
#257 = ORIENTED_EDGE('',*,*,#258,.F.);
#258 = EDGE_CURVE('',#259,#259,#261,.T.);
#259 = VERTEX_POINT('',#260);
#260 = CARTESIAN_POINT('',(28.,2.960594688217E-16,5.));
#261 = CIRCLE('',#262,8.);
#262 = AXIS2_PLACEMENT_3D('',#263,#264,#265);
#263 = CARTESIAN_POINT('',(20.,1.110223024625E-15,5.));
#264 = DIRECTION('',(-0.,2.22044604925E-16,1.));
#265 = DIRECTION('',(1.,0.,0.));
#266 = FACE_BOUND('',#267,.T.);
#267 = EDGE_LOOP('',(#268));
#268 = ORIENTED_EDGE('',*,*,#269,.F.);
#269 = EDGE_CURVE('',#270,#270,#272,.T.);
#270 = VERTEX_POINT('',#271);
#271 = CARTESIAN_POINT('',(27.98,15.,5.));
#272 = CIRCLE('',#273,2.);
#273 = AXIS2_PLACEMENT_3D('',#274,#275,#276);
#274 = CARTESIAN_POINT('',(25.98,15.,5.));
#275 = DIRECTION('',(0.,0.,1.));
#276 = DIRECTION('',(1.,0.,0.));
#277 = FACE_BOUND('',#278,.T.);
#278 = EDGE_LOOP('',(#279));
#279 = ORIENTED_EDGE('',*,*,#280,.F.);
#280 = EDGE_CURVE('',#281,#281,#283,.T.);
#281 = VERTEX_POINT('',#282);
#282 = CARTESIAN_POINT('',(18.,17.32,5.));
#283 = CIRCLE('',#284,8.);
#284 = AXIS2_PLACEMENT_3D('',#285,#286,#287);
#285 = CARTESIAN_POINT('',(10.,17.32,5.));
#286 = DIRECTION('',(-0.,2.22044604925E-16,1.));
#287 = DIRECTION('',(1.,0.,0.));
#288 = FACE_BOUND('',#289,.T.);
#289 = EDGE_LOOP('',(#290,#301));
#290 = ORIENTED_EDGE('',*,*,#291,.F.);
#291 = EDGE_CURVE('',#292,#294,#296,.T.);
#292 = VERTEX_POINT('',#293);
#293 = CARTESIAN_POINT('',(2.,30.,5.));
#294 = VERTEX_POINT('',#295);
#295 = CARTESIAN_POINT('',(-2.,30.,5.));
#296 = CIRCLE('',#297,2.);
#297 = AXIS2_PLACEMENT_3D('',#298,#299,#300);
#298 = CARTESIAN_POINT('',(0.,30.,5.));
#299 = DIRECTION('',(0.,0.,1.));
#300 = DIRECTION('',(1.,0.,0.));
#301 = ORIENTED_EDGE('',*,*,#302,.F.);
#302 = EDGE_CURVE('',#294,#292,#303,.T.);
#303 = CIRCLE('',#304,2.);
#304 = AXIS2_PLACEMENT_3D('',#305,#306,#307);
#305 = CARTESIAN_POINT('',(0.,30.,5.));
#306 = DIRECTION('',(0.,0.,1.));
#307 = DIRECTION('',(1.,0.,0.));
#308 = PLANE('',#309);
#309 = AXIS2_PLACEMENT_3D('',#310,#311,#312);
#310 = CARTESIAN_POINT('',(-1.268350267863E-15,-1.408343819019E-15,5.));
#311 = DIRECTION('',(0.,0.,1.));
#312 = DIRECTION('',(1.,0.,0.));
#313 = ADVANCED_FACE('',(#314),#325,.F.);
#314 = FACE_BOUND('',#315,.F.);
#315 = EDGE_LOOP('',(#316,#317,#323,#324));
#316 = ORIENTED_EDGE('',*,*,#161,.F.);
#317 = ORIENTED_EDGE('',*,*,#318,.T.);
#318 = EDGE_CURVE('',#162,#58,#319,.T.);
#319 = LINE('',#320,#321);
#320 = CARTESIAN_POINT('',(-27.98,-15.,5.));
#321 = VECTOR('',#322,1.);
#322 = DIRECTION('',(2.22044604925E-16,2.465190328816E-32,-1.));
#323 = ORIENTED_EDGE('',*,*,#57,.T.);
#324 = ORIENTED_EDGE('',*,*,#318,.F.);
#325 = CYLINDRICAL_SURFACE('',#326,2.);
#326 = AXIS2_PLACEMENT_3D('',#327,#328,#329);
#327 = CARTESIAN_POINT('',(-25.98,-15.,5.));
#328 = DIRECTION('',(-2.22044604925E-16,-2.465190328816E-32,1.));
#329 = DIRECTION('',(-1.,-2.22044604925E-16,-2.22044604925E-16));
#330 = ADVANCED_FACE('',(#331),#343,.F.);
#331 = FACE_BOUND('',#332,.T.);
#332 = EDGE_LOOP('',(#333,#334,#339,#340,#341,#342));
#333 = ORIENTED_EDGE('',*,*,#79,.F.);
#334 = ORIENTED_EDGE('',*,*,#335,.T.);
#335 = EDGE_CURVE('',#71,#175,#336,.T.);
#336 = B_SPLINE_CURVE_WITH_KNOTS('',1,(#337,#338),.UNSPECIFIED.,.F.,.F.,
  (2,2),(-5.,0.),.PIECEWISE_BEZIER_KNOTS.);
#337 = CARTESIAN_POINT('',(2.,-30.,0.));
#338 = CARTESIAN_POINT('',(2.,-30.,5.));
#339 = ORIENTED_EDGE('',*,*,#172,.F.);
#340 = ORIENTED_EDGE('',*,*,#183,.F.);
#341 = ORIENTED_EDGE('',*,*,#335,.F.);
#342 = ORIENTED_EDGE('',*,*,#68,.F.);
#343 = CYLINDRICAL_SURFACE('',#344,2.);
#344 = AXIS2_PLACEMENT_3D('',#345,#346,#347);
#345 = CARTESIAN_POINT('',(0.,-30.,5.));
#346 = DIRECTION('',(0.,0.,1.));
#347 = DIRECTION('',(1.,0.,0.));
#348 = ADVANCED_FACE('',(#349),#360,.F.);
#349 = FACE_BOUND('',#350,.T.);
#350 = EDGE_LOOP('',(#351,#352,#358,#359));
#351 = ORIENTED_EDGE('',*,*,#203,.F.);
#352 = ORIENTED_EDGE('',*,*,#353,.T.);
#353 = EDGE_CURVE('',#204,#89,#354,.T.);
#354 = LINE('',#355,#356);
#355 = CARTESIAN_POINT('',(27.98,-15.,5.));
#356 = VECTOR('',#357,1.);
#357 = DIRECTION('',(0.,0.,-1.));
#358 = ORIENTED_EDGE('',*,*,#88,.F.);
#359 = ORIENTED_EDGE('',*,*,#353,.F.);
#360 = CYLINDRICAL_SURFACE('',#361,2.);
#361 = AXIS2_PLACEMENT_3D('',#362,#363,#364);
#362 = CARTESIAN_POINT('',(25.98,-15.,5.));
#363 = DIRECTION('',(0.,0.,1.));
#364 = DIRECTION('',(1.,0.,0.));
#365 = ADVANCED_FACE('',(#366),#377,.F.);
#366 = FACE_BOUND('',#367,.T.);
#367 = EDGE_LOOP('',(#368,#369,#375,#376));
#368 = ORIENTED_EDGE('',*,*,#225,.F.);
#369 = ORIENTED_EDGE('',*,*,#370,.T.);
#370 = EDGE_CURVE('',#226,#100,#371,.T.);
#371 = LINE('',#372,#373);
#372 = CARTESIAN_POINT('',(-27.98,15.,5.));
#373 = VECTOR('',#374,1.);
#374 = DIRECTION('',(2.22044604925E-16,-2.465190328816E-32,-1.));
#375 = ORIENTED_EDGE('',*,*,#99,.F.);
#376 = ORIENTED_EDGE('',*,*,#370,.F.);
#377 = CYLINDRICAL_SURFACE('',#378,2.);
#378 = AXIS2_PLACEMENT_3D('',#379,#380,#381);
#379 = CARTESIAN_POINT('',(-25.98,15.,5.));
#380 = DIRECTION('',(-2.22044604925E-16,2.465190328816E-32,1.));
#381 = DIRECTION('',(-1.,2.22044604925E-16,-2.22044604925E-16));
#382 = ADVANCED_FACE('',(#383),#395,.F.);
#383 = FACE_BOUND('',#384,.F.);
#384 = EDGE_LOOP('',(#385,#386,#387,#392,#393,#394));
#385 = ORIENTED_EDGE('',*,*,#110,.T.);
#386 = ORIENTED_EDGE('',*,*,#121,.T.);
#387 = ORIENTED_EDGE('',*,*,#388,.T.);
#388 = EDGE_CURVE('',#111,#292,#389,.T.);
#389 = B_SPLINE_CURVE_WITH_KNOTS('',1,(#390,#391),.UNSPECIFIED.,.F.,.F.,
  (2,2),(-5.,0.),.PIECEWISE_BEZIER_KNOTS.);
#390 = CARTESIAN_POINT('',(2.,30.,0.));
#391 = CARTESIAN_POINT('',(2.,30.,5.));
#392 = ORIENTED_EDGE('',*,*,#302,.F.);
#393 = ORIENTED_EDGE('',*,*,#291,.F.);
#394 = ORIENTED_EDGE('',*,*,#388,.F.);
#395 = CYLINDRICAL_SURFACE('',#396,2.);
#396 = AXIS2_PLACEMENT_3D('',#397,#398,#399);
#397 = CARTESIAN_POINT('',(0.,30.,5.));
#398 = DIRECTION('',(0.,0.,1.));
#399 = DIRECTION('',(1.,0.,0.));
#400 = ADVANCED_FACE('',(#401),#412,.F.);
#401 = FACE_BOUND('',#402,.F.);
#402 = EDGE_LOOP('',(#403,#404,#410,#411));
#403 = ORIENTED_EDGE('',*,*,#269,.F.);
#404 = ORIENTED_EDGE('',*,*,#405,.T.);
#405 = EDGE_CURVE('',#270,#131,#406,.T.);
#406 = LINE('',#407,#408);
#407 = CARTESIAN_POINT('',(27.98,15.,5.));
#408 = VECTOR('',#409,1.);
#409 = DIRECTION('',(-0.,-0.,-1.));
#410 = ORIENTED_EDGE('',*,*,#130,.T.);
#411 = ORIENTED_EDGE('',*,*,#405,.F.);
#412 = CYLINDRICAL_SURFACE('',#413,2.);
#413 = AXIS2_PLACEMENT_3D('',#414,#415,#416);
#414 = CARTESIAN_POINT('',(25.98,15.,5.));
#415 = DIRECTION('',(0.,0.,1.));
#416 = DIRECTION('',(1.,0.,0.));
#417 = ADVANCED_FACE('',(#418),#438,.F.);
#418 = FACE_BOUND('',#419,.F.);
#419 = EDGE_LOOP('',(#420,#429,#436,#437));
#420 = ORIENTED_EDGE('',*,*,#421,.F.);
#421 = EDGE_CURVE('',#422,#151,#424,.T.);
#422 = VERTEX_POINT('',#423);
#423 = CARTESIAN_POINT('',(-16.,-17.32,5.));
#424 = CIRCLE('',#425,1.);
#425 = AXIS2_PLACEMENT_3D('',#426,#427,#428);
#426 = CARTESIAN_POINT('',(-17.,-17.32,5.));
#427 = DIRECTION('',(-2.22044604925E-16,1.,2.22044604925E-16));
#428 = DIRECTION('',(-1.,-2.22044604925E-16,-2.22044604925E-16));
#429 = ORIENTED_EDGE('',*,*,#430,.T.);
#430 = EDGE_CURVE('',#422,#422,#431,.T.);
#431 = CIRCLE('',#432,6.);
#432 = AXIS2_PLACEMENT_3D('',#433,#434,#435);
#433 = CARTESIAN_POINT('',(-10.,-17.32,5.));
#434 = DIRECTION('',(-2.22044604925E-16,-2.22044604925E-16,1.));
#435 = DIRECTION('',(-1.,-2.22044604925E-16,-2.22044604925E-16));
#436 = ORIENTED_EDGE('',*,*,#421,.T.);
#437 = ORIENTED_EDGE('',*,*,#150,.F.);
#438 = TOROIDAL_SURFACE('',#439,7.,1.);
#439 = AXIS2_PLACEMENT_3D('',#440,#441,#442);
#440 = CARTESIAN_POINT('',(-10.,-17.32,5.));
#441 = DIRECTION('',(-2.22044604925E-16,-2.22044604925E-16,1.));
#442 = DIRECTION('',(-1.,-2.22044604925E-16,-2.22044604925E-16));
#443 = ADVANCED_FACE('',(#444),#464,.F.);
#444 = FACE_BOUND('',#445,.T.);
#445 = EDGE_LOOP('',(#446,#455,#462,#463));
#446 = ORIENTED_EDGE('',*,*,#447,.F.);
#447 = EDGE_CURVE('',#448,#193,#450,.T.);
#448 = VERTEX_POINT('',#449);
#449 = CARTESIAN_POINT('',(16.,-17.32,5.));
#450 = CIRCLE('',#451,1.);
#451 = AXIS2_PLACEMENT_3D('',#452,#453,#454);
#452 = CARTESIAN_POINT('',(17.,-17.32,5.));
#453 = DIRECTION('',(0.,-1.,-2.22044604925E-16));
#454 = DIRECTION('',(1.,0.,0.));
#455 = ORIENTED_EDGE('',*,*,#456,.F.);
#456 = EDGE_CURVE('',#448,#448,#457,.T.);
#457 = CIRCLE('',#458,6.);
#458 = AXIS2_PLACEMENT_3D('',#459,#460,#461);
#459 = CARTESIAN_POINT('',(10.,-17.32,5.));
#460 = DIRECTION('',(0.,2.22044604925E-16,-1.));
#461 = DIRECTION('',(1.,0.,0.));
#462 = ORIENTED_EDGE('',*,*,#447,.T.);
#463 = ORIENTED_EDGE('',*,*,#192,.T.);
#464 = TOROIDAL_SURFACE('',#465,7.,1.);
#465 = AXIS2_PLACEMENT_3D('',#466,#467,#468);
#466 = CARTESIAN_POINT('',(10.,-17.32,5.));
#467 = DIRECTION('',(0.,-2.22044604925E-16,1.));
#468 = DIRECTION('',(1.,0.,0.));
#469 = ADVANCED_FACE('',(#470),#490,.F.);
#470 = FACE_BOUND('',#471,.T.);
#471 = EDGE_LOOP('',(#472,#481,#488,#489));
#472 = ORIENTED_EDGE('',*,*,#473,.F.);
#473 = EDGE_CURVE('',#474,#215,#476,.T.);
#474 = VERTEX_POINT('',#475);
#475 = CARTESIAN_POINT('',(-26.,0.,5.));
#476 = CIRCLE('',#477,1.);
#477 = AXIS2_PLACEMENT_3D('',#478,#479,#480);
#478 = CARTESIAN_POINT('',(-27.,7.105427357601E-15,5.));
#479 = DIRECTION('',(2.22044604925E-16,1.,-2.22044604925E-16));
#480 = DIRECTION('',(-1.,2.22044604925E-16,-2.22044604925E-16));
#481 = ORIENTED_EDGE('',*,*,#482,.F.);
#482 = EDGE_CURVE('',#474,#474,#483,.T.);
#483 = CIRCLE('',#484,6.);
#484 = AXIS2_PLACEMENT_3D('',#485,#486,#487);
#485 = CARTESIAN_POINT('',(-20.,5.551115123126E-15,5.));
#486 = DIRECTION('',(2.22044604925E-16,-2.22044604925E-16,-1.));
#487 = DIRECTION('',(-1.,2.22044604925E-16,-2.22044604925E-16));
#488 = ORIENTED_EDGE('',*,*,#473,.T.);
#489 = ORIENTED_EDGE('',*,*,#214,.T.);
#490 = TOROIDAL_SURFACE('',#491,7.,1.);
#491 = AXIS2_PLACEMENT_3D('',#492,#493,#494);
#492 = CARTESIAN_POINT('',(-20.,5.551115123126E-15,5.));
#493 = DIRECTION('',(-2.22044604925E-16,2.22044604925E-16,1.));
#494 = DIRECTION('',(-1.,2.22044604925E-16,-2.22044604925E-16));
#495 = ADVANCED_FACE('',(#496),#516,.F.);
#496 = FACE_BOUND('',#497,.T.);
#497 = EDGE_LOOP('',(#498,#507,#514,#515));
#498 = ORIENTED_EDGE('',*,*,#499,.F.);
#499 = EDGE_CURVE('',#500,#237,#502,.T.);
#500 = VERTEX_POINT('',#501);
#501 = CARTESIAN_POINT('',(-16.,17.32,5.));
#502 = CIRCLE('',#503,1.);
#503 = AXIS2_PLACEMENT_3D('',#504,#505,#506);
#504 = CARTESIAN_POINT('',(-17.,17.32,5.));
#505 = DIRECTION('',(2.22044604925E-16,1.,-2.22044604925E-16));
#506 = DIRECTION('',(-1.,2.22044604925E-16,-2.22044604925E-16));
#507 = ORIENTED_EDGE('',*,*,#508,.F.);
#508 = EDGE_CURVE('',#500,#500,#509,.T.);
#509 = CIRCLE('',#510,6.);
#510 = AXIS2_PLACEMENT_3D('',#511,#512,#513);
#511 = CARTESIAN_POINT('',(-10.,17.32,5.));
#512 = DIRECTION('',(2.22044604925E-16,-2.22044604925E-16,-1.));
#513 = DIRECTION('',(-1.,2.22044604925E-16,-2.22044604925E-16));
#514 = ORIENTED_EDGE('',*,*,#499,.T.);
#515 = ORIENTED_EDGE('',*,*,#236,.T.);
#516 = TOROIDAL_SURFACE('',#517,7.,1.);
#517 = AXIS2_PLACEMENT_3D('',#518,#519,#520);
#518 = CARTESIAN_POINT('',(-10.,17.32,5.));
#519 = DIRECTION('',(-2.22044604925E-16,2.22044604925E-16,1.));
#520 = DIRECTION('',(-1.,2.22044604925E-16,-2.22044604925E-16));
#521 = ADVANCED_FACE('',(#522),#542,.F.);
#522 = FACE_BOUND('',#523,.F.);
#523 = EDGE_LOOP('',(#524,#533,#540,#541));
#524 = ORIENTED_EDGE('',*,*,#525,.F.);
#525 = EDGE_CURVE('',#526,#248,#528,.T.);
#526 = VERTEX_POINT('',#527);
#527 = CARTESIAN_POINT('',(0.,6.,5.));
#528 = CIRCLE('',#529,1.);
#529 = AXIS2_PLACEMENT_3D('',#530,#531,#532);
#530 = CARTESIAN_POINT('',(0.,7.,5.));
#531 = DIRECTION('',(1.,0.,0.));
#532 = DIRECTION('',(0.,1.,0.));
#533 = ORIENTED_EDGE('',*,*,#534,.T.);
#534 = EDGE_CURVE('',#526,#526,#535,.T.);
#535 = CIRCLE('',#536,6.);
#536 = AXIS2_PLACEMENT_3D('',#537,#538,#539);
#537 = CARTESIAN_POINT('',(0.,0.,5.));
#538 = DIRECTION('',(0.,-0.,1.));
#539 = DIRECTION('',(0.,1.,0.));
#540 = ORIENTED_EDGE('',*,*,#525,.T.);
#541 = ORIENTED_EDGE('',*,*,#247,.F.);
#542 = TOROIDAL_SURFACE('',#543,7.,1.);
#543 = AXIS2_PLACEMENT_3D('',#544,#545,#546);
#544 = CARTESIAN_POINT('',(0.,0.,5.));
#545 = DIRECTION('',(0.,0.,1.));
#546 = DIRECTION('',(0.,1.,0.));
#547 = ADVANCED_FACE('',(#548),#568,.F.);
#548 = FACE_BOUND('',#549,.F.);
#549 = EDGE_LOOP('',(#550,#559,#566,#567));
#550 = ORIENTED_EDGE('',*,*,#551,.T.);
#551 = EDGE_CURVE('',#552,#552,#554,.T.);
#552 = VERTEX_POINT('',#553);
#553 = CARTESIAN_POINT('',(26.,2.960594688217E-16,5.));
#554 = CIRCLE('',#555,6.);
#555 = AXIS2_PLACEMENT_3D('',#556,#557,#558);
#556 = CARTESIAN_POINT('',(20.,1.110223024625E-15,5.));
#557 = DIRECTION('',(-0.,2.22044604925E-16,1.));
#558 = DIRECTION('',(1.,0.,0.));
#559 = ORIENTED_EDGE('',*,*,#560,.T.);
#560 = EDGE_CURVE('',#552,#259,#561,.T.);
#561 = CIRCLE('',#562,1.);
#562 = AXIS2_PLACEMENT_3D('',#563,#564,#565);
#563 = CARTESIAN_POINT('',(27.,1.110223024625E-15,5.));
#564 = DIRECTION('',(0.,-1.,2.22044604925E-16));
#565 = DIRECTION('',(1.,0.,0.));
#566 = ORIENTED_EDGE('',*,*,#258,.F.);
#567 = ORIENTED_EDGE('',*,*,#560,.F.);
#568 = TOROIDAL_SURFACE('',#569,7.,1.);
#569 = AXIS2_PLACEMENT_3D('',#570,#571,#572);
#570 = CARTESIAN_POINT('',(20.,1.110223024625E-15,5.));
#571 = DIRECTION('',(0.,2.22044604925E-16,1.));
#572 = DIRECTION('',(1.,0.,0.));
#573 = ADVANCED_FACE('',(#574),#594,.F.);
#574 = FACE_BOUND('',#575,.F.);
#575 = EDGE_LOOP('',(#576,#585,#592,#593));
#576 = ORIENTED_EDGE('',*,*,#577,.F.);
#577 = EDGE_CURVE('',#578,#281,#580,.T.);
#578 = VERTEX_POINT('',#579);
#579 = CARTESIAN_POINT('',(16.,17.32,5.));
#580 = CIRCLE('',#581,1.);
#581 = AXIS2_PLACEMENT_3D('',#582,#583,#584);
#582 = CARTESIAN_POINT('',(17.,17.32,5.));
#583 = DIRECTION('',(0.,-1.,2.22044604925E-16));
#584 = DIRECTION('',(1.,0.,0.));
#585 = ORIENTED_EDGE('',*,*,#586,.T.);
#586 = EDGE_CURVE('',#578,#578,#587,.T.);
#587 = CIRCLE('',#588,6.);
#588 = AXIS2_PLACEMENT_3D('',#589,#590,#591);
#589 = CARTESIAN_POINT('',(10.,17.32,5.));
#590 = DIRECTION('',(-0.,2.22044604925E-16,1.));
#591 = DIRECTION('',(1.,0.,0.));
#592 = ORIENTED_EDGE('',*,*,#577,.T.);
#593 = ORIENTED_EDGE('',*,*,#280,.F.);
#594 = TOROIDAL_SURFACE('',#595,7.,1.);
#595 = AXIS2_PLACEMENT_3D('',#596,#597,#598);
#596 = CARTESIAN_POINT('',(10.,17.32,5.));
#597 = DIRECTION('',(0.,2.22044604925E-16,1.));
#598 = DIRECTION('',(1.,0.,0.));
#599 = ADVANCED_FACE('',(#600),#603,.T.);
#600 = FACE_BOUND('',#601,.T.);
#601 = EDGE_LOOP('',(#602));
#602 = ORIENTED_EDGE('',*,*,#430,.T.);
#603 = PLANE('',#604);
#604 = AXIS2_PLACEMENT_3D('',#605,#606,#607);
#605 = CARTESIAN_POINT('',(-1.268350267863E-15,-1.408343819019E-15,5.));
#606 = DIRECTION('',(0.,0.,1.));
#607 = DIRECTION('',(1.,0.,0.));
#608 = ADVANCED_FACE('',(#609),#612,.T.);
#609 = FACE_BOUND('',#610,.T.);
#610 = EDGE_LOOP('',(#611));
#611 = ORIENTED_EDGE('',*,*,#456,.F.);
#612 = PLANE('',#613);
#613 = AXIS2_PLACEMENT_3D('',#614,#615,#616);
#614 = CARTESIAN_POINT('',(-1.268350267863E-15,-1.408343819019E-15,5.));
#615 = DIRECTION('',(0.,0.,1.));
#616 = DIRECTION('',(1.,0.,0.));
#617 = ADVANCED_FACE('',(#618),#621,.T.);
#618 = FACE_BOUND('',#619,.T.);
#619 = EDGE_LOOP('',(#620));
#620 = ORIENTED_EDGE('',*,*,#482,.F.);
#621 = PLANE('',#622);
#622 = AXIS2_PLACEMENT_3D('',#623,#624,#625);
#623 = CARTESIAN_POINT('',(-1.268350267863E-15,-1.408343819019E-15,5.));
#624 = DIRECTION('',(0.,0.,1.));
#625 = DIRECTION('',(1.,0.,0.));
#626 = ADVANCED_FACE('',(#627),#630,.T.);
#627 = FACE_BOUND('',#628,.T.);
#628 = EDGE_LOOP('',(#629));
#629 = ORIENTED_EDGE('',*,*,#508,.F.);
#630 = PLANE('',#631);
#631 = AXIS2_PLACEMENT_3D('',#632,#633,#634);
#632 = CARTESIAN_POINT('',(-1.268350267863E-15,-1.408343819019E-15,5.));
#633 = DIRECTION('',(0.,0.,1.));
#634 = DIRECTION('',(1.,0.,0.));
#635 = ADVANCED_FACE('',(#636),#639,.T.);
#636 = FACE_BOUND('',#637,.T.);
#637 = EDGE_LOOP('',(#638));
#638 = ORIENTED_EDGE('',*,*,#534,.T.);
#639 = PLANE('',#640);
#640 = AXIS2_PLACEMENT_3D('',#641,#642,#643);
#641 = CARTESIAN_POINT('',(-1.268350267863E-15,-1.408343819019E-15,5.));
#642 = DIRECTION('',(0.,0.,1.));
#643 = DIRECTION('',(1.,0.,0.));
#644 = ADVANCED_FACE('',(#645),#648,.T.);
#645 = FACE_BOUND('',#646,.T.);
#646 = EDGE_LOOP('',(#647));
#647 = ORIENTED_EDGE('',*,*,#551,.T.);
#648 = PLANE('',#649);
#649 = AXIS2_PLACEMENT_3D('',#650,#651,#652);
#650 = CARTESIAN_POINT('',(-1.268350267863E-15,-1.408343819019E-15,5.));
#651 = DIRECTION('',(0.,0.,1.));
#652 = DIRECTION('',(1.,0.,0.));
#653 = ADVANCED_FACE('',(#654),#657,.T.);
#654 = FACE_BOUND('',#655,.T.);
#655 = EDGE_LOOP('',(#656));
#656 = ORIENTED_EDGE('',*,*,#586,.T.);
#657 = PLANE('',#658);
#658 = AXIS2_PLACEMENT_3D('',#659,#660,#661);
#659 = CARTESIAN_POINT('',(-1.268350267863E-15,-1.408343819019E-15,5.));
#660 = DIRECTION('',(0.,0.,1.));
#661 = DIRECTION('',(1.,0.,0.));
#662 = ( GEOMETRIC_REPRESENTATION_CONTEXT(3) 
GLOBAL_UNCERTAINTY_ASSIGNED_CONTEXT((#666)) GLOBAL_UNIT_ASSIGNED_CONTEXT
((#663,#664,#665)) REPRESENTATION_CONTEXT('Context #1',
  '3D Context with UNIT and UNCERTAINTY') );
#663 = ( LENGTH_UNIT() NAMED_UNIT(*) SI_UNIT(.MILLI.,.METRE.) );
#664 = ( NAMED_UNIT(*) PLANE_ANGLE_UNIT() SI_UNIT($,.RADIAN.) );
#665 = ( NAMED_UNIT(*) SI_UNIT($,.STERADIAN.) SOLID_ANGLE_UNIT() );
#666 = UNCERTAINTY_MEASURE_WITH_UNIT(LENGTH_MEASURE(2.E-06),#663,
  'distance_accuracy_value','confusion accuracy');
#667 = PRODUCT_RELATED_PRODUCT_CATEGORY('part',$,(#7));
#668 = MECHANICAL_DESIGN_GEOMETRIC_PRESENTATION_REPRESENTATION('',(#669)
  ,#662);
#669 = STYLED_ITEM('color',(#670),#15);
#670 = PRESENTATION_STYLE_ASSIGNMENT((#671,#677));
#671 = SURFACE_STYLE_USAGE(.BOTH.,#672);
#672 = SURFACE_SIDE_STYLE('',(#673));
#673 = SURFACE_STYLE_FILL_AREA(#674);
#674 = FILL_AREA_STYLE('',(#675));
#675 = FILL_AREA_STYLE_COLOUR('',#676);
#676 = COLOUR_RGB('',0.678431390124,0.709803936702,0.741176476869);
#677 = CURVE_STYLE('',#678,POSITIVE_LENGTH_MEASURE(0.1),#679);
#678 = DRAUGHTING_PRE_DEFINED_CURVE_FONT('continuous');
#679 = COLOUR_RGB('',9.803921802644E-02,9.803921802644E-02,
  9.803921802644E-02);
ENDSEC;
END-ISO-10303-21;
