ISO-10303-21;
HEADER;
FILE_DESCRIPTION(('FreeCAD Model'),'2;1');
FILE_NAME('Open CASCADE Shape Model','2026-09-28T11:18:42',('Author'),(
    ''),'Open CASCADE STEP processor 7.8','FreeCAD','Unknown');
FILE_SCHEMA(('AUTOMOTIVE_DESIGN { 1 0 10303 214 1 1 1 1 }'));
ENDSEC;
DATA;
#1 = APPLICATION_PROTOCOL_DEFINITION('international standard',
  'automotive_design',2000,#2);
#2 = APPLICATION_CONTEXT(
  'core data for automotive mechanical design processes');
#3 = SHAPE_DEFINITION_REPRESENTATION(#4,#10);
#4 = PRODUCT_DEFINITION_SHAPE('','',#5);
#5 = PRODUCT_DEFINITION('design','',#6,#9);
#6 = PRODUCT_DEFINITION_FORMATION('','',#7);
#7 = PRODUCT('Body','Body','',(#8));
#8 = PRODUCT_CONTEXT('',#2,'mechanical');
#9 = PRODUCT_DEFINITION_CONTEXT('part definition',#2,'design');
#10 = ADVANCED_BREP_SHAPE_REPRESENTATION('',(#11,#15),#372);
#11 = AXIS2_PLACEMENT_3D('',#12,#13,#14);
#12 = CARTESIAN_POINT('',(0.,0.,0.));
#13 = DIRECTION('',(0.,0.,1.));
#14 = DIRECTION('',(1.,0.,-0.));
#15 = MANIFOLD_SOLID_BREP('',#16);
#16 = CLOSED_SHELL('',(#17,#50,#75,#95,#104,#129,#155,#214,#245,#269,
    #293,#317,#341,#358));
#17 = ADVANCED_FACE('',(#18),#45,.T.);
#18 = FACE_BOUND('',#19,.T.);
#19 = EDGE_LOOP('',(#20,#30,#37,#38));
#20 = ORIENTED_EDGE('',*,*,#21,.T.);
#21 = EDGE_CURVE('',#22,#24,#26,.T.);
#22 = VERTEX_POINT('',#23);
#23 = CARTESIAN_POINT('',(3.,0.,0.));
#24 = VERTEX_POINT('',#25);
#25 = CARTESIAN_POINT('',(3.,0.,-24.52));
#26 = LINE('',#27,#28);
#27 = CARTESIAN_POINT('',(3.,0.,0.));
#28 = VECTOR('',#29,1.);
#29 = DIRECTION('',(-0.,-0.,-1.));
#30 = ORIENTED_EDGE('',*,*,#31,.T.);
#31 = EDGE_CURVE('',#24,#24,#32,.T.);
#32 = CIRCLE('',#33,3.);
#33 = AXIS2_PLACEMENT_3D('',#34,#35,#36);
#34 = CARTESIAN_POINT('',(0.,0.,-24.52));
#35 = DIRECTION('',(0.,0.,1.));
#36 = DIRECTION('',(1.,0.,0.));
#37 = ORIENTED_EDGE('',*,*,#21,.F.);
#38 = ORIENTED_EDGE('',*,*,#39,.F.);
#39 = EDGE_CURVE('',#22,#22,#40,.T.);
#40 = CIRCLE('',#41,3.);
#41 = AXIS2_PLACEMENT_3D('',#42,#43,#44);
#42 = CARTESIAN_POINT('',(0.,0.,0.));
#43 = DIRECTION('',(0.,0.,1.));
#44 = DIRECTION('',(1.,0.,0.));
#45 = CYLINDRICAL_SURFACE('',#46,3.);
#46 = AXIS2_PLACEMENT_3D('',#47,#48,#49);
#47 = CARTESIAN_POINT('',(0.,0.,0.));
#48 = DIRECTION('',(0.,0.,1.));
#49 = DIRECTION('',(1.,0.,0.));
#50 = ADVANCED_FACE('',(#51),#70,.T.);
#51 = FACE_BOUND('',#52,.F.);
#52 = EDGE_LOOP('',(#53,#61,#62,#63));
#53 = ORIENTED_EDGE('',*,*,#54,.F.);
#54 = EDGE_CURVE('',#24,#55,#57,.T.);
#55 = VERTEX_POINT('',#56);
#56 = CARTESIAN_POINT('',(2.04,0.,-25.));
#57 = LINE('',#58,#59);
#58 = CARTESIAN_POINT('',(3.,0.,-24.52));
#59 = VECTOR('',#60,1.);
#60 = DIRECTION('',(-0.894427191,-0.,-0.4472135955));
#61 = ORIENTED_EDGE('',*,*,#31,.T.);
#62 = ORIENTED_EDGE('',*,*,#54,.T.);
#63 = ORIENTED_EDGE('',*,*,#64,.F.);
#64 = EDGE_CURVE('',#55,#55,#65,.T.);
#65 = CIRCLE('',#66,2.04);
#66 = AXIS2_PLACEMENT_3D('',#67,#68,#69);
#67 = CARTESIAN_POINT('',(0.,0.,-25.));
#68 = DIRECTION('',(0.,0.,1.));
#69 = DIRECTION('',(1.,0.,0.));
#70 = CONICAL_SURFACE('',#71,3.,1.107148717794);
#71 = AXIS2_PLACEMENT_3D('',#72,#73,#74);
#72 = CARTESIAN_POINT('',(0.,0.,-24.52));
#73 = DIRECTION('',(0.,0.,1.));
#74 = DIRECTION('',(1.,0.,0.));
#75 = ADVANCED_FACE('',(#76,#87),#90,.F.);
#76 = FACE_BOUND('',#77,.F.);
#77 = EDGE_LOOP('',(#78));
#78 = ORIENTED_EDGE('',*,*,#79,.T.);
#79 = EDGE_CURVE('',#80,#80,#82,.T.);
#80 = VERTEX_POINT('',#81);
#81 = CARTESIAN_POINT('',(5.,0.,0.));
#82 = CIRCLE('',#83,5.);
#83 = AXIS2_PLACEMENT_3D('',#84,#85,#86);
#84 = CARTESIAN_POINT('',(0.,0.,0.));
#85 = DIRECTION('',(0.,0.,1.));
#86 = DIRECTION('',(1.,0.,0.));
#87 = FACE_BOUND('',#88,.F.);
#88 = EDGE_LOOP('',(#89));
#89 = ORIENTED_EDGE('',*,*,#39,.F.);
#90 = PLANE('',#91);
#91 = AXIS2_PLACEMENT_3D('',#92,#93,#94);
#92 = CARTESIAN_POINT('',(-2.734880265079E-16,6.938022664999E-17,0.));
#93 = DIRECTION('',(0.,0.,1.));
#94 = DIRECTION('',(1.,0.,0.));
#95 = ADVANCED_FACE('',(#96),#99,.F.);
#96 = FACE_BOUND('',#97,.F.);
#97 = EDGE_LOOP('',(#98));
#98 = ORIENTED_EDGE('',*,*,#64,.T.);
#99 = PLANE('',#100);
#100 = AXIS2_PLACEMENT_3D('',#101,#102,#103);
#101 = CARTESIAN_POINT('',(-2.279066887566E-16,-8.51133553645E-18,-25.)
  );
#102 = DIRECTION('',(0.,0.,1.));
#103 = DIRECTION('',(1.,0.,0.));
#104 = ADVANCED_FACE('',(#105),#124,.T.);
#105 = FACE_BOUND('',#106,.F.);
#106 = EDGE_LOOP('',(#107,#115,#122,#123));
#107 = ORIENTED_EDGE('',*,*,#108,.T.);
#108 = EDGE_CURVE('',#80,#109,#111,.T.);
#109 = VERTEX_POINT('',#110);
#110 = CARTESIAN_POINT('',(5.,0.,5.4));
#111 = LINE('',#112,#113);
#112 = CARTESIAN_POINT('',(5.,0.,0.));
#113 = VECTOR('',#114,1.);
#114 = DIRECTION('',(0.,0.,1.));
#115 = ORIENTED_EDGE('',*,*,#116,.T.);
#116 = EDGE_CURVE('',#109,#109,#117,.T.);
#117 = CIRCLE('',#118,5.);
#118 = AXIS2_PLACEMENT_3D('',#119,#120,#121);
#119 = CARTESIAN_POINT('',(0.,0.,5.4));
#120 = DIRECTION('',(0.,0.,1.));
#121 = DIRECTION('',(1.,0.,0.));
#122 = ORIENTED_EDGE('',*,*,#108,.F.);
#123 = ORIENTED_EDGE('',*,*,#79,.F.);
#124 = CYLINDRICAL_SURFACE('',#125,5.);
#125 = AXIS2_PLACEMENT_3D('',#126,#127,#128);
#126 = CARTESIAN_POINT('',(0.,0.,0.));
#127 = DIRECTION('',(-0.,-0.,-1.));
#128 = DIRECTION('',(1.,0.,0.));
#129 = ADVANCED_FACE('',(#130),#150,.T.);
#130 = FACE_BOUND('',#131,.T.);
#131 = EDGE_LOOP('',(#132,#141,#142,#143));
#132 = ORIENTED_EDGE('',*,*,#133,.F.);
#133 = EDGE_CURVE('',#109,#134,#136,.T.);
#134 = VERTEX_POINT('',#135);
#135 = CARTESIAN_POINT('',(4.4,0.,6.));
#136 = CIRCLE('',#137,0.6);
#137 = AXIS2_PLACEMENT_3D('',#138,#139,#140);
#138 = CARTESIAN_POINT('',(4.4,0.,5.4));
#139 = DIRECTION('',(0.,-1.,0.));
#140 = DIRECTION('',(1.,0.,0.));
#141 = ORIENTED_EDGE('',*,*,#116,.T.);
#142 = ORIENTED_EDGE('',*,*,#133,.T.);
#143 = ORIENTED_EDGE('',*,*,#144,.F.);
#144 = EDGE_CURVE('',#134,#134,#145,.T.);
#145 = CIRCLE('',#146,4.4);
#146 = AXIS2_PLACEMENT_3D('',#147,#148,#149);
#147 = CARTESIAN_POINT('',(0.,0.,6.));
#148 = DIRECTION('',(0.,0.,1.));
#149 = DIRECTION('',(1.,0.,0.));
#150 = TOROIDAL_SURFACE('',#151,4.4,0.6);
#151 = AXIS2_PLACEMENT_3D('',#152,#153,#154);
#152 = CARTESIAN_POINT('',(0.,0.,5.4));
#153 = DIRECTION('',(0.,0.,1.));
#154 = DIRECTION('',(1.,0.,0.));
#155 = ADVANCED_FACE('',(#156,#159),#209,.T.);
#156 = FACE_BOUND('',#157,.T.);
#157 = EDGE_LOOP('',(#158));
#158 = ORIENTED_EDGE('',*,*,#144,.T.);
#159 = FACE_BOUND('',#160,.T.);
#160 = EDGE_LOOP('',(#161,#171,#179,#187,#195,#203));
#161 = ORIENTED_EDGE('',*,*,#162,.F.);
#162 = EDGE_CURVE('',#163,#165,#167,.T.);
#163 = VERTEX_POINT('',#164);
#164 = CARTESIAN_POINT('',(2.89,0.,6.));
#165 = VERTEX_POINT('',#166);
#166 = CARTESIAN_POINT('',(1.445,2.502813416937,6.));
#167 = LINE('',#168,#169);
#168 = CARTESIAN_POINT('',(2.89,0.,6.));
#169 = VECTOR('',#170,1.);
#170 = DIRECTION('',(-0.5,0.866025403784,0.));
#171 = ORIENTED_EDGE('',*,*,#172,.F.);
#172 = EDGE_CURVE('',#173,#163,#175,.T.);
#173 = VERTEX_POINT('',#174);
#174 = CARTESIAN_POINT('',(1.445,-2.502813416937,6.));
#175 = LINE('',#176,#177);
#176 = CARTESIAN_POINT('',(1.445,-2.502813416937,6.));
#177 = VECTOR('',#178,1.);
#178 = DIRECTION('',(0.5,0.866025403784,0.));
#179 = ORIENTED_EDGE('',*,*,#180,.F.);
#180 = EDGE_CURVE('',#181,#173,#183,.T.);
#181 = VERTEX_POINT('',#182);
#182 = CARTESIAN_POINT('',(-1.445,-2.502813416937,6.));
#183 = LINE('',#184,#185);
#184 = CARTESIAN_POINT('',(-1.445,-2.502813416937,6.));
#185 = VECTOR('',#186,1.);
#186 = DIRECTION('',(1.,-6.146563458132E-16,0.));
#187 = ORIENTED_EDGE('',*,*,#188,.F.);
#188 = EDGE_CURVE('',#189,#181,#191,.T.);
#189 = VERTEX_POINT('',#190);
#190 = CARTESIAN_POINT('',(-2.89,4.440892098501E-16,6.));
#191 = LINE('',#192,#193);
#192 = CARTESIAN_POINT('',(-2.89,4.440892098501E-16,6.));
#193 = VECTOR('',#194,1.);
#194 = DIRECTION('',(0.5,-0.866025403784,0.));
#195 = ORIENTED_EDGE('',*,*,#196,.F.);
#196 = EDGE_CURVE('',#197,#189,#199,.T.);
#197 = VERTEX_POINT('',#198);
#198 = CARTESIAN_POINT('',(-1.445,2.502813416937,6.));
#199 = LINE('',#200,#201);
#200 = CARTESIAN_POINT('',(-1.445,2.502813416937,6.));
#201 = VECTOR('',#202,1.);
#202 = DIRECTION('',(-0.5,-0.866025403784,0.));
#203 = ORIENTED_EDGE('',*,*,#204,.F.);
#204 = EDGE_CURVE('',#165,#197,#205,.T.);
#205 = LINE('',#206,#207);
#206 = CARTESIAN_POINT('',(1.445,2.502813416937,6.));
#207 = VECTOR('',#208,1.);
#208 = DIRECTION('',(-1.,1.536640864533E-16,0.));
#209 = PLANE('',#210);
#210 = AXIS2_PLACEMENT_3D('',#211,#212,#213);
#211 = CARTESIAN_POINT('',(-2.734880265079E-16,6.938022664999E-17,6.));
#212 = DIRECTION('',(0.,0.,1.));
#213 = DIRECTION('',(1.,0.,0.));
#214 = ADVANCED_FACE('',(#215),#240,.F.);
#215 = FACE_BOUND('',#216,.F.);
#216 = EDGE_LOOP('',(#217,#225,#233,#239));
#217 = ORIENTED_EDGE('',*,*,#218,.T.);
#218 = EDGE_CURVE('',#163,#219,#221,.T.);
#219 = VERTEX_POINT('',#220);
#220 = CARTESIAN_POINT('',(2.89,0.,3.));
#221 = LINE('',#222,#223);
#222 = CARTESIAN_POINT('',(2.89,0.,6.));
#223 = VECTOR('',#224,1.);
#224 = DIRECTION('',(-0.,-0.,-1.));
#225 = ORIENTED_EDGE('',*,*,#226,.T.);
#226 = EDGE_CURVE('',#219,#227,#229,.T.);
#227 = VERTEX_POINT('',#228);
#228 = CARTESIAN_POINT('',(1.445,2.502813416937,3.));
#229 = LINE('',#230,#231);
#230 = CARTESIAN_POINT('',(2.89,0.,3.));
#231 = VECTOR('',#232,1.);
#232 = DIRECTION('',(-0.5,0.866025403784,0.));
#233 = ORIENTED_EDGE('',*,*,#234,.F.);
#234 = EDGE_CURVE('',#165,#227,#235,.T.);
#235 = LINE('',#236,#237);
#236 = CARTESIAN_POINT('',(1.445,2.502813416937,6.));
#237 = VECTOR('',#238,1.);
#238 = DIRECTION('',(-0.,-0.,-1.));
#239 = ORIENTED_EDGE('',*,*,#162,.F.);
#240 = PLANE('',#241);
#241 = AXIS2_PLACEMENT_3D('',#242,#243,#244);
#242 = CARTESIAN_POINT('',(2.89,0.,6.));
#243 = DIRECTION('',(0.866025403784,0.5,0.));
#244 = DIRECTION('',(-0.5,0.866025403784,0.));
#245 = ADVANCED_FACE('',(#246),#264,.F.);
#246 = FACE_BOUND('',#247,.F.);
#247 = EDGE_LOOP('',(#248,#249,#257,#263));
#248 = ORIENTED_EDGE('',*,*,#234,.T.);
#249 = ORIENTED_EDGE('',*,*,#250,.T.);
#250 = EDGE_CURVE('',#227,#251,#253,.T.);
#251 = VERTEX_POINT('',#252);
#252 = CARTESIAN_POINT('',(-1.445,2.502813416937,3.));
#253 = LINE('',#254,#255);
#254 = CARTESIAN_POINT('',(1.445,2.502813416937,3.));
#255 = VECTOR('',#256,1.);
#256 = DIRECTION('',(-1.,1.536640864533E-16,0.));
#257 = ORIENTED_EDGE('',*,*,#258,.F.);
#258 = EDGE_CURVE('',#197,#251,#259,.T.);
#259 = LINE('',#260,#261);
#260 = CARTESIAN_POINT('',(-1.445,2.502813416937,6.));
#261 = VECTOR('',#262,1.);
#262 = DIRECTION('',(-0.,-0.,-1.));
#263 = ORIENTED_EDGE('',*,*,#204,.F.);
#264 = PLANE('',#265);
#265 = AXIS2_PLACEMENT_3D('',#266,#267,#268);
#266 = CARTESIAN_POINT('',(1.445,2.502813416937,6.));
#267 = DIRECTION('',(1.536640864533E-16,1.,0.));
#268 = DIRECTION('',(-1.,1.536640864533E-16,0.));
#269 = ADVANCED_FACE('',(#270),#288,.F.);
#270 = FACE_BOUND('',#271,.F.);
#271 = EDGE_LOOP('',(#272,#273,#281,#287));
#272 = ORIENTED_EDGE('',*,*,#258,.T.);
#273 = ORIENTED_EDGE('',*,*,#274,.T.);
#274 = EDGE_CURVE('',#251,#275,#277,.T.);
#275 = VERTEX_POINT('',#276);
#276 = CARTESIAN_POINT('',(-2.89,4.440892098501E-16,3.));
#277 = LINE('',#278,#279);
#278 = CARTESIAN_POINT('',(-1.445,2.502813416937,3.));
#279 = VECTOR('',#280,1.);
#280 = DIRECTION('',(-0.5,-0.866025403784,0.));
#281 = ORIENTED_EDGE('',*,*,#282,.F.);
#282 = EDGE_CURVE('',#189,#275,#283,.T.);
#283 = LINE('',#284,#285);
#284 = CARTESIAN_POINT('',(-2.89,4.440892098501E-16,6.));
#285 = VECTOR('',#286,1.);
#286 = DIRECTION('',(-0.,-0.,-1.));
#287 = ORIENTED_EDGE('',*,*,#196,.F.);
#288 = PLANE('',#289);
#289 = AXIS2_PLACEMENT_3D('',#290,#291,#292);
#290 = CARTESIAN_POINT('',(-1.445,2.502813416937,6.));
#291 = DIRECTION('',(-0.866025403784,0.5,0.));
#292 = DIRECTION('',(-0.5,-0.866025403784,0.));
#293 = ADVANCED_FACE('',(#294),#312,.F.);
#294 = FACE_BOUND('',#295,.F.);
#295 = EDGE_LOOP('',(#296,#297,#305,#311));
#296 = ORIENTED_EDGE('',*,*,#282,.T.);
#297 = ORIENTED_EDGE('',*,*,#298,.T.);
#298 = EDGE_CURVE('',#275,#299,#301,.T.);
#299 = VERTEX_POINT('',#300);
#300 = CARTESIAN_POINT('',(-1.445,-2.502813416937,3.));
#301 = LINE('',#302,#303);
#302 = CARTESIAN_POINT('',(-2.89,4.440892098501E-16,3.));
#303 = VECTOR('',#304,1.);
#304 = DIRECTION('',(0.5,-0.866025403784,0.));
#305 = ORIENTED_EDGE('',*,*,#306,.F.);
#306 = EDGE_CURVE('',#181,#299,#307,.T.);
#307 = LINE('',#308,#309);
#308 = CARTESIAN_POINT('',(-1.445,-2.502813416937,6.));
#309 = VECTOR('',#310,1.);
#310 = DIRECTION('',(-0.,-0.,-1.));
#311 = ORIENTED_EDGE('',*,*,#188,.F.);
#312 = PLANE('',#313);
#313 = AXIS2_PLACEMENT_3D('',#314,#315,#316);
#314 = CARTESIAN_POINT('',(-2.89,4.440892098501E-16,6.));
#315 = DIRECTION('',(-0.866025403784,-0.5,0.));
#316 = DIRECTION('',(0.5,-0.866025403784,0.));
#317 = ADVANCED_FACE('',(#318),#336,.F.);
#318 = FACE_BOUND('',#319,.F.);
#319 = EDGE_LOOP('',(#320,#321,#329,#335));
#320 = ORIENTED_EDGE('',*,*,#306,.T.);
#321 = ORIENTED_EDGE('',*,*,#322,.T.);
#322 = EDGE_CURVE('',#299,#323,#325,.T.);
#323 = VERTEX_POINT('',#324);
#324 = CARTESIAN_POINT('',(1.445,-2.502813416937,3.));
#325 = LINE('',#326,#327);
#326 = CARTESIAN_POINT('',(-1.445,-2.502813416937,3.));
#327 = VECTOR('',#328,1.);
#328 = DIRECTION('',(1.,-6.146563458132E-16,0.));
#329 = ORIENTED_EDGE('',*,*,#330,.F.);
#330 = EDGE_CURVE('',#173,#323,#331,.T.);
#331 = LINE('',#332,#333);
#332 = CARTESIAN_POINT('',(1.445,-2.502813416937,6.));
#333 = VECTOR('',#334,1.);
#334 = DIRECTION('',(-0.,-0.,-1.));
#335 = ORIENTED_EDGE('',*,*,#180,.F.);
#336 = PLANE('',#337);
#337 = AXIS2_PLACEMENT_3D('',#338,#339,#340);
#338 = CARTESIAN_POINT('',(-1.445,-2.502813416937,6.));
#339 = DIRECTION('',(-6.146563458132E-16,-1.,0.));
#340 = DIRECTION('',(1.,-6.146563458132E-16,0.));
#341 = ADVANCED_FACE('',(#342),#353,.F.);
#342 = FACE_BOUND('',#343,.F.);
#343 = EDGE_LOOP('',(#344,#345,#351,#352));
#344 = ORIENTED_EDGE('',*,*,#330,.T.);
#345 = ORIENTED_EDGE('',*,*,#346,.T.);
#346 = EDGE_CURVE('',#323,#219,#347,.T.);
#347 = LINE('',#348,#349);
#348 = CARTESIAN_POINT('',(1.445,-2.502813416937,3.));
#349 = VECTOR('',#350,1.);
#350 = DIRECTION('',(0.5,0.866025403784,0.));
#351 = ORIENTED_EDGE('',*,*,#218,.F.);
#352 = ORIENTED_EDGE('',*,*,#172,.F.);
#353 = PLANE('',#354);
#354 = AXIS2_PLACEMENT_3D('',#355,#356,#357);
#355 = CARTESIAN_POINT('',(1.445,-2.502813416937,6.));
#356 = DIRECTION('',(0.866025403784,-0.5,0.));
#357 = DIRECTION('',(0.5,0.866025403784,0.));
#358 = ADVANCED_FACE('',(#359),#367,.T.);
#359 = FACE_BOUND('',#360,.T.);
#360 = EDGE_LOOP('',(#361,#362,#363,#364,#365,#366));
#361 = ORIENTED_EDGE('',*,*,#226,.T.);
#362 = ORIENTED_EDGE('',*,*,#250,.T.);
#363 = ORIENTED_EDGE('',*,*,#274,.T.);
#364 = ORIENTED_EDGE('',*,*,#298,.T.);
#365 = ORIENTED_EDGE('',*,*,#322,.T.);
#366 = ORIENTED_EDGE('',*,*,#346,.T.);
#367 = PLANE('',#368);
#368 = AXIS2_PLACEMENT_3D('',#369,#370,#371);
#369 = CARTESIAN_POINT('',(0.,-2.561068107555E-17,3.));
#370 = DIRECTION('',(0.,0.,1.));
#371 = DIRECTION('',(1.,0.,0.));
#372 = ( GEOMETRIC_REPRESENTATION_CONTEXT(3) 
GLOBAL_UNCERTAINTY_ASSIGNED_CONTEXT((#376)) GLOBAL_UNIT_ASSIGNED_CONTEXT
((#373,#374,#375)) REPRESENTATION_CONTEXT('Context #1',
  '3D Context with UNIT and UNCERTAINTY') );
#373 = ( LENGTH_UNIT() NAMED_UNIT(*) SI_UNIT(.MILLI.,.METRE.) );
#374 = ( NAMED_UNIT(*) PLANE_ANGLE_UNIT() SI_UNIT($,.RADIAN.) );
#375 = ( NAMED_UNIT(*) SI_UNIT($,.STERADIAN.) SOLID_ANGLE_UNIT() );
#376 = UNCERTAINTY_MEASURE_WITH_UNIT(LENGTH_MEASURE(1.E-07),#373,
  'distance_accuracy_value','confusion accuracy');
#377 = PRODUCT_RELATED_PRODUCT_CATEGORY('part',$,(#7));
#378 = MECHANICAL_DESIGN_GEOMETRIC_PRESENTATION_REPRESENTATION('',(#379)
  ,#372);
#379 = STYLED_ITEM('color',(#380),#15);
#380 = PRESENTATION_STYLE_ASSIGNMENT((#381,#387));
#381 = SURFACE_STYLE_USAGE(.BOTH.,#382);
#382 = SURFACE_SIDE_STYLE('',(#383));
#383 = SURFACE_STYLE_FILL_AREA(#384);
#384 = FILL_AREA_STYLE('',(#385));
#385 = FILL_AREA_STYLE_COLOUR('',#386);
#386 = COLOUR_RGB('',0.447058818107,0.474509808674,0.501960817233);
#387 = CURVE_STYLE('',#388,POSITIVE_LENGTH_MEASURE(0.1),#389);
#388 = DRAUGHTING_PRE_DEFINED_CURVE_FONT('continuous');
#389 = COLOUR_RGB('',9.803921802644E-02,9.803921802644E-02,
  9.803921802644E-02);
ENDSEC;
END-ISO-10303-21;
