$MeshFormat
4.1 0 8
$EndMeshFormat
$PhysicalNames
2
2 2 "fixed_left_face"
3 1 "bar"
$EndPhysicalNames
$Entities
8 12 6 1
1 -1.5 -1.5 0 0 
2 -1.5 -1.5 50 0 
3 1.5 -1.5 50 0 
4 1.5 -1.5 0 0 
5 1.5 1.5 50 0 
6 1.5 1.5 0 0 
7 -1.5 1.5 50 0 
8 -1.5 1.5 0 0 
1 -1.5000001 -1.5000001 -1.000000011686097e-07 -1.4999999 -1.4999999 50.0000001 0 2 1 -2 
2 -1.5000001 -1.5000001 49.9999999 1.5000001 -1.4999999 50.0000001 0 2 2 -3 
3 1.4999999 -1.5000001 -1.000000011686097e-07 1.5000001 -1.4999999 50.0000001 0 2 4 -3 
4 -1.5000001 -1.5000001 -1e-07 1.5000001 -1.4999999 1e-07 0 2 1 -4 
5 1.4999999 -1.5000001 49.9999999 1.5000001 1.5000001 50.0000001 0 2 3 -5 
6 1.4999999 1.4999999 -1.000000011686097e-07 1.5000001 1.5000001 50.0000001 0 2 6 -5 
7 1.4999999 -1.5000001 -1e-07 1.5000001 1.5000001 1e-07 0 2 4 -6 
8 -1.5000001 1.4999999 49.9999999 1.5000001 1.5000001 50.0000001 0 2 5 -7 
9 -1.5000001 1.4999999 -1.000000011686097e-07 -1.4999999 1.5000001 50.0000001 0 2 8 -7 
10 -1.5000001 1.4999999 -1e-07 1.5000001 1.5000001 1e-07 0 2 6 -8 
11 -1.5000001 -1.5000001 49.9999999 -1.4999999 1.5000001 50.0000001 0 2 7 -2 
12 -1.5000001 -1.5000001 -1e-07 -1.4999999 1.5000001 1e-07 0 2 8 -1 
1 -1.5000001 -1.5000001 -1.000000011686097e-07 1.5000001 -1.4999999 50.0000001 0 4 1 2 -3 -4 
2 1.4999999 -1.5000001 -1.000000011686097e-07 1.5000001 1.5000001 50.0000001 0 4 3 5 -6 -7 
3 -1.5000001 1.4999999 -1.000000011686097e-07 1.5000001 1.5000001 50.0000001 0 4 6 8 -9 -10 
4 -1.5000001 -1.5000001 -1.000000011686097e-07 -1.4999999 1.5000001 50.0000001 0 4 9 11 -1 -12 
5 -1.5000001 -1.5000001 -1e-07 1.5000001 1.5000001 1e-07 1 2 4 4 7 10 12 
6 -1.5000001 -1.5000001 49.9999999 1.5000001 1.5000001 50.0000001 0 4 2 5 8 11 
1 -1.5000001 -1.5000001 -1.000000011686097e-07 1.5000001 1.5000001 50.0000001 1 1 6 -1 -2 -3 -4 -5 6 
$EndEntities
$Nodes
27 973 1 973
0 1 0 1
1
-1.5 -1.5 0
0 2 0 1
2
-1.5 -1.5 50
0 3 0 1
3
1.5 -1.5 50
0 4 0 1
4
1.5 -1.5 0
0 5 0 1
5
1.5 1.5 50
0 6 0 1
6
1.5 1.5 0
0 7 0 1
7
-1.5 1.5 50
0 8 0 1
8
-1.5 1.5 0
1 1 0 49
9
10
11
12
13
14
15
16
17
18
19
20
21
22
23
24
25
26
27
28
29
30
31
32
33
34
35
36
37
38
39
40
41
42
43
44
45
46
47
48
49
50
51
52
53
54
55
56
57
-1.5 -1.5 1
-1.5 -1.5 2
-1.5 -1.5 3
-1.5 -1.5 4
-1.5 -1.5 5
-1.5 -1.5 6
-1.5 -1.5 7
-1.5 -1.5 8
-1.5 -1.5 9
-1.5 -1.5 10
-1.5 -1.5 11
-1.5 -1.5 12
-1.5 -1.5 13
-1.5 -1.5 14
-1.5 -1.5 15
-1.5 -1.5 16
-1.5 -1.5 17
-1.5 -1.5 18
-1.5 -1.5 19
-1.5 -1.5 20
-1.5 -1.5 21
-1.5 -1.5 22
-1.5 -1.5 23
-1.5 -1.5 24
-1.5 -1.5 25
-1.5 -1.5 26
-1.5 -1.5 27
-1.5 -1.5 28
-1.5 -1.5 29
-1.5 -1.5 30
-1.5 -1.5 31
-1.5 -1.5 32
-1.5 -1.5 33
-1.5 -1.5 34
-1.5 -1.5 35
-1.5 -1.5 36
-1.5 -1.5 37
-1.5 -1.5 38
-1.5 -1.5 39
-1.5 -1.5 40
-1.5 -1.5 41
-1.5 -1.5 42
-1.5 -1.5 43
-1.5 -1.5 44
-1.5 -1.5 45
-1.5 -1.5 46
-1.5 -1.5 47
-1.5 -1.5 48
-1.5 -1.5 49
1 2 0 2
58
59
-0.5 -1.5 50
0.5 -1.5 50
1 3 0 49
60
61
62
63
64
65
66
67
68
69
70
71
72
73
74
75
76
77
78
79
80
81
82
83
84
85
86
87
88
89
90
91
92
93
94
95
96
97
98
99
100
101
102
103
104
105
106
107
108
1.5 -1.5 1
1.5 -1.5 2
1.5 -1.5 3
1.5 -1.5 4
1.5 -1.5 5
1.5 -1.5 6
1.5 -1.5 7
1.5 -1.5 8
1.5 -1.5 9
1.5 -1.5 10
1.5 -1.5 11
1.5 -1.5 12
1.5 -1.5 13
1.5 -1.5 14
1.5 -1.5 15
1.5 -1.5 16
1.5 -1.5 17
1.5 -1.5 18
1.5 -1.5 19
1.5 -1.5 20
1.5 -1.5 21
1.5 -1.5 22
1.5 -1.5 23
1.5 -1.5 24
1.5 -1.5 25
1.5 -1.5 26
1.5 -1.5 27
1.5 -1.5 28
1.5 -1.5 29
1.5 -1.5 30
1.5 -1.5 31
1.5 -1.5 32
1.5 -1.5 33
1.5 -1.5 34
1.5 -1.5 35
1.5 -1.5 36
1.5 -1.5 37
1.5 -1.5 38
1.5 -1.5 39
1.5 -1.5 40
1.5 -1.5 41
1.5 -1.5 42
1.5 -1.5 43
1.5 -1.5 44
1.5 -1.5 45
1.5 -1.5 46
1.5 -1.5 47
1.5 -1.5 48
1.5 -1.5 49
1 4 0 2
109
110
-0.5 -1.5 0
0.5 -1.5 0
1 5 0 2
111
112
1.5 -0.5 50
1.5 0.5 50
1 6 0 49
113
114
115
116
117
118
119
120
121
122
123
124
125
126
127
128
129
130
131
132
133
134
135
136
137
138
139
140
141
142
143
144
145
146
147
148
149
150
151
152
153
154
155
156
157
158
159
160
161
1.5 1.5 1
1.5 1.5 2
1.5 1.5 3
1.5 1.5 4
1.5 1.5 5
1.5 1.5 6
1.5 1.5 7
1.5 1.5 8
1.5 1.5 9
1.5 1.5 10
1.5 1.5 11
1.5 1.5 12
1.5 1.5 13
1.5 1.5 14
1.5 1.5 15
1.5 1.5 16
1.5 1.5 17
1.5 1.5 18
1.5 1.5 19
1.5 1.5 20
1.5 1.5 21
1.5 1.5 22
1.5 1.5 23
1.5 1.5 24
1.5 1.5 25
1.5 1.5 26
1.5 1.5 27
1.5 1.5 28
1.5 1.5 29
1.5 1.5 30
1.5 1.5 31
1.5 1.5 32
1.5 1.5 33
1.5 1.5 34
1.5 1.5 35
1.5 1.5 36
1.5 1.5 37
1.5 1.5 38
1.5 1.5 39
1.5 1.5 40
1.5 1.5 41
1.5 1.5 42
1.5 1.5 43
1.5 1.5 44
1.5 1.5 45
1.5 1.5 46
1.5 1.5 47
1.5 1.5 48
1.5 1.5 49
1 7 0 2
162
163
1.5 -0.5 0
1.5 0.5 0
1 8 0 2
164
165
0.5 1.5 50
-0.5 1.5 50
1 9 0 49
166
167
168
169
170
171
172
173
174
175
176
177
178
179
180
181
182
183
184
185
186
187
188
189
190
191
192
193
194
195
196
197
198
199
200
201
202
203
204
205
206
207
208
209
210
211
212
213
214
-1.5 1.5 1
-1.5 1.5 2
-1.5 1.5 3
-1.5 1.5 4
-1.5 1.5 5
-1.5 1.5 6
-1.5 1.5 7
-1.5 1.5 8
-1.5 1.5 9
-1.5 1.5 10
-1.5 1.5 11
-1.5 1.5 12
-1.5 1.5 13
-1.5 1.5 14
-1.5 1.5 15
-1.5 1.5 16
-1.5 1.5 17
-1.5 1.5 18
-1.5 1.5 19
-1.5 1.5 20
-1.5 1.5 21
-1.5 1.5 22
-1.5 1.5 23
-1.5 1.5 24
-1.5 1.5 25
-1.5 1.5 26
-1.5 1.5 27
-1.5 1.5 28
-1.5 1.5 29
-1.5 1.5 30
-1.5 1.5 31
-1.5 1.5 32
-1.5 1.5 33
-1.5 1.5 34
-1.5 1.5 35
-1.5 1.5 36
-1.5 1.5 37
-1.5 1.5 38
-1.5 1.5 39
-1.5 1.5 40
-1.5 1.5 41
-1.5 1.5 42
-1.5 1.5 43
-1.5 1.5 44
-1.5 1.5 45
-1.5 1.5 46
-1.5 1.5 47
-1.5 1.5 48
-1.5 1.5 49
1 10 0 2
215
216
0.5 1.5 0
-0.5 1.5 0
1 11 0 2
217
218
-1.5 0.5 50
-1.5 -0.5 50
1 12 0 2
219
220
-1.5 0.5 0
-1.5 -0.5 0
2 1 0 149
221
222
223
224
225
226
227
228
229
230
231
232
233
234
235
236
237
238
239
240
241
242
243
244
245
246
247
248
249
250
251
252
253
254
255
256
257
258
259
260
261
262
263
264
265
266
267
268
269
270
271
272
273
274
275
276
277
278
279
280
281
282
283
284
285
286
287
288
289
290
291
292
293
294
295
296
297
298
299
300
301
302
303
304
305
306
307
308
309
310
311
312
313
314
315
316
317
318
319
320
321
322
323
324
325
326
327
328
329
330
331
332
333
334
335
336
337
338
339
340
341
342
343
344
345
346
347
348
349
350
351
352
353
354
355
356
357
358
359
360
361
362
363
364
365
366
367
368
369
-0.6339745962155614 -1.5 2.5
0.6339745962155616 -1.5 5.5
0.6339745962155616 -1.5 7.5
0.6339745962155616 -1.5 9.5
0.6339745962155616 -1.5 11.5
0.6339745962155616 -1.5 13.5
0.6339745962155616 -1.5 15.5
0.6339745962155616 -1.5 17.5
0.6339745962155616 -1.5 19.5
0.6339745962155616 -1.5 21.5
0.6339745962155616 -1.5 23.5
0.6339745962155616 -1.5 25.5
0.6339745962155616 -1.5 27.5
0.6339745962155616 -1.5 29.5
0.6339745962155616 -1.5 31.5
0.6339745962155616 -1.5 33.5
0.6339745962155616 -1.5 35.5
0.6339745962155616 -1.5 37.5
0.6339745962155616 -1.5 39.5
0.6339745962155616 -1.5 41.5
0.6339745962155616 -1.5 43.5
0.6339745962155616 -1.5 45.5
0.6339745962155616 -1.5 47.5
1.77635683940025e-15 -1.5 49.06179990758395
0 -1.5 0.9382000924160661
-0.6339745962155614 -1.5 4.5
-0.6339745962155614 -1.5 6.5
-0.6339745962155614 -1.5 8.5
-0.6339745962155614 -1.5 10.5
-0.6339745962155614 -1.5 12.5
-0.6339745962155614 -1.5 14.5
-0.6339745962155614 -1.5 16.5
-0.6339745962155614 -1.5 18.5
-0.6339745962155614 -1.5 20.5
-0.6339745962155614 -1.5 22.5
-0.6339745962155614 -1.5 24.5
-0.6339745962155614 -1.5 26.5
-0.6339745962155614 -1.5 28.5
-0.6339745962155614 -1.5 30.5
-0.6339745962155614 -1.5 32.5
-0.6339745962155614 -1.5 34.5
-0.6339745962155614 -1.5 36.5
-0.6339745962155614 -1.5 38.5
-0.6339745962155614 -1.5 40.5
-0.6339745962155614 -1.5 42.5
-0.6339745962155614 -1.5 44.5
-0.6339745962155614 -1.5 46.5
0.6339745962155616 -1.5 3.5
-0.6339745962155614 -1.5 3.5
-0.6339745962155616 -1.5 5.5
-0.6339745962155616 -1.5 7.5
-0.6339745962155612 -1.5 9.5
-0.6339745962155612 -1.5 11.5
-0.6339745962155621 -1.5 13.5
-0.6339745962155621 -1.5 15.5
-0.6339745962155612 -1.5 17.5
-0.6339745962155612 -1.5 19.5
-0.6339745962155612 -1.5 21.5
-0.6339745962155627 -1.5 23.5
-0.6339745962155627 -1.5 25.5
-0.6339745962155612 -1.5 27.5
-0.6339745962155627 -1.5 29.5
-0.6339745962155627 -1.5 31.5
-0.6339745962155612 -1.5 33.5
-0.6339745962155612 -1.5 35.5
-0.6339745962155612 -1.5 37.5
-0.6339745962155643 -1.5 39.5
-0.6339745962155612 -1.5 41.5
-0.6339745962155643 -1.5 43.5
-0.6339745962155643 -1.5 45.5
-0.6339745962155614 -1.5 47.5
0.6339745962155616 -1.5 2.5
0.6339745962155621 -1.5 4.5
0.6339745962155621 -1.5 6.5
0.6339745962155621 -1.5 8.5
0.6339745962155621 -1.5 10.5
0.6339745962155621 -1.5 12.5
0.6339745962155621 -1.5 14.5
0.6339745962155621 -1.5 16.5
0.6339745962155621 -1.5 18.5
0.6339745962155621 -1.5 20.5
0.6339745962155621 -1.5 22.5
0.6339745962155621 -1.5 24.5
0.6339745962155621 -1.5 26.5
0.6339745962155621 -1.5 28.5
0.6339745962155621 -1.5 30.5
0.6339745962155621 -1.5 32.5
0.6339745962155621 -1.5 34.5
0.6339745962155621 -1.5 36.5
0.6339745962155621 -1.5 38.5
0.6339745962155621 -1.5 40.5
0.6339745962155621 -1.5 42.50000000000001
0.6339745962155621 -1.5 44.5
0.6339745962155621 -1.5 46.5
-0.7336539647744553 -1.5 48.47075437993229
0.7336539647744473 -1.5 1.529245620067722
-0.7336539647744476 -1.5 1.529245620067722
0.7336539647744571 -1.5 48.47075437993229
4.440892098500626e-16 -1.5 24.00000000000001
-6.661338147750939e-16 -1.5 43
-6.661338147750939e-16 -1.5 40
-6.661338147750939e-16 -1.5 44
-6.661338147750939e-16 -1.5 46
0 -1.5 25
-4.440892098500626e-16 -1.5 29
0 -1.5 26
-6.661338147750939e-16 -1.5 30
-4.440892098500626e-16 -1.5 32
-4.440892098500626e-16 -1.5 3
0 -1.5 5
-2.220446049250313e-16 -1.5 7
0 -1.5 9
2.220446049250313e-16 -1.5 11
-2.220446049250313e-16 -1.5 14
0 -1.5 16
2.220446049250313e-16 -1.5 17
0 -1.5 19
0 -1.5 27
0 -1.5 33
2.220446049250313e-16 -1.5 35
2.220446049250313e-16 -1.5 37
0 -1.5 41
-4.440892098500626e-16 -1.5 47
2.220446049250313e-16 -1.5 10
2.220446049250313e-16 -1.5 12
0 -1.5 6
0 -1.5 8
2.220446049250313e-16 -1.5 13
0 -1.5 15
2.220446049250313e-16 -1.5 18
2.220446049250313e-16 -1.5 22
-4.440892098500626e-16 -1.5 23
-4.440892098500626e-16 -1.5 31
2.220446049250313e-16 -1.5 34
2.220446049250313e-16 -1.5 36
0 -1.5 38
-6.661338147750939e-16 -1.5 39
-6.661338147750939e-16 -1.5 45
0 -1.5 4
0 -1.5 20
0 -1.5 21
0 -1.5 28
0 -1.5 42
0 -1.5 2.003719731865545
1.554312234475219e-15 -1.5 47.99890165457587
0.7679491924311761 -1.5 49.26794919243117
-0.7679491924311228 -1.5 0.7320508075688774
0.7679491924311228 -1.5 0.7320508075688774
-0.7679491924311761 -1.5 49.26794919243117
2 2 0 149
370
371
372
373
374
375
376
377
378
379
380
381
382
383
384
385
386
387
388
389
390
391
392
393
394
395
396
397
398
399
400
401
402
403
404
405
406
407
408
409
410
411
412
413
414
415
416
417
418
419
420
421
422
423
424
425
426
427
428
429
430
431
432
433
434
435
436
437
438
439
440
441
442
443
444
445
446
447
448
449
450
451
452
453
454
455
456
457
458
459
460
461
462
463
464
465
466
467
468
469
470
471
472
473
474
475
476
477
478
479
480
481
482
483
484
485
486
487
488
489
490
491
492
493
494
495
496
497
498
499
500
501
502
503
504
505
506
507
508
509
510
511
512
513
514
515
516
517
518
1.5 -0.7345025552767508 1.504600087906214
1.5 -0.6503206314411141 3.528312163512968
1.5 0.7331060732386123 5.479777026062165
1.5 0.6339745962155616 7.5
1.5 0.6339745962155616 9.5
1.5 0.6339745962155616 11.5
1.5 0.6339745962155616 13.5
1.5 0.6339745962155616 15.5
1.5 -0.6339745962155614 18.5
1.5 -0.6730792954889474 20.5
1.5 0.658252693814636 22.50736988846131
1.5 0.6339745962155616 24.5
1.5 0.6339745962155616 26.5
1.5 0.6339745962155616 28.5
1.5 0.6339745962155616 30.5
1.5 0.6339745962155616 32.5
1.5 0.6339745962155616 34.5
1.5 0.6339745962155616 36.5
1.5 0.6339745962155616 38.5
1.5 0.6339745962155616 40.5
1.5 0.6339745962155616 42.5
1.5 0.6339745962155616 44.5
1.5 0.6339745962155616 46.5
1.5 0.7345025552767619 48.49539991209378
1.5 -0.6339745962155614 6.5
1.5 -0.6339745962155614 8.5
1.5 -0.6339745962155614 10.5
1.5 -0.6339745962155614 12.5
1.5 -0.6339745962155614 14.5
1.5 -0.6339745962155614 16.5
1.5 -0.6339745962155614 23.5
1.5 -0.6339745962155614 25.5
1.5 -0.6339745962155614 27.5
1.5 -0.6339745962155614 29.5
1.5 -0.6339745962155614 31.5
1.5 -0.6339745962155614 33.5
1.5 -0.6339745962155614 35.5
1.5 -0.6339745962155614 37.5
1.5 -0.6339745962155614 39.5
1.5 -0.6339745962155614 41.5
1.5 -0.6339745962155614 43.5
1.5 -0.6339745962155614 45.5
1.5 -0.6339745962155614 47.5
1.5 0.7331060732386123 2.520222973937834
1.5 0.6339745962155616 17.5
1.5 0.658252693814636 19.49263011153869
1.5 -0.633974596215558 30.5
1.5 0.751024468113926 1.507970583562519
1.5 -0.7084747650837173 2.533797538749498
1.5 -0.6339745962155616 7.5
1.5 -0.6339745962155612 9.5
1.5 -0.6339745962155612 11.5
1.5 -0.6339745962155621 13.5
1.5 -0.6339745962155621 15.5
1.5 -0.6559178708269462 19.5
1.5 -0.6339745962155612 24.5
1.5 -0.6339745962155627 26.5
1.5 -0.6339745962155627 28.5
1.5 -0.6339745962155612 34.5
1.5 -0.6339745962155612 36.5
1.5 -0.6339745962155612 38.5
1.5 -0.6339745962155643 40.5
1.5 -0.6339745962155643 42.5
1.5 -0.6339745962155612 44.5
1.5 -0.6339745962155643 46.5
1.5 -0.6530449706453731 4.47640653040586
1.5 0.1169648623427304 4.000786448986471
1.5 -0.692174161774229 5.467755591554675
1.5 -0.6339745962155614 17.5
1.5 -0.6795967453678452 21.5
1.5 0.2313782881259345 21
1.5 -0.6562006284400458 22.5
1.5 -0.6339745962155612 32.50000000000001
1.5 -0.7345025552767621 48.49539991209378
1.5 0.6681845750883029 6.498771685256448
1.5 0.6339745962155621 8.5
1.5 0.6339745962155621 10.5
1.5 0.6339745962155621 12.5
1.5 0.6339745962155621 14.5
1.5 0.6339745962155621 16.5
1.5 0.6339745962155621 18.5
1.5 0.6339745962155621 23.5
1.5 0.6339745962155621 25.5
1.5 0.6339745962155621 27.5
1.5 0.6339745962155621 29.5
1.5 0.6339745962155621 31.5
1.5 0.6339745962155621 33.5
1.5 0.6339745962155621 35.5
1.5 0.6339745962155621 37.5
1.5 0.6339745962155621 39.5
1.5 0.6339745962155621 41.5
1.5 0.6339745962155621 43.5
1.5 0.6339745962155621 45.5
1.5 0.6584708813658011 47.49980042656244
1.5 0.001204221052272025 0.8634692774888788
1.5 -4.440892098500626e-16 49.13677638545981
1.5 0.7774107187738259 20.29852602230774
1.5 0.7774107187738264 21.70147397769226
1.5 0.05997972181873057 3.013853187531128
1.5 0.0622424325029356 4.987454266168195
1.5 -6.661338147750939e-16 41
1.5 -6.661338147750939e-16 43
1.5 -1.332267629550188e-15 47
1.5 -4.440892098500626e-16 31
1.5 0 32
1.5 -2.886579864025407e-15 22.99999999999999
1.5 -2.886579864025407e-15 30
1.5 -4.440892098500626e-16 27
1.5 -8.881784197001252e-16 29
1.5 -6.661338147750939e-16 7
1.5 0 9
1.5 2.220446049250313e-16 11
1.5 -2.220446049250313e-16 14
1.5 0 16
1.5 0 19
1.5 0 24
1.5 2.220446049250313e-16 34
1.5 2.220446049250313e-16 36
1.5 2.220446049250313e-16 38
1.5 0 44
1.5 0.02289738714001022 5.988959761506913
1.5 2.220446049250313e-16 10
1.5 2.220446049250313e-16 12
1.5 0 17
1.5 4.440892098500626e-16 33
1.5 -2.220446049250313e-16 8
1.5 2.220446049250313e-16 13
1.5 0 15
1.5 0 18
1.5 0 25
1.5 0 26
1.5 0 28
1.5 2.220446049250313e-16 35
1.5 2.220446049250313e-16 37
1.5 0 39
1.5 -6.661338147750939e-16 40
1.5 -6.661338147750939e-16 42
1.5 4.440892098500626e-16 45
1.5 -6.661338147750939e-16 46
1.5 -8.881784197001252e-16 48
1.5 0.004439867236874839 1.997566710449468
1.5 0.01848120372491291 22.01268488011137
1.5 0.02748288937984755 19.98224116784408
1.5 0.8424426490476202 4.498057442979642
1.5 0.8139452389168795 3.503919053980367
1.5 -0.7730407354450097 49.27304073544501
1.5 0.7730407354450097 49.27304073544501
1.5 -0.7730407354449434 0.7269592645550564
1.5 0.7730407354449436 0.7269592645550564
2 3 0 149
519
520
521
522
523
524
525
526
527
528
529
530
531
532
533
534
535
536
537
538
539
540
541
542
543
544
545
546
547
548
549
550
551
552
553
554
555
556
557
558
559
560
561
562
563
564
565
566
567
568
569
570
571
572
573
574
575
576
577
578
579
580
581
582
583
584
585
586
587
588
589
590
591
592
593
594
595
596
597
598
599
600
601
602
603
604
605
606
607
608
609
610
611
612
613
614
615
616
617
618
619
620
621
622
623
624
625
626
627
628
629
630
631
632
633
634
635
636
637
638
639
640
641
642
643
644
645
646
647
648
649
650
651
652
653
654
655
656
657
658
659
660
661
662
663
664
665
666
667
0.7345025552767508 1.5 1.504600087906214
0.6503206314411141 1.5 3.528312163512968
-0.7331060732386123 1.5 5.479777026062165
-0.6339745962155616 1.5 7.5
-0.6339745962155616 1.5 9.5
-0.6339745962155616 1.5 11.5
-0.6339745962155616 1.5 13.5
-0.6339745962155616 1.5 15.5
-0.6339745962155616 1.5 17.5
-0.6339745962155616 1.5 19.5
-0.6339745962155616 1.5 21.5
-0.6339745962155616 1.5 23.5
-0.6339745962155616 1.5 25.5
-0.6339745962155616 1.5 27.5
-0.6339745962155616 1.5 29.5
-0.6339745962155616 1.5 31.5
-0.6339745962155616 1.5 33.5
-0.6339745962155616 1.5 35.5
-0.6339745962155616 1.5 37.5
-0.6339745962155616 1.5 39.5
-0.6339745962155616 1.5 41.5
-0.6339745962155616 1.5 43.5
-0.6339745962155616 1.5 45.5
-0.6339745962155616 1.5 47.5
-1.77635683940025e-15 1.5 49.06179990758395
0.6339745962155614 1.5 6.5
0.6339745962155614 1.5 8.5
0.6339745962155614 1.5 10.5
0.6339745962155614 1.5 12.5
0.6339745962155614 1.5 14.5
0.6339745962155614 1.5 16.5
0.6339745962155614 1.5 18.5
0.6339745962155614 1.5 20.5
0.6339745962155614 1.5 22.5
0.6339745962155614 1.5 24.5
0.6339745962155614 1.5 26.5
0.6339745962155614 1.5 28.5
0.6339745962155614 1.5 30.5
0.6339745962155614 1.5 32.5
0.6339745962155614 1.5 34.5
0.6339745962155614 1.5 36.5
0.6339745962155614 1.5 38.5
0.6339745962155614 1.5 40.5
0.6339745962155614 1.5 42.5
0.6339745962155614 1.5 44.5
0.6339745962155614 1.5 46.5
-0.7331060732386123 1.5 2.520222973937834
-0.751024468113926 1.5 1.507970583562519
0.7084747650837173 1.5 2.533797538749498
0.6339745962155616 1.5 7.5
0.6339745962155612 1.5 9.5
0.6339745962155612 1.5 11.5
0.6339745962155621 1.5 13.5
0.6339745962155621 1.5 15.5
0.6339745962155612 1.5 17.5
0.6339745962155612 1.5 19.5
0.6339745962155612 1.5 21.5
0.6339745962155627 1.5 23.5
0.6339745962155627 1.5 25.5
0.6339745962155612 1.5 27.5
0.6339745962155627 1.5 29.5
0.6339745962155627 1.5 31.5
0.6339745962155612 1.5 33.5
0.6339745962155612 1.5 35.5
0.6339745962155612 1.5 37.5
0.6339745962155643 1.5 39.5
0.6339745962155612 1.5 41.5
0.6339745962155643 1.5 43.5
0.6339745962155643 1.5 45.5
0.6530449706453731 1.5 4.47640653040586
-0.1169648623427304 1.5 4.000786448986471
0.692174161774229 1.5 5.467755591554675
0.6339745962155614 1.5 47.5
-0.6681845750883029 1.5 6.498771685256448
-0.6339745962155621 1.5 8.5
-0.6339745962155621 1.5 10.5
-0.6339745962155621 1.5 12.5
-0.6339745962155621 1.5 14.5
-0.6339745962155621 1.5 16.5
-0.6339745962155621 1.5 18.5
-0.6339745962155621 1.5 20.5
-0.6339745962155621 1.5 22.5
-0.6339745962155621 1.5 24.5
-0.6339745962155621 1.5 26.5
-0.6339745962155621 1.5 28.5
-0.6339745962155621 1.5 30.5
-0.6339745962155621 1.5 32.5
-0.6339745962155621 1.5 34.5
-0.6339745962155621 1.5 36.5
-0.6339745962155621 1.5 38.5
-0.6339745962155621 1.5 40.5
-0.6339745962155621 1.5 42.50000000000001
-0.6339745962155621 1.5 44.5
-0.6339745962155621 1.5 46.5
0.7336539647744553 1.5 48.47075437993229
-0.7336539647744571 1.5 48.47075437993229
-0.001204221052272025 1.5 0.8634692774888788
-0.05997972181873057 1.5 3.013853187531128
-0.0622424325029356 1.5 4.987454266168195
-4.440892098500626e-16 1.5 24.00000000000001
6.661338147750939e-16 1.5 43
6.661338147750939e-16 1.5 40
6.661338147750939e-16 1.5 44
6.661338147750939e-16 1.5 46
0 1.5 25
4.440892098500626e-16 1.5 29
0 1.5 26
6.661338147750939e-16 1.5 30
4.440892098500626e-16 1.5 32
6.661338147750939e-16 1.5 7
0 1.5 9
-2.220446049250313e-16 1.5 11
2.220446049250313e-16 1.5 14
0 1.5 16
-2.220446049250313e-16 1.5 17
0 1.5 19
0 1.5 27
0 1.5 33
-2.220446049250313e-16 1.5 35
-2.220446049250313e-16 1.5 37
0 1.5 41
4.440892098500626e-16 1.5 47
-0.02289738714001022 1.5 5.988959761506913
-2.220446049250313e-16 1.5 10
-2.220446049250313e-16 1.5 12
2.220446049250313e-16 1.5 8
-2.220446049250313e-16 1.5 13
0 1.5 15
-2.220446049250313e-16 1.5 18
-2.220446049250313e-16 1.5 22
4.440892098500626e-16 1.5 23
4.440892098500626e-16 1.5 31
-2.220446049250313e-16 1.5 34
-2.220446049250313e-16 1.5 36
0 1.5 38
6.661338147750939e-16 1.5 39
6.661338147750939e-16 1.5 45
-0.004439867236874839 1.5 1.997566710449468
0 1.5 20
0 1.5 21
0 1.5 28
0 1.5 42
-0.8424426490476202 1.5 4.498057442979642
-0.8139452389168795 1.5 3.503919053980367
-1.554312234475219e-15 1.5 47.99890165457587
-0.7679491924311761 1.5 49.26794919243117
0.7679491924311761 1.5 49.26794919243117
0.7730407354449434 1.5 0.7269592645550564
-0.7730407354449436 1.5 0.7269592645550564
2 4 0 149
668
669
670
671
672
673
674
675
676
677
678
679
680
681
682
683
684
685
686
687
688
689
690
691
692
693
694
695
696
697
698
699
700
701
702
703
704
705
706
707
708
709
710
711
712
713
714
715
716
717
718
719
720
721
722
723
724
725
726
727
728
729
730
731
732
733
734
735
736
737
738
739
740
741
742
743
744
745
746
747
748
749
750
751
752
753
754
755
756
757
758
759
760
761
762
763
764
765
766
767
768
769
770
771
772
773
774
775
776
777
778
779
780
781
782
783
784
785
786
787
788
789
790
791
792
793
794
795
796
797
798
799
800
801
802
803
804
805
806
807
808
809
810
811
812
813
814
815
816
-1.5 -0.7345025552767508 1.504600087906214
-1.5 -0.6339745962155616 3.5
-1.5 -0.6339745962155616 5.5
-1.5 -0.6339745962155616 7.5
-1.5 -0.6339745962155616 9.5
-1.5 -0.6339745962155616 11.5
-1.5 -0.6339745962155616 13.5
-1.5 -0.6339745962155616 15.5
-1.5 -0.6339745962155616 17.5
-1.5 -0.6339745962155616 19.5
-1.5 -0.6339745962155616 21.5
-1.5 -0.6339745962155616 23.5
-1.5 -0.6339745962155616 25.5
-1.5 -0.6339745962155616 27.5
-1.5 -0.6339745962155616 29.5
-1.5 -0.6339745962155616 31.5
-1.5 -0.6339745962155616 33.5
-1.5 -0.6339745962155616 35.5
-1.5 -0.6339745962155616 37.5
-1.5 -0.6339745962155616 39.5
-1.5 -0.6339745962155616 41.5
-1.5 -0.6339745962155616 43.5
-1.5 -0.6339745962155616 45.5
-1.5 -0.6339745962155616 47.5
-1.5 -1.77635683940025e-15 49.06179990758395
-1.5 0.6339745962155614 2.5
-1.5 0.6339745962155614 4.5
-1.5 0.6339745962155614 6.5
-1.5 0.6339745962155614 8.5
-1.5 0.6339745962155614 10.5
-1.5 0.6339745962155614 12.5
-1.5 0.6339745962155614 14.5
-1.5 0.6339745962155614 16.5
-1.5 0.6339745962155614 18.5
-1.5 0.6339745962155614 20.5
-1.5 0.6339745962155614 22.5
-1.5 0.6339745962155614 24.5
-1.5 0.6339745962155614 26.5
-1.5 0.6339745962155614 28.5
-1.5 0.6339745962155614 30.5
-1.5 0.6339745962155614 32.5
-1.5 0.6339745962155614 34.5
-1.5 0.6339745962155614 36.5
-1.5 0.6339745962155614 38.5
-1.5 0.6339745962155614 40.5
-1.5 0.6339745962155614 42.5
-1.5 0.6339745962155614 44.5
-1.5 0.6339745962155614 46.5
-1.5 0.7345025552767508 1.504600087906214
-1.5 0.6339745962155616 5.5
-1.5 0.6339745962155616 7.5
-1.5 0.6339745962155612 9.5
-1.5 0.6339745962155612 11.5
-1.5 0.6339745962155621 13.5
-1.5 0.6339745962155621 15.5
-1.5 0.6339745962155612 17.5
-1.5 0.6339745962155612 19.5
-1.5 0.6339745962155612 21.5
-1.5 0.6339745962155627 23.5
-1.5 0.6339745962155627 25.5
-1.5 0.6339745962155612 27.5
-1.5 0.6339745962155627 29.5
-1.5 0.6339745962155627 31.5
-1.5 0.6339745962155612 33.5
-1.5 0.6339745962155612 35.5
-1.5 0.6339745962155612 37.5
-1.5 0.6339745962155643 39.5
-1.5 0.6339745962155612 41.5
-1.5 0.6339745962155643 43.5
-1.5 0.6339745962155643 45.5
-1.5 -0.6584708813658002 2.500199573437553
-1.5 -0.6339745962155621 4.5
-1.5 -0.6339745962155621 6.5
-1.5 -0.6339745962155621 8.5
-1.5 -0.6339745962155621 10.5
-1.5 -0.6339745962155621 12.5
-1.5 -0.6339745962155621 14.5
-1.5 -0.6339745962155621 16.5
-1.5 -0.6339745962155621 18.5
-1.5 -0.6339745962155621 20.5
-1.5 -0.6339745962155621 22.5
-1.5 -0.6339745962155621 24.5
-1.5 -0.6339745962155621 26.5
-1.5 -0.6339745962155621 28.5
-1.5 -0.6339745962155621 30.5
-1.5 -0.6339745962155621 32.5
-1.5 -0.6339745962155621 34.5
-1.5 -0.6339745962155621 36.5
-1.5 -0.6339745962155621 38.5
-1.5 -0.6339745962155621 40.5
-1.5 -0.6339745962155621 42.50000000000001
-1.5 -0.6339745962155621 44.5
-1.5 -0.6339745962155621 46.5
-1.5 0.6339745962155612 3.5
-1.5 0.6339745962155614 47.5
-1.5 0.7336539647744553 48.47075437993229
-1.5 -0.7336539647744571 48.47075437993229
-1.5 0 0.8632236145401684
-1.5 -4.440892098500626e-16 24.00000000000001
-1.5 6.661338147750939e-16 43
-1.5 6.661338147750939e-16 40
-1.5 6.661338147750939e-16 44
-1.5 6.661338147750939e-16 46
-1.5 0 25
-1.5 4.440892098500626e-16 29
-1.5 0 26
-1.5 6.661338147750939e-16 30
-1.5 4.440892098500626e-16 32
-1.5 4.440892098500626e-16 47
-1.5 0 5
-1.5 2.220446049250313e-16 7
-1.5 0 9
-1.5 -2.220446049250313e-16 11
-1.5 2.220446049250313e-16 14
-1.5 0 16
-1.5 -2.220446049250313e-16 17
-1.5 0 19
-1.5 0 27
-1.5 0 33
-1.5 -2.220446049250313e-16 35
-1.5 -2.220446049250313e-16 37
-1.5 0 41
-1.5 -2.220446049250313e-16 10
-1.5 -2.220446049250313e-16 12
-1.5 -2.220446049250313e-16 4
-1.5 0 6
-1.5 0 8
-1.5 -2.220446049250313e-16 13
-1.5 0 15
-1.5 -2.220446049250313e-16 18
-1.5 -2.220446049250313e-16 22
-1.5 4.440892098500626e-16 23
-1.5 4.440892098500626e-16 31
-1.5 -2.220446049250313e-16 34
-1.5 -2.220446049250313e-16 36
-1.5 0 38
-1.5 6.661338147750939e-16 39
-1.5 6.661338147750939e-16 45
-1.5 2.220446049250313e-16 3
-1.5 0 20
-1.5 0 21
-1.5 0 28
-1.5 0 42
-1.5 -4.440892098500626e-16 2
-1.5 -1.554312234475219e-15 47.99890165457587
-1.5 -0.7679491924311761 49.26794919243117
-1.5 0.7679491924311761 49.26794919243117
-1.5 0.7730407354449434 0.7269592645550564
-1.5 -0.7730407354449436 0.7269592645550564
2 5 0 8
817
818
819
820
821
822
823
824
-4.128573751357904e-18 -0.6144248811104488 0
-1.651429500543161e-17 0.6151518741455351 0
0.7576802451483143 0.0001211655058476757 0
-0.7576802451483144 0.0001211655058477127 0
-0.7730407354449434 -0.7730407354449434 0
0.7730407354449436 -0.7730407354449437 0
0.7730407354449433 0.7730407354449434 0
-0.7730407354449434 0.7730407354449434 0
2 6 0 8
825
826
827
828
829
830
831
832
-4.128573751357904e-18 -0.6144248811104488 50
-1.651429500543161e-17 0.6151518741455351 50
0.7576802451483143 0.0001211655058476757 50
-0.7576802451483144 0.0001211655058477127 50
-0.7730407354449434 -0.7730407354449434 50
0.7730407354449436 -0.7730407354449437 50
0.7730407354449433 0.7730407354449434 50
-0.7730407354449434 0.7730407354449434 50
3 1 0 141
833
834
835
836
837
838
839
840
841
842
843
844
845
846
847
848
849
850
851
852
853
854
855
856
857
858
859
860
861
862
863
864
865
866
867
868
869
870
871
872
873
874
875
876
877
878
879
880
881
882
883
884
885
886
887
888
889
890
891
892
893
894
895
896
897
898
899
900
901
902
903
904
905
906
907
908
909
910
911
912
913
914
915
916
917
918
919
920
921
922
923
924
925
926
927
928
929
930
931
932
933
934
935
936
937
938
939
940
941
942
943
944
945
946
947
948
949
950
951
952
953
954
955
956
957
958
959
960
961
962
963
964
965
966
967
968
969
970
971
972
973
0.002058212914079968 0.002406343751269135 4.48903662054454
2.220446049250313e-16 -1.233581138472395e-16 43.5
2.220446049250313e-16 0 33.5
2.220446049250313e-16 -1.23358113847239e-16 30.5
2.220446049250313e-16 -1.233581138472395e-16 39.5
0.04708550029182759 -0.09383211816670842 41.49075727236639
-4.934324553889587e-17 2.220446049250313e-16 46.5
-2.220446049250313e-16 1.973729821555834e-16 17.5
-2.220446049250313e-16 -2.467162276944793e-17 14.5
2.220446049250313e-16 0 9.5
0 0 26.5
-2.467162276944793e-17 0 12.5
0 1.233581138472396e-16 37.5
0 1.727013593861354e-16 35.5
0 9.868649107779174e-17 28.5
0 0 24.50000000000001
2.220446049250313e-16 -1.973729821555834e-16 7.5
0.5 -1.2 8.5
0.002211514011316362 -0.002211514011316361 21.5
-0.002756109189955946 -0.002756109189955603 19.5
0.00296434807524408 0.00296434807524415 2.507658109704484
-2.220446049250313e-16 -2.085750907975142e-16 22.99999673947052
-4.440892098500626e-16 -2.631639762074446e-16 32
8.22387425648248e-18 -4.440892098500626e-16 45
-2.220446049250313e-16 -4.111937128241324e-17 11
0 0 16
6.721752226823696e-05 6.721752226756042e-05 5.989140005485022
-0.0001943705116387747 0.0001943705116382866 48.53035078107991
-0.4999999999999998 0.7499999999999999 8.5
-0.3075788413101577 -0.3138560267285528 1.307266486255323
0.5 0.5142857142857145 13.5
-0.4999999999999998 -0.3600000000000001 40.5
0.4427659316782384 0.3628210366053835 20.49880010487709
0.3852833211324227 0.3776839464835539 47.5151761366545
0.2666666666666673 0.4999999999999998 42.5
-0.266666666666666 0.5 38.5
-0.3696361378422007 0.4432854962131623 3.498301256280906
0.386552266116125 0.3865522661161247 18.50106917832197
0.3870532928499343 0.3870532928499339 40.5
-0.3870532928499344 0.3870532928499339 29.5
-0.3870532928499342 -0.3870532928499344 13.5
-0.3870532928499344 -0.3870532928499343 36.5
-0.3870532928499344 -0.3870532928499343 34.5
0.3870532928499345 0.3870532928499342 27.5
-0.3870532928499344 -0.3870532928499342 8.5
0.3870532928499361 0.3870532928499362 25.5
0.3969746710163458 -0.391602436281413 3.494480034833566
-0.3953309227934954 -0.3953309227934954 20.51766914281065
0.4017754121065554 -0.4017754121065555 38.53141662849609
-0.4017754121065553 -0.4017754121065553 42.53141662849608
-0.4044425066712478 -0.4044425066712482 25.53710814054284
0.404442506671249 0.4044425066712487 36.53710814054285
0.404442506671249 0.4044425066712487 34.46289185945715
-0.4044425066712491 -0.4044425066712489 27.46289185945716
0.4044425066712491 -0.4044425066712491 29.53710814054284
-0.4047011969343541 -0.404701196934354 18.4623398210074
-0.4078124127556577 -0.4078124127556577 47.57289831746017
0.4798730699846172 0.4722873751120961 1.109297170003314
0.4756806989156817 0.2727808089926758 8.560495257286666
0.5085577315370814 0.502369182552002 22.25000423326038
-0.5051268338824287 -0.5051268338824287 5.237626900758943
-0.5016401134581244 -0.5016401134581243 6.744525364238988
-0.5042055778164204 -0.5042055778164204 22.24999510919869
0.5042048138561402 0.5042048138561404 23.74999836973526
-0.5042048138561404 -0.5042048138561406 23.74999836973526
0.5042055778130988 0.504205577813099 32.75
0.5042055778130988 0.5042055778130993 45.75
-0.5042055778130989 0.504205577813099 44.25
0.5042055778130989 0.5042055778130992 31.25
-0.5042055778130992 -0.5042055778130992 32.75
-0.504205577813099 -0.5042055778130995 45.75
0.5042055778130989 -0.5042055778130992 10.25
0.5042055778130992 -0.5042055778130992 11.75
-0.5042055778130992 0.5042055778130992 10.25
-0.5042055778130989 0.5042055778130993 11.75
-0.5042055778130992 -0.504205577813099 16.75
0.5042055778130992 -0.5042055778130992 15.25
0.5042055778130992 0.504205577813099 16.75
-0.5042055778130992 -0.5042055778130994 31.25
0.5042055778130993 -0.5042055778130993 44.25
-0.5042055778130995 0.5042055778130992 15.25
-0.6107061551321733 0.6107061551321737 47.99288410615765
-0.4766091009203385 0.5280619650996391 5.239275812239947
-0.5214533620238909 0.521453362023891 22.21088237302621
-0.521092211390393 0.5210922113903924 45.78603564706955
-0.5210922113903929 0.5210922113903929 32.78603564706955
-0.5210922113903929 0.5210922113903927 31.21396435293045
-0.5210922113903927 -0.5210922113903927 15.21396435293045
-0.5210922113903926 0.5210922113903927 16.78603564706955
0.5210922113903924 -0.5210922113903929 16.78603564706955
0.5210922113903929 0.5210922113903924 44.21396435293045
0.521092211390393 -0.5210922113903931 45.78603564706955
-0.521092211390393 -0.5210922113903926 10.21396435293045
0.5210922113903927 0.5210922113903925 10.21396435293046
0.5210922113903926 0.521092211390393 15.21396435293045
-0.5210922113903926 -0.5210922113903931 44.21396435293045
-0.5210922113903926 -0.5210922113903927 11.78603564706954
0.5210922113903927 0.5210922113903926 11.78603564706954
1.31129192705653 0.8226826691590315 11
0.5210922113903941 -0.5210922113903927 31.21396435293045
0.5210922113903916 -0.521092211390392 32.78603564706955
-0.5210926560264992 0.5210926560264991 23.78603659591171
0.5210926560264992 -0.5210926560264992 23.78603659591171
0.525173930714624 -0.5220153536386959 22.21230291617818
-0.5412000480520859 0.5441540765276172 1.82342347706806
0.5472293271951907 -0.5370325689904616 1.827203600627078
0.5061269281458985 0.4998033550554558 6.74461475316496
-0.5197526243815138 0.5243700673812709 6.786104343984497
0.5217934261817645 -0.523753172182532 6.790471640621974
0.6104942003594069 -0.6104942003594069 47.99290587017784
0.5803642663955523 0.5574832139368924 3.141606821060332
0.5458238140404074 0.4412013134146461 5.240497382174324
-0.5406563926330008 -0.5406563926330007 38.17221488716297
0.5406563926330017 -0.540656392633004 42.17221488716297
-0.5452521124003357 0.5452521124003373 20.16240014179029
-0.5480000469029622 -0.5480000469029623 3.158297997339175
-0.5511554096769372 0.5511554096769374 36.85018974849402
0.5511554096769375 0.5511554096769375 29.85018974849402
0.5511554096769375 -0.5511554096769375 36.85018974849402
-0.5511554096769374 0.5511554096769375 34.14981025150598
0.5511554096769375 -0.5511554096769375 34.14981025150598
-0.5511554096769375 0.5511554096769374 25.85018974849402
0.5511554096769374 -0.5511554096769375 25.85018974849402
0.551155409676938 -0.5511554096769378 40.14981025150598
-0.5511554096769377 -0.5511554096769378 29.85018974849402
-0.5511554096769375 0.5511554096769375 13.14981025150598
0.5511554096769375 -0.5511554096769377 13.14981025150598
-0.5511554096769375 0.5511554096769375 27.14981025150598
0.5511554096769377 -0.5511554096769375 27.14981025150598
0.5862193110522862 -4.440892098500626e-16 26.486644335572
-0.5511613126241974 0.5511613126241973 18.14979765476648
0.5511613126241975 -0.5511613126241975 18.14979765476648
-0.6213578627762637 0.6213578627762637 40
0.6213578627762639 0.6213578627762637 39
-0.6213578627762638 0.6213578627762638 43
0.6213578627762639 0.6213578627762638 37.99260960424407
-0.6213578627762639 0.6213578627762638 41.00739039575593
0.4975105224604778 -0.5616396195225956 5.160459932972715
0.621357862776264 -0.6213578627762639 46.98791850088055
-0.621357862776264 0.6213578627762639 46.98790079514317
0.531740635717762 -0.5690362411166666 20.86227302948
$EndNodes
$Elements
2 3049 1 3049
2 5 2 26
1 109 1 821 
2 1 220 821 
3 4 110 822 
4 162 4 822 
5 6 163 823 
6 215 6 823 
7 8 216 824 
8 219 8 824 
9 110 109 817 
10 817 109 821 
11 110 817 822 
12 163 162 819 
13 819 162 822 
14 163 819 823 
15 216 215 818 
16 818 215 823 
17 216 818 824 
18 220 219 820 
19 820 219 824 
20 220 820 821 
21 817 818 819 
22 818 817 820 
23 817 819 822 
24 820 817 821 
25 819 818 823 
26 818 820 824 
3 1 4 3023
27 713 967 838 969 
28 867 967 610 969 
29 838 967 867 969 
30 713 610 967 969 
31 610 539 867 969 
32 713 735 610 969 
33 735 539 610 969 
34 713 810 838 967 
35 588 513 833 943 
36 424 852 229 973 
37 436 833 513 943 
38 369 315 764 860 
39 229 852 424 964 
40 406 846 237 951 
41 237 846 406 953 
42 596 841 699 958 
43 732 846 536 949 
44 536 846 732 952 
45 398 298 841 959 
46 555 847 383 950 
47 305 847 427 961 
48 706 603 847 960 
49 704 848 601 954 
50 425 848 303 955 
51 258 847 751 957 
52 240 838 409 956 
53 529 851 725 947 
54 739 833 246 948 
55 687 837 287 945 
56 241 834 410 946 
57 375 123 446 931 
58 393 665 613 860 
59 862 890 824 937 
60 822 890 862 938 
61 830 515 366 860 
62 516 831 665 860 
63 810 882 838 967 
64 813 369 764 860 
65 660 610 539 867 
66 829 369 813 860 
67 832 814 664 860 
68 665 393 516 860 
69 515 366 860 942 
70 664 860 814 914 
71 417 413 519 890 
72 519 413 567 890 
73 667 824 890 937 
74 692 828 829 860 
75 828 692 832 860 
76 517 890 822 938 
77 419 495 849 850 
78 229 852 360 973 
79 495 849 850 891 
80 420 850 842 891 
81 424 852 484 964 
82 589 588 833 943 
83 652 536 846 949 
84 237 846 355 951 
85 237 340 846 953 
86 624 847 555 950 
87 659 847 603 960 
88 487 846 406 951 
89 732 846 787 952 
90 409 838 470 956 
91 258 325 847 957 
92 298 334 841 959 
93 809 706 847 960 
94 362 847 305 961 
95 427 847 501 961 
96 406 846 502 953 
97 596 631 841 958 
98 732 802 846 949 
99 383 847 478 950 
100 536 637 846 952 
101 699 841 781 958 
102 398 841 482 959 
103 771 848 704 954 
104 499 848 425 955 
105 342 838 240 956 
106 772 751 847 957 
107 303 848 324 955 
108 623 601 848 954 
109 229 337 852 964 
110 815 862 824 937 
111 512 852 424 973 
112 510 853 413 890 
113 822 862 368 938 
114 808 725 851 947 
115 658 851 529 947 
116 246 833 359 948 
117 739 792 833 948 
118 829 813 692 860 
119 814 832 692 860 
120 804 837 687 945 
121 287 837 357 945 
122 410 834 471 946 
123 241 320 834 946 
124 419 849 223 850 
125 224 842 420 850 
126 420 480 850 891 
127 738 221 317 862 
128 827 831 465 860 
129 838 882 867 967 
130 738 317 668 862 
131 833 869 589 943 
132 420 842 480 891 
133 516 465 831 860 
134 822 368 517 938 
135 667 815 824 937 
136 373 568 849 891 
137 409 838 240 946 
138 244 315 369 860 
139 543 613 665 860 
140 813 764 692 860 
141 589 520 588 943 
142 267 839 760 889 
143 417 510 413 890 
144 393 860 613 866 
145 514 513 588 943 
146 661 833 694 869 
147 366 244 860 942 
148 543 860 664 914 
149 692 814 860 914 
150 701 598 724 963 
151 528 724 598 963 
152 305 402 233 961 
153 732 536 607 949 
154 706 532 603 960 
155 732 607 710 949 
156 555 454 579 950 
157 555 383 454 950 
158 406 237 309 951 
159 536 732 606 952 
160 237 406 308 953 
161 401 425 232 955 
162 309 429 406 951 
163 709 606 732 952 
164 406 428 308 953 
165 402 305 427 961 
166 425 303 232 955 
167 728 532 706 960 
168 398 422 298 959 
169 721 596 699 958 
170 258 751 282 957 
171 596 721 525 958 
172 298 422 226 959 
173 727 704 601 954 
174 282 751 682 957 
175 601 531 727 954 
176 240 431 311 956 
177 431 240 409 956 
178 379 424 229 973 
179 424 300 229 964 
180 588 520 514 943 
181 519 567 656 890 
182 512 865 852 973 
183 229 301 379 973 
184 582 846 457 884 
185 457 846 582 885 
186 258 751 847 886 
187 427 847 305 887 
188 256 848 749 883 
189 694 833 661 915 
190 378 300 424 964 
191 288 838 688 882 
192 764 860 315 889 
193 677 852 277 888 
194 460 585 838 867 
195 461 834 586 867 
196 564 839 392 866 
197 725 851 529 916 
198 415 852 574 870 
199 514 436 513 943 
200 739 246 269 948 
201 269 669 739 948 
202 574 852 415 865 
203 588 833 513 944 
204 223 849 419 941 
205 677 277 852 880 
206 529 725 702 947 
207 529 702 599 947 
208 573 840 414 870 
209 601 848 704 934 
210 425 303 848 935 
211 586 834 461 923 
212 285 846 685 874 
213 285 685 846 875 
214 460 838 585 871 
215 284 835 684 875 
216 383 847 555 876 
217 271 849 671 877 
218 553 848 381 878 
219 706 847 603 872 
220 743 873 250 929 
221 672 272 877 925 
222 744 251 873 920 
223 604 707 872 919 
224 743 844 873 929 
225 250 873 844 929 
226 842 877 272 925 
227 744 873 841 920 
228 604 872 836 919 
229 836 872 707 919 
230 672 877 842 925 
231 841 873 251 920 
232 692 763 814 914 
233 614 543 664 914 
234 366 318 244 942 
235 667 890 615 937 
236 287 837 687 864 
237 688 838 288 864 
238 819 822 464 890 
239 756 687 287 945 
240 287 263 756 945 
241 241 410 312 946 
242 432 312 410 946 
243 763 614 664 914 
244 395 495 850 891 
245 678 851 278 880 
246 366 825 830 860 
247 829 825 369 860 
248 826 665 831 860 
249 395 420 480 850 
250 419 395 495 850 
251 826 832 664 860 
252 824 615 667 890 
253 824 765 820 862 
254 739 246 833 893 
255 824 862 818 890 
256 395 850 480 891 
257 523 842 719 861 
258 257 750 843 883 
259 581 835 456 885 
260 257 843 750 886 
261 676 276 840 888 
262 852 870 484 964 
263 634 870 852 963 
264 465 516 393 860 
265 515 443 366 942 
266 229 360 301 973 
267 846 874 355 951 
268 846 875 787 952 
269 340 875 846 953 
270 470 838 871 956 
271 802 874 846 949 
272 624 872 847 950 
273 847 872 772 957 
274 847 876 501 961 
275 659 876 847 960 
276 334 873 841 959 
277 841 873 781 958 
278 623 848 878 954 
279 499 878 848 955 
280 678 278 851 895 
281 760 839 267 903 
282 684 835 284 902 
283 420 842 224 904 
284 676 840 276 908 
285 398 841 298 909 
286 456 835 581 898 
287 523 719 842 906 
288 410 834 241 912 
289 596 699 841 913 
290 573 414 840 910 
291 381 848 553 896 
292 256 749 848 897 
293 564 392 839 899 
294 671 849 271 894 
295 373 849 568 939 
296 366 443 318 942 
297 464 890 517 938 
298 360 852 880 973 
299 851 880 808 947 
300 378 424 484 964 
301 517 464 822 890 
302 366 244 825 860 
303 369 825 244 860 
304 826 543 665 860 
305 826 664 543 860 
306 701 724 784 963 
307 528 598 634 963 
308 229 300 337 964 
309 732 710 802 949 
310 429 487 406 951 
311 309 237 355 951 
312 732 787 709 952 
313 536 606 637 952 
314 406 502 428 953 
315 237 308 340 953 
316 809 728 706 960 
317 383 478 454 950 
318 727 771 704 954 
319 362 305 233 961 
320 402 427 501 961 
321 652 607 536 949 
322 499 425 401 955 
323 624 555 579 950 
324 431 409 470 956 
325 258 282 325 957 
326 659 603 532 960 
327 232 303 324 955 
328 596 525 631 958 
329 721 699 781 958 
330 298 226 334 959 
331 398 482 422 959 
332 342 240 311 956 
333 623 531 601 954 
334 772 682 751 957 
335 738 811 853 862 
336 478 847 887 950 
337 362 886 847 961 
338 325 887 847 957 
339 809 847 886 960 
340 487 884 846 951 
341 502 846 885 953 
342 637 885 846 952 
343 846 884 652 949 
344 771 883 848 954 
345 848 883 324 955 
346 337 888 852 964 
347 784 852 888 963 
348 407 238 881 951 
349 589 833 661 869 
350 824 815 765 862 
351 286 874 686 945 
352 733 537 868 949 
353 833 879 359 948 
354 320 882 834 946 
355 837 881 357 945 
356 512 424 379 973 
357 374 569 891 926 
358 289 882 689 928 
359 437 222 941 970 
360 293 435 879 970 
361 664 814 763 914 
362 631 863 841 958 
363 703 916 600 934 
364 530 703 600 934 
365 530 726 703 934 
366 249 925 742 929 
367 605 730 534 919 
368 673 273 742 929 
369 249 742 273 929 
370 404 932 307 933 
371 307 404 235 932 
372 442 404 307 933 
373 853 656 890 937 
374 306 416 887 932 
375 841 863 482 959 
376 436 879 833 943 
377 510 853 890 938 
378 441 302 231 936 
379 269 246 359 948 
380 739 669 792 948 
381 568 644 849 891 
382 718 861 849 940 
383 342 864 838 956 
384 658 865 851 947 
385 842 891 569 926 
386 547 447 863 930 
387 448 548 863 927 
388 693 565 869 937 
389 792 869 833 948 
390 808 702 725 947 
391 599 658 529 947 
392 368 862 245 938 
393 522 861 718 940 
394 222 294 394 941 
395 289 834 882 928 
396 689 882 834 928 
397 418 292 879 938 
398 563 391 899 923 
399 242 411 912 924 
400 266 759 903 928 
401 737 900 541 917 
402 675 908 275 920 
403 700 913 597 921 
404 299 399 909 922 
405 572 377 910 927 
406 661 833 589 915 
407 844 863 447 930 
408 448 863 841 927 
409 437 222 394 941 
410 513 833 436 944 
411 286 845 874 945 
412 686 874 845 945 
413 693 869 853 937 
414 834 867 471 946 
415 804 868 837 945 
416 547 863 844 930 
417 841 863 548 927 
418 306 887 836 932 
419 836 887 416 932 
420 266 690 290 903 
421 563 391 587 899 
422 611 541 714 900 
423 690 266 759 903 
424 396 904 296 905 
425 242 433 313 912 
426 242 411 433 912 
427 225 396 296 905 
428 594 524 720 907 
429 252 275 745 908 
430 675 745 275 908 
431 455 385 557 898 
432 753 260 683 902 
433 396 225 421 905 
434 720 697 594 907 
435 697 906 594 907 
436 423 299 399 909 
437 572 449 549 910 
438 722 526 700 913 
439 462 587 391 899 
440 299 423 227 909 
441 449 572 377 910 
442 700 526 597 913 
443 737 714 541 900 
444 255 895 748 897 
445 255 748 279 897 
446 679 279 748 897 
447 825 827 830 860 
448 241 312 320 946 
449 287 357 263 945 
450 804 687 756 945 
451 410 471 432 946 
452 828 825 829 860 
453 827 826 831 860 
454 833 879 435 970 
455 828 832 826 860 
456 592 695 915 940 
457 670 270 893 894 
458 765 862 815 937 
459 670 740 270 894 
460 740 247 270 894 
461 522 849 861 940 
462 853 879 292 938 
463 471 834 461 867 
464 460 838 506 867 
465 374 891 842 926 
466 451 576 380 896 
467 332 842 224 850 
468 347 223 849 850 
469 293 879 833 970 
470 853 869 565 937 
471 267 343 839 889 
472 760 839 776 889 
473 719 842 779 861 
474 794 849 718 861 
475 568 445 545 891 
476 373 445 568 891 
477 364 317 221 862 
478 490 437 941 970 
479 490 941 859 970 
480 408 881 239 956 
481 418 879 853 938 
482 837 868 804 965 
483 824 820 818 862 
484 436 435 833 879 
485 222 346 941 970 
486 734 804 868 965 
487 822 817 368 862 
488 613 860 663 866 
489 288 838 342 864 
490 321 837 287 864 
491 582 846 637 885 
492 478 847 427 887 
493 457 846 487 884 
494 457 502 846 885 
495 256 324 848 883 
496 652 846 582 884 
497 258 847 362 886 
498 751 809 847 886 
499 325 305 847 887 
500 749 848 771 883 
501 484 852 415 870 
502 810 688 838 882 
503 288 363 838 882 
504 277 852 337 888 
505 677 784 852 888 
506 574 657 852 865 
507 658 575 851 865 
508 373 849 495 891 
509 564 640 839 866 
510 629 569 842 891 
511 849 877 850 891 
512 469 436 435 833 
513 472 392 839 866 
514 792 694 833 869 
515 588 617 589 833 
516 806 853 693 869 
517 490 437 394 941 
518 372 444 544 939 
519 360 852 277 880 
520 677 852 807 880 
521 574 852 634 870 
522 565 853 616 869 
523 824 818 615 890 
524 498 414 840 870 
525 573 647 840 870 
526 859 941 346 970 
527 293 359 833 879 
528 626 836 604 872 
529 685 787 846 875 
530 772 847 706 872 
531 286 845 341 874 
532 285 355 846 874 
533 284 354 835 875 
534 347 849 271 877 
535 779 842 672 877 
536 671 849 794 877 
537 251 841 334 873 
538 743 844 795 873 
539 781 841 744 873 
540 332 272 842 877 
541 623 848 553 878 
542 250 348 844 873 
543 707 836 774 872 
544 801 684 835 875 
545 501 847 383 876 
546 639 585 838 871 
547 802 685 846 874 
548 788 845 686 874 
549 340 285 846 875 
550 659 555 847 876 
551 470 838 460 871 
552 381 848 499 878 
553 603 847 624 872 
554 267 691 291 889 
555 691 267 760 889 
556 292 853 329 879 
557 418 468 853 879 
558 711 538 734 868 
559 538 711 608 868 
560 733 537 608 868 
561 608 711 733 868 
562 562 390 586 867 
563 460 390 562 867 
564 460 562 585 867 
565 461 586 390 867 
566 222 346 294 941 
567 617 589 833 915 
568 315 860 365 889 
569 764 812 860 889 
570 678 808 851 880 
571 554 876 635 962 
572 554 635 843 962 
573 600 916 649 934 
574 799 916 703 934 
575 635 876 843 962 
576 448 482 841 863 
577 447 844 496 863 
578 245 368 817 862 
579 278 851 361 880 
580 538 734 868 965 
581 799 703 726 934 
582 600 649 530 934 
583 307 932 328 933 
584 307 235 328 932 
585 708 918 775 919 
586 742 925 780 929 
587 249 333 925 929 
588 708 775 730 919 
589 249 273 333 929 
590 673 742 780 929 
591 474 932 404 933 
592 442 474 404 933 
593 400 935 475 936 
594 564 392 463 866 
595 547 645 844 863 
596 631 548 841 863 
597 469 833 435 970 
598 634 574 657 852 
599 564 463 591 866 
600 359 246 330 833 
601 441 400 475 936 
602 725 798 808 851 
603 648 529 658 851 
604 739 792 777 833 
605 738 668 811 862 
606 798 678 808 851 
607 658 575 648 851 
608 694 777 792 833 
609 289 834 320 882 
610 767 834 689 882 
611 554 843 625 962 
612 793 915 695 940 
613 621 619 586 834 
614 626 650 604 836 
615 687 804 768 837 
616 448 482 497 841 
617 767 769 689 834 
618 320 289 322 834 
619 321 357 287 837 
620 460 470 506 838 
621 639 585 660 838 
622 398 497 482 841 
623 779 790 672 842 
624 285 355 340 846 
625 355 237 340 846 
626 684 786 801 835 
627 276 350 336 840 
628 414 493 498 840 
629 796 744 781 841 
630 629 642 523 842 
631 779 719 790 842 
632 785 750 773 843 
633 356 341 286 845 
634 685 787 802 846 
635 383 501 478 847 
636 671 778 794 849 
637 778 718 794 849 
638 320 322 241 834 
639 471 489 461 834 
640 284 354 339 835 
641 581 651 636 835 
642 486 456 494 835 
643 327 353 306 836 
644 774 707 800 836 
645 363 342 288 838 
646 506 470 409 838 
647 323 267 343 839 
648 770 776 760 839 
649 783 797 676 840 
650 646 631 548 841 
651 349 298 334 841 
652 631 646 596 841 
653 699 796 781 841 
654 224 332 344 842 
655 272 344 332 842 
656 491 480 420 842 
657 326 257 338 843 
658 625 554 635 843 
659 643 547 645 844 
660 791 795 743 844 
661 492 496 447 844 
662 686 788 803 845 
663 802 787 732 846 
664 652 536 637 846 
665 487 502 406 846 
666 582 652 637 846 
667 487 457 502 846 
668 427 478 501 847 
669 706 772 809 847 
670 334 251 349 841 
671 250 348 345 844 
672 624 659 555 847 
673 325 362 258 847 
674 223 331 347 849 
675 471 410 489 834 
676 640 622 564 839 
677 633 573 647 840 
678 629 569 642 842 
679 480 491 374 842 
680 271 347 331 849 
681 305 362 325 847 
682 772 751 809 847 
683 624 603 659 847 
684 416 473 476 836 
685 240 342 363 838 
686 810 688 789 838 
687 499 485 425 848 
688 381 485 499 848 
689 704 771 766 848 
690 618 553 623 848 
691 324 319 256 848 
692 319 324 303 848 
693 601 618 623 848 
694 749 766 771 848 
695 472 392 508 839 
696 634 852 657 947 
697 512 415 852 865 
698 677 253 746 888 
699 253 677 277 888 
700 773 843 750 883 
701 651 835 581 885 
702 785 750 843 886 
703 257 338 843 886 
704 306 327 836 887 
705 257 843 326 883 
706 456 835 486 885 
707 416 836 476 887 
708 387 582 457 884 
709 387 559 582 884 
710 256 680 280 883 
711 558 386 582 885 
712 457 582 386 885 
713 258 281 751 886 
714 403 427 234 887 
715 681 751 281 886 
716 680 256 749 883 
717 234 427 305 887 
718 554 625 878 962 
719 350 840 276 888 
720 676 840 797 888 
721 364 862 853 938 
722 430 407 310 881 
723 407 238 310 881 
724 758 265 288 882 
725 758 288 688 882 
726 469 436 833 944 
727 843 878 625 962 
728 240 838 363 946 
729 506 838 409 946 
730 356 845 286 945 
731 803 686 845 945 
732 244 365 315 860 
733 278 351 361 851 
734 747 254 277 880 
735 677 747 277 880 
736 573 450 550 870 
737 450 573 414 870 
738 663 613 543 860 
739 812 692 764 860 
740 793 717 695 915 
741 360 229 337 852 
742 768 687 837 864 
743 688 789 838 864 
744 707 729 533 872 
745 674 744 251 873 
746 389 561 584 871 
747 460 585 561 871 
748 251 274 674 873 
749 250 674 274 873 
750 286 755 686 874 
751 685 261 754 875 
752 284 684 754 875 
753 285 261 685 875 
754 382 453 578 876 
755 554 382 578 876 
756 578 383 555 876 
757 672 272 741 877 
758 460 561 389 871 
759 729 706 533 872 
760 533 604 707 872 
761 743 674 250 873 
762 286 262 755 874 
763 285 755 262 874 
764 754 261 284 875 
765 248 741 272 877 
766 271 741 248 877 
767 741 271 671 877 
768 452 553 381 878 
769 755 285 685 874 
770 453 383 578 876 
771 452 577 553 878 
772 389 584 459 871 
773 382 554 577 878 
774 577 452 382 878 
775 533 706 603 872 
776 468 418 853 938 
777 277 360 337 852 
778 677 784 807 852 
779 807 852 784 947 
780 660 838 585 867 
781 586 834 619 867 
782 628 568 644 849 
783 419 495 479 849 
784 476 836 473 950 
785 356 341 845 951 
786 795 844 791 958 
787 643 844 645 958 
788 348 345 844 959 
789 651 636 835 952 
790 801 835 786 952 
791 357 837 321 956 
792 800 774 836 957 
793 492 496 844 959 
794 625 954 843 960 
795 338 955 843 961 
796 638 845 653 949 
797 650 836 626 950 
798 488 845 503 951 
799 494 486 835 953 
800 354 339 835 953 
801 785 843 773 954 
802 326 843 338 955 
803 353 836 327 957 
804 635 625 843 960 
805 803 845 788 949 
806 504 505 837 956 
807 843 954 785 960 
808 797 840 783 963 
809 647 633 840 963 
810 350 336 840 964 
811 493 498 840 964 
812 724 807 784 947 
813 634 657 528 947 
814 842 850 877 891 
815 522 628 644 849 
816 495 373 479 849 
817 616 853 565 937 
818 545 445 569 891 
819 374 569 445 891 
820 550 415 574 870 
821 523 629 842 861 
822 630 930 926 931 
823 522 849 644 861 
824 798 851 725 916 
825 529 851 648 916 
826 837 871 505 966 
827 415 484 512 852 
828 584 459 871 966 
829 617 833 588 944 
830 550 450 415 870 
831 484 424 512 852 
832 331 849 223 941 
833 359 833 330 970 
834 485 425 848 935 
835 704 848 766 934 
836 601 618 848 934 
837 319 848 303 935 
838 586 621 834 923 
839 497 448 841 927 
840 349 841 251 920 
841 604 836 650 919 
842 707 800 836 919 
843 672 842 790 925 
844 689 834 769 928 
845 461 834 489 923 
846 306 836 353 932 
847 642 842 569 926 
848 548 646 841 927 
849 743 791 844 929 
850 643 547 844 930 
851 744 841 796 920 
852 447 492 844 930 
853 272 344 842 925 
854 250 844 345 929 
855 374 842 491 926 
856 322 834 289 928 
857 473 836 416 932 
858 509 860 393 866 
859 778 718 849 940 
860 330 833 246 893 
861 739 833 777 893 
862 511 936 851 973 
863 678 278 747 880 
864 278 254 747 880 
865 554 382 876 962 
866 351 361 851 973 
867 649 916 854 934 
868 799 854 916 934 
869 854 935 352 936 
870 479 419 849 941 
871 475 935 854 936 
872 678 851 798 895 
873 374 480 842 891 
874 544 939 641 944 
875 328 932 855 933 
876 775 918 855 919 
877 855 918 627 919 
878 855 932 474 933 
879 857 925 333 929 
880 780 925 857 929 
881 857 926 630 930 
882 628 849 522 940 
883 770 776 839 972 
884 622 839 640 972 
885 323 839 343 971 
886 472 839 508 971 
887 648 851 575 892 
888 639 838 660 969 
889 810 838 789 969 
890 503 845 488 968 
891 653 845 638 968 
892 382 554 878 962 
893 769 834 767 967 
894 619 834 621 967 
895 768 837 804 965 
896 504 837 505 966 
897 541 900 655 917 
898 737 805 900 917 
899 563 899 655 923 
900 242 912 358 924 
901 391 507 899 923 
902 411 507 912 924 
903 266 903 358 928 
904 335 275 908 920 
905 632 597 913 921 
906 483 909 399 922 
907 700 782 913 921 
908 805 903 759 928 
909 675 782 908 920 
910 299 909 335 922 
911 572 910 632 927 
912 377 483 910 927 
913 698 795 791 958 
914 492 397 496 959 
915 595 643 645 958 
916 348 297 345 959 
917 476 473 384 950 
918 356 238 341 951 
919 803 788 733 949 
920 488 503 407 951 
921 239 357 321 956 
922 651 535 636 952 
923 731 801 786 952 
924 354 236 339 953 
925 705 785 773 954 
926 504 408 505 956 
927 259 353 327 957 
928 705 785 954 960 
929 338 304 955 961 
930 638 653 537 949 
931 650 626 556 950 
932 494 405 486 953 
933 800 752 774 957 
934 635 602 625 960 
935 602 954 625 960 
936 326 338 304 955 
937 723 797 783 963 
938 647 527 633 963 
939 350 228 336 964 
940 493 438 498 964 
941 777 833 694 915 
942 293 435 371 879 
943 786 835 684 902 
944 322 241 834 912 
945 323 267 839 903 
946 494 835 456 898 
947 790 842 719 906 
948 349 298 841 909 
949 760 770 839 903 
950 224 842 344 904 
951 398 497 841 909 
952 596 841 646 913 
953 564 839 622 899 
954 284 835 339 902 
955 523 842 642 906 
956 573 840 633 910 
957 410 489 834 912 
958 699 796 841 913 
959 581 835 636 898 
960 783 840 676 908 
961 336 276 840 908 
962 491 842 420 904 
963 493 840 414 910 
964 485 848 381 896 
965 618 553 848 896 
966 766 848 749 897 
967 256 848 319 897 
968 508 839 392 899 
969 359 293 833 970 
970 671 778 849 894 
971 271 849 331 894 
972 459 505 871 966 
973 620 584 871 966 
974 849 861 794 877 
975 779 861 842 877 
976 351 851 278 895 
977 293 371 268 879 
978 347 850 849 877 
979 332 842 850 877 
980 793 859 915 940 
981 617 661 589 915 
982 289 265 689 882 
983 408 430 239 881 
984 310 239 430 881 
985 689 265 758 882 
986 479 849 373 939 
987 628 568 849 939 
988 351 851 936 973 
989 329 292 364 853 
990 234 416 403 887 
991 257 680 750 883 
992 234 306 416 887 
993 680 257 280 883 
994 257 750 281 886 
995 387 458 583 884 
996 581 456 558 885 
997 559 387 583 884 
998 386 558 456 885 
999 681 281 750 886 
1000 853 862 811 937 
1001 676 253 276 888 
1002 676 746 253 888 
1003 264 287 687 864 
1004 757 264 687 864 
1005 688 264 757 864 
1006 688 288 264 864 
1007 346 893 270 894 
1008 670 893 793 894 
1009 364 853 292 938 
1010 592 915 641 940 
1011 638 845 884 968 
1012 503 884 845 968 
1013 329 853 364 948 
1014 654 620 965 966 
1015 649 892 552 896 
1016 393 613 463 866 
1017 748 895 799 897 
1018 352 895 255 897 
1019 737 805 714 900 
1020 391 507 462 899 
1021 805 690 759 903 
1022 745 675 782 908 
1023 572 549 632 910 
1024 449 377 483 910 
1025 411 507 433 912 
1026 526 632 597 913 
1027 557 898 627 901 
1028 753 683 775 902 
1029 481 396 421 905 
1030 481 904 396 905 
1031 252 335 275 908 
1032 299 227 335 909 
1033 483 423 399 909 
1034 683 775 902 911 
1035 260 902 328 911 
1036 541 611 655 900 
1037 580 557 627 901 
1038 260 328 283 911 
1039 242 313 358 912 
1040 722 700 782 913 
1041 563 587 655 899 
1042 266 290 358 903 
1043 576 649 552 896 
1044 352 255 279 897 
1045 679 748 799 897 
1046 803 845 868 945 
1047 506 867 838 946 
1048 544 641 590 944 
1049 761 662 661 869 
1050 641 939 859 944 
1051 644 861 849 891 
1052 247 346 270 894 
1053 670 793 740 894 
1054 761 661 694 869 
1055 591 463 613 866 
1056 574 415 466 865 
1057 511 439 936 973 
1058 351 936 230 973 
1059 655 900 856 917 
1060 483 858 909 922 
1061 856 899 507 923 
1062 858 908 782 920 
1063 335 909 858 922 
1064 358 912 856 924 
1065 632 910 858 927 
1066 805 856 903 928 
1067 335 908 858 920 
1068 632 913 858 921 
1069 856 912 507 924 
1070 858 910 483 927 
1071 856 900 805 917 
1072 858 913 782 921 
1073 655 899 856 923 
1074 358 903 856 928 
1075 469 513 436 944 
1076 221 329 364 948 
1077 570 930 630 931 
1078 546 630 926 931 
1079 413 853 510 943 
1080 458 583 884 968 
1081 244 365 860 942 
1082 359 330 293 970 
1083 543 663 860 914 
1084 692 860 812 914 
1085 268 418 292 879 
1086 468 853 510 938 
1087 538 868 654 965 
1088 638 884 583 968 
1089 503 458 884 968 
1090 776 889 839 972 
1091 343 839 889 971 
1092 321 837 864 956 
1093 641 915 859 940 
1094 568 545 644 891 
1095 610 735 207 539 
1096 735 610 207 713 
1097 265 50 758 288 
1098 751 36 681 281 
1099 281 751 36 258 
1100 758 689 51 265 
1101 714 541 210 737 
1102 711 538 204 734 
1103 266 690 53 290 
1104 89 234 306 416 
1105 251 274 22 674 
1106 706 729 533 194 
1107 383 578 140 453 
1108 387 149 583 458 
1109 387 582 148 457 
1110 277 28 254 747 
1111 526 597 181 700 
1112 687 757 48 264 
1113 427 87 305 402 
1114 749 33 256 680 
1115 139 578 554 382 
1116 603 706 533 194 
1117 430 239 98 408 
1118 147 582 558 386 
1119 84 232 401 425 
1120 684 754 42 284 
1121 285 43 685 261 
1122 374 569 121 445 
1123 253 276 26 676 
1124 273 19 673 742 
1125 672 272 17 741 
1126 536 732 607 201 
1127 733 537 203 608 
1128 559 582 148 387 
1129 685 755 44 285 
1130 281 35 750 257 
1131 284 754 42 261 
1132 411 104 242 433 
1133 267 691 55 291 
1134 238 310 97 407 
1135 390 460 562 154 
1136 386 558 146 456 
1137 383 141 555 454 
1138 557 580 144 455 
1139 555 578 140 383 
1140 583 559 149 387 
1141 582 147 457 386 
1142 385 557 144 455 
1143 578 139 453 382 
1144 382 577 138 452 
1145 381 452 137 553 
1146 421 396 70 225 
1147 19 273 249 742 
1148 746 253 26 676 
1149 744 251 22 674 
1150 611 541 210 714 
1151 608 538 204 711 
1152 262 755 45 286 
1153 248 271 16 741 
1154 743 21 250 674 
1155 569 545 121 445 
1156 272 248 17 741 
1157 247 270 14 740 
1158 720 524 594 176 
1159 701 598 184 724 
1160 702 529 186 725 
1161 732 710 607 201 
1162 262 44 755 285 
1163 604 533 707 195 
1164 390 562 586 155 
1165 55 760 691 267 
1166 43 754 685 261 
1167 40 683 753 260 
1168 759 690 53 266 
1169 308 94 428 406 
1170 104 313 242 433 
1171 98 310 239 430 
1172 585 460 561 153 
1173 585 562 460 154 
1174 554 577 138 382 
1175 573 450 414 130 
1176 296 70 396 225 
1177 755 686 45 286 
1178 450 573 550 130 
1179 406 309 95 429 
1180 398 422 73 298 
1181 252 275 24 745 
1182 274 250 21 674 
1183 12 246 269 739 
1184 594 697 720 176 
1185 525 596 179 721 
1186 722 526 181 700 
1187 606 709 732 200 
1188 606 732 536 200 
1189 608 203 733 711 
1190 305 234 88 427 
1191 257 680 34 750 
1192 94 308 237 406 
1193 407 310 97 430 
1194 89 234 416 403 
1195 558 581 146 456 
1196 399 423 75 299 
1197 680 33 256 280 
1198 729 707 533 195 
1199 309 95 237 406 
1200 740 270 14 670 
1201 255 31 279 748 
1202 741 271 16 671 
1203 680 257 34 280 
1204 683 40 283 260 
1205 460 389 561 153 
1206 449 572 549 128 
1207 568 445 120 545 
1208 703 530 188 726 
1209 452 577 137 553 
1210 534 730 605 197 
1211 579 555 141 454 
1212 745 275 24 675 
1213 289 51 689 265 
1214 677 253 27 746 
1215 287 687 48 264 
1216 449 377 572 128 
1217 298 422 73 226 
1218 299 423 75 227 
1219 721 596 179 699 
1220 730 708 605 197 
1221 389 459 584 152 
1222 706 603 532 193 
1223 403 88 234 427 
1224 253 677 27 277 
1225 188 600 530 703 
1226 532 728 706 193 
1227 35 750 681 281 
1228 756 687 47 287 
1229 462 391 587 157 
1230 461 390 586 155 
1231 84 232 425 303 
1232 584 561 389 152 
1233 598 528 184 724 
1234 186 599 529 702 
1235 587 391 563 157 
1236 679 279 31 748 
1237 277 28 747 677 
1238 287 47 756 263 
1239 233 305 87 402 
1240 264 688 49 288 
1241 49 757 688 264 
1242 409 100 240 431 
1243 601 727 531 190 
1244 278 254 29 747 
1245 311 240 100 431 
1246 601 704 727 190 
1247 37 751 282 258 
1248 688 758 50 288 
1249 235 307 91 404 
1250 404 307 91 442 
1251 678 278 29 747 
1252 682 37 751 282 
1253 102 312 241 410 
1254 312 102 432 410 
1255 739 269 12 669 
1256 445 568 120 373 
1257 393 509 465 860 
1258 351 230 361 973 
1259 806 811 693 853 
1260 793 893 859 894 
1261 859 893 346 894 
1262 852 865 657 947 
1263 811 853 806 948 
1264 693 853 811 937 
1265 854 892 649 896 
1266 834 900 621 967 
1267 769 900 834 967 
1268 799 895 854 897 
1269 352 854 895 897 
1270 474 855 898 901 
1271 857 906 780 907 
1272 855 902 775 911 
1273 333 904 857 905 
1274 481 857 904 905 
1275 630 906 857 907 
1276 328 902 855 911 
1277 627 898 855 901 
1278 616 656 853 937 
1279 356 881 845 945 
1280 838 882 363 946 
1281 323 924 839 971 
1282 839 924 508 971 
1283 622 917 839 972 
1284 839 917 770 972 
1285 738 853 811 948 
1286 616 853 656 943 
1287 475 892 854 896 
1288 845 881 488 968 
1289 806 853 869 948 
1290 764 315 291 889 
1291 424 378 78 300 
1292 229 424 78 300 
1293 400 441 82 231 
1294 302 82 441 231 
1295 371 418 268 879 
1296 853 879 468 943 
1297 463 392 564 159 
1298 463 564 591 159 
1299 640 839 866 972 
1300 592 521 641 915 
1301 361 880 851 973 
1302 472 866 839 971 
1303 294 394 65 222 
1304 415 450 550 131 
1305 451 380 576 135 
1306 415 550 574 131 
1307 552 576 380 135 
1308 496 863 844 959 
1309 807 880 852 947 
1310 498 870 840 964 
1311 840 870 647 963 
1312 842 861 629 891 
1313 835 875 354 953 
1314 845 874 788 949 
1315 801 875 835 952 
1316 505 871 837 956 
1317 626 836 872 950 
1318 774 872 836 957 
1319 635 843 876 960 
1320 795 873 844 958 
1321 625 878 843 954 
1322 348 844 873 959 
1323 341 874 845 951 
1324 639 871 838 969 
1325 844 863 645 958 
1326 329 879 853 948 
1327 510 853 468 943 
1328 764 291 691 889 
1329 468 510 418 938 
1330 833 893 330 970 
1331 834 882 767 967 
1332 504 881 837 966 
1333 738 811 806 948 
1334 465 860 509 942 
1335 551 133 575 865 
1336 327 836 887 957 
1337 338 843 886 961 
1338 638 884 845 949 
1339 486 885 835 953 
1340 785 886 843 960 
1341 326 883 843 955 
1342 476 887 836 950 
1343 843 883 773 954 
1344 845 884 503 951 
1345 835 885 651 952 
1346 840 888 350 964 
1347 797 888 840 963 
1348 789 838 864 969 
1349 394 437 65 222 
1350 768 864 837 965 
1351 435 371 63 293 
1352 653 868 845 968 
1353 663 866 860 914 
1354 268 63 371 293 
1355 619 867 834 967 
1356 379 424 79 229 
1357 859 939 490 944 
1358 229 79 379 301 
1359 717 695 521 171 
1360 546 570 630 931 
1361 448 548 126 863 
1362 447 125 547 863 
1363 469 944 833 970 
1364 734 804 711 868 
1365 733 711 803 868 
1366 390 460 506 867 
1367 471 461 390 867 
1368 481 926 857 931 
1369 481 857 930 931 
1370 574 466 551 865 
1371 695 592 521 171 
1372 365 889 860 942 
1373 812 860 889 914 
1374 617 915 833 944 
1375 798 895 851 916 
1376 777 893 833 915 
1377 648 851 892 916 
1378 331 894 849 941 
1379 353 836 911 932 
1380 622 899 839 917 
1381 786 835 902 918 
1382 800 911 836 919 
1383 323 903 839 924 
1384 508 839 899 924 
1385 646 913 841 927 
1386 770 839 903 917 
1387 636 898 835 918 
1388 349 909 841 920 
1389 336 908 840 922 
1390 621 900 834 923 
1391 344 904 842 925 
1392 841 909 497 927 
1393 322 912 834 928 
1394 834 900 769 928 
1395 473 901 836 932 
1396 633 910 840 921 
1397 840 910 493 922 
1398 842 906 790 925 
1399 844 907 643 930 
1400 836 901 650 919 
1401 840 908 783 921 
1402 842 904 491 926 
1403 339 902 835 933 
1404 345 844 905 929 
1405 492 905 844 930 
1406 642 906 842 926 
1407 791 907 844 929 
1408 835 898 494 933 
1409 841 913 796 920 
1410 834 912 489 923 
1411 848 896 485 935 
1412 848 897 766 934 
1413 618 896 848 934 
1414 319 897 848 935 
1415 616 869 853 943 
1416 849 894 778 940 
1417 315 56 764 291 
1418 851 895 351 936 
1419 376 125 447 863 
1420 448 126 376 863 
1421 616 565 656 937 
1422 511 851 440 973 
1423 849 939 479 941 
1424 548 571 126 863 
1425 571 547 125 863 
1426 628 939 849 940 
1427 511 440 851 892 
1428 490 859 944 970 
1429 444 544 118 372 
1430 511 892 851 936 
1431 821 820 816 862 
1432 56 691 764 291 
1433 926 930 857 931 
1434 853 890 862 937 
1435 862 890 853 938 
1436 826 827 825 860 
1437 826 825 828 860 
1438 865 880 852 973 
1439 544 590 118 372 
1440 509 860 866 942 
1441 346 893 859 970 
1442 841 873 863 959 
1443 833 879 869 943 
1444 567 616 656 943 
1445 863 873 841 958 
1446 346 859 894 941 
1447 793 894 859 940 
1448 649 892 854 916 
1449 370 368 316 938 
1450 352 895 854 936 
1451 490 939 859 941 
1452 793 859 893 915 
1453 854 895 799 916 
1454 475 896 854 935 
1455 649 854 896 934 
1456 799 897 854 934 
1457 352 854 897 935 
1458 782 908 858 921 
1459 483 910 858 922 
1460 328 911 855 932 
1461 335 858 908 922 
1462 481 904 857 926 
1463 857 905 481 930 
1464 855 911 775 919 
1465 780 906 857 925 
1466 857 904 333 925 
1467 630 857 906 926 
1468 858 909 335 920 
1469 782 913 858 920 
1470 483 909 858 927 
1471 858 913 632 927 
1472 333 905 857 929 
1473 857 907 780 929 
1474 630 907 857 930 
1475 627 901 855 919 
1476 474 898 855 933 
1477 805 903 856 917 
1478 655 856 899 917 
1479 855 898 627 918 
1480 632 858 910 921 
1481 805 900 856 928 
1482 474 855 901 932 
1483 507 912 856 923 
1484 856 900 655 923 
1485 507 899 856 924 
1486 328 855 902 933 
1487 856 903 358 924 
1488 856 912 358 928 
1489 775 902 855 918 
1490 693 761 662 168 
1491 854 892 475 936 
1492 859 939 641 940 
1493 864 871 838 956 
1494 463 591 613 160 
1495 221 317 10 738 
1496 859 915 641 944 
1497 393 463 613 160 
1498 668 10 317 738 
1499 662 565 693 168 
1500 371 418 62 268 
1501 517 368 370 938 
1502 846 884 874 951 
1503 846 885 875 952 
1504 872 887 847 950 
1505 876 886 847 960 
1506 875 885 846 953 
1507 874 884 846 949 
1508 847 887 872 957 
1509 847 886 876 961 
1510 848 883 878 954 
1511 878 883 848 955 
1512 852 888 870 964 
1513 870 888 852 963 
1514 268 418 62 292 
1515 629 545 569 891 
1516 540 621 900 967 
1517 769 736 900 967 
1518 661 662 761 169 
1519 316 368 245 938 
1520 803 868 804 945 
1521 471 867 506 946 
1522 761 694 661 169 
1523 691 760 776 889 
1524 267 291 343 889 
1525 571 125 376 863 
1526 376 126 571 863 
1527 865 880 851 947 
1528 413 510 468 943 
1529 511 467 440 892 
1530 869 879 833 948 
1531 538 654 620 965 
1532 540 619 621 967 
1533 504 505 459 966 
1534 654 584 620 966 
1535 768 804 734 965 
1536 736 769 767 967 
1537 662 589 661 869 
1538 765 815 716 937 
1539 834 882 867 946 
1540 868 881 837 945 
1541 413 519 114 417 
1542 314 924 323 971 
1543 434 508 924 971 
1544 622 612 917 972 
1545 715 770 917 972 
1546 668 317 367 862 
1547 583 653 638 968 
1548 810 789 735 969 
1549 503 488 458 968 
1550 639 660 539 969 
1551 511 440 439 973 
1552 765 816 820 862 
1553 564 591 640 866 
1554 224 420 68 850 
1555 419 223 67 850 
1556 711 804 803 868 
1557 506 471 390 867 
1558 114 567 519 413 
1559 323 343 314 971 
1560 434 472 508 971 
1561 770 715 776 972 
1562 612 622 640 972 
1563 464 517 370 938 
1564 367 821 816 862 
1565 595 698 907 958 
1566 297 397 905 959 
1567 384 901 556 950 
1568 752 911 259 957 
1569 472 463 392 866 
1570 658 551 575 865 
1571 566 667 615 937 
1572 373 495 445 891 
1573 277 337 253 888 
1574 677 746 784 888 
1575 652 582 559 884 
1576 387 457 487 884 
1577 558 582 637 885 
1578 457 386 502 885 
1579 256 280 324 883 
1580 258 362 281 886 
1581 680 749 771 883 
1582 403 478 427 887 
1583 751 681 809 886 
1584 325 234 305 887 
1585 523 719 174 861 
1586 574 551 657 865 
1587 264 321 287 864 
1588 288 342 264 864 
1589 522 173 718 861 
1590 430 488 407 881 
1591 356 310 238 881 
1592 288 265 363 882 
1593 810 758 688 882 
1594 395 68 420 850 
1595 395 419 67 850 
1596 792 761 694 869 
1597 818 862 817 890 
1598 436 371 435 879 
1599 254 360 277 880 
1600 677 807 747 880 
1601 806 693 761 869 
1602 382 477 876 962 
1603 450 484 415 870 
1604 500 382 878 962 
1605 668 367 816 862 
1606 498 450 414 870 
1607 573 550 647 870 
1608 640 866 542 972 
1609 866 914 542 972 
1610 776 762 889 972 
1611 343 889 243 971 
1612 452 381 499 878 
1613 620 584 561 871 
1614 623 553 577 878 
1615 533 626 604 872 
1616 743 795 674 873 
1617 389 470 460 871 
1618 459 505 389 871 
1619 639 561 585 871 
1620 729 772 706 872 
1621 674 781 744 873 
1622 382 477 453 876 
1623 332 248 272 877 
1624 347 271 248 877 
1625 286 341 262 874 
1626 285 262 355 874 
1627 284 261 354 875 
1628 554 578 635 876 
1629 707 774 729 872 
1630 251 334 274 873 
1631 250 274 348 873 
1632 802 755 685 874 
1633 788 686 755 874 
1634 801 754 684 875 
1635 685 754 787 875 
1636 340 261 285 875 
1637 453 501 383 876 
1638 659 578 555 876 
1639 741 779 672 877 
1640 741 671 794 877 
1641 533 603 624 872 
1642 577 554 625 878 
1643 452 500 382 878 
1644 550 574 634 870 
1645 762 914 889 972 
1646 889 942 243 971 
1647 293 268 359 879 
1648 321 864 342 956 
1649 465 509 443 942 
1650 692 812 763 914 
1651 543 614 663 914 
1652 244 318 365 942 
1653 388 881 966 968 
1654 388 488 881 968 
1655 609 965 871 969 
1656 609 871 639 969 
1657 609 620 871 965 
1658 696 861 779 877 
1659 794 861 696 877 
1660 504 388 881 966 
1661 609 620 639 871 
1662 794 696 779 877 
1663 488 504 388 881 
1664 818 820 817 862 
1665 268 292 329 879 
1666 472 412 866 971 
1667 412 942 866 971 
1668 405 933 236 953 
1669 535 731 918 952 
1670 723 921 527 963 
1671 228 438 922 964 
1672 591 613 663 866 
1673 671 271 15 894 
1674 851 865 440 973 
1675 568 119 373 939 
1676 678 747 808 880 
1677 278 361 254 880 
1678 553 136 381 896 
1679 256 32 749 897 
1680 684 284 41 902 
1681 540 209 736 900 
1682 224 69 420 904 
1683 523 175 719 906 
1684 25 676 276 908 
1685 595 698 177 907 
1686 180 699 596 913 
1687 145 456 581 898 
1688 54 760 267 903 
1689 71 297 397 905 
1690 74 398 298 909 
1691 103 410 241 912 
1692 556 384 143 901 
1693 573 129 414 910 
1694 259 752 39 911 
1695 278 678 30 895 
1696 564 158 392 899 
1697 588 513 117 944 
1698 696 174 719 861 
1699 718 173 696 861 
1700 640 663 542 866 
1701 542 866 663 914 
1702 246 739 13 893 
1703 821 367 817 862 
1704 343 365 243 889 
1705 812 776 762 889 
1706 657 865 658 947 
1707 243 889 365 942 
1708 812 889 762 914 
1709 806 869 792 948 
1710 418 371 468 879 
1711 512 466 415 865 
1712 818 817 819 890 
1713 289 320 265 882 
1714 767 689 758 882 
1715 408 504 430 881 
1716 239 310 357 881 
1717 641 915 617 944 
1718 793 893 777 915 
1719 588 117 590 944 
1720 439 230 936 973 
1721 565 616 662 869 
1722 509 393 463 866 
1723 367 245 817 862 
1724 773 750 680 883 
1725 416 476 403 887 
1726 257 326 280 883 
1727 257 281 338 886 
1728 306 234 327 887 
1729 785 681 750 886 
1730 638 559 583 884 
1731 386 456 486 885 
1732 651 581 558 885 
1733 503 458 387 884 
1734 694 661 170 915 
1735 350 276 253 888 
1736 676 797 746 888 
1737 490 944 469 970 
1738 648 892 649 916 
1739 496 482 863 959 
1740 352 351 895 936 
1741 527 723 182 921 
1742 707 604 196 919 
1743 122 569 374 926 
1744 20 743 250 929 
1745 272 672 18 925 
1746 447 547 124 930 
1747 251 744 23 920 
1748 548 448 127 927 
1749 76 228 438 922 
1750 535 731 198 918 
1751 236 405 92 933 
1752 612 715 211 917 
1753 90 416 306 932 
1754 689 52 289 928 
1755 461 156 586 923 
1756 314 434 105 924 
1757 189 601 704 934 
1758 83 303 425 935 
1759 671 15 740 894 
1760 271 247 15 894 
1761 799 895 798 916 
1762 793 778 894 940 
1763 694 170 717 915 
1764 538 608 654 868 
1765 562 586 619 867 
1766 537 653 608 868 
1767 660 585 562 867 
1768 725 529 187 916 
1769 353 911 328 932 
1770 636 627 898 918 
1771 627 650 901 919 
1772 775 911 800 919 
1773 493 910 483 922 
1774 790 906 780 925 
1775 497 909 483 927 
1776 494 898 474 933 
1777 328 902 339 933 
1778 655 899 622 917 
1779 786 902 775 918 
1780 349 335 909 920 
1781 796 913 782 920 
1782 632 910 633 921 
1783 783 908 782 921 
1784 335 908 336 922 
1785 621 655 900 923 
1786 358 903 323 924 
1787 508 899 507 924 
1788 333 904 344 925 
1789 646 632 913 927 
1790 769 900 805 928 
1791 492 481 905 930 
1792 474 901 473 932 
1793 770 903 805 917 
1794 507 489 912 923 
1795 630 906 642 926 
1796 491 904 481 926 
1797 322 358 912 928 
1798 345 905 333 929 
1799 791 780 907 929 
1800 643 907 630 930 
1801 475 485 896 935 
1802 799 766 897 934 
1803 649 896 618 934 
1804 352 897 319 935 
1805 718 172 522 940 
1806 346 894 331 941 
1807 647 870 634 963 
1808 498 484 870 964 
1809 788 874 802 949 
1810 626 872 624 950 
1811 355 874 341 951 
1812 354 875 340 953 
1813 623 878 625 954 
1814 500 878 499 955 
1815 635 876 659 960 
1816 501 876 477 961 
1817 787 875 801 952 
1818 505 470 871 956 
1819 772 872 774 957 
1820 795 781 873 958 
1821 348 873 334 959 
1822 419 66 223 941 
1823 784 888 797 963 
1824 337 350 888 964 
1825 487 503 884 951 
1826 502 885 486 953 
1827 773 883 771 954 
1828 338 886 362 961 
1829 638 652 884 949 
1830 478 887 476 950 
1831 637 651 885 952 
1832 324 883 326 955 
1833 327 887 325 957 
1834 809 886 785 960 
1835 359 879 329 948 
1836 641 939 628 940 
1837 381 136 451 896 
1838 256 279 32 897 
1839 576 136 553 896 
1840 679 749 32 897 
1841 540 611 209 900 
1842 259 39 283 911 
1843 145 581 557 898 
1844 284 260 41 902 
1845 224 296 69 904 
1846 396 420 69 904 
1847 397 421 71 905 
1848 719 175 697 906 
1849 524 595 177 907 
1850 177 698 720 907 
1851 676 25 745 908 
1852 398 74 423 909 
1853 414 129 449 910 
1854 241 313 103 912 
1855 54 690 760 903 
1856 252 25 276 908 
1857 549 129 573 910 
1858 683 39 752 911 
1859 433 410 103 912 
1860 180 722 699 913 
1861 456 145 385 898 
1862 580 556 143 901 
1863 455 143 384 901 
1864 54 267 290 903 
1865 71 225 297 905 
1866 74 298 227 909 
1867 753 684 41 902 
1868 594 175 523 906 
1869 596 526 180 913 
1870 587 158 564 899 
1871 736 209 714 900 
1872 278 30 255 895 
1873 30 678 748 895 
1874 490 479 939 941 
1875 392 158 462 899 
1876 696 719 779 861 
1877 794 718 696 861 
1878 364 245 862 938 
1879 808 880 807 947 
1880 346 330 893 970 
1881 645 863 631 958 
1882 602 705 954 960 
1883 304 426 955 961 
1884 119 444 373 939 
1885 739 670 13 893 
1886 270 246 13 893 
1887 321 264 342 864 
1888 357 881 356 945 
1889 363 882 320 946 
1890 513 372 117 944 
1891 656 615 890 937 
1892 509 472 412 866 
1893 361 360 880 973 
1894 509 866 412 942 
1895 736 540 900 967 
1896 119 568 544 939 
1897 545 861 644 891 
1898 436 468 879 943 
1899 511 475 892 936 
1900 510 890 464 938 
1901 523 174 593 861 
1902 593 173 522 861 
1903 435 293 64 970 
1904 861 877 849 891 
1905 811 862 765 937 
1906 545 629 861 891 
1907 230 81 439 936 
1908 661 521 170 915 
1909 764 691 812 889 
1910 315 365 291 889 
1911 374 445 480 891 
1912 575 467 552 892 
1913 590 641 617 944 
1914 768 757 687 864 
1915 688 757 789 864 
1916 490 469 437 970 
1917 590 117 372 944 
1918 286 686 46 945 
1919 240 101 409 946 
1920 364 245 317 862 
1921 247 740 15 894 
1922 92 307 236 933 
1923 707 196 730 919 
1924 122 374 446 926 
1925 122 546 569 926 
1926 20 250 273 929 
1927 570 124 547 930 
1928 535 198 605 918 
1929 675 23 744 920 
1930 438 399 76 922 
1931 76 299 228 922 
1932 391 156 461 923 
1933 548 127 572 927 
1934 743 20 673 929 
1935 447 124 375 930 
1936 612 211 541 917 
1937 708 198 731 918 
1938 604 534 196 919 
1939 182 597 527 921 
1940 700 182 723 921 
1941 242 314 105 924 
1942 18 249 272 925 
1943 377 127 448 927 
1944 275 251 23 920 
1945 742 18 672 925 
1946 52 689 759 928 
1947 52 266 289 928 
1948 737 211 715 917 
1949 586 156 563 923 
1950 434 411 105 924 
1951 306 235 90 932 
1952 442 92 405 933 
1953 90 404 416 932 
1954 189 704 726 934 
1955 189 530 601 934 
1956 231 303 83 935 
1957 425 400 83 935 
1958 695 172 718 940 
1959 529 600 187 916 
1960 725 187 703 916 
1961 658 657 551 865 
1962 724 528 185 947 
1963 598 647 634 963 
1964 784 797 701 963 
1965 337 300 350 964 
1966 710 788 802 949 
1967 487 429 503 951 
1968 428 502 486 953 
1969 500 499 401 955 
1970 232 324 326 955 
1971 682 772 774 957 
1972 709 787 801 952 
1973 309 355 341 951 
1974 308 354 340 953 
1975 623 625 531 954 
1976 809 785 728 960 
1977 402 501 477 961 
1978 638 607 652 949 
1979 454 478 476 950 
1980 321 342 311 956 
1981 626 624 579 950 
1982 637 606 651 952 
1983 727 773 771 954 
1984 327 325 282 957 
1985 645 631 525 958 
1986 505 431 470 956 
1987 795 721 781 958 
1988 348 334 226 959 
1989 496 422 482 959 
1990 635 659 532 960 
1991 338 362 233 961 
1992 498 378 484 964 
1993 842 877 861 891 
1994 230 302 81 936 
1995 892 895 854 916 
1996 576 451 136 896 
1997 679 32 279 897 
1998 557 385 145 898 
1999 611 714 209 900 
2000 313 433 103 912 
2001 462 158 587 899 
2002 74 227 423 909 
2003 421 225 71 905 
2004 720 524 177 907 
2005 594 697 175 906 
2006 396 69 296 904 
2007 252 745 25 908 
2008 526 722 180 913 
2009 41 260 753 902 
2010 54 290 690 903 
2011 449 129 549 910 
2012 683 283 39 911 
2013 580 143 455 901 
2014 30 748 255 895 
2015 854 895 892 936 
2016 66 294 223 941 
2017 851 895 892 916 
2018 793 777 717 915 
2019 851 892 895 936 
2020 820 821 817 862 
2021 717 170 521 915 
2022 858 913 909 920 
2023 857 906 904 925 
2024 857 907 905 930 
2025 909 913 858 927 
2026 900 912 856 928 
2027 899 903 856 924 
2028 901 911 855 919 
2029 908 910 858 921 
2030 904 906 857 926 
2031 905 907 857 929 
2032 898 902 855 933 
2033 855 911 901 932 
2034 856 903 899 917 
2035 855 902 898 918 
2036 858 910 908 922 
2037 856 912 900 923 
2038 896 897 854 935 
2039 854 897 896 934 
2040 551 574 132 466 
2041 134 552 575 467 
2042 842 906 904 926 
2043 841 913 909 927 
2044 844 907 905 929 
2045 904 906 842 925 
2046 899 903 839 917 
2047 909 913 841 920 
2048 908 910 840 922 
2049 900 912 834 923 
2050 905 907 844 930 
2051 835 898 902 918 
2052 836 911 901 919 
2053 840 910 908 921 
2054 839 903 899 924 
2055 834 912 900 928 
2056 836 901 911 932 
2057 835 902 898 933 
2058 848 896 897 934 
2059 848 897 896 935 
2060 13 670 270 893 
2061 864 965 712 969 
2062 269 359 329 948 
2063 806 792 669 948 
2064 761 792 806 869 
2065 702 808 807 947 
2066 599 657 658 947 
2067 894 939 859 940 
2068 859 939 894 941 
2069 849 939 894 940 
2070 314 434 924 971 
2071 715 917 612 972 
2072 448 376 482 863 
2073 376 447 496 863 
2074 592 522 172 940 
2075 894 939 849 941 
2076 221 738 11 948 
2077 733 202 537 949 
2078 556 142 384 950 
2079 238 407 96 951 
2080 731 535 199 952 
2081 236 93 405 953 
2082 86 426 304 961 
2083 752 259 38 957 
2084 705 602 192 960 
2085 602 705 191 954 
2086 595 178 698 958 
2087 297 72 397 959 
2088 99 408 239 956 
2089 426 85 304 955 
2090 183 723 527 963 
2091 77 438 228 964 
2092 789 864 712 969 
2093 565 693 167 937 
2094 432 471 506 946 
2095 263 357 356 945 
2096 803 804 756 945 
2097 312 363 320 946 
2098 61 292 418 938 
2099 768 712 864 965 
2100 833 915 893 944 
2101 893 915 859 944 
2102 66 419 394 941 
2103 380 552 467 892 
2104 893 944 859 970 
2105 833 944 893 970 
2106 547 571 645 863 
2107 631 571 548 863 
2108 361 301 360 973 
2109 119 544 444 939 
2110 863 873 844 959 
2111 132 574 415 466 
2112 134 380 552 467 
2113 844 873 863 958 
2114 437 435 64 970 
2115 789 768 712 864 
2116 61 316 292 938 
2117 441 439 81 936 
2118 426 955 961 962 
2119 843 961 955 962 
2120 811 668 765 862 
2121 364 316 245 938 
2122 793 695 778 940 
2123 352 302 351 936 
2124 64 293 222 970 
2125 703 799 798 916 
2126 648 649 600 916 
2127 391 563 156 923 
2128 708 605 198 918 
2129 737 541 211 917 
2130 182 700 597 921 
2131 273 673 20 929 
2132 570 375 124 930 
2133 275 23 675 920 
2134 377 572 127 927 
2135 122 446 546 926 
2136 92 442 307 933 
2137 18 742 249 925 
2138 399 299 76 922 
2139 52 759 266 928 
2140 235 404 90 932 
2141 730 196 534 919 
2142 105 411 242 924 
2143 189 726 530 934 
2144 400 231 83 935 
2145 346 331 294 941 
2146 518 823 819 890 
2147 600 703 187 916 
2148 799 726 766 934 
2149 352 319 231 935 
2150 649 618 530 934 
2151 353 328 235 932 
2152 655 622 541 917 
2153 627 534 650 919 
2154 399 493 483 922 
2155 249 333 344 925 
2156 786 775 708 918 
2157 675 796 782 920 
2158 700 783 782 921 
2159 621 563 655 923 
2160 242 358 323 924 
2161 377 497 483 927 
2162 508 507 411 924 
2163 759 769 805 928 
2164 636 605 627 918 
2165 349 275 335 920 
2166 632 633 597 921 
2167 335 336 299 922 
2168 507 391 489 923 
2169 646 572 632 927 
2170 570 643 630 930 
2171 328 339 307 933 
2172 742 790 780 925 
2173 630 642 546 926 
2174 322 266 358 928 
2175 345 333 273 929 
2176 730 775 800 919 
2177 791 673 780 929 
2178 492 375 481 930 
2179 442 494 474 933 
2180 446 491 481 926 
2181 770 805 737 917 
2182 474 473 404 932 
2183 475 400 485 935 
2184 839 889 866 972 
2185 436 468 371 879 
2186 866 889 839 971 
2187 686 756 46 945 
2188 286 46 263 945 
2189 101 432 409 946 
2190 101 240 312 946 
2191 441 81 302 936 
2192 317 245 367 862 
2193 716 167 693 937 
2194 490 394 479 941 
2195 346 330 270 893 
2196 670 777 793 893 
2197 648 552 649 892 
2198 230 439 80 973 
2199 716 811 765 937 
2200 592 172 695 940 
2201 724 185 702 947 
2202 599 185 528 947 
2203 799 748 798 895 
2204 352 351 255 895 
2205 690 805 770 903 
2206 508 462 507 899 
2207 260 339 328 902 
2208 491 396 481 904 
2209 683 800 775 911 
2210 526 646 632 913 
2211 805 769 714 900 
2212 492 481 421 905 
2213 642 630 594 906 
2214 720 791 780 907 
2215 313 322 358 912 
2216 489 433 507 912 
2217 494 385 474 898 
2218 636 627 557 898 
2219 621 655 611 900 
2220 474 455 473 901 
2221 753 775 786 902 
2222 344 333 296 904 
2223 225 333 345 905 
2224 780 790 697 906 
2225 336 335 252 908 
2226 335 227 349 909 
2227 483 493 449 910 
2228 633 632 549 910 
2229 722 782 796 913 
2230 524 630 643 907 
2231 745 782 783 908 
2232 423 483 497 909 
2233 328 353 283 911 
2234 627 650 580 901 
2235 622 655 587 899 
2236 358 290 323 903 
2237 451 475 485 896 
2238 649 576 618 896 
2239 279 319 352 897 
2240 766 679 799 897 
2241 446 926 481 931 
2242 375 481 930 931 
2243 550 634 647 870 
2244 498 484 450 870 
2245 624 626 533 872 
2246 578 659 635 876 
2247 620 561 639 871 
2248 505 470 389 871 
2249 781 674 795 873 
2250 274 334 348 873 
2251 262 341 355 874 
2252 354 261 340 875 
2253 741 794 779 877 
2254 802 788 755 874 
2255 772 729 774 872 
2256 754 801 787 875 
2257 453 477 501 876 
2258 452 499 500 878 
2259 577 625 623 878 
2260 346 247 331 894 
2261 740 793 778 894 
2262 268 329 359 879 
2263 66 394 294 941 
2264 269 221 11 948 
2265 361 360 254 880 
2266 808 747 807 880 
2267 641 544 628 939 
2268 666 615 823 890 
2269 669 11 738 948 
2270 346 222 330 970 
2271 656 566 615 937 
2272 430 504 488 881 
2273 356 357 310 881 
2274 320 363 265 882 
2275 758 810 767 882 
2276 773 680 771 883 
2277 559 638 652 884 
2278 637 651 558 885 
2279 324 280 326 883 
2280 503 387 487 884 
2281 502 386 486 885 
2282 234 325 327 887 
2283 281 362 338 886 
2284 785 809 681 886 
2285 403 476 478 887 
2286 253 337 350 888 
2287 746 797 784 888 
2288 698 178 721 958 
2289 429 96 407 951 
2290 731 199 709 952 
2291 259 282 38 957 
2292 72 422 397 959 
2293 402 426 86 961 
2294 537 202 607 949 
2295 710 202 733 949 
2296 238 96 309 951 
2297 535 606 199 952 
2298 405 93 428 953 
2299 236 308 93 953 
2300 232 304 85 955 
2301 705 192 728 960 
2302 142 556 579 950 
2303 142 454 384 950 
2304 595 525 178 958 
2305 297 226 72 959 
2306 602 191 531 954 
2307 239 311 99 956 
2308 727 191 705 954 
2309 752 38 682 957 
2310 426 401 85 955 
2311 532 192 602 960 
2312 86 304 233 961 
2313 431 408 99 956 
2314 183 701 723 963 
2315 598 183 527 963 
2316 77 228 300 964 
2317 77 378 438 964 
2318 510 464 370 938 
2319 566 565 167 937 
2320 838 871 864 969 
2321 511 441 475 936 
2322 756 263 46 945 
2323 101 312 432 946 
2324 864 871 837 965 
2325 230 80 301 973 
2326 592 641 628 940 
2327 889 914 866 972 
2328 765 668 816 862 
2329 395 480 495 891 
2330 663 640 591 866 
2331 866 942 889 971 
2332 599 702 185 947 
2333 61 418 370 938 
2334 519 656 615 890 
2335 64 222 437 970 
2336 669 269 11 948 
2337 545 629 644 861 
2338 518 819 464 890 
2339 142 579 454 950 
2340 308 428 93 953 
2341 607 202 710 949 
2342 38 282 682 957 
2343 96 429 309 951 
2344 709 199 606 952 
2345 232 85 401 955 
2346 525 721 178 958 
2347 72 226 422 959 
2348 531 191 727 954 
2349 532 728 192 960 
2350 402 86 233 961 
2351 311 431 99 956 
2352 598 701 183 963 
2353 378 77 300 964 
2354 871 965 864 969 
2355 417 464 510 890 
2356 490 479 444 939 
2357 511 475 380 892 
2358 868 881 845 968 
2359 560 966 868 968 
2360 343 291 365 889 
2361 691 776 812 889 
2362 837 871 864 956 
2363 61 370 316 938 
2364 653 560 868 968 
2365 560 654 868 966 
2366 610 867 619 967 
2367 696 173 593 861 
2368 696 593 174 861 
2369 518 417 666 890 
2370 666 417 519 890 
2371 566 167 716 937 
2372 376 496 482 863 
2373 866 889 860 914 
2374 590 617 588 944 
2375 860 889 866 942 
2376 867 882 838 946 
2377 845 881 868 945 
2378 332 850 248 877 
2379 347 248 850 877 
2380 379 80 439 973 
2381 654 653 560 868 
2382 660 619 610 867 
2383 57 764 369 315 
2384 614 664 214 763 
2385 379 301 80 973 
2386 477 961 876 962 
2387 567 413 115 943 
2388 436 514 468 943 
2389 867 882 834 967 
2390 837 881 868 966 
2391 852 880 865 947 
2392 500 878 955 962 
2393 463 472 509 866 
2394 115 520 567 943 
2395 645 571 631 863 
2396 514 520 115 943 
2397 115 413 514 943 
2398 868 966 881 968 
2399 853 879 869 948 
2400 107 412 243 942 
2401 542 213 762 914 
2402 664 814 214 763 
2403 813 57 764 369 
2404 869 879 853 943 
2405 542 762 212 972 
2406 106 243 412 971 
2407 712 609 206 969 
2408 150 388 560 968 
2409 393 613 665 161 
2410 367 9 317 668 
2411 366 108 318 443 
2412 205 734 538 965 
2413 205 609 712 965 
2414 388 151 560 966 
2415 736 208 540 967 
2416 584 151 459 966 
2417 610 208 713 967 
2418 583 458 150 968 
2419 539 735 206 969 
2420 641 521 617 915 
2421 106 434 314 971 
2422 715 612 212 972 
2423 851 880 865 973 
2424 589 662 616 869 
2425 666 823 615 215 
2426 615 818 823 890 
2427 667 216 615 824 
2428 870 888 840 964 
2429 840 888 870 963 
2430 872 887 836 957 
2431 876 886 843 961 
2432 878 883 843 954 
2433 874 884 845 951 
2434 875 885 835 952 
2435 845 884 874 949 
2436 835 885 875 953 
2437 843 883 878 955 
2438 843 886 876 960 
2439 836 887 872 950 
2440 316 370 60 368 
2441 566 716 166 815 
2442 823 518 666 890 
2443 777 694 717 915 
2444 161 665 393 516 
2445 9 367 816 668 
2446 108 366 515 443 
2447 111 515 830 827 
2448 220 816 821 820 
2449 823 518 819 163 
2450 224 68 295 850 
2451 295 67 223 850 
2452 166 667 566 815 
2453 666 518 113 417 
2454 521 661 617 915 
2455 519 666 113 417 
2456 372 469 490 944 
2457 107 243 318 942 
2458 542 614 213 914 
2459 762 213 763 914 
2460 517 60 370 368 
2461 542 914 762 972 
2462 614 763 213 914 
2463 243 942 412 971 
2464 715 212 762 972 
2465 612 542 212 972 
2466 106 314 243 971 
2467 150 560 583 968 
2468 712 206 735 969 
2469 150 458 388 968 
2470 609 539 206 969 
2471 610 540 208 967 
2472 712 734 205 965 
2473 205 538 609 965 
2474 459 151 388 966 
2475 736 713 208 967 
2476 584 560 151 966 
2477 106 412 434 971 
2478 271 331 247 894 
2479 671 740 778 894 
2480 372 513 469 944 
2481 412 107 443 942 
2482 388 966 560 968 
2483 712 965 609 969 
2484 469 435 437 970 
2485 648 575 552 892 
2486 318 443 107 942 
2487 757 768 789 864 
2488 451 485 381 896 
2489 618 576 553 896 
2490 256 319 279 897 
2491 766 749 679 897 
2492 557 581 636 898 
2493 611 540 621 900 
2494 786 684 753 902 
2495 491 420 396 904 
2496 698 791 720 907 
2497 349 227 298 909 
2498 494 456 385 898 
2499 650 556 580 901 
2500 384 473 455 901 
2501 760 690 770 903 
2502 296 224 344 904 
2503 492 421 397 905 
2504 790 719 697 906 
2505 745 783 676 908 
2506 336 252 276 908 
2507 449 493 414 910 
2508 283 353 259 911 
2509 683 752 800 911 
2510 322 313 241 912 
2511 410 433 489 912 
2512 596 646 526 913 
2513 714 769 736 900 
2514 284 339 260 902 
2515 323 290 267 903 
2516 225 345 297 905 
2517 523 642 594 906 
2518 524 643 595 907 
2519 398 423 497 909 
2520 573 633 549 910 
2521 699 722 796 913 
2522 564 622 587 899 
2523 255 351 278 895 
2524 678 798 748 895 
2525 508 392 462 899 
2526 445 495 480 891 
2527 670 739 777 893 
2528 270 330 246 893 
2529 366 825 59 830 
2530 369 829 58 825 
2531 109 821 367 817 
2532 822 817 110 368 
2533 832 664 165 826 
2534 665 164 826 831 
2535 244 369 58 825 
2536 59 244 825 366 
2537 686 46 45 286 
2538 523 719 175 174 
2539 177 524 720 176 
2540 201 536 732 200 
2541 237 95 94 406 
2542 199 535 731 198 
2543 238 97 96 407 
2544 691 56 55 291 
2545 239 99 98 408 
2546 388 560 151 150 
2547 561 389 152 153 
2548 562 390 154 155 
2549 17 18 272 672 
2550 19 20 273 673 
2551 25 26 276 676 
2552 103 102 241 410 
2553 93 92 236 405 
2554 42 41 684 284 
2555 121 122 569 374 
2556 270 13 14 670 
2557 271 15 16 671 
2558 76 77 438 228 
2559 183 182 527 723 
2560 187 186 529 725 
2561 309 96 95 429 
2562 733 537 202 203 
2563 213 212 542 762 
2564 310 98 97 430 
2565 44 43 685 285 
2566 104 242 105 411 
2567 85 84 232 401 
2568 146 147 558 386 
2569 156 563 391 157 
2570 140 141 555 383 
2571 142 143 556 384 
2572 148 149 559 387 
2573 144 145 557 385 
2574 138 139 554 382 
2575 137 381 553 136 
2576 129 573 414 130 
2577 419 66 67 223 
2578 68 69 420 224 
2579 70 71 421 225 
2580 73 74 398 298 
2581 69 70 396 296 
2582 22 23 251 744 
2583 24 25 252 745 
2584 26 27 253 746 
2585 754 43 42 261 
2586 202 607 710 201 
2587 49 48 757 264 
2588 278 29 30 678 
2589 20 21 250 743 
2590 18 19 249 742 
2591 255 30 31 748 
2592 598 184 183 701 
2593 447 547 125 124 
2594 14 15 247 740 
2595 248 16 17 741 
2596 12 13 246 739 
2597 174 593 696 173 
2598 176 594 697 175 
2599 182 181 597 700 
2600 180 179 596 699 
2601 595 178 177 698 
2602 600 188 187 703 
2603 196 604 707 195 
2604 45 44 755 262 
2605 192 602 705 191 
2606 200 606 709 199 
2607 198 605 708 197 
2608 94 93 308 428 
2609 612 212 211 715 
2610 53 52 759 266 
2611 611 210 209 714 
2612 206 205 609 712 
2613 204 203 608 711 
2614 55 54 760 267 
2615 47 46 756 263 
2616 35 34 750 257 
2617 39 38 752 259 
2618 41 40 753 260 
2619 104 103 313 433 
2620 153 585 460 154 
2621 139 140 578 453 
2622 127 448 548 126 
2623 131 450 550 130 
2624 128 549 449 129 
2625 71 72 397 297 
2626 545 120 121 445 
2627 395 67 68 295 
2628 75 76 399 299 
2629 21 22 274 674 
2630 23 24 275 675 
2631 179 178 525 721 
2632 181 180 526 722 
2633 582 147 148 457 
2634 583 149 150 458 
2635 581 145 146 456 
2636 127 572 377 128 
2637 125 571 376 126 
2638 74 75 423 227 
2639 72 73 422 226 
2640 38 37 682 282 
2641 195 533 729 194 
2642 191 531 727 190 
2643 40 39 683 283 
2644 34 33 680 280 
2645 528 185 184 724 
2646 730 534 196 197 
2647 580 143 144 455 
2648 233 87 86 402 
2649 86 85 304 426 
2650 137 138 577 452 
2651 141 142 579 454 
2652 135 576 451 136 
2653 687 48 47 287 
2654 540 209 208 736 
2655 254 28 29 747 
2656 32 33 256 749 
2657 704 601 189 190 
2658 194 603 706 193 
2659 192 728 532 193 
2660 36 35 681 281 
2661 751 37 36 258 
2662 306 90 89 416 
2663 689 52 51 289 
2664 277 27 28 677 
2665 205 204 538 734 
2666 54 53 690 290 
2667 211 210 541 737 
2668 83 84 425 303 
2669 186 185 599 702 
2670 189 188 530 726 
2671 157 587 462 158 
2672 100 99 311 431 
2673 151 584 459 152 
2674 156 461 586 155 
2675 279 31 32 679 
2676 307 92 91 442 
2677 314 106 105 434 
2678 88 87 305 427 
2679 234 89 88 403 
2680 91 90 235 404 
2681 240 101 100 409 
2682 207 206 539 735 
2683 50 49 688 288 
2684 51 50 758 265 
2685 208 207 610 713 
2686 312 102 101 432 
2687 159 392 564 158 
2688 269 11 12 669 
2689 77 78 378 300 
2690 400 82 83 231 
2691 107 106 243 412 
2692 664 165 826 543 
2693 164 826 543 665 
2694 817 367 109 245 
2695 245 110 817 368 
2696 119 120 568 373 
2697 173 522 718 172 
2698 444 479 373 939 
2699 628 544 568 939 
2700 124 375 570 931 
2701 122 546 446 931 
2702 123 124 570 931 
2703 122 123 546 931 
2704 375 930 570 931 
2705 546 926 446 931 
2706 371 62 63 268 
2707 435 63 64 293 
2708 395 67 295 850 
2709 395 295 68 850 
2710 65 66 394 294 
2711 518 819 163 464 
2712 515 111 465 827 
2713 816 220 765 820 
2714 131 574 415 132 
2715 135 380 552 134 
2716 424 78 79 229 
2717 122 446 123 931 
2718 123 375 124 931 
2719 441 81 82 302 
2720 778 695 718 940 
2721 619 660 562 867 
2722 608 653 654 868 
2723 221 10 11 738 
2724 591 463 159 160 
2725 405 494 442 933 
2726 586 563 621 923 
2727 434 508 411 924 
2728 339 236 307 933 
2729 642 569 546 926 
2730 743 673 791 929 
2731 250 345 273 929 
2732 643 570 547 930 
2733 447 375 492 930 
2734 541 622 612 917 
2735 493 399 438 922 
2736 374 491 446 926 
2737 759 689 769 928 
2738 744 796 675 920 
2739 272 249 344 925 
2740 497 377 448 927 
2741 306 353 235 932 
2742 708 731 786 918 
2743 636 535 605 918 
2744 534 604 650 919 
2745 349 251 275 920 
2746 597 633 527 921 
2747 783 700 723 921 
2748 299 336 228 922 
2749 391 461 489 923 
2750 314 242 323 924 
2751 672 790 742 925 
2752 548 572 646 927 
2753 707 730 800 919 
2754 322 289 266 928 
2755 715 770 737 917 
2756 404 473 416 932 
2757 601 530 618 934 
2758 704 766 726 934 
2759 319 303 231 935 
2760 485 400 425 935 
2761 600 529 648 916 
2762 703 798 725 916 
2763 351 302 230 936 
2764 294 331 223 941 
2765 215 823 615 818 
2766 824 216 615 818 
2767 592 628 522 940 
2768 819 823 818 890 
2769 695 592 171 172 
2770 511 439 441 936 
2771 523 593 629 861 
2772 522 644 593 861 
2773 479 394 419 941 
2774 426 961 477 962 
2775 379 79 80 301 
2776 544 118 119 444 
2777 379 439 440 973 
2778 263 356 286 945 
2779 803 756 686 945 
2780 432 506 409 946 
2781 312 240 363 946 
2782 426 500 955 962 
2783 439 80 81 230 
2784 375 446 481 931 
2785 616 567 520 943 
2786 738 806 669 948 
2787 702 807 724 947 
2788 657 599 528 947 
2789 437 64 65 222 
2790 329 221 269 948 
2791 364 292 316 938 
2792 332 347 248 850 
2793 454 476 384 950 
2794 727 705 773 954 
2795 733 788 710 949 
2796 500 401 426 955 
2797 431 505 408 956 
2798 698 721 795 958 
2799 297 348 226 959 
2800 607 638 537 949 
2801 579 556 626 950 
2802 341 238 309 951 
2803 407 503 429 951 
2804 606 535 651 952 
2805 731 709 801 952 
2806 405 428 486 953 
2807 236 354 308 953 
2808 625 602 531 954 
2809 304 232 326 955 
2810 774 752 682 957 
2811 525 595 645 958 
2812 496 397 422 959 
2813 321 311 239 956 
2814 728 785 705 960 
2815 402 477 426 961 
2816 259 327 282 957 
2817 532 602 635 960 
2818 233 304 338 961 
2819 797 723 701 963 
2820 527 647 598 963 
2821 350 300 228 964 
2822 438 378 498 964 
2823 61 62 418 292 
2824 440 466 512 865 
2825 293 330 222 970 
2826 565 566 656 937 
2827 168 565 693 167 
2828 171 521 717 170 
2829 876 961 843 962 
2830 843 955 878 962 
2831 230 301 361 973 
2832 370 418 510 938 
2833 380 467 511 892 
2834 6 823 518 666 
2835 8 667 815 824 
2836 570 546 123 931 
2837 7 832 814 664 
2838 2 813 829 369 
2839 516 5 665 831 
2840 3 366 830 515 
2841 1 367 821 816 
2842 4 517 822 368 
2843 514 413 468 943 
2844 828 217 692 218 
2845 716 693 811 937 
2846 244 58 59 825 
2847 165 826 543 164 
2848 110 817 109 245 
2849 417 518 464 890 
2850 615 666 519 890 
2851 426 477 500 962 
2852 382 500 477 962 
2853 168 761 662 169 
2854 614 214 213 763 
2855 764 57 56 315 
2856 115 514 116 520 
2857 819 163 464 162 
2858 170 661 694 169 
2859 112 465 111 827 
2860 219 765 220 820 
2861 542 612 640 972 
2862 762 776 715 972 
2863 343 243 314 971 
2864 653 583 560 968 
2865 712 735 789 969 
2866 388 458 488 968 
2867 539 609 639 969 
2868 610 619 540 967 
2869 736 767 713 967 
2870 620 609 538 965 
2871 388 504 459 966 
2872 712 768 734 965 
2873 560 584 654 966 
2874 412 472 434 971 
2875 629 593 644 861 
2876 590 117 118 372 
2877 317 9 10 668 
2878 161 393 613 160 
2879 318 108 107 443 
2880 215 615 216 818 
2881 365 318 243 942 
2882 763 812 762 914 
2883 542 663 614 914 
2884 114 115 567 413 
2885 117 116 513 588 
2886 60 61 370 316 
2887 214 7 814 664 
2888 813 2 57 369 
2889 566 716 167 166 
2890 815 219 8 824 
2891 113 6 518 666 
2892 518 823 6 163 
2893 8 667 166 815 
2894 443 509 412 942 
2895 367 1 9 816 
2896 517 4 60 368 
2897 5 665 161 516 
2898 366 3 108 515 
2899 162 4 517 822 
2900 816 821 1 220 
2901 516 112 5 831 
2902 515 830 3 111 
2903 8 216 667 824 
2904 6 823 666 215 
2905 113 114 519 417 
2906 575 133 134 467 
2907 551 132 133 466 
2908 7 832 664 165 
2909 829 58 2 369 
2910 5 164 665 831 
2911 813 218 2 829 
2912 366 59 3 830 
2913 814 832 7 217 
2914 821 367 1 109 
2915 822 110 4 368 
2916 332 224 295 850 
2917 347 295 223 850 
2918 332 295 347 850 
2919 867 969 660 838 
2920 660 969 867 539 
2921 832 692 217 814 
2922 217 692 832 828 
2923 829 692 218 828 
2924 829 218 692 813 
2925 969 810 713 735 
2926 969 713 810 838 
2927 942 515 465 860 
2928 942 465 515 443 
2929 455 898 474 385 
2930 455 474 898 901 
2931 890 817 822 862 
2932 890 822 817 819 
2933 936 231 352 302 
2934 936 352 231 935 
2935 588 514 116 513 
2936 588 116 514 520 
2937 464 822 162 517 
2938 162 822 464 819 
2939 765 824 219 815 
2940 219 824 765 820 
2941 831 465 112 827 
2942 831 112 465 516 
2943 827 515 860 465 
2944 827 860 515 830 
2945 936 400 231 441 
2946 936 231 400 935 
2947 919 708 605 730 
2948 919 605 708 918 
2949 907 697 780 720 
2950 907 780 697 906 
2951 724 947 963 528 
2952 634 963 947 528 
2953 634 947 963 852 
2954 784 947 963 724 
2955 963 947 784 852 
2956 296 905 333 225 
2957 333 905 296 904 
2958 911 260 683 283 
2959 911 683 260 902 
2960 372 939 490 444 
2961 490 939 372 944 
2962 901 557 455 580 
2963 901 455 557 898 
2964 958 643 907 595 
2965 958 907 643 844 
2966 959 492 905 844 
2967 959 905 492 397 
2968 959 345 905 297 
2969 959 905 345 844 
2970 956 357 881 239 
2971 956 881 357 837 
2972 786 952 918 731 
2973 918 952 786 835 
2974 957 800 911 836 
2975 957 911 800 752 
2976 791 958 907 698 
2977 907 958 791 844 
2978 950 650 901 556 
2979 950 901 650 836 
2980 951 356 881 845 
2981 951 881 356 238 
2982 952 636 918 535 
2983 952 918 636 835 
2984 957 353 911 259 
2985 957 911 353 836 
2986 953 494 933 835 
2987 953 933 494 405 
2988 951 488 881 407 
2989 951 881 488 845 
2990 953 339 933 236 
2991 953 933 339 835 
2992 950 473 901 836 
2993 950 901 473 384 
2994 949 653 868 845 
2995 949 868 653 537 
2996 956 504 881 837 
2997 956 881 504 408 
2998 949 803 868 733 
2999 949 868 803 845 
3000 964 336 922 228 
3001 964 922 336 840 
3002 783 963 921 723 
3003 921 963 783 840 
3004 963 633 921 527 
3005 963 921 633 840 
3006 964 493 922 840 
3007 964 922 493 438 
3008 552 896 380 576 
3009 380 896 552 892 
3010 695 521 915 717 
3011 915 521 695 592 
3012 944 544 372 590 
3013 944 372 544 939 
3014 380 896 475 451 
3015 475 896 380 892 
3016 948 738 862 221 
3017 862 738 948 853 
3018 862 364 948 221 
3019 948 364 862 853 
3020 965 966 871 837 
3021 871 966 965 620 
3022 965 966 868 654 
3023 868 966 965 837 
3024 575 892 865 467 
3025 575 865 892 851 
3026 440 865 892 467 
3027 440 892 865 851 
3028 943 413 890 567 
3029 890 413 943 853 
3030 890 656 943 567 
3031 943 656 890 853 
3032 919 605 627 534 
3033 919 627 605 918 
3034 907 594 630 906 
3035 907 630 594 524 
3036 865 467 133 575 
3037 865 133 467 440 
3038 662 693 869 761 
3039 662 869 693 565 
3040 967 810 767 713 
3041 967 767 810 882 
3042 566 815 937 716 
3043 937 815 566 667 
3044 865 133 466 551 
3045 865 466 133 440 
3046 589 943 616 520 
3047 616 943 589 869 
3048 973 512 440 379 
3049 973 440 512 865 
$EndElements
