ISO-10303-21;
HEADER;
/* Generated by software containing ST-Developer
 * from STEP Tools, Inc. (www.steptools.com) 
 */

FILE_DESCRIPTION(
/* description */ (''),
/* implementation_level */ '2;1');

FILE_NAME(
/* name */ 'casing_base.step',
/* time_stamp */ '2026-09-23T13:08:39+05:30',
/* author */ (''),
/* organization */ (''),
/* preprocessor_version */ 'ST-DEVELOPER v20.1',
/* originating_system */ 'Autodesk Translation Framework v15.8.0.0',
/* authorisation */ '');

FILE_SCHEMA (('AUTOMOTIVE_DESIGN { 1 0 10303 214 3 1 1 }'));
ENDSEC;

DATA;
#10=MECHANICAL_DESIGN_GEOMETRIC_PRESENTATION_REPRESENTATION('',(#13),#1899);
#11=SHAPE_REPRESENTATION_RELATIONSHIP('SRR','None',#1906,#12);
#12=ADVANCED_BREP_SHAPE_REPRESENTATION('',(#14),#1898);
#13=STYLED_ITEM('',(#1915),#14);
#14=MANIFOLD_SOLID_BREP('Body1',#1055);
#15=FACE_BOUND('',#142,.T.);
#16=FACE_BOUND('',#143,.T.);
#17=FACE_BOUND('',#144,.T.);
#18=FACE_BOUND('',#145,.T.);
#19=FACE_BOUND('',#146,.T.);
#20=FACE_BOUND('',#147,.T.);
#21=FACE_BOUND('',#148,.T.);
#22=FACE_BOUND('',#153,.T.);
#23=FACE_BOUND('',#154,.T.);
#24=FACE_BOUND('',#155,.T.);
#25=FACE_BOUND('',#156,.T.);
#26=FACE_BOUND('',#157,.T.);
#27=FACE_BOUND('',#158,.T.);
#28=FACE_BOUND('',#159,.T.);
#29=FACE_BOUND('',#163,.T.);
#30=FACE_BOUND('',#164,.T.);
#31=FACE_BOUND('',#165,.T.);
#32=FACE_BOUND('',#166,.T.);
#33=FACE_BOUND('',#167,.T.);
#34=FACE_BOUND('',#168,.T.);
#35=FACE_BOUND('',#169,.T.);
#36=FACE_BOUND('',#200,.T.);
#37=FACE_BOUND('',#201,.T.);
#38=FACE_BOUND('',#202,.T.);
#39=FACE_BOUND('',#203,.T.);
#40=FACE_BOUND('',#204,.T.);
#41=FACE_BOUND('',#205,.T.);
#42=FACE_BOUND('',#209,.T.);
#43=FACE_BOUND('',#210,.T.);
#44=FACE_BOUND('',#211,.T.);
#45=FACE_BOUND('',#212,.T.);
#46=FACE_BOUND('',#213,.T.);
#47=FACE_BOUND('',#214,.T.);
#48=FACE_BOUND('',#215,.T.);
#49=FACE_BOUND('',#218,.T.);
#50=FACE_BOUND('',#221,.T.);
#51=PLANE('',#1072);
#52=PLANE('',#1076);
#53=PLANE('',#1080);
#54=PLANE('',#1084);
#55=PLANE('',#1088);
#56=PLANE('',#1092);
#57=PLANE('',#1099);
#58=PLANE('',#1135);
#59=PLANE('',#1148);
#60=PLANE('',#1208);
#61=PLANE('',#1210);
#62=PLANE('',#1214);
#63=PLANE('',#1218);
#64=PLANE('',#1222);
#65=FACE_OUTER_BOUND('',#127,.T.);
#66=FACE_OUTER_BOUND('',#128,.T.);
#67=FACE_OUTER_BOUND('',#129,.T.);
#68=FACE_OUTER_BOUND('',#130,.T.);
#69=FACE_OUTER_BOUND('',#131,.T.);
#70=FACE_OUTER_BOUND('',#132,.T.);
#71=FACE_OUTER_BOUND('',#133,.T.);
#72=FACE_OUTER_BOUND('',#134,.T.);
#73=FACE_OUTER_BOUND('',#135,.T.);
#74=FACE_OUTER_BOUND('',#136,.T.);
#75=FACE_OUTER_BOUND('',#137,.T.);
#76=FACE_OUTER_BOUND('',#138,.T.);
#77=FACE_OUTER_BOUND('',#139,.T.);
#78=FACE_OUTER_BOUND('',#140,.T.);
#79=FACE_OUTER_BOUND('',#141,.T.);
#80=FACE_OUTER_BOUND('',#149,.T.);
#81=FACE_OUTER_BOUND('',#150,.T.);
#82=FACE_OUTER_BOUND('',#151,.T.);
#83=FACE_OUTER_BOUND('',#152,.T.);
#84=FACE_OUTER_BOUND('',#160,.T.);
#85=FACE_OUTER_BOUND('',#161,.T.);
#86=FACE_OUTER_BOUND('',#162,.T.);
#87=FACE_OUTER_BOUND('',#170,.T.);
#88=FACE_OUTER_BOUND('',#171,.T.);
#89=FACE_OUTER_BOUND('',#172,.T.);
#90=FACE_OUTER_BOUND('',#173,.T.);
#91=FACE_OUTER_BOUND('',#174,.T.);
#92=FACE_OUTER_BOUND('',#175,.T.);
#93=FACE_OUTER_BOUND('',#176,.T.);
#94=FACE_OUTER_BOUND('',#177,.T.);
#95=FACE_OUTER_BOUND('',#178,.T.);
#96=FACE_OUTER_BOUND('',#179,.T.);
#97=FACE_OUTER_BOUND('',#180,.T.);
#98=FACE_OUTER_BOUND('',#181,.T.);
#99=FACE_OUTER_BOUND('',#182,.T.);
#100=FACE_OUTER_BOUND('',#183,.T.);
#101=FACE_OUTER_BOUND('',#184,.T.);
#102=FACE_OUTER_BOUND('',#185,.T.);
#103=FACE_OUTER_BOUND('',#186,.T.);
#104=FACE_OUTER_BOUND('',#187,.T.);
#105=FACE_OUTER_BOUND('',#188,.T.);
#106=FACE_OUTER_BOUND('',#189,.T.);
#107=FACE_OUTER_BOUND('',#190,.T.);
#108=FACE_OUTER_BOUND('',#191,.T.);
#109=FACE_OUTER_BOUND('',#192,.T.);
#110=FACE_OUTER_BOUND('',#193,.T.);
#111=FACE_OUTER_BOUND('',#194,.T.);
#112=FACE_OUTER_BOUND('',#195,.T.);
#113=FACE_OUTER_BOUND('',#196,.T.);
#114=FACE_OUTER_BOUND('',#197,.T.);
#115=FACE_OUTER_BOUND('',#198,.T.);
#116=FACE_OUTER_BOUND('',#199,.T.);
#117=FACE_OUTER_BOUND('',#206,.T.);
#118=FACE_OUTER_BOUND('',#207,.T.);
#119=FACE_OUTER_BOUND('',#208,.T.);
#120=FACE_OUTER_BOUND('',#216,.T.);
#121=FACE_OUTER_BOUND('',#217,.T.);
#122=FACE_OUTER_BOUND('',#219,.T.);
#123=FACE_OUTER_BOUND('',#220,.T.);
#124=FACE_OUTER_BOUND('',#222,.T.);
#125=FACE_OUTER_BOUND('',#223,.T.);
#126=FACE_OUTER_BOUND('',#224,.T.);
#127=EDGE_LOOP('',(#657,#658,#659,#660));
#128=EDGE_LOOP('',(#661));
#129=EDGE_LOOP('',(#662,#663,#664,#665));
#130=EDGE_LOOP('',(#666));
#131=EDGE_LOOP('',(#667,#668,#669,#670));
#132=EDGE_LOOP('',(#671));
#133=EDGE_LOOP('',(#672,#673,#674,#675));
#134=EDGE_LOOP('',(#676));
#135=EDGE_LOOP('',(#677,#678,#679,#680));
#136=EDGE_LOOP('',(#681));
#137=EDGE_LOOP('',(#682,#683,#684,#685));
#138=EDGE_LOOP('',(#686));
#139=EDGE_LOOP('',(#687,#688,#689,#690));
#140=EDGE_LOOP('',(#691,#692,#693,#694));
#141=EDGE_LOOP('',(#695,#696,#697,#698,#699,#700,#701,#702,#703,#704,#705,
#706,#707,#708,#709,#710,#711,#712,#713,#714,#715,#716,#717,#718));
#142=EDGE_LOOP('',(#719));
#143=EDGE_LOOP('',(#720));
#144=EDGE_LOOP('',(#721));
#145=EDGE_LOOP('',(#722));
#146=EDGE_LOOP('',(#723));
#147=EDGE_LOOP('',(#724));
#148=EDGE_LOOP('',(#725));
#149=EDGE_LOOP('',(#726,#727,#728,#729));
#150=EDGE_LOOP('',(#730,#731,#732,#733));
#151=EDGE_LOOP('',(#734,#735,#736,#737));
#152=EDGE_LOOP('',(#738));
#153=EDGE_LOOP('',(#739));
#154=EDGE_LOOP('',(#740));
#155=EDGE_LOOP('',(#741));
#156=EDGE_LOOP('',(#742));
#157=EDGE_LOOP('',(#743));
#158=EDGE_LOOP('',(#744));
#159=EDGE_LOOP('',(#745));
#160=EDGE_LOOP('',(#746,#747,#748,#749));
#161=EDGE_LOOP('',(#750,#751,#752,#753));
#162=EDGE_LOOP('',(#754,#755,#756,#757,#758,#759,#760,#761,#762,#763,#764,
#765,#766,#767,#768,#769,#770,#771,#772,#773,#774,#775,#776,#777));
#163=EDGE_LOOP('',(#778));
#164=EDGE_LOOP('',(#779));
#165=EDGE_LOOP('',(#780));
#166=EDGE_LOOP('',(#781));
#167=EDGE_LOOP('',(#782));
#168=EDGE_LOOP('',(#783));
#169=EDGE_LOOP('',(#784));
#170=EDGE_LOOP('',(#785,#786,#787,#788));
#171=EDGE_LOOP('',(#789,#790,#791,#792));
#172=EDGE_LOOP('',(#793,#794,#795,#796));
#173=EDGE_LOOP('',(#797,#798,#799,#800));
#174=EDGE_LOOP('',(#801,#802,#803,#804));
#175=EDGE_LOOP('',(#805,#806,#807,#808));
#176=EDGE_LOOP('',(#809,#810,#811,#812));
#177=EDGE_LOOP('',(#813,#814,#815,#816));
#178=EDGE_LOOP('',(#817,#818,#819,#820));
#179=EDGE_LOOP('',(#821,#822,#823,#824));
#180=EDGE_LOOP('',(#825,#826,#827,#828));
#181=EDGE_LOOP('',(#829,#830,#831,#832));
#182=EDGE_LOOP('',(#833,#834,#835,#836));
#183=EDGE_LOOP('',(#837,#838,#839,#840));
#184=EDGE_LOOP('',(#841,#842,#843,#844));
#185=EDGE_LOOP('',(#845,#846,#847,#848));
#186=EDGE_LOOP('',(#849,#850,#851,#852));
#187=EDGE_LOOP('',(#853,#854,#855,#856));
#188=EDGE_LOOP('',(#857,#858,#859,#860));
#189=EDGE_LOOP('',(#861,#862,#863,#864));
#190=EDGE_LOOP('',(#865,#866,#867,#868));
#191=EDGE_LOOP('',(#869,#870,#871,#872));
#192=EDGE_LOOP('',(#873,#874,#875,#876));
#193=EDGE_LOOP('',(#877,#878,#879,#880));
#194=EDGE_LOOP('',(#881,#882,#883,#884));
#195=EDGE_LOOP('',(#885,#886,#887,#888));
#196=EDGE_LOOP('',(#889,#890,#891,#892));
#197=EDGE_LOOP('',(#893,#894,#895,#896));
#198=EDGE_LOOP('',(#897,#898,#899,#900));
#199=EDGE_LOOP('',(#901));
#200=EDGE_LOOP('',(#902));
#201=EDGE_LOOP('',(#903));
#202=EDGE_LOOP('',(#904));
#203=EDGE_LOOP('',(#905));
#204=EDGE_LOOP('',(#906));
#205=EDGE_LOOP('',(#907));
#206=EDGE_LOOP('',(#908));
#207=EDGE_LOOP('',(#909,#910,#911,#912));
#208=EDGE_LOOP('',(#913));
#209=EDGE_LOOP('',(#914));
#210=EDGE_LOOP('',(#915));
#211=EDGE_LOOP('',(#916));
#212=EDGE_LOOP('',(#917));
#213=EDGE_LOOP('',(#918));
#214=EDGE_LOOP('',(#919));
#215=EDGE_LOOP('',(#920));
#216=EDGE_LOOP('',(#921,#922,#923,#924));
#217=EDGE_LOOP('',(#925));
#218=EDGE_LOOP('',(#926));
#219=EDGE_LOOP('',(#927,#928,#929,#930));
#220=EDGE_LOOP('',(#931));
#221=EDGE_LOOP('',(#932));
#222=EDGE_LOOP('',(#933,#934,#935,#936));
#223=EDGE_LOOP('',(#937,#938,#939,#940));
#224=EDGE_LOOP('',(#941,#942,#943,#944));
#225=LINE('',#1598,#273);
#226=LINE('',#1605,#274);
#227=LINE('',#1612,#275);
#228=LINE('',#1619,#276);
#229=LINE('',#1626,#277);
#230=LINE('',#1633,#278);
#231=LINE('',#1641,#279);
#232=LINE('',#1644,#280);
#233=LINE('',#1649,#281);
#234=LINE('',#1711,#282);
#235=LINE('',#1714,#283);
#236=LINE('',#1718,#284);
#237=LINE('',#1742,#285);
#238=LINE('',#1743,#286);
#239=LINE('',#1747,#287);
#240=LINE('',#1796,#288);
#241=LINE('',#1797,#289);
#242=LINE('',#1799,#290);
#243=LINE('',#1801,#291);
#244=LINE('',#1802,#292);
#245=LINE('',#1804,#293);
#246=LINE('',#1806,#294);
#247=LINE('',#1809,#295);
#248=LINE('',#1811,#296);
#249=LINE('',#1813,#297);
#250=LINE('',#1816,#298);
#251=LINE('',#1818,#299);
#252=LINE('',#1820,#300);
#253=LINE('',#1823,#301);
#254=LINE('',#1825,#302);
#255=LINE('',#1828,#303);
#256=LINE('',#1830,#304);
#257=LINE('',#1832,#305);
#258=LINE('',#1834,#306);
#259=LINE('',#1836,#307);
#260=LINE('',#1838,#308);
#261=LINE('',#1842,#309);
#262=LINE('',#1846,#310);
#263=LINE('',#1850,#311);
#264=LINE('',#1854,#312);
#265=LINE('',#1858,#313);
#266=LINE('',#1862,#314);
#267=LINE('',#1871,#315);
#268=LINE('',#1878,#316);
#269=LINE('',#1886,#317);
#270=LINE('',#1891,#318);
#271=LINE('',#1893,#319);
#272=LINE('',#1895,#320);
#273=VECTOR('',#1233,2.);
#274=VECTOR('',#1242,2.);
#275=VECTOR('',#1251,2.);
#276=VECTOR('',#1260,2.);
#277=VECTOR('',#1269,2.);
#278=VECTOR('',#1278,2.);
#279=VECTOR('',#1287,10.);
#280=VECTOR('',#1290,10.);
#281=VECTOR('',#1295,10.);
#282=VECTOR('',#1360,10.);
#283=VECTOR('',#1363,10.);
#284=VECTOR('',#1368,10.);
#285=VECTOR('',#1395,10.);
#286=VECTOR('',#1396,10.);
#287=VECTOR('',#1401,10.);
#288=VECTOR('',#1454,10.);
#289=VECTOR('',#1455,10.);
#290=VECTOR('',#1458,10.);
#291=VECTOR('',#1461,10.);
#292=VECTOR('',#1462,10.);
#293=VECTOR('',#1465,10.);
#294=VECTOR('',#1468,10.);
#295=VECTOR('',#1473,10.);
#296=VECTOR('',#1476,10.);
#297=VECTOR('',#1479,10.);
#298=VECTOR('',#1484,10.);
#299=VECTOR('',#1487,10.);
#300=VECTOR('',#1490,10.);
#301=VECTOR('',#1495,10.);
#302=VECTOR('',#1498,10.);
#303=VECTOR('',#1503,3.);
#304=VECTOR('',#1506,3.);
#305=VECTOR('',#1509,3.);
#306=VECTOR('',#1512,3.);
#307=VECTOR('',#1515,3.);
#308=VECTOR('',#1518,3.);
#309=VECTOR('',#1523,3.);
#310=VECTOR('',#1528,3.);
#311=VECTOR('',#1533,3.);
#312=VECTOR('',#1538,3.);
#313=VECTOR('',#1543,3.);
#314=VECTOR('',#1548,3.);
#315=VECTOR('',#1559,35.);
#316=VECTOR('',#1568,47.);
#317=VECTOR('',#1579,50.);
#318=VECTOR('',#1586,53.);
#319=VECTOR('',#1589,61.5);
#320=VECTOR('',#1592,75.);
#321=CIRCLE('',#1070,2.);
#322=CIRCLE('',#1071,2.);
#323=CIRCLE('',#1074,2.);
#324=CIRCLE('',#1075,2.);
#325=CIRCLE('',#1078,2.);
#326=CIRCLE('',#1079,2.);
#327=CIRCLE('',#1082,2.);
#328=CIRCLE('',#1083,2.);
#329=CIRCLE('',#1086,2.);
#330=CIRCLE('',#1087,2.);
#331=CIRCLE('',#1090,2.);
#332=CIRCLE('',#1091,2.);
#333=CIRCLE('',#1094,5.);
#334=CIRCLE('',#1095,5.);
#335=CIRCLE('',#1097,75.);
#336=CIRCLE('',#1098,75.);
#337=CIRCLE('',#1100,6.5);
#338=CIRCLE('',#1101,5.);
#339=CIRCLE('',#1102,75.);
#340=CIRCLE('',#1103,5.);
#341=CIRCLE('',#1104,6.5);
#342=CIRCLE('',#1105,5.);
#343=CIRCLE('',#1106,75.);
#344=CIRCLE('',#1107,5.);
#345=CIRCLE('',#1108,6.5);
#346=CIRCLE('',#1109,5.);
#347=CIRCLE('',#1110,75.);
#348=CIRCLE('',#1111,5.);
#349=CIRCLE('',#1112,6.5);
#350=CIRCLE('',#1113,5.);
#351=CIRCLE('',#1114,75.);
#352=CIRCLE('',#1115,5.);
#353=CIRCLE('',#1116,6.5);
#354=CIRCLE('',#1117,5.);
#355=CIRCLE('',#1118,75.);
#356=CIRCLE('',#1119,5.);
#357=CIRCLE('',#1120,6.5);
#358=CIRCLE('',#1121,5.);
#359=CIRCLE('',#1122,3.);
#360=CIRCLE('',#1123,3.);
#361=CIRCLE('',#1124,3.);
#362=CIRCLE('',#1125,3.);
#363=CIRCLE('',#1126,3.);
#364=CIRCLE('',#1127,3.);
#365=CIRCLE('',#1128,53.);
#366=CIRCLE('',#1130,5.);
#367=CIRCLE('',#1132,75.);
#368=CIRCLE('',#1134,6.5);
#369=CIRCLE('',#1136,75.);
#370=CIRCLE('',#1137,3.);
#371=CIRCLE('',#1138,3.);
#372=CIRCLE('',#1139,61.5);
#373=CIRCLE('',#1140,3.);
#374=CIRCLE('',#1141,3.);
#375=CIRCLE('',#1142,3.);
#376=CIRCLE('',#1143,3.);
#377=CIRCLE('',#1145,5.);
#378=CIRCLE('',#1147,75.);
#379=CIRCLE('',#1149,5.);
#380=CIRCLE('',#1150,6.5);
#381=CIRCLE('',#1151,5.);
#382=CIRCLE('',#1152,6.5);
#383=CIRCLE('',#1153,5.);
#384=CIRCLE('',#1154,75.);
#385=CIRCLE('',#1155,5.);
#386=CIRCLE('',#1156,6.5);
#387=CIRCLE('',#1157,5.);
#388=CIRCLE('',#1158,75.);
#389=CIRCLE('',#1159,5.);
#390=CIRCLE('',#1160,6.5);
#391=CIRCLE('',#1161,5.);
#392=CIRCLE('',#1162,75.);
#393=CIRCLE('',#1163,5.);
#394=CIRCLE('',#1164,6.5);
#395=CIRCLE('',#1165,5.);
#396=CIRCLE('',#1166,61.5);
#397=CIRCLE('',#1167,3.);
#398=CIRCLE('',#1168,3.);
#399=CIRCLE('',#1169,3.);
#400=CIRCLE('',#1170,3.);
#401=CIRCLE('',#1171,3.);
#402=CIRCLE('',#1172,3.);
#403=CIRCLE('',#1197,3.);
#404=CIRCLE('',#1199,3.);
#405=CIRCLE('',#1201,3.);
#406=CIRCLE('',#1203,3.);
#407=CIRCLE('',#1205,3.);
#408=CIRCLE('',#1207,3.);
#409=CIRCLE('',#1209,75.);
#410=CIRCLE('',#1211,35.);
#411=CIRCLE('',#1213,35.);
#412=CIRCLE('',#1215,47.);
#413=CIRCLE('',#1217,47.);
#414=CIRCLE('',#1219,50.);
#415=CIRCLE('',#1221,50.);
#416=CIRCLE('',#1223,53.);
#417=VERTEX_POINT('',#1595);
#418=VERTEX_POINT('',#1597);
#419=VERTEX_POINT('',#1602);
#420=VERTEX_POINT('',#1604);
#421=VERTEX_POINT('',#1609);
#422=VERTEX_POINT('',#1611);
#423=VERTEX_POINT('',#1616);
#424=VERTEX_POINT('',#1618);
#425=VERTEX_POINT('',#1623);
#426=VERTEX_POINT('',#1625);
#427=VERTEX_POINT('',#1630);
#428=VERTEX_POINT('',#1632);
#429=VERTEX_POINT('',#1637);
#430=VERTEX_POINT('',#1638);
#431=VERTEX_POINT('',#1640);
#432=VERTEX_POINT('',#1642);
#433=VERTEX_POINT('',#1646);
#434=VERTEX_POINT('',#1648);
#435=VERTEX_POINT('',#1652);
#436=VERTEX_POINT('',#1654);
#437=VERTEX_POINT('',#1656);
#438=VERTEX_POINT('',#1658);
#439=VERTEX_POINT('',#1660);
#440=VERTEX_POINT('',#1662);
#441=VERTEX_POINT('',#1664);
#442=VERTEX_POINT('',#1666);
#443=VERTEX_POINT('',#1668);
#444=VERTEX_POINT('',#1670);
#445=VERTEX_POINT('',#1672);
#446=VERTEX_POINT('',#1674);
#447=VERTEX_POINT('',#1676);
#448=VERTEX_POINT('',#1678);
#449=VERTEX_POINT('',#1680);
#450=VERTEX_POINT('',#1682);
#451=VERTEX_POINT('',#1684);
#452=VERTEX_POINT('',#1686);
#453=VERTEX_POINT('',#1688);
#454=VERTEX_POINT('',#1690);
#455=VERTEX_POINT('',#1692);
#456=VERTEX_POINT('',#1695);
#457=VERTEX_POINT('',#1697);
#458=VERTEX_POINT('',#1699);
#459=VERTEX_POINT('',#1701);
#460=VERTEX_POINT('',#1703);
#461=VERTEX_POINT('',#1705);
#462=VERTEX_POINT('',#1707);
#463=VERTEX_POINT('',#1710);
#464=VERTEX_POINT('',#1712);
#465=VERTEX_POINT('',#1716);
#466=VERTEX_POINT('',#1722);
#467=VERTEX_POINT('',#1724);
#468=VERTEX_POINT('',#1726);
#469=VERTEX_POINT('',#1728);
#470=VERTEX_POINT('',#1730);
#471=VERTEX_POINT('',#1732);
#472=VERTEX_POINT('',#1734);
#473=VERTEX_POINT('',#1736);
#474=VERTEX_POINT('',#1739);
#475=VERTEX_POINT('',#1740);
#476=VERTEX_POINT('',#1745);
#477=VERTEX_POINT('',#1749);
#478=VERTEX_POINT('',#1751);
#479=VERTEX_POINT('',#1754);
#480=VERTEX_POINT('',#1756);
#481=VERTEX_POINT('',#1758);
#482=VERTEX_POINT('',#1760);
#483=VERTEX_POINT('',#1762);
#484=VERTEX_POINT('',#1764);
#485=VERTEX_POINT('',#1766);
#486=VERTEX_POINT('',#1768);
#487=VERTEX_POINT('',#1770);
#488=VERTEX_POINT('',#1772);
#489=VERTEX_POINT('',#1774);
#490=VERTEX_POINT('',#1776);
#491=VERTEX_POINT('',#1778);
#492=VERTEX_POINT('',#1781);
#493=VERTEX_POINT('',#1783);
#494=VERTEX_POINT('',#1785);
#495=VERTEX_POINT('',#1787);
#496=VERTEX_POINT('',#1789);
#497=VERTEX_POINT('',#1791);
#498=VERTEX_POINT('',#1793);
#499=VERTEX_POINT('',#1840);
#500=VERTEX_POINT('',#1844);
#501=VERTEX_POINT('',#1848);
#502=VERTEX_POINT('',#1852);
#503=VERTEX_POINT('',#1856);
#504=VERTEX_POINT('',#1860);
#505=VERTEX_POINT('',#1864);
#506=VERTEX_POINT('',#1867);
#507=VERTEX_POINT('',#1870);
#508=VERTEX_POINT('',#1874);
#509=VERTEX_POINT('',#1877);
#510=VERTEX_POINT('',#1881);
#511=VERTEX_POINT('',#1884);
#512=VERTEX_POINT('',#1888);
#513=EDGE_CURVE('',#417,#417,#321,.T.);
#514=EDGE_CURVE('',#417,#418,#225,.T.);
#515=EDGE_CURVE('',#418,#418,#322,.T.);
#516=EDGE_CURVE('',#419,#419,#323,.T.);
#517=EDGE_CURVE('',#419,#420,#226,.T.);
#518=EDGE_CURVE('',#420,#420,#324,.T.);
#519=EDGE_CURVE('',#421,#421,#325,.T.);
#520=EDGE_CURVE('',#421,#422,#227,.T.);
#521=EDGE_CURVE('',#422,#422,#326,.T.);
#522=EDGE_CURVE('',#423,#423,#327,.T.);
#523=EDGE_CURVE('',#423,#424,#228,.T.);
#524=EDGE_CURVE('',#424,#424,#328,.T.);
#525=EDGE_CURVE('',#425,#425,#329,.T.);
#526=EDGE_CURVE('',#425,#426,#229,.T.);
#527=EDGE_CURVE('',#426,#426,#330,.T.);
#528=EDGE_CURVE('',#427,#427,#331,.T.);
#529=EDGE_CURVE('',#427,#428,#230,.T.);
#530=EDGE_CURVE('',#428,#428,#332,.T.);
#531=EDGE_CURVE('',#429,#430,#333,.T.);
#532=EDGE_CURVE('',#430,#431,#231,.T.);
#533=EDGE_CURVE('',#431,#432,#334,.T.);
#534=EDGE_CURVE('',#432,#429,#232,.T.);
#535=EDGE_CURVE('',#432,#433,#335,.T.);
#536=EDGE_CURVE('',#434,#433,#233,.T.);
#537=EDGE_CURVE('',#429,#434,#336,.T.);
#538=EDGE_CURVE('',#435,#431,#337,.T.);
#539=EDGE_CURVE('',#436,#435,#338,.T.);
#540=EDGE_CURVE('',#437,#436,#339,.T.);
#541=EDGE_CURVE('',#438,#437,#340,.T.);
#542=EDGE_CURVE('',#439,#438,#341,.T.);
#543=EDGE_CURVE('',#440,#439,#342,.T.);
#544=EDGE_CURVE('',#441,#440,#343,.T.);
#545=EDGE_CURVE('',#442,#441,#344,.T.);
#546=EDGE_CURVE('',#442,#443,#345,.T.);
#547=EDGE_CURVE('',#444,#443,#346,.T.);
#548=EDGE_CURVE('',#445,#444,#347,.T.);
#549=EDGE_CURVE('',#446,#445,#348,.T.);
#550=EDGE_CURVE('',#446,#447,#349,.T.);
#551=EDGE_CURVE('',#448,#447,#350,.T.);
#552=EDGE_CURVE('',#448,#449,#351,.T.);
#553=EDGE_CURVE('',#450,#449,#352,.T.);
#554=EDGE_CURVE('',#451,#450,#353,.T.);
#555=EDGE_CURVE('',#452,#451,#354,.T.);
#556=EDGE_CURVE('',#452,#453,#355,.T.);
#557=EDGE_CURVE('',#454,#453,#356,.T.);
#558=EDGE_CURVE('',#455,#454,#357,.T.);
#559=EDGE_CURVE('',#433,#455,#358,.T.);
#560=EDGE_CURVE('',#456,#456,#359,.T.);
#561=EDGE_CURVE('',#457,#457,#360,.T.);
#562=EDGE_CURVE('',#458,#458,#361,.T.);
#563=EDGE_CURVE('',#459,#459,#362,.T.);
#564=EDGE_CURVE('',#460,#460,#363,.T.);
#565=EDGE_CURVE('',#461,#461,#364,.T.);
#566=EDGE_CURVE('',#462,#462,#365,.T.);
#567=EDGE_CURVE('',#435,#463,#234,.T.);
#568=EDGE_CURVE('',#463,#464,#366,.T.);
#569=EDGE_CURVE('',#464,#436,#235,.T.);
#570=EDGE_CURVE('',#465,#464,#367,.T.);
#571=EDGE_CURVE('',#437,#465,#236,.T.);
#572=EDGE_CURVE('',#430,#463,#368,.T.);
#573=EDGE_CURVE('',#466,#466,#369,.T.);
#574=EDGE_CURVE('',#467,#467,#370,.T.);
#575=EDGE_CURVE('',#468,#468,#371,.T.);
#576=EDGE_CURVE('',#469,#469,#372,.T.);
#577=EDGE_CURVE('',#470,#470,#373,.T.);
#578=EDGE_CURVE('',#471,#471,#374,.T.);
#579=EDGE_CURVE('',#472,#472,#375,.T.);
#580=EDGE_CURVE('',#473,#473,#376,.T.);
#581=EDGE_CURVE('',#474,#475,#377,.T.);
#582=EDGE_CURVE('',#475,#452,#237,.T.);
#583=EDGE_CURVE('',#451,#474,#238,.T.);
#584=EDGE_CURVE('',#476,#475,#378,.T.);
#585=EDGE_CURVE('',#453,#476,#239,.T.);
#586=EDGE_CURVE('',#477,#434,#379,.T.);
#587=EDGE_CURVE('',#478,#477,#380,.T.);
#588=EDGE_CURVE('',#476,#478,#381,.T.);
#589=EDGE_CURVE('',#479,#474,#382,.T.);
#590=EDGE_CURVE('',#480,#479,#383,.T.);
#591=EDGE_CURVE('',#480,#481,#384,.T.);
#592=EDGE_CURVE('',#482,#481,#385,.T.);
#593=EDGE_CURVE('',#482,#483,#386,.T.);
#594=EDGE_CURVE('',#484,#483,#387,.T.);
#595=EDGE_CURVE('',#484,#485,#388,.T.);
#596=EDGE_CURVE('',#486,#485,#389,.T.);
#597=EDGE_CURVE('',#486,#487,#390,.T.);
#598=EDGE_CURVE('',#488,#487,#391,.T.);
#599=EDGE_CURVE('',#488,#489,#392,.T.);
#600=EDGE_CURVE('',#490,#489,#393,.T.);
#601=EDGE_CURVE('',#491,#490,#394,.T.);
#602=EDGE_CURVE('',#465,#491,#395,.T.);
#603=EDGE_CURVE('',#492,#492,#396,.T.);
#604=EDGE_CURVE('',#493,#493,#397,.T.);
#605=EDGE_CURVE('',#494,#494,#398,.T.);
#606=EDGE_CURVE('',#495,#495,#399,.T.);
#607=EDGE_CURVE('',#496,#496,#400,.T.);
#608=EDGE_CURVE('',#497,#497,#401,.T.);
#609=EDGE_CURVE('',#498,#498,#402,.T.);
#610=EDGE_CURVE('',#449,#480,#240,.T.);
#611=EDGE_CURVE('',#479,#450,#241,.T.);
#612=EDGE_CURVE('',#481,#448,#242,.T.);
#613=EDGE_CURVE('',#439,#490,#243,.T.);
#614=EDGE_CURVE('',#489,#440,#244,.T.);
#615=EDGE_CURVE('',#441,#488,#245,.T.);
#616=EDGE_CURVE('',#491,#438,#246,.T.);
#617=EDGE_CURVE('',#447,#482,#247,.T.);
#618=EDGE_CURVE('',#483,#446,#248,.T.);
#619=EDGE_CURVE('',#445,#484,#249,.T.);
#620=EDGE_CURVE('',#485,#444,#250,.T.);
#621=EDGE_CURVE('',#455,#477,#251,.T.);
#622=EDGE_CURVE('',#478,#454,#252,.T.);
#623=EDGE_CURVE('',#443,#486,#253,.T.);
#624=EDGE_CURVE('',#487,#442,#254,.T.);
#625=EDGE_CURVE('',#456,#498,#255,.T.);
#626=EDGE_CURVE('',#457,#497,#256,.T.);
#627=EDGE_CURVE('',#458,#496,#257,.T.);
#628=EDGE_CURVE('',#459,#495,#258,.T.);
#629=EDGE_CURVE('',#460,#494,#259,.T.);
#630=EDGE_CURVE('',#461,#493,#260,.T.);
#631=EDGE_CURVE('',#499,#499,#403,.T.);
#632=EDGE_CURVE('',#499,#471,#261,.T.);
#633=EDGE_CURVE('',#500,#500,#404,.T.);
#634=EDGE_CURVE('',#500,#473,#262,.T.);
#635=EDGE_CURVE('',#501,#501,#405,.T.);
#636=EDGE_CURVE('',#501,#467,#263,.T.);
#637=EDGE_CURVE('',#502,#502,#406,.T.);
#638=EDGE_CURVE('',#502,#472,#264,.T.);
#639=EDGE_CURVE('',#503,#503,#407,.T.);
#640=EDGE_CURVE('',#503,#470,#265,.T.);
#641=EDGE_CURVE('',#504,#504,#408,.T.);
#642=EDGE_CURVE('',#504,#468,#266,.T.);
#643=EDGE_CURVE('',#505,#505,#409,.T.);
#644=EDGE_CURVE('',#506,#506,#410,.T.);
#645=EDGE_CURVE('',#506,#507,#267,.T.);
#646=EDGE_CURVE('',#507,#507,#411,.T.);
#647=EDGE_CURVE('',#508,#508,#412,.T.);
#648=EDGE_CURVE('',#508,#509,#268,.T.);
#649=EDGE_CURVE('',#509,#509,#413,.T.);
#650=EDGE_CURVE('',#510,#510,#414,.T.);
#651=EDGE_CURVE('',#511,#511,#415,.T.);
#652=EDGE_CURVE('',#511,#510,#269,.T.);
#653=EDGE_CURVE('',#512,#512,#416,.T.);
#654=EDGE_CURVE('',#512,#462,#270,.T.);
#655=EDGE_CURVE('',#469,#492,#271,.T.);
#656=EDGE_CURVE('',#505,#466,#272,.T.);
#657=ORIENTED_EDGE('',*,*,#513,.F.);
#658=ORIENTED_EDGE('',*,*,#514,.T.);
#659=ORIENTED_EDGE('',*,*,#515,.T.);
#660=ORIENTED_EDGE('',*,*,#514,.F.);
#661=ORIENTED_EDGE('',*,*,#515,.F.);
#662=ORIENTED_EDGE('',*,*,#516,.F.);
#663=ORIENTED_EDGE('',*,*,#517,.T.);
#664=ORIENTED_EDGE('',*,*,#518,.T.);
#665=ORIENTED_EDGE('',*,*,#517,.F.);
#666=ORIENTED_EDGE('',*,*,#518,.F.);
#667=ORIENTED_EDGE('',*,*,#519,.F.);
#668=ORIENTED_EDGE('',*,*,#520,.T.);
#669=ORIENTED_EDGE('',*,*,#521,.T.);
#670=ORIENTED_EDGE('',*,*,#520,.F.);
#671=ORIENTED_EDGE('',*,*,#521,.F.);
#672=ORIENTED_EDGE('',*,*,#522,.F.);
#673=ORIENTED_EDGE('',*,*,#523,.T.);
#674=ORIENTED_EDGE('',*,*,#524,.T.);
#675=ORIENTED_EDGE('',*,*,#523,.F.);
#676=ORIENTED_EDGE('',*,*,#524,.F.);
#677=ORIENTED_EDGE('',*,*,#525,.F.);
#678=ORIENTED_EDGE('',*,*,#526,.T.);
#679=ORIENTED_EDGE('',*,*,#527,.T.);
#680=ORIENTED_EDGE('',*,*,#526,.F.);
#681=ORIENTED_EDGE('',*,*,#527,.F.);
#682=ORIENTED_EDGE('',*,*,#528,.F.);
#683=ORIENTED_EDGE('',*,*,#529,.T.);
#684=ORIENTED_EDGE('',*,*,#530,.T.);
#685=ORIENTED_EDGE('',*,*,#529,.F.);
#686=ORIENTED_EDGE('',*,*,#530,.F.);
#687=ORIENTED_EDGE('',*,*,#531,.T.);
#688=ORIENTED_EDGE('',*,*,#532,.T.);
#689=ORIENTED_EDGE('',*,*,#533,.T.);
#690=ORIENTED_EDGE('',*,*,#534,.T.);
#691=ORIENTED_EDGE('',*,*,#534,.F.);
#692=ORIENTED_EDGE('',*,*,#535,.T.);
#693=ORIENTED_EDGE('',*,*,#536,.F.);
#694=ORIENTED_EDGE('',*,*,#537,.F.);
#695=ORIENTED_EDGE('',*,*,#533,.F.);
#696=ORIENTED_EDGE('',*,*,#538,.F.);
#697=ORIENTED_EDGE('',*,*,#539,.F.);
#698=ORIENTED_EDGE('',*,*,#540,.F.);
#699=ORIENTED_EDGE('',*,*,#541,.F.);
#700=ORIENTED_EDGE('',*,*,#542,.F.);
#701=ORIENTED_EDGE('',*,*,#543,.F.);
#702=ORIENTED_EDGE('',*,*,#544,.F.);
#703=ORIENTED_EDGE('',*,*,#545,.F.);
#704=ORIENTED_EDGE('',*,*,#546,.T.);
#705=ORIENTED_EDGE('',*,*,#547,.F.);
#706=ORIENTED_EDGE('',*,*,#548,.F.);
#707=ORIENTED_EDGE('',*,*,#549,.F.);
#708=ORIENTED_EDGE('',*,*,#550,.T.);
#709=ORIENTED_EDGE('',*,*,#551,.F.);
#710=ORIENTED_EDGE('',*,*,#552,.T.);
#711=ORIENTED_EDGE('',*,*,#553,.F.);
#712=ORIENTED_EDGE('',*,*,#554,.F.);
#713=ORIENTED_EDGE('',*,*,#555,.F.);
#714=ORIENTED_EDGE('',*,*,#556,.T.);
#715=ORIENTED_EDGE('',*,*,#557,.F.);
#716=ORIENTED_EDGE('',*,*,#558,.F.);
#717=ORIENTED_EDGE('',*,*,#559,.F.);
#718=ORIENTED_EDGE('',*,*,#535,.F.);
#719=ORIENTED_EDGE('',*,*,#560,.T.);
#720=ORIENTED_EDGE('',*,*,#561,.T.);
#721=ORIENTED_EDGE('',*,*,#562,.T.);
#722=ORIENTED_EDGE('',*,*,#563,.T.);
#723=ORIENTED_EDGE('',*,*,#564,.T.);
#724=ORIENTED_EDGE('',*,*,#565,.T.);
#725=ORIENTED_EDGE('',*,*,#566,.T.);
#726=ORIENTED_EDGE('',*,*,#539,.T.);
#727=ORIENTED_EDGE('',*,*,#567,.T.);
#728=ORIENTED_EDGE('',*,*,#568,.T.);
#729=ORIENTED_EDGE('',*,*,#569,.T.);
#730=ORIENTED_EDGE('',*,*,#569,.F.);
#731=ORIENTED_EDGE('',*,*,#570,.F.);
#732=ORIENTED_EDGE('',*,*,#571,.F.);
#733=ORIENTED_EDGE('',*,*,#540,.T.);
#734=ORIENTED_EDGE('',*,*,#532,.F.);
#735=ORIENTED_EDGE('',*,*,#572,.T.);
#736=ORIENTED_EDGE('',*,*,#567,.F.);
#737=ORIENTED_EDGE('',*,*,#538,.T.);
#738=ORIENTED_EDGE('',*,*,#573,.F.);
#739=ORIENTED_EDGE('',*,*,#574,.T.);
#740=ORIENTED_EDGE('',*,*,#575,.T.);
#741=ORIENTED_EDGE('',*,*,#576,.T.);
#742=ORIENTED_EDGE('',*,*,#577,.T.);
#743=ORIENTED_EDGE('',*,*,#578,.T.);
#744=ORIENTED_EDGE('',*,*,#579,.T.);
#745=ORIENTED_EDGE('',*,*,#580,.T.);
#746=ORIENTED_EDGE('',*,*,#581,.T.);
#747=ORIENTED_EDGE('',*,*,#582,.T.);
#748=ORIENTED_EDGE('',*,*,#555,.T.);
#749=ORIENTED_EDGE('',*,*,#583,.T.);
#750=ORIENTED_EDGE('',*,*,#582,.F.);
#751=ORIENTED_EDGE('',*,*,#584,.F.);
#752=ORIENTED_EDGE('',*,*,#585,.F.);
#753=ORIENTED_EDGE('',*,*,#556,.F.);
#754=ORIENTED_EDGE('',*,*,#531,.F.);
#755=ORIENTED_EDGE('',*,*,#537,.T.);
#756=ORIENTED_EDGE('',*,*,#586,.F.);
#757=ORIENTED_EDGE('',*,*,#587,.F.);
#758=ORIENTED_EDGE('',*,*,#588,.F.);
#759=ORIENTED_EDGE('',*,*,#584,.T.);
#760=ORIENTED_EDGE('',*,*,#581,.F.);
#761=ORIENTED_EDGE('',*,*,#589,.F.);
#762=ORIENTED_EDGE('',*,*,#590,.F.);
#763=ORIENTED_EDGE('',*,*,#591,.T.);
#764=ORIENTED_EDGE('',*,*,#592,.F.);
#765=ORIENTED_EDGE('',*,*,#593,.T.);
#766=ORIENTED_EDGE('',*,*,#594,.F.);
#767=ORIENTED_EDGE('',*,*,#595,.T.);
#768=ORIENTED_EDGE('',*,*,#596,.F.);
#769=ORIENTED_EDGE('',*,*,#597,.T.);
#770=ORIENTED_EDGE('',*,*,#598,.F.);
#771=ORIENTED_EDGE('',*,*,#599,.T.);
#772=ORIENTED_EDGE('',*,*,#600,.F.);
#773=ORIENTED_EDGE('',*,*,#601,.F.);
#774=ORIENTED_EDGE('',*,*,#602,.F.);
#775=ORIENTED_EDGE('',*,*,#570,.T.);
#776=ORIENTED_EDGE('',*,*,#568,.F.);
#777=ORIENTED_EDGE('',*,*,#572,.F.);
#778=ORIENTED_EDGE('',*,*,#603,.F.);
#779=ORIENTED_EDGE('',*,*,#604,.T.);
#780=ORIENTED_EDGE('',*,*,#605,.T.);
#781=ORIENTED_EDGE('',*,*,#606,.T.);
#782=ORIENTED_EDGE('',*,*,#607,.T.);
#783=ORIENTED_EDGE('',*,*,#608,.T.);
#784=ORIENTED_EDGE('',*,*,#609,.T.);
#785=ORIENTED_EDGE('',*,*,#553,.T.);
#786=ORIENTED_EDGE('',*,*,#610,.T.);
#787=ORIENTED_EDGE('',*,*,#590,.T.);
#788=ORIENTED_EDGE('',*,*,#611,.T.);
#789=ORIENTED_EDGE('',*,*,#610,.F.);
#790=ORIENTED_EDGE('',*,*,#552,.F.);
#791=ORIENTED_EDGE('',*,*,#612,.F.);
#792=ORIENTED_EDGE('',*,*,#591,.F.);
#793=ORIENTED_EDGE('',*,*,#543,.T.);
#794=ORIENTED_EDGE('',*,*,#613,.T.);
#795=ORIENTED_EDGE('',*,*,#600,.T.);
#796=ORIENTED_EDGE('',*,*,#614,.T.);
#797=ORIENTED_EDGE('',*,*,#614,.F.);
#798=ORIENTED_EDGE('',*,*,#599,.F.);
#799=ORIENTED_EDGE('',*,*,#615,.F.);
#800=ORIENTED_EDGE('',*,*,#544,.T.);
#801=ORIENTED_EDGE('',*,*,#602,.T.);
#802=ORIENTED_EDGE('',*,*,#616,.T.);
#803=ORIENTED_EDGE('',*,*,#541,.T.);
#804=ORIENTED_EDGE('',*,*,#571,.T.);
#805=ORIENTED_EDGE('',*,*,#613,.F.);
#806=ORIENTED_EDGE('',*,*,#542,.T.);
#807=ORIENTED_EDGE('',*,*,#616,.F.);
#808=ORIENTED_EDGE('',*,*,#601,.T.);
#809=ORIENTED_EDGE('',*,*,#592,.T.);
#810=ORIENTED_EDGE('',*,*,#612,.T.);
#811=ORIENTED_EDGE('',*,*,#551,.T.);
#812=ORIENTED_EDGE('',*,*,#617,.T.);
#813=ORIENTED_EDGE('',*,*,#617,.F.);
#814=ORIENTED_EDGE('',*,*,#550,.F.);
#815=ORIENTED_EDGE('',*,*,#618,.F.);
#816=ORIENTED_EDGE('',*,*,#593,.F.);
#817=ORIENTED_EDGE('',*,*,#549,.T.);
#818=ORIENTED_EDGE('',*,*,#619,.T.);
#819=ORIENTED_EDGE('',*,*,#594,.T.);
#820=ORIENTED_EDGE('',*,*,#618,.T.);
#821=ORIENTED_EDGE('',*,*,#583,.F.);
#822=ORIENTED_EDGE('',*,*,#554,.T.);
#823=ORIENTED_EDGE('',*,*,#611,.F.);
#824=ORIENTED_EDGE('',*,*,#589,.T.);
#825=ORIENTED_EDGE('',*,*,#619,.F.);
#826=ORIENTED_EDGE('',*,*,#548,.T.);
#827=ORIENTED_EDGE('',*,*,#620,.F.);
#828=ORIENTED_EDGE('',*,*,#595,.F.);
#829=ORIENTED_EDGE('',*,*,#559,.T.);
#830=ORIENTED_EDGE('',*,*,#621,.T.);
#831=ORIENTED_EDGE('',*,*,#586,.T.);
#832=ORIENTED_EDGE('',*,*,#536,.T.);
#833=ORIENTED_EDGE('',*,*,#588,.T.);
#834=ORIENTED_EDGE('',*,*,#622,.T.);
#835=ORIENTED_EDGE('',*,*,#557,.T.);
#836=ORIENTED_EDGE('',*,*,#585,.T.);
#837=ORIENTED_EDGE('',*,*,#621,.F.);
#838=ORIENTED_EDGE('',*,*,#558,.T.);
#839=ORIENTED_EDGE('',*,*,#622,.F.);
#840=ORIENTED_EDGE('',*,*,#587,.T.);
#841=ORIENTED_EDGE('',*,*,#596,.T.);
#842=ORIENTED_EDGE('',*,*,#620,.T.);
#843=ORIENTED_EDGE('',*,*,#547,.T.);
#844=ORIENTED_EDGE('',*,*,#623,.T.);
#845=ORIENTED_EDGE('',*,*,#623,.F.);
#846=ORIENTED_EDGE('',*,*,#546,.F.);
#847=ORIENTED_EDGE('',*,*,#624,.F.);
#848=ORIENTED_EDGE('',*,*,#597,.F.);
#849=ORIENTED_EDGE('',*,*,#545,.T.);
#850=ORIENTED_EDGE('',*,*,#615,.T.);
#851=ORIENTED_EDGE('',*,*,#598,.T.);
#852=ORIENTED_EDGE('',*,*,#624,.T.);
#853=ORIENTED_EDGE('',*,*,#560,.F.);
#854=ORIENTED_EDGE('',*,*,#625,.T.);
#855=ORIENTED_EDGE('',*,*,#609,.F.);
#856=ORIENTED_EDGE('',*,*,#625,.F.);
#857=ORIENTED_EDGE('',*,*,#561,.F.);
#858=ORIENTED_EDGE('',*,*,#626,.T.);
#859=ORIENTED_EDGE('',*,*,#608,.F.);
#860=ORIENTED_EDGE('',*,*,#626,.F.);
#861=ORIENTED_EDGE('',*,*,#562,.F.);
#862=ORIENTED_EDGE('',*,*,#627,.T.);
#863=ORIENTED_EDGE('',*,*,#607,.F.);
#864=ORIENTED_EDGE('',*,*,#627,.F.);
#865=ORIENTED_EDGE('',*,*,#563,.F.);
#866=ORIENTED_EDGE('',*,*,#628,.T.);
#867=ORIENTED_EDGE('',*,*,#606,.F.);
#868=ORIENTED_EDGE('',*,*,#628,.F.);
#869=ORIENTED_EDGE('',*,*,#564,.F.);
#870=ORIENTED_EDGE('',*,*,#629,.T.);
#871=ORIENTED_EDGE('',*,*,#605,.F.);
#872=ORIENTED_EDGE('',*,*,#629,.F.);
#873=ORIENTED_EDGE('',*,*,#565,.F.);
#874=ORIENTED_EDGE('',*,*,#630,.T.);
#875=ORIENTED_EDGE('',*,*,#604,.F.);
#876=ORIENTED_EDGE('',*,*,#630,.F.);
#877=ORIENTED_EDGE('',*,*,#631,.F.);
#878=ORIENTED_EDGE('',*,*,#632,.T.);
#879=ORIENTED_EDGE('',*,*,#578,.F.);
#880=ORIENTED_EDGE('',*,*,#632,.F.);
#881=ORIENTED_EDGE('',*,*,#633,.F.);
#882=ORIENTED_EDGE('',*,*,#634,.T.);
#883=ORIENTED_EDGE('',*,*,#580,.F.);
#884=ORIENTED_EDGE('',*,*,#634,.F.);
#885=ORIENTED_EDGE('',*,*,#635,.F.);
#886=ORIENTED_EDGE('',*,*,#636,.T.);
#887=ORIENTED_EDGE('',*,*,#574,.F.);
#888=ORIENTED_EDGE('',*,*,#636,.F.);
#889=ORIENTED_EDGE('',*,*,#637,.F.);
#890=ORIENTED_EDGE('',*,*,#638,.T.);
#891=ORIENTED_EDGE('',*,*,#579,.F.);
#892=ORIENTED_EDGE('',*,*,#638,.F.);
#893=ORIENTED_EDGE('',*,*,#639,.F.);
#894=ORIENTED_EDGE('',*,*,#640,.T.);
#895=ORIENTED_EDGE('',*,*,#577,.F.);
#896=ORIENTED_EDGE('',*,*,#640,.F.);
#897=ORIENTED_EDGE('',*,*,#641,.F.);
#898=ORIENTED_EDGE('',*,*,#642,.T.);
#899=ORIENTED_EDGE('',*,*,#575,.F.);
#900=ORIENTED_EDGE('',*,*,#642,.F.);
#901=ORIENTED_EDGE('',*,*,#643,.T.);
#902=ORIENTED_EDGE('',*,*,#641,.T.);
#903=ORIENTED_EDGE('',*,*,#639,.T.);
#904=ORIENTED_EDGE('',*,*,#637,.T.);
#905=ORIENTED_EDGE('',*,*,#635,.T.);
#906=ORIENTED_EDGE('',*,*,#633,.T.);
#907=ORIENTED_EDGE('',*,*,#631,.T.);
#908=ORIENTED_EDGE('',*,*,#644,.F.);
#909=ORIENTED_EDGE('',*,*,#644,.T.);
#910=ORIENTED_EDGE('',*,*,#645,.T.);
#911=ORIENTED_EDGE('',*,*,#646,.F.);
#912=ORIENTED_EDGE('',*,*,#645,.F.);
#913=ORIENTED_EDGE('',*,*,#647,.F.);
#914=ORIENTED_EDGE('',*,*,#646,.T.);
#915=ORIENTED_EDGE('',*,*,#528,.T.);
#916=ORIENTED_EDGE('',*,*,#525,.T.);
#917=ORIENTED_EDGE('',*,*,#522,.T.);
#918=ORIENTED_EDGE('',*,*,#519,.T.);
#919=ORIENTED_EDGE('',*,*,#516,.T.);
#920=ORIENTED_EDGE('',*,*,#513,.T.);
#921=ORIENTED_EDGE('',*,*,#647,.T.);
#922=ORIENTED_EDGE('',*,*,#648,.T.);
#923=ORIENTED_EDGE('',*,*,#649,.F.);
#924=ORIENTED_EDGE('',*,*,#648,.F.);
#925=ORIENTED_EDGE('',*,*,#650,.F.);
#926=ORIENTED_EDGE('',*,*,#649,.T.);
#927=ORIENTED_EDGE('',*,*,#651,.F.);
#928=ORIENTED_EDGE('',*,*,#652,.T.);
#929=ORIENTED_EDGE('',*,*,#650,.T.);
#930=ORIENTED_EDGE('',*,*,#652,.F.);
#931=ORIENTED_EDGE('',*,*,#653,.F.);
#932=ORIENTED_EDGE('',*,*,#651,.T.);
#933=ORIENTED_EDGE('',*,*,#653,.T.);
#934=ORIENTED_EDGE('',*,*,#654,.T.);
#935=ORIENTED_EDGE('',*,*,#566,.F.);
#936=ORIENTED_EDGE('',*,*,#654,.F.);
#937=ORIENTED_EDGE('',*,*,#576,.F.);
#938=ORIENTED_EDGE('',*,*,#655,.T.);
#939=ORIENTED_EDGE('',*,*,#603,.T.);
#940=ORIENTED_EDGE('',*,*,#655,.F.);
#941=ORIENTED_EDGE('',*,*,#643,.F.);
#942=ORIENTED_EDGE('',*,*,#656,.T.);
#943=ORIENTED_EDGE('',*,*,#573,.T.);
#944=ORIENTED_EDGE('',*,*,#656,.F.);
#945=CYLINDRICAL_SURFACE('',#1069,2.);
#946=CYLINDRICAL_SURFACE('',#1073,2.);
#947=CYLINDRICAL_SURFACE('',#1077,2.);
#948=CYLINDRICAL_SURFACE('',#1081,2.);
#949=CYLINDRICAL_SURFACE('',#1085,2.);
#950=CYLINDRICAL_SURFACE('',#1089,2.);
#951=CYLINDRICAL_SURFACE('',#1093,5.);
#952=CYLINDRICAL_SURFACE('',#1096,75.);
#953=CYLINDRICAL_SURFACE('',#1129,5.);
#954=CYLINDRICAL_SURFACE('',#1131,75.);
#955=CYLINDRICAL_SURFACE('',#1133,6.5);
#956=CYLINDRICAL_SURFACE('',#1144,5.);
#957=CYLINDRICAL_SURFACE('',#1146,75.);
#958=CYLINDRICAL_SURFACE('',#1173,5.);
#959=CYLINDRICAL_SURFACE('',#1174,75.);
#960=CYLINDRICAL_SURFACE('',#1175,5.);
#961=CYLINDRICAL_SURFACE('',#1176,75.);
#962=CYLINDRICAL_SURFACE('',#1177,5.);
#963=CYLINDRICAL_SURFACE('',#1178,6.5);
#964=CYLINDRICAL_SURFACE('',#1179,5.);
#965=CYLINDRICAL_SURFACE('',#1180,6.5);
#966=CYLINDRICAL_SURFACE('',#1181,5.);
#967=CYLINDRICAL_SURFACE('',#1182,6.5);
#968=CYLINDRICAL_SURFACE('',#1183,75.);
#969=CYLINDRICAL_SURFACE('',#1184,5.);
#970=CYLINDRICAL_SURFACE('',#1185,5.);
#971=CYLINDRICAL_SURFACE('',#1186,6.5);
#972=CYLINDRICAL_SURFACE('',#1187,5.);
#973=CYLINDRICAL_SURFACE('',#1188,6.5);
#974=CYLINDRICAL_SURFACE('',#1189,5.);
#975=CYLINDRICAL_SURFACE('',#1190,3.);
#976=CYLINDRICAL_SURFACE('',#1191,3.);
#977=CYLINDRICAL_SURFACE('',#1192,3.);
#978=CYLINDRICAL_SURFACE('',#1193,3.);
#979=CYLINDRICAL_SURFACE('',#1194,3.);
#980=CYLINDRICAL_SURFACE('',#1195,3.);
#981=CYLINDRICAL_SURFACE('',#1196,3.);
#982=CYLINDRICAL_SURFACE('',#1198,3.);
#983=CYLINDRICAL_SURFACE('',#1200,3.);
#984=CYLINDRICAL_SURFACE('',#1202,3.);
#985=CYLINDRICAL_SURFACE('',#1204,3.);
#986=CYLINDRICAL_SURFACE('',#1206,3.);
#987=CYLINDRICAL_SURFACE('',#1212,35.);
#988=CYLINDRICAL_SURFACE('',#1216,47.);
#989=CYLINDRICAL_SURFACE('',#1220,50.);
#990=CYLINDRICAL_SURFACE('',#1224,53.);
#991=CYLINDRICAL_SURFACE('',#1225,61.5);
#992=CYLINDRICAL_SURFACE('',#1226,75.);
#993=ADVANCED_FACE('',(#65),#945,.F.);
#994=ADVANCED_FACE('',(#66),#51,.F.);
#995=ADVANCED_FACE('',(#67),#946,.F.);
#996=ADVANCED_FACE('',(#68),#52,.F.);
#997=ADVANCED_FACE('',(#69),#947,.F.);
#998=ADVANCED_FACE('',(#70),#53,.F.);
#999=ADVANCED_FACE('',(#71),#948,.F.);
#1000=ADVANCED_FACE('',(#72),#54,.F.);
#1001=ADVANCED_FACE('',(#73),#949,.F.);
#1002=ADVANCED_FACE('',(#74),#55,.F.);
#1003=ADVANCED_FACE('',(#75),#950,.F.);
#1004=ADVANCED_FACE('',(#76),#56,.F.);
#1005=ADVANCED_FACE('',(#77),#951,.T.);
#1006=ADVANCED_FACE('',(#78),#952,.T.);
#1007=ADVANCED_FACE('',(#79,#15,#16,#17,#18,#19,#20,#21),#57,.T.);
#1008=ADVANCED_FACE('',(#80),#953,.T.);
#1009=ADVANCED_FACE('',(#81),#954,.T.);
#1010=ADVANCED_FACE('',(#82),#955,.F.);
#1011=ADVANCED_FACE('',(#83,#22,#23,#24,#25,#26,#27,#28),#58,.T.);
#1012=ADVANCED_FACE('',(#84),#956,.T.);
#1013=ADVANCED_FACE('',(#85),#957,.T.);
#1014=ADVANCED_FACE('',(#86,#29,#30,#31,#32,#33,#34,#35),#59,.T.);
#1015=ADVANCED_FACE('',(#87),#958,.T.);
#1016=ADVANCED_FACE('',(#88),#959,.T.);
#1017=ADVANCED_FACE('',(#89),#960,.T.);
#1018=ADVANCED_FACE('',(#90),#961,.T.);
#1019=ADVANCED_FACE('',(#91),#962,.T.);
#1020=ADVANCED_FACE('',(#92),#963,.F.);
#1021=ADVANCED_FACE('',(#93),#964,.T.);
#1022=ADVANCED_FACE('',(#94),#965,.F.);
#1023=ADVANCED_FACE('',(#95),#966,.T.);
#1024=ADVANCED_FACE('',(#96),#967,.F.);
#1025=ADVANCED_FACE('',(#97),#968,.T.);
#1026=ADVANCED_FACE('',(#98),#969,.T.);
#1027=ADVANCED_FACE('',(#99),#970,.T.);
#1028=ADVANCED_FACE('',(#100),#971,.F.);
#1029=ADVANCED_FACE('',(#101),#972,.T.);
#1030=ADVANCED_FACE('',(#102),#973,.F.);
#1031=ADVANCED_FACE('',(#103),#974,.T.);
#1032=ADVANCED_FACE('',(#104),#975,.F.);
#1033=ADVANCED_FACE('',(#105),#976,.F.);
#1034=ADVANCED_FACE('',(#106),#977,.F.);
#1035=ADVANCED_FACE('',(#107),#978,.F.);
#1036=ADVANCED_FACE('',(#108),#979,.F.);
#1037=ADVANCED_FACE('',(#109),#980,.F.);
#1038=ADVANCED_FACE('',(#110),#981,.F.);
#1039=ADVANCED_FACE('',(#111),#982,.F.);
#1040=ADVANCED_FACE('',(#112),#983,.F.);
#1041=ADVANCED_FACE('',(#113),#984,.F.);
#1042=ADVANCED_FACE('',(#114),#985,.F.);
#1043=ADVANCED_FACE('',(#115),#986,.F.);
#1044=ADVANCED_FACE('',(#116,#36,#37,#38,#39,#40,#41),#60,.T.);
#1045=ADVANCED_FACE('',(#117),#61,.T.);
#1046=ADVANCED_FACE('',(#118),#987,.F.);
#1047=ADVANCED_FACE('',(#119,#42,#43,#44,#45,#46,#47,#48),#62,.T.);
#1048=ADVANCED_FACE('',(#120),#988,.F.);
#1049=ADVANCED_FACE('',(#121,#49),#63,.T.);
#1050=ADVANCED_FACE('',(#122),#989,.T.);
#1051=ADVANCED_FACE('',(#123,#50),#64,.T.);
#1052=ADVANCED_FACE('',(#124),#990,.F.);
#1053=ADVANCED_FACE('',(#125),#991,.T.);
#1054=ADVANCED_FACE('',(#126),#992,.T.);
#1055=CLOSED_SHELL('',(#993,#994,#995,#996,#997,#998,#999,#1000,#1001,#1002,
#1003,#1004,#1005,#1006,#1007,#1008,#1009,#1010,#1011,#1012,#1013,#1014,
#1015,#1016,#1017,#1018,#1019,#1020,#1021,#1022,#1023,#1024,#1025,#1026,
#1027,#1028,#1029,#1030,#1031,#1032,#1033,#1034,#1035,#1036,#1037,#1038,
#1039,#1040,#1041,#1042,#1043,#1044,#1045,#1046,#1047,#1048,#1049,#1050,
#1051,#1052,#1053,#1054));
#1056=DERIVED_UNIT_ELEMENT(#1058,1.);
#1057=DERIVED_UNIT_ELEMENT(#1901,-3.);
#1058=(
MASS_UNIT()
NAMED_UNIT(*)
SI_UNIT(.KILO.,.GRAM.)
);
#1059=DERIVED_UNIT((#1056,#1057));
#1060=MEASURE_REPRESENTATION_ITEM('density measure',
POSITIVE_RATIO_MEASURE(7850.),#1059);
#1061=PROPERTY_DEFINITION_REPRESENTATION(#1066,#1063);
#1062=PROPERTY_DEFINITION_REPRESENTATION(#1067,#1064);
#1063=REPRESENTATION('material name',(#1065),#1898);
#1064=REPRESENTATION('density',(#1060),#1898);
#1065=DESCRIPTIVE_REPRESENTATION_ITEM('Steel','Steel');
#1066=PROPERTY_DEFINITION('material property','material name',#1908);
#1067=PROPERTY_DEFINITION('material property','density of part',#1908);
#1068=AXIS2_PLACEMENT_3D('',#1593,#1227,#1228);
#1069=AXIS2_PLACEMENT_3D('',#1594,#1229,#1230);
#1070=AXIS2_PLACEMENT_3D('',#1596,#1231,#1232);
#1071=AXIS2_PLACEMENT_3D('',#1599,#1234,#1235);
#1072=AXIS2_PLACEMENT_3D('',#1600,#1236,#1237);
#1073=AXIS2_PLACEMENT_3D('',#1601,#1238,#1239);
#1074=AXIS2_PLACEMENT_3D('',#1603,#1240,#1241);
#1075=AXIS2_PLACEMENT_3D('',#1606,#1243,#1244);
#1076=AXIS2_PLACEMENT_3D('',#1607,#1245,#1246);
#1077=AXIS2_PLACEMENT_3D('',#1608,#1247,#1248);
#1078=AXIS2_PLACEMENT_3D('',#1610,#1249,#1250);
#1079=AXIS2_PLACEMENT_3D('',#1613,#1252,#1253);
#1080=AXIS2_PLACEMENT_3D('',#1614,#1254,#1255);
#1081=AXIS2_PLACEMENT_3D('',#1615,#1256,#1257);
#1082=AXIS2_PLACEMENT_3D('',#1617,#1258,#1259);
#1083=AXIS2_PLACEMENT_3D('',#1620,#1261,#1262);
#1084=AXIS2_PLACEMENT_3D('',#1621,#1263,#1264);
#1085=AXIS2_PLACEMENT_3D('',#1622,#1265,#1266);
#1086=AXIS2_PLACEMENT_3D('',#1624,#1267,#1268);
#1087=AXIS2_PLACEMENT_3D('',#1627,#1270,#1271);
#1088=AXIS2_PLACEMENT_3D('',#1628,#1272,#1273);
#1089=AXIS2_PLACEMENT_3D('',#1629,#1274,#1275);
#1090=AXIS2_PLACEMENT_3D('',#1631,#1276,#1277);
#1091=AXIS2_PLACEMENT_3D('',#1634,#1279,#1280);
#1092=AXIS2_PLACEMENT_3D('',#1635,#1281,#1282);
#1093=AXIS2_PLACEMENT_3D('',#1636,#1283,#1284);
#1094=AXIS2_PLACEMENT_3D('',#1639,#1285,#1286);
#1095=AXIS2_PLACEMENT_3D('',#1643,#1288,#1289);
#1096=AXIS2_PLACEMENT_3D('',#1645,#1291,#1292);
#1097=AXIS2_PLACEMENT_3D('',#1647,#1293,#1294);
#1098=AXIS2_PLACEMENT_3D('',#1650,#1296,#1297);
#1099=AXIS2_PLACEMENT_3D('',#1651,#1298,#1299);
#1100=AXIS2_PLACEMENT_3D('',#1653,#1300,#1301);
#1101=AXIS2_PLACEMENT_3D('',#1655,#1302,#1303);
#1102=AXIS2_PLACEMENT_3D('',#1657,#1304,#1305);
#1103=AXIS2_PLACEMENT_3D('',#1659,#1306,#1307);
#1104=AXIS2_PLACEMENT_3D('',#1661,#1308,#1309);
#1105=AXIS2_PLACEMENT_3D('',#1663,#1310,#1311);
#1106=AXIS2_PLACEMENT_3D('',#1665,#1312,#1313);
#1107=AXIS2_PLACEMENT_3D('',#1667,#1314,#1315);
#1108=AXIS2_PLACEMENT_3D('',#1669,#1316,#1317);
#1109=AXIS2_PLACEMENT_3D('',#1671,#1318,#1319);
#1110=AXIS2_PLACEMENT_3D('',#1673,#1320,#1321);
#1111=AXIS2_PLACEMENT_3D('',#1675,#1322,#1323);
#1112=AXIS2_PLACEMENT_3D('',#1677,#1324,#1325);
#1113=AXIS2_PLACEMENT_3D('',#1679,#1326,#1327);
#1114=AXIS2_PLACEMENT_3D('',#1681,#1328,#1329);
#1115=AXIS2_PLACEMENT_3D('',#1683,#1330,#1331);
#1116=AXIS2_PLACEMENT_3D('',#1685,#1332,#1333);
#1117=AXIS2_PLACEMENT_3D('',#1687,#1334,#1335);
#1118=AXIS2_PLACEMENT_3D('',#1689,#1336,#1337);
#1119=AXIS2_PLACEMENT_3D('',#1691,#1338,#1339);
#1120=AXIS2_PLACEMENT_3D('',#1693,#1340,#1341);
#1121=AXIS2_PLACEMENT_3D('',#1694,#1342,#1343);
#1122=AXIS2_PLACEMENT_3D('',#1696,#1344,#1345);
#1123=AXIS2_PLACEMENT_3D('',#1698,#1346,#1347);
#1124=AXIS2_PLACEMENT_3D('',#1700,#1348,#1349);
#1125=AXIS2_PLACEMENT_3D('',#1702,#1350,#1351);
#1126=AXIS2_PLACEMENT_3D('',#1704,#1352,#1353);
#1127=AXIS2_PLACEMENT_3D('',#1706,#1354,#1355);
#1128=AXIS2_PLACEMENT_3D('',#1708,#1356,#1357);
#1129=AXIS2_PLACEMENT_3D('',#1709,#1358,#1359);
#1130=AXIS2_PLACEMENT_3D('',#1713,#1361,#1362);
#1131=AXIS2_PLACEMENT_3D('',#1715,#1364,#1365);
#1132=AXIS2_PLACEMENT_3D('',#1717,#1366,#1367);
#1133=AXIS2_PLACEMENT_3D('',#1719,#1369,#1370);
#1134=AXIS2_PLACEMENT_3D('',#1720,#1371,#1372);
#1135=AXIS2_PLACEMENT_3D('',#1721,#1373,#1374);
#1136=AXIS2_PLACEMENT_3D('',#1723,#1375,#1376);
#1137=AXIS2_PLACEMENT_3D('',#1725,#1377,#1378);
#1138=AXIS2_PLACEMENT_3D('',#1727,#1379,#1380);
#1139=AXIS2_PLACEMENT_3D('',#1729,#1381,#1382);
#1140=AXIS2_PLACEMENT_3D('',#1731,#1383,#1384);
#1141=AXIS2_PLACEMENT_3D('',#1733,#1385,#1386);
#1142=AXIS2_PLACEMENT_3D('',#1735,#1387,#1388);
#1143=AXIS2_PLACEMENT_3D('',#1737,#1389,#1390);
#1144=AXIS2_PLACEMENT_3D('',#1738,#1391,#1392);
#1145=AXIS2_PLACEMENT_3D('',#1741,#1393,#1394);
#1146=AXIS2_PLACEMENT_3D('',#1744,#1397,#1398);
#1147=AXIS2_PLACEMENT_3D('',#1746,#1399,#1400);
#1148=AXIS2_PLACEMENT_3D('',#1748,#1402,#1403);
#1149=AXIS2_PLACEMENT_3D('',#1750,#1404,#1405);
#1150=AXIS2_PLACEMENT_3D('',#1752,#1406,#1407);
#1151=AXIS2_PLACEMENT_3D('',#1753,#1408,#1409);
#1152=AXIS2_PLACEMENT_3D('',#1755,#1410,#1411);
#1153=AXIS2_PLACEMENT_3D('',#1757,#1412,#1413);
#1154=AXIS2_PLACEMENT_3D('',#1759,#1414,#1415);
#1155=AXIS2_PLACEMENT_3D('',#1761,#1416,#1417);
#1156=AXIS2_PLACEMENT_3D('',#1763,#1418,#1419);
#1157=AXIS2_PLACEMENT_3D('',#1765,#1420,#1421);
#1158=AXIS2_PLACEMENT_3D('',#1767,#1422,#1423);
#1159=AXIS2_PLACEMENT_3D('',#1769,#1424,#1425);
#1160=AXIS2_PLACEMENT_3D('',#1771,#1426,#1427);
#1161=AXIS2_PLACEMENT_3D('',#1773,#1428,#1429);
#1162=AXIS2_PLACEMENT_3D('',#1775,#1430,#1431);
#1163=AXIS2_PLACEMENT_3D('',#1777,#1432,#1433);
#1164=AXIS2_PLACEMENT_3D('',#1779,#1434,#1435);
#1165=AXIS2_PLACEMENT_3D('',#1780,#1436,#1437);
#1166=AXIS2_PLACEMENT_3D('',#1782,#1438,#1439);
#1167=AXIS2_PLACEMENT_3D('',#1784,#1440,#1441);
#1168=AXIS2_PLACEMENT_3D('',#1786,#1442,#1443);
#1169=AXIS2_PLACEMENT_3D('',#1788,#1444,#1445);
#1170=AXIS2_PLACEMENT_3D('',#1790,#1446,#1447);
#1171=AXIS2_PLACEMENT_3D('',#1792,#1448,#1449);
#1172=AXIS2_PLACEMENT_3D('',#1794,#1450,#1451);
#1173=AXIS2_PLACEMENT_3D('',#1795,#1452,#1453);
#1174=AXIS2_PLACEMENT_3D('',#1798,#1456,#1457);
#1175=AXIS2_PLACEMENT_3D('',#1800,#1459,#1460);
#1176=AXIS2_PLACEMENT_3D('',#1803,#1463,#1464);
#1177=AXIS2_PLACEMENT_3D('',#1805,#1466,#1467);
#1178=AXIS2_PLACEMENT_3D('',#1807,#1469,#1470);
#1179=AXIS2_PLACEMENT_3D('',#1808,#1471,#1472);
#1180=AXIS2_PLACEMENT_3D('',#1810,#1474,#1475);
#1181=AXIS2_PLACEMENT_3D('',#1812,#1477,#1478);
#1182=AXIS2_PLACEMENT_3D('',#1814,#1480,#1481);
#1183=AXIS2_PLACEMENT_3D('',#1815,#1482,#1483);
#1184=AXIS2_PLACEMENT_3D('',#1817,#1485,#1486);
#1185=AXIS2_PLACEMENT_3D('',#1819,#1488,#1489);
#1186=AXIS2_PLACEMENT_3D('',#1821,#1491,#1492);
#1187=AXIS2_PLACEMENT_3D('',#1822,#1493,#1494);
#1188=AXIS2_PLACEMENT_3D('',#1824,#1496,#1497);
#1189=AXIS2_PLACEMENT_3D('',#1826,#1499,#1500);
#1190=AXIS2_PLACEMENT_3D('',#1827,#1501,#1502);
#1191=AXIS2_PLACEMENT_3D('',#1829,#1504,#1505);
#1192=AXIS2_PLACEMENT_3D('',#1831,#1507,#1508);
#1193=AXIS2_PLACEMENT_3D('',#1833,#1510,#1511);
#1194=AXIS2_PLACEMENT_3D('',#1835,#1513,#1514);
#1195=AXIS2_PLACEMENT_3D('',#1837,#1516,#1517);
#1196=AXIS2_PLACEMENT_3D('',#1839,#1519,#1520);
#1197=AXIS2_PLACEMENT_3D('',#1841,#1521,#1522);
#1198=AXIS2_PLACEMENT_3D('',#1843,#1524,#1525);
#1199=AXIS2_PLACEMENT_3D('',#1845,#1526,#1527);
#1200=AXIS2_PLACEMENT_3D('',#1847,#1529,#1530);
#1201=AXIS2_PLACEMENT_3D('',#1849,#1531,#1532);
#1202=AXIS2_PLACEMENT_3D('',#1851,#1534,#1535);
#1203=AXIS2_PLACEMENT_3D('',#1853,#1536,#1537);
#1204=AXIS2_PLACEMENT_3D('',#1855,#1539,#1540);
#1205=AXIS2_PLACEMENT_3D('',#1857,#1541,#1542);
#1206=AXIS2_PLACEMENT_3D('',#1859,#1544,#1545);
#1207=AXIS2_PLACEMENT_3D('',#1861,#1546,#1547);
#1208=AXIS2_PLACEMENT_3D('',#1863,#1549,#1550);
#1209=AXIS2_PLACEMENT_3D('',#1865,#1551,#1552);
#1210=AXIS2_PLACEMENT_3D('',#1866,#1553,#1554);
#1211=AXIS2_PLACEMENT_3D('',#1868,#1555,#1556);
#1212=AXIS2_PLACEMENT_3D('',#1869,#1557,#1558);
#1213=AXIS2_PLACEMENT_3D('',#1872,#1560,#1561);
#1214=AXIS2_PLACEMENT_3D('',#1873,#1562,#1563);
#1215=AXIS2_PLACEMENT_3D('',#1875,#1564,#1565);
#1216=AXIS2_PLACEMENT_3D('',#1876,#1566,#1567);
#1217=AXIS2_PLACEMENT_3D('',#1879,#1569,#1570);
#1218=AXIS2_PLACEMENT_3D('',#1880,#1571,#1572);
#1219=AXIS2_PLACEMENT_3D('',#1882,#1573,#1574);
#1220=AXIS2_PLACEMENT_3D('',#1883,#1575,#1576);
#1221=AXIS2_PLACEMENT_3D('',#1885,#1577,#1578);
#1222=AXIS2_PLACEMENT_3D('',#1887,#1580,#1581);
#1223=AXIS2_PLACEMENT_3D('',#1889,#1582,#1583);
#1224=AXIS2_PLACEMENT_3D('',#1890,#1584,#1585);
#1225=AXIS2_PLACEMENT_3D('',#1892,#1587,#1588);
#1226=AXIS2_PLACEMENT_3D('',#1894,#1590,#1591);
#1227=DIRECTION('axis',(0.,0.,1.));
#1228=DIRECTION('refdir',(1.,0.,0.));
#1229=DIRECTION('center_axis',(0.,0.,-1.));
#1230=DIRECTION('ref_axis',(1.,0.,0.));
#1231=DIRECTION('center_axis',(0.,0.,-1.));
#1232=DIRECTION('ref_axis',(1.,0.,0.));
#1233=DIRECTION('',(0.,0.,-1.));
#1234=DIRECTION('center_axis',(0.,0.,-1.));
#1235=DIRECTION('ref_axis',(1.,0.,0.));
#1236=DIRECTION('center_axis',(0.,0.,-1.));
#1237=DIRECTION('ref_axis',(1.,0.,0.));
#1238=DIRECTION('center_axis',(0.,0.,-1.));
#1239=DIRECTION('ref_axis',(1.,0.,0.));
#1240=DIRECTION('center_axis',(0.,0.,-1.));
#1241=DIRECTION('ref_axis',(1.,0.,0.));
#1242=DIRECTION('',(0.,0.,-1.));
#1243=DIRECTION('center_axis',(0.,0.,-1.));
#1244=DIRECTION('ref_axis',(1.,0.,0.));
#1245=DIRECTION('center_axis',(0.,0.,-1.));
#1246=DIRECTION('ref_axis',(1.,0.,0.));
#1247=DIRECTION('center_axis',(0.,0.,-1.));
#1248=DIRECTION('ref_axis',(1.,0.,0.));
#1249=DIRECTION('center_axis',(0.,0.,-1.));
#1250=DIRECTION('ref_axis',(1.,0.,0.));
#1251=DIRECTION('',(0.,0.,-1.));
#1252=DIRECTION('center_axis',(0.,0.,-1.));
#1253=DIRECTION('ref_axis',(1.,0.,0.));
#1254=DIRECTION('center_axis',(0.,0.,-1.));
#1255=DIRECTION('ref_axis',(1.,0.,0.));
#1256=DIRECTION('center_axis',(0.,0.,-1.));
#1257=DIRECTION('ref_axis',(1.,0.,0.));
#1258=DIRECTION('center_axis',(0.,0.,-1.));
#1259=DIRECTION('ref_axis',(1.,0.,0.));
#1260=DIRECTION('',(0.,0.,-1.));
#1261=DIRECTION('center_axis',(0.,0.,-1.));
#1262=DIRECTION('ref_axis',(1.,0.,0.));
#1263=DIRECTION('center_axis',(0.,0.,-1.));
#1264=DIRECTION('ref_axis',(1.,0.,0.));
#1265=DIRECTION('center_axis',(0.,0.,-1.));
#1266=DIRECTION('ref_axis',(1.,0.,0.));
#1267=DIRECTION('center_axis',(0.,0.,-1.));
#1268=DIRECTION('ref_axis',(1.,0.,0.));
#1269=DIRECTION('',(0.,0.,-1.));
#1270=DIRECTION('center_axis',(0.,0.,-1.));
#1271=DIRECTION('ref_axis',(1.,0.,0.));
#1272=DIRECTION('center_axis',(0.,0.,-1.));
#1273=DIRECTION('ref_axis',(1.,0.,0.));
#1274=DIRECTION('center_axis',(0.,0.,-1.));
#1275=DIRECTION('ref_axis',(1.,0.,0.));
#1276=DIRECTION('center_axis',(0.,0.,-1.));
#1277=DIRECTION('ref_axis',(1.,0.,0.));
#1278=DIRECTION('',(0.,0.,-1.));
#1279=DIRECTION('center_axis',(0.,0.,-1.));
#1280=DIRECTION('ref_axis',(1.,0.,0.));
#1281=DIRECTION('center_axis',(0.,0.,-1.));
#1282=DIRECTION('ref_axis',(1.,0.,0.));
#1283=DIRECTION('center_axis',(0.,0.,-1.));
#1284=DIRECTION('ref_axis',(-0.180289252981486,0.983613636169903,0.));
#1285=DIRECTION('center_axis',(0.,0.,1.));
#1286=DIRECTION('ref_axis',(-0.180289252981486,0.983613636169903,0.));
#1287=DIRECTION('',(0.,0.,1.));
#1288=DIRECTION('center_axis',(0.,0.,-1.));
#1289=DIRECTION('ref_axis',(-0.180289252981486,0.983613636169903,0.));
#1290=DIRECTION('',(0.,0.,-1.));
#1291=DIRECTION('center_axis',(0.,0.,-1.));
#1292=DIRECTION('ref_axis',(0.,1.,0.));
#1293=DIRECTION('center_axis',(0.,0.,-1.));
#1294=DIRECTION('ref_axis',(1.,0.,0.));
#1295=DIRECTION('',(0.,0.,1.));
#1296=DIRECTION('center_axis',(0.,0.,-1.));
#1297=DIRECTION('ref_axis',(1.,0.,0.));
#1298=DIRECTION('center_axis',(0.,0.,1.));
#1299=DIRECTION('ref_axis',(1.,0.,0.));
#1300=DIRECTION('center_axis',(0.,0.,1.));
#1301=DIRECTION('ref_axis',(-1.,0.,0.));
#1302=DIRECTION('center_axis',(0.,0.,-1.));
#1303=DIRECTION('ref_axis',(0.941958360725006,0.335729722634531,0.));
#1304=DIRECTION('center_axis',(0.,0.,-1.));
#1305=DIRECTION('ref_axis',(1.,0.,0.));
#1306=DIRECTION('center_axis',(0.,0.,-1.));
#1307=DIRECTION('ref_axis',(-0.941958360725008,0.335729722634527,0.));
#1308=DIRECTION('center_axis',(0.,0.,1.));
#1309=DIRECTION('ref_axis',(1.,0.,0.));
#1310=DIRECTION('center_axis',(0.,0.,-1.));
#1311=DIRECTION('ref_axis',(0.180289252981486,0.983613636169903,0.));
#1312=DIRECTION('center_axis',(0.,0.,-1.));
#1313=DIRECTION('ref_axis',(1.,0.,0.));
#1314=DIRECTION('center_axis',(0.,0.,-1.));
#1315=DIRECTION('ref_axis',(-0.761605942609992,-0.648040421718542,0.));
#1316=DIRECTION('center_axis',(0.,0.,-1.));
#1317=DIRECTION('ref_axis',(1.,0.,0.));
#1318=DIRECTION('center_axis',(0.,0.,-1.));
#1319=DIRECTION('ref_axis',(-0.761605942609991,0.648040421718543,0.));
#1320=DIRECTION('center_axis',(0.,0.,-1.));
#1321=DIRECTION('ref_axis',(1.,0.,0.));
#1322=DIRECTION('center_axis',(0.,0.,-1.));
#1323=DIRECTION('ref_axis',(0.180289252981486,-0.983613636169903,0.));
#1324=DIRECTION('center_axis',(0.,0.,-1.));
#1325=DIRECTION('ref_axis',(1.,0.,0.));
#1326=DIRECTION('center_axis',(0.,0.,-1.));
#1327=DIRECTION('ref_axis',(-0.941958360725006,-0.335729722634531,0.));
#1328=DIRECTION('center_axis',(0.,0.,1.));
#1329=DIRECTION('ref_axis',(0.,1.,0.));
#1330=DIRECTION('center_axis',(0.,0.,-1.));
#1331=DIRECTION('ref_axis',(0.941958360725007,-0.33572972263453,0.));
#1332=DIRECTION('center_axis',(0.,0.,1.));
#1333=DIRECTION('ref_axis',(-1.,0.,0.));
#1334=DIRECTION('center_axis',(0.,0.,-1.));
#1335=DIRECTION('ref_axis',(-0.180289252981484,-0.983613636169903,0.));
#1336=DIRECTION('center_axis',(0.,0.,1.));
#1337=DIRECTION('ref_axis',(0.,1.,0.));
#1338=DIRECTION('center_axis',(0.,0.,-1.));
#1339=DIRECTION('ref_axis',(0.761605942609992,0.648040421718542,0.));
#1340=DIRECTION('center_axis',(0.,0.,1.));
#1341=DIRECTION('ref_axis',(-1.,0.,0.));
#1342=DIRECTION('center_axis',(0.,0.,-1.));
#1343=DIRECTION('ref_axis',(0.761605942609992,-0.648040421718542,0.));
#1344=DIRECTION('center_axis',(0.,0.,-1.));
#1345=DIRECTION('ref_axis',(1.,0.,0.));
#1346=DIRECTION('center_axis',(0.,0.,-1.));
#1347=DIRECTION('ref_axis',(1.,0.,0.));
#1348=DIRECTION('center_axis',(0.,0.,-1.));
#1349=DIRECTION('ref_axis',(1.,0.,0.));
#1350=DIRECTION('center_axis',(0.,0.,-1.));
#1351=DIRECTION('ref_axis',(1.,0.,0.));
#1352=DIRECTION('center_axis',(0.,0.,-1.));
#1353=DIRECTION('ref_axis',(1.,0.,0.));
#1354=DIRECTION('center_axis',(0.,0.,-1.));
#1355=DIRECTION('ref_axis',(1.,0.,0.));
#1356=DIRECTION('center_axis',(0.,0.,-1.));
#1357=DIRECTION('ref_axis',(1.,0.,0.));
#1358=DIRECTION('center_axis',(0.,0.,1.));
#1359=DIRECTION('ref_axis',(0.941958360725006,0.335729722634531,0.));
#1360=DIRECTION('',(0.,0.,-1.));
#1361=DIRECTION('center_axis',(0.,0.,1.));
#1362=DIRECTION('ref_axis',(0.941958360725006,0.335729722634531,0.));
#1363=DIRECTION('',(0.,0.,1.));
#1364=DIRECTION('center_axis',(0.,0.,-1.));
#1365=DIRECTION('ref_axis',(0.,1.,0.));
#1366=DIRECTION('center_axis',(0.,0.,-1.));
#1367=DIRECTION('ref_axis',(1.,0.,0.));
#1368=DIRECTION('',(0.,0.,-1.));
#1369=DIRECTION('center_axis',(0.,0.,-1.));
#1370=DIRECTION('ref_axis',(-1.,0.,0.));
#1371=DIRECTION('center_axis',(0.,0.,-1.));
#1372=DIRECTION('ref_axis',(-1.,0.,0.));
#1373=DIRECTION('center_axis',(0.,0.,1.));
#1374=DIRECTION('ref_axis',(1.,0.,0.));
#1375=DIRECTION('center_axis',(0.,0.,-1.));
#1376=DIRECTION('ref_axis',(1.,0.,0.));
#1377=DIRECTION('center_axis',(0.,0.,-1.));
#1378=DIRECTION('ref_axis',(-1.,0.,0.));
#1379=DIRECTION('center_axis',(0.,0.,-1.));
#1380=DIRECTION('ref_axis',(-1.,0.,0.));
#1381=DIRECTION('center_axis',(0.,0.,-1.));
#1382=DIRECTION('ref_axis',(1.,0.,0.));
#1383=DIRECTION('center_axis',(0.,0.,-1.));
#1384=DIRECTION('ref_axis',(-1.,0.,0.));
#1385=DIRECTION('center_axis',(0.,0.,-1.));
#1386=DIRECTION('ref_axis',(-1.,0.,0.));
#1387=DIRECTION('center_axis',(0.,0.,-1.));
#1388=DIRECTION('ref_axis',(-1.,0.,0.));
#1389=DIRECTION('center_axis',(0.,0.,-1.));
#1390=DIRECTION('ref_axis',(-1.,0.,0.));
#1391=DIRECTION('center_axis',(0.,0.,-1.));
#1392=DIRECTION('ref_axis',(-0.180289252981484,-0.983613636169903,0.));
#1393=DIRECTION('center_axis',(0.,0.,1.));
#1394=DIRECTION('ref_axis',(-0.180289252981484,-0.983613636169903,0.));
#1395=DIRECTION('',(0.,0.,1.));
#1396=DIRECTION('',(0.,0.,-1.));
#1397=DIRECTION('center_axis',(0.,0.,-1.));
#1398=DIRECTION('ref_axis',(0.,1.,0.));
#1399=DIRECTION('center_axis',(0.,0.,-1.));
#1400=DIRECTION('ref_axis',(1.,0.,0.));
#1401=DIRECTION('',(0.,0.,-1.));
#1402=DIRECTION('center_axis',(0.,0.,-1.));
#1403=DIRECTION('ref_axis',(-1.,0.,0.));
#1404=DIRECTION('center_axis',(0.,0.,1.));
#1405=DIRECTION('ref_axis',(0.761605942609992,-0.648040421718542,0.));
#1406=DIRECTION('center_axis',(0.,0.,-1.));
#1407=DIRECTION('ref_axis',(-1.,0.,0.));
#1408=DIRECTION('center_axis',(0.,0.,1.));
#1409=DIRECTION('ref_axis',(0.761605942609992,0.648040421718542,0.));
#1410=DIRECTION('center_axis',(0.,0.,-1.));
#1411=DIRECTION('ref_axis',(-1.,0.,0.));
#1412=DIRECTION('center_axis',(0.,0.,1.));
#1413=DIRECTION('ref_axis',(0.941958360725007,-0.33572972263453,0.));
#1414=DIRECTION('center_axis',(0.,0.,-1.));
#1415=DIRECTION('ref_axis',(1.,0.,0.));
#1416=DIRECTION('center_axis',(0.,0.,1.));
#1417=DIRECTION('ref_axis',(-0.941958360725006,-0.335729722634531,0.));
#1418=DIRECTION('center_axis',(0.,0.,1.));
#1419=DIRECTION('ref_axis',(1.,0.,0.));
#1420=DIRECTION('center_axis',(0.,0.,1.));
#1421=DIRECTION('ref_axis',(0.180289252981486,-0.983613636169903,0.));
#1422=DIRECTION('center_axis',(0.,0.,-1.));
#1423=DIRECTION('ref_axis',(1.,0.,0.));
#1424=DIRECTION('center_axis',(0.,0.,1.));
#1425=DIRECTION('ref_axis',(-0.761605942609991,0.648040421718543,0.));
#1426=DIRECTION('center_axis',(0.,0.,1.));
#1427=DIRECTION('ref_axis',(1.,0.,0.));
#1428=DIRECTION('center_axis',(0.,0.,1.));
#1429=DIRECTION('ref_axis',(-0.761605942609992,-0.648040421718542,0.));
#1430=DIRECTION('center_axis',(0.,0.,-1.));
#1431=DIRECTION('ref_axis',(1.,0.,0.));
#1432=DIRECTION('center_axis',(0.,0.,1.));
#1433=DIRECTION('ref_axis',(0.180289252981486,0.983613636169903,0.));
#1434=DIRECTION('center_axis',(0.,0.,-1.));
#1435=DIRECTION('ref_axis',(1.,0.,0.));
#1436=DIRECTION('center_axis',(0.,0.,1.));
#1437=DIRECTION('ref_axis',(-0.941958360725008,0.335729722634527,0.));
#1438=DIRECTION('center_axis',(0.,0.,-1.));
#1439=DIRECTION('ref_axis',(1.,0.,0.));
#1440=DIRECTION('center_axis',(0.,0.,1.));
#1441=DIRECTION('ref_axis',(1.,0.,0.));
#1442=DIRECTION('center_axis',(0.,0.,1.));
#1443=DIRECTION('ref_axis',(1.,0.,0.));
#1444=DIRECTION('center_axis',(0.,0.,1.));
#1445=DIRECTION('ref_axis',(1.,0.,0.));
#1446=DIRECTION('center_axis',(0.,0.,1.));
#1447=DIRECTION('ref_axis',(1.,0.,0.));
#1448=DIRECTION('center_axis',(0.,0.,1.));
#1449=DIRECTION('ref_axis',(1.,0.,0.));
#1450=DIRECTION('center_axis',(0.,0.,1.));
#1451=DIRECTION('ref_axis',(1.,0.,0.));
#1452=DIRECTION('center_axis',(0.,0.,1.));
#1453=DIRECTION('ref_axis',(0.941958360725007,-0.33572972263453,0.));
#1454=DIRECTION('',(0.,0.,-1.));
#1455=DIRECTION('',(0.,0.,1.));
#1456=DIRECTION('center_axis',(0.,0.,-1.));
#1457=DIRECTION('ref_axis',(1.22464679914735E-16,-1.,0.));
#1458=DIRECTION('',(0.,0.,1.));
#1459=DIRECTION('center_axis',(0.,0.,1.));
#1460=DIRECTION('ref_axis',(0.180289252981486,0.983613636169903,0.));
#1461=DIRECTION('',(0.,0.,-1.));
#1462=DIRECTION('',(0.,0.,1.));
#1463=DIRECTION('center_axis',(0.,0.,-1.));
#1464=DIRECTION('ref_axis',(0.,1.,0.));
#1465=DIRECTION('',(0.,0.,-1.));
#1466=DIRECTION('center_axis',(0.,0.,-1.));
#1467=DIRECTION('ref_axis',(-0.941958360725008,0.335729722634527,0.));
#1468=DIRECTION('',(0.,0.,1.));
#1469=DIRECTION('center_axis',(0.,0.,1.));
#1470=DIRECTION('ref_axis',(1.,0.,0.));
#1471=DIRECTION('center_axis',(0.,0.,-1.));
#1472=DIRECTION('ref_axis',(-0.941958360725006,-0.335729722634531,0.));
#1473=DIRECTION('',(0.,0.,-1.));
#1474=DIRECTION('center_axis',(0.,0.,-1.));
#1475=DIRECTION('ref_axis',(1.,0.,0.));
#1476=DIRECTION('',(0.,0.,1.));
#1477=DIRECTION('center_axis',(0.,0.,1.));
#1478=DIRECTION('ref_axis',(0.180289252981486,-0.983613636169903,0.));
#1479=DIRECTION('',(0.,0.,-1.));
#1480=DIRECTION('center_axis',(0.,0.,1.));
#1481=DIRECTION('ref_axis',(-1.,0.,0.));
#1482=DIRECTION('center_axis',(0.,0.,-1.));
#1483=DIRECTION('ref_axis',(0.,1.,0.));
#1484=DIRECTION('',(0.,0.,1.));
#1485=DIRECTION('center_axis',(0.,0.,1.));
#1486=DIRECTION('ref_axis',(0.761605942609992,-0.648040421718542,0.));
#1487=DIRECTION('',(0.,0.,-1.));
#1488=DIRECTION('center_axis',(0.,0.,-1.));
#1489=DIRECTION('ref_axis',(0.761605942609992,0.648040421718542,0.));
#1490=DIRECTION('',(0.,0.,1.));
#1491=DIRECTION('center_axis',(0.,0.,1.));
#1492=DIRECTION('ref_axis',(-1.,0.,0.));
#1493=DIRECTION('center_axis',(0.,0.,-1.));
#1494=DIRECTION('ref_axis',(-0.761605942609991,0.648040421718543,0.));
#1495=DIRECTION('',(0.,0.,-1.));
#1496=DIRECTION('center_axis',(0.,0.,-1.));
#1497=DIRECTION('ref_axis',(1.,0.,0.));
#1498=DIRECTION('',(0.,0.,1.));
#1499=DIRECTION('center_axis',(0.,0.,1.));
#1500=DIRECTION('ref_axis',(-0.761605942609992,-0.648040421718542,0.));
#1501=DIRECTION('center_axis',(0.,0.,-1.));
#1502=DIRECTION('ref_axis',(1.,0.,0.));
#1503=DIRECTION('',(0.,0.,-1.));
#1504=DIRECTION('center_axis',(0.,0.,-1.));
#1505=DIRECTION('ref_axis',(1.,0.,0.));
#1506=DIRECTION('',(0.,0.,-1.));
#1507=DIRECTION('center_axis',(0.,0.,-1.));
#1508=DIRECTION('ref_axis',(1.,0.,0.));
#1509=DIRECTION('',(0.,0.,-1.));
#1510=DIRECTION('center_axis',(0.,0.,-1.));
#1511=DIRECTION('ref_axis',(1.,0.,0.));
#1512=DIRECTION('',(0.,0.,-1.));
#1513=DIRECTION('center_axis',(0.,0.,-1.));
#1514=DIRECTION('ref_axis',(1.,0.,0.));
#1515=DIRECTION('',(0.,0.,-1.));
#1516=DIRECTION('center_axis',(0.,0.,-1.));
#1517=DIRECTION('ref_axis',(1.,0.,0.));
#1518=DIRECTION('',(0.,0.,-1.));
#1519=DIRECTION('center_axis',(0.,0.,1.));
#1520=DIRECTION('ref_axis',(-1.,0.,0.));
#1521=DIRECTION('center_axis',(0.,0.,1.));
#1522=DIRECTION('ref_axis',(-1.,0.,0.));
#1523=DIRECTION('',(0.,0.,1.));
#1524=DIRECTION('center_axis',(0.,0.,1.));
#1525=DIRECTION('ref_axis',(-1.,0.,0.));
#1526=DIRECTION('center_axis',(0.,0.,1.));
#1527=DIRECTION('ref_axis',(-1.,0.,0.));
#1528=DIRECTION('',(0.,0.,1.));
#1529=DIRECTION('center_axis',(0.,0.,1.));
#1530=DIRECTION('ref_axis',(-1.,0.,0.));
#1531=DIRECTION('center_axis',(0.,0.,1.));
#1532=DIRECTION('ref_axis',(-1.,0.,0.));
#1533=DIRECTION('',(0.,0.,1.));
#1534=DIRECTION('center_axis',(0.,0.,1.));
#1535=DIRECTION('ref_axis',(-1.,0.,0.));
#1536=DIRECTION('center_axis',(0.,0.,1.));
#1537=DIRECTION('ref_axis',(-1.,0.,0.));
#1538=DIRECTION('',(0.,0.,1.));
#1539=DIRECTION('center_axis',(0.,0.,1.));
#1540=DIRECTION('ref_axis',(-1.,0.,0.));
#1541=DIRECTION('center_axis',(0.,0.,1.));
#1542=DIRECTION('ref_axis',(-1.,0.,0.));
#1543=DIRECTION('',(0.,0.,1.));
#1544=DIRECTION('center_axis',(0.,0.,1.));
#1545=DIRECTION('ref_axis',(-1.,0.,0.));
#1546=DIRECTION('center_axis',(0.,0.,1.));
#1547=DIRECTION('ref_axis',(-1.,0.,0.));
#1548=DIRECTION('',(0.,0.,1.));
#1549=DIRECTION('center_axis',(0.,0.,-1.));
#1550=DIRECTION('ref_axis',(-1.,0.,0.));
#1551=DIRECTION('center_axis',(0.,0.,-1.));
#1552=DIRECTION('ref_axis',(1.,0.,0.));
#1553=DIRECTION('center_axis',(0.,0.,1.));
#1554=DIRECTION('ref_axis',(1.,0.,0.));
#1555=DIRECTION('center_axis',(0.,0.,-1.));
#1556=DIRECTION('ref_axis',(1.,0.,0.));
#1557=DIRECTION('center_axis',(0.,0.,-1.));
#1558=DIRECTION('ref_axis',(0.,1.,0.));
#1559=DIRECTION('',(0.,0.,1.));
#1560=DIRECTION('center_axis',(0.,0.,-1.));
#1561=DIRECTION('ref_axis',(1.,0.,0.));
#1562=DIRECTION('center_axis',(0.,0.,1.));
#1563=DIRECTION('ref_axis',(1.,0.,0.));
#1564=DIRECTION('center_axis',(0.,0.,-1.));
#1565=DIRECTION('ref_axis',(1.,0.,0.));
#1566=DIRECTION('center_axis',(0.,0.,-1.));
#1567=DIRECTION('ref_axis',(0.,1.,0.));
#1568=DIRECTION('',(0.,0.,1.));
#1569=DIRECTION('center_axis',(0.,0.,-1.));
#1570=DIRECTION('ref_axis',(1.,0.,0.));
#1571=DIRECTION('center_axis',(0.,0.,1.));
#1572=DIRECTION('ref_axis',(1.,0.,0.));
#1573=DIRECTION('center_axis',(0.,0.,-1.));
#1574=DIRECTION('ref_axis',(1.,0.,0.));
#1575=DIRECTION('center_axis',(0.,0.,-1.));
#1576=DIRECTION('ref_axis',(0.,1.,0.));
#1577=DIRECTION('center_axis',(0.,0.,-1.));
#1578=DIRECTION('ref_axis',(1.,0.,0.));
#1579=DIRECTION('',(0.,0.,1.));
#1580=DIRECTION('center_axis',(0.,0.,1.));
#1581=DIRECTION('ref_axis',(1.,0.,0.));
#1582=DIRECTION('center_axis',(0.,0.,-1.));
#1583=DIRECTION('ref_axis',(1.,0.,0.));
#1584=DIRECTION('center_axis',(0.,0.,-1.));
#1585=DIRECTION('ref_axis',(0.,1.,0.));
#1586=DIRECTION('',(0.,0.,1.));
#1587=DIRECTION('center_axis',(0.,0.,-1.));
#1588=DIRECTION('ref_axis',(0.,1.,0.));
#1589=DIRECTION('',(0.,0.,1.));
#1590=DIRECTION('center_axis',(0.,0.,-1.));
#1591=DIRECTION('ref_axis',(0.,1.,0.));
#1592=DIRECTION('',(0.,0.,1.));
#1593=CARTESIAN_POINT('',(0.,0.,0.));
#1594=CARTESIAN_POINT('Origin',(-34.64,-20.,12.5));
#1595=CARTESIAN_POINT('',(-36.64,-20.,15.));
#1596=CARTESIAN_POINT('Origin',(-34.64,-20.,15.));
#1597=CARTESIAN_POINT('',(-36.64,-20.,10.));
#1598=CARTESIAN_POINT('',(-36.64,-20.,12.5));
#1599=CARTESIAN_POINT('Origin',(-34.64,-20.,10.));
#1600=CARTESIAN_POINT('Origin',(-34.64,-20.,10.));
#1601=CARTESIAN_POINT('Origin',(34.64,-20.,12.5));
#1602=CARTESIAN_POINT('',(32.64,-20.,15.));
#1603=CARTESIAN_POINT('Origin',(34.64,-20.,15.));
#1604=CARTESIAN_POINT('',(32.64,-20.,10.));
#1605=CARTESIAN_POINT('',(32.64,-20.,12.5));
#1606=CARTESIAN_POINT('Origin',(34.64,-20.,10.));
#1607=CARTESIAN_POINT('Origin',(34.64,-20.,10.));
#1608=CARTESIAN_POINT('Origin',(0.,40.,12.5));
#1609=CARTESIAN_POINT('',(-2.,40.,15.));
#1610=CARTESIAN_POINT('Origin',(0.,40.,15.));
#1611=CARTESIAN_POINT('',(-2.,40.,10.));
#1612=CARTESIAN_POINT('',(-2.,40.,12.5));
#1613=CARTESIAN_POINT('Origin',(0.,40.,10.));
#1614=CARTESIAN_POINT('Origin',(0.,40.,10.));
#1615=CARTESIAN_POINT('Origin',(34.64,20.,12.5));
#1616=CARTESIAN_POINT('',(32.64,20.,15.));
#1617=CARTESIAN_POINT('Origin',(34.64,20.,15.));
#1618=CARTESIAN_POINT('',(32.64,20.,10.));
#1619=CARTESIAN_POINT('',(32.64,20.,12.5));
#1620=CARTESIAN_POINT('Origin',(34.64,20.,10.));
#1621=CARTESIAN_POINT('Origin',(34.64,20.,10.));
#1622=CARTESIAN_POINT('Origin',(0.,-40.,12.5));
#1623=CARTESIAN_POINT('',(-2.,-40.,15.));
#1624=CARTESIAN_POINT('Origin',(0.,-40.,15.));
#1625=CARTESIAN_POINT('',(-2.,-40.,10.));
#1626=CARTESIAN_POINT('',(-2.,-40.,12.5));
#1627=CARTESIAN_POINT('Origin',(0.,-40.,10.));
#1628=CARTESIAN_POINT('Origin',(0.,-40.,10.));
#1629=CARTESIAN_POINT('Origin',(-34.64,20.,12.5));
#1630=CARTESIAN_POINT('',(-36.64,20.,15.));
#1631=CARTESIAN_POINT('Origin',(-34.64,20.,15.));
#1632=CARTESIAN_POINT('',(-36.64,20.,10.));
#1633=CARTESIAN_POINT('',(-36.64,20.,12.5));
#1634=CARTESIAN_POINT('Origin',(-34.64,20.,10.));
#1635=CARTESIAN_POINT('Origin',(-34.64,20.,10.));
#1636=CARTESIAN_POINT('Origin',(44.4820070346238,54.0495240512965,41.9999999999999));
#1637=CARTESIAN_POINT('',(47.6592932513826,57.9102043406748,40.));
#1638=CARTESIAN_POINT('',(40.1420039760917,56.5323396811676,40.));
#1639=CARTESIAN_POINT('Origin',(44.4820070346238,54.0495240512965,40.));
#1640=CARTESIAN_POINT('',(40.1420039760917,56.5323396811676,45.));
#1641=CARTESIAN_POINT('',(40.1420039760917,56.5323396811676,41.9999999999999));
#1642=CARTESIAN_POINT('',(47.6592932513827,57.9102043406749,45.));
#1643=CARTESIAN_POINT('Origin',(44.4820070346238,54.0495240512965,45.));
#1644=CARTESIAN_POINT('',(47.6592932513826,57.9102043406748,41.9999999999999));
#1645=CARTESIAN_POINT('Origin',(0.,0.,42.5));
#1646=CARTESIAN_POINT('',(73.9809782608696,12.3213171197216,45.));
#1647=CARTESIAN_POINT('Origin',(0.,0.,45.));
#1648=CARTESIAN_POINT('',(73.9809782608696,12.3213171197216,40.));
#1649=CARTESIAN_POINT('',(73.9809782608696,12.3213171197216,41.9999999999999));
#1650=CARTESIAN_POINT('Origin',(0.,0.,40.));
#1651=CARTESIAN_POINT('Origin',(0.,75.,45.));
#1652=CARTESIAN_POINT('',(28.8835607841116,63.0319429295497,45.));
#1653=CARTESIAN_POINT('Origin',(34.5,59.76,45.));
#1654=CARTESIAN_POINT('',(26.3177388490027,70.2308808279926,45.));
#1655=CARTESIAN_POINT('Origin',(24.5632229257358,65.5488221061264,45.));
#1656=CARTESIAN_POINT('',(-26.3177388490027,70.2308808279926,45.));
#1657=CARTESIAN_POINT('Origin',(0.,0.,45.));
#1658=CARTESIAN_POINT('',(-28.8835607841116,63.0319429295497,45.));
#1659=CARTESIAN_POINT('Origin',(-24.5632229257358,65.5488221061264,45.));
#1660=CARTESIAN_POINT('',(-40.1420039760917,56.5323396811676,45.));
#1661=CARTESIAN_POINT('Origin',(-34.5,59.76,45.));
#1662=CARTESIAN_POINT('',(-47.6592932513827,57.9102043406749,45.));
#1663=CARTESIAN_POINT('Origin',(-44.4820070346238,54.0495240512965,45.));
#1664=CARTESIAN_POINT('',(-73.9809782608696,12.3213171197216,45.));
#1665=CARTESIAN_POINT('Origin',(0.,0.,45.));
#1666=CARTESIAN_POINT('',(-69.0276465028356,6.49994120518647,45.));
#1667=CARTESIAN_POINT('Origin',(-69.0489130434783,11.4998959784068,45.));
#1668=CARTESIAN_POINT('',(-69.0276465028356,-6.49994120518647,45.));
#1669=CARTESIAN_POINT('Origin',(-69.,0.,45.));
#1670=CARTESIAN_POINT('',(-73.9809782608696,-12.3213171197216,45.));
#1671=CARTESIAN_POINT('Origin',(-69.0489130434783,-11.4998959784068,45.));
#1672=CARTESIAN_POINT('',(-47.6592932513827,-57.9102043406749,45.));
#1673=CARTESIAN_POINT('Origin',(0.,0.,45.));
#1674=CARTESIAN_POINT('',(-40.1420039760917,-56.5323396811676,45.));
#1675=CARTESIAN_POINT('Origin',(-44.4820070346238,-54.0495240512965,45.));
#1676=CARTESIAN_POINT('',(-28.8835607841116,-63.0319429295497,45.));
#1677=CARTESIAN_POINT('Origin',(-34.5,-59.76,45.));
#1678=CARTESIAN_POINT('',(-26.3177388490027,-70.2308808279926,45.));
#1679=CARTESIAN_POINT('Origin',(-24.5632229257358,-65.5488221061264,45.));
#1680=CARTESIAN_POINT('',(26.3177388490027,-70.2308808279926,45.));
#1681=CARTESIAN_POINT('Origin',(0.,0.,45.));
#1682=CARTESIAN_POINT('',(28.8835607841116,-63.0319429295497,45.));
#1683=CARTESIAN_POINT('Origin',(24.5632229257359,-65.5488221061264,45.));
#1684=CARTESIAN_POINT('',(40.1420039760917,-56.5323396811676,45.));
#1685=CARTESIAN_POINT('Origin',(34.5,-59.76,45.));
#1686=CARTESIAN_POINT('',(47.6592932513826,-57.9102043406749,45.));
#1687=CARTESIAN_POINT('Origin',(44.4820070346238,-54.0495240512965,45.));
#1688=CARTESIAN_POINT('',(73.9809782608696,-12.3213171197216,45.));
#1689=CARTESIAN_POINT('Origin',(0.,0.,45.));
#1690=CARTESIAN_POINT('',(69.0276465028356,-6.49994120518647,45.));
#1691=CARTESIAN_POINT('Origin',(69.0489130434783,-11.4998959784068,45.));
#1692=CARTESIAN_POINT('',(69.0276465028356,6.49994120518647,45.));
#1693=CARTESIAN_POINT('Origin',(69.,0.,45.));
#1694=CARTESIAN_POINT('Origin',(69.0489130434783,11.4998959784068,45.));
#1695=CARTESIAN_POINT('',(-62.76,-34.5,45.));
#1696=CARTESIAN_POINT('Origin',(-59.76,-34.5,45.));
#1697=CARTESIAN_POINT('',(56.76,-34.5,45.));
#1698=CARTESIAN_POINT('Origin',(59.76,-34.5,45.));
#1699=CARTESIAN_POINT('',(-3.,69.,45.));
#1700=CARTESIAN_POINT('Origin',(0.,69.,45.));
#1701=CARTESIAN_POINT('',(56.76,34.5,45.));
#1702=CARTESIAN_POINT('Origin',(59.76,34.5,45.));
#1703=CARTESIAN_POINT('',(-3.,-69.,45.));
#1704=CARTESIAN_POINT('Origin',(0.,-69.,45.));
#1705=CARTESIAN_POINT('',(-62.76,34.5,45.));
#1706=CARTESIAN_POINT('Origin',(-59.76,34.5,45.));
#1707=CARTESIAN_POINT('',(-6.49062803548098E-15,-53.,44.9999999999999));
#1708=CARTESIAN_POINT('Origin',(0.,0.,44.9999999999999));
#1709=CARTESIAN_POINT('Origin',(24.5632229257358,65.5488221061264,41.9999999999999));
#1710=CARTESIAN_POINT('',(28.8835607841116,63.0319429295497,40.));
#1711=CARTESIAN_POINT('',(28.8835607841116,63.0319429295497,41.9999999999999));
#1712=CARTESIAN_POINT('',(26.3177388490027,70.2308808279926,40.));
#1713=CARTESIAN_POINT('Origin',(24.5632229257358,65.5488221061264,40.));
#1714=CARTESIAN_POINT('',(26.3177388490027,70.2308808279926,41.9999999999999));
#1715=CARTESIAN_POINT('Origin',(0.,0.,42.5));
#1716=CARTESIAN_POINT('',(-26.3177388490027,70.2308808279926,40.));
#1717=CARTESIAN_POINT('Origin',(0.,0.,40.));
#1718=CARTESIAN_POINT('',(-26.3177388490027,70.2308808279926,41.9999999999999));
#1719=CARTESIAN_POINT('Origin',(34.5,59.76,41.9999999999999));
#1720=CARTESIAN_POINT('Origin',(34.5,59.76,40.));
#1721=CARTESIAN_POINT('Origin',(0.,75.,10.));
#1722=CARTESIAN_POINT('',(-9.18485099360515E-15,-75.,10.));
#1723=CARTESIAN_POINT('Origin',(0.,0.,10.));
#1724=CARTESIAN_POINT('',(37.5,59.76,10.));
#1725=CARTESIAN_POINT('Origin',(34.5,59.76,10.));
#1726=CARTESIAN_POINT('',(37.5,-59.76,10.));
#1727=CARTESIAN_POINT('Origin',(34.5,-59.76,10.));
#1728=CARTESIAN_POINT('',(-7.53157781475622E-15,-61.5,10.));
#1729=CARTESIAN_POINT('Origin',(0.,0.,10.));
#1730=CARTESIAN_POINT('',(-66.,-3.67394039744206E-16,10.));
#1731=CARTESIAN_POINT('Origin',(-69.,0.,10.));
#1732=CARTESIAN_POINT('',(-31.5,-59.76,10.));
#1733=CARTESIAN_POINT('Origin',(-34.5,-59.76,10.));
#1734=CARTESIAN_POINT('',(72.,-3.67394039744206E-16,10.));
#1735=CARTESIAN_POINT('Origin',(69.,0.,10.));
#1736=CARTESIAN_POINT('',(-31.5,59.76,10.));
#1737=CARTESIAN_POINT('Origin',(-34.5,59.76,10.));
#1738=CARTESIAN_POINT('Origin',(44.4820070346238,-54.0495240512965,42.5));
#1739=CARTESIAN_POINT('',(40.1420039760917,-56.5323396811676,40.));
#1740=CARTESIAN_POINT('',(47.6592932513826,-57.9102043406749,40.));
#1741=CARTESIAN_POINT('Origin',(44.4820070346238,-54.0495240512965,40.));
#1742=CARTESIAN_POINT('',(47.6592932513826,-57.9102043406748,42.5));
#1743=CARTESIAN_POINT('',(40.1420039760917,-56.5323396811676,42.5));
#1744=CARTESIAN_POINT('Origin',(0.,0.,42.5));
#1745=CARTESIAN_POINT('',(73.9809782608696,-12.3213171197216,40.));
#1746=CARTESIAN_POINT('Origin',(0.,0.,40.));
#1747=CARTESIAN_POINT('',(73.9809782608696,-12.3213171197216,41.9999999999999));
#1748=CARTESIAN_POINT('Origin',(0.,61.5,40.));
#1749=CARTESIAN_POINT('',(69.0276465028356,6.49994120518647,40.));
#1750=CARTESIAN_POINT('Origin',(69.0489130434783,11.4998959784068,40.));
#1751=CARTESIAN_POINT('',(69.0276465028356,-6.49994120518647,40.));
#1752=CARTESIAN_POINT('Origin',(69.,0.,40.));
#1753=CARTESIAN_POINT('Origin',(69.0489130434783,-11.4998959784068,40.));
#1754=CARTESIAN_POINT('',(28.8835607841116,-63.0319429295497,40.));
#1755=CARTESIAN_POINT('Origin',(34.5,-59.76,40.));
#1756=CARTESIAN_POINT('',(26.3177388490027,-70.2308808279926,40.));
#1757=CARTESIAN_POINT('Origin',(24.5632229257359,-65.5488221061264,40.));
#1758=CARTESIAN_POINT('',(-26.3177388490027,-70.2308808279926,40.));
#1759=CARTESIAN_POINT('Origin',(0.,0.,40.));
#1760=CARTESIAN_POINT('',(-28.8835607841116,-63.0319429295497,40.));
#1761=CARTESIAN_POINT('Origin',(-24.5632229257358,-65.5488221061264,40.));
#1762=CARTESIAN_POINT('',(-40.1420039760917,-56.5323396811676,40.));
#1763=CARTESIAN_POINT('Origin',(-34.5,-59.76,40.));
#1764=CARTESIAN_POINT('',(-47.6592932513826,-57.9102043406748,40.));
#1765=CARTESIAN_POINT('Origin',(-44.4820070346238,-54.0495240512965,40.));
#1766=CARTESIAN_POINT('',(-73.9809782608696,-12.3213171197216,40.));
#1767=CARTESIAN_POINT('Origin',(0.,0.,40.));
#1768=CARTESIAN_POINT('',(-69.0276465028356,-6.49994120518647,40.));
#1769=CARTESIAN_POINT('Origin',(-69.0489130434783,-11.4998959784068,40.));
#1770=CARTESIAN_POINT('',(-69.0276465028356,6.49994120518647,40.));
#1771=CARTESIAN_POINT('Origin',(-69.,0.,40.));
#1772=CARTESIAN_POINT('',(-73.9809782608696,12.3213171197216,40.));
#1773=CARTESIAN_POINT('Origin',(-69.0489130434783,11.4998959784068,40.));
#1774=CARTESIAN_POINT('',(-47.6592932513826,57.9102043406748,40.));
#1775=CARTESIAN_POINT('Origin',(0.,0.,40.));
#1776=CARTESIAN_POINT('',(-40.1420039760917,56.5323396811676,40.));
#1777=CARTESIAN_POINT('Origin',(-44.4820070346238,54.0495240512965,40.));
#1778=CARTESIAN_POINT('',(-28.8835607841116,63.0319429295497,40.));
#1779=CARTESIAN_POINT('Origin',(-34.5,59.76,40.));
#1780=CARTESIAN_POINT('Origin',(-24.5632229257358,65.5488221061264,40.));
#1781=CARTESIAN_POINT('',(-7.53157781475622E-15,-61.5,40.));
#1782=CARTESIAN_POINT('Origin',(0.,0.,40.));
#1783=CARTESIAN_POINT('',(-62.76,34.5,40.));
#1784=CARTESIAN_POINT('Origin',(-59.76,34.5,40.));
#1785=CARTESIAN_POINT('',(-3.,-69.,40.));
#1786=CARTESIAN_POINT('Origin',(0.,-69.,40.));
#1787=CARTESIAN_POINT('',(56.76,34.5,40.));
#1788=CARTESIAN_POINT('Origin',(59.76,34.5,40.));
#1789=CARTESIAN_POINT('',(-3.,69.,40.));
#1790=CARTESIAN_POINT('Origin',(0.,69.,40.));
#1791=CARTESIAN_POINT('',(56.76,-34.5,40.));
#1792=CARTESIAN_POINT('Origin',(59.76,-34.5,40.));
#1793=CARTESIAN_POINT('',(-62.76,-34.5,40.));
#1794=CARTESIAN_POINT('Origin',(-59.76,-34.5,40.));
#1795=CARTESIAN_POINT('Origin',(24.5632229257359,-65.5488221061264,42.5));
#1796=CARTESIAN_POINT('',(26.3177388490027,-70.2308808279926,42.5));
#1797=CARTESIAN_POINT('',(28.8835607841116,-63.0319429295497,42.5));
#1798=CARTESIAN_POINT('Origin',(0.,0.,42.5));
#1799=CARTESIAN_POINT('',(-26.3177388490027,-70.2308808279926,42.5));
#1800=CARTESIAN_POINT('Origin',(-44.4820070346238,54.0495240512965,41.9999999999999));
#1801=CARTESIAN_POINT('',(-40.1420039760917,56.5323396811676,41.9999999999999));
#1802=CARTESIAN_POINT('',(-47.6592932513826,57.9102043406748,41.9999999999999));
#1803=CARTESIAN_POINT('Origin',(0.,0.,42.5));
#1804=CARTESIAN_POINT('',(-73.9809782608696,12.3213171197216,42.5));
#1805=CARTESIAN_POINT('Origin',(-24.5632229257358,65.5488221061264,41.9999999999999));
#1806=CARTESIAN_POINT('',(-28.8835607841116,63.0319429295497,41.9999999999999));
#1807=CARTESIAN_POINT('Origin',(-34.5,59.76,41.9999999999999));
#1808=CARTESIAN_POINT('Origin',(-24.5632229257358,-65.5488221061264,42.5));
#1809=CARTESIAN_POINT('',(-28.8835607841116,-63.0319429295497,42.5));
#1810=CARTESIAN_POINT('Origin',(-34.5,-59.76,41.9999999999999));
#1811=CARTESIAN_POINT('',(-40.1420039760917,-56.5323396811676,42.5));
#1812=CARTESIAN_POINT('Origin',(-44.4820070346238,-54.0495240512965,42.5));
#1813=CARTESIAN_POINT('',(-47.6592932513826,-57.9102043406748,42.5));
#1814=CARTESIAN_POINT('Origin',(34.5,-59.76,41.9999999999999));
#1815=CARTESIAN_POINT('Origin',(0.,0.,42.5));
#1816=CARTESIAN_POINT('',(-73.9809782608696,-12.3213171197216,42.5));
#1817=CARTESIAN_POINT('Origin',(69.0489130434783,11.4998959784068,41.9999999999999));
#1818=CARTESIAN_POINT('',(69.0276465028356,6.49994120518647,41.9999999999999));
#1819=CARTESIAN_POINT('Origin',(69.0489130434783,-11.4998959784068,41.9999999999999));
#1820=CARTESIAN_POINT('',(69.0276465028356,-6.49994120518647,41.9999999999999));
#1821=CARTESIAN_POINT('Origin',(69.,0.,41.9999999999999));
#1822=CARTESIAN_POINT('Origin',(-69.0489130434783,-11.4998959784068,42.5));
#1823=CARTESIAN_POINT('',(-69.0276465028356,-6.49994120518647,42.5));
#1824=CARTESIAN_POINT('Origin',(-69.,0.,41.9999999999999));
#1825=CARTESIAN_POINT('',(-69.0276465028356,6.49994120518647,42.5));
#1826=CARTESIAN_POINT('Origin',(-69.0489130434783,11.4998959784068,42.5));
#1827=CARTESIAN_POINT('Origin',(-59.76,-34.5,41.9999999999999));
#1828=CARTESIAN_POINT('',(-62.76,-34.5,41.9999999999999));
#1829=CARTESIAN_POINT('Origin',(59.76,-34.5,41.9999999999999));
#1830=CARTESIAN_POINT('',(56.76,-34.5,41.9999999999999));
#1831=CARTESIAN_POINT('Origin',(0.,69.,41.9999999999999));
#1832=CARTESIAN_POINT('',(-3.,69.,41.9999999999999));
#1833=CARTESIAN_POINT('Origin',(59.76,34.5,41.9999999999999));
#1834=CARTESIAN_POINT('',(56.76,34.5,41.9999999999999));
#1835=CARTESIAN_POINT('Origin',(0.,-69.,41.9999999999999));
#1836=CARTESIAN_POINT('',(-3.,-69.,41.9999999999999));
#1837=CARTESIAN_POINT('Origin',(-59.76,34.5,41.9999999999999));
#1838=CARTESIAN_POINT('',(-62.76,34.5,41.9999999999999));
#1839=CARTESIAN_POINT('Origin',(-34.5,-59.76,5.5));
#1840=CARTESIAN_POINT('',(-31.5,-59.76,0.));
#1841=CARTESIAN_POINT('Origin',(-34.5,-59.76,0.));
#1842=CARTESIAN_POINT('',(-31.5,-59.76,5.5));
#1843=CARTESIAN_POINT('Origin',(-34.5,59.76,5.5));
#1844=CARTESIAN_POINT('',(-31.5,59.76,0.));
#1845=CARTESIAN_POINT('Origin',(-34.5,59.76,0.));
#1846=CARTESIAN_POINT('',(-31.5,59.76,5.5));
#1847=CARTESIAN_POINT('Origin',(34.5,59.76,5.5));
#1848=CARTESIAN_POINT('',(37.5,59.76,0.));
#1849=CARTESIAN_POINT('Origin',(34.5,59.76,0.));
#1850=CARTESIAN_POINT('',(37.5,59.76,5.5));
#1851=CARTESIAN_POINT('Origin',(69.,0.,5.5));
#1852=CARTESIAN_POINT('',(72.,3.67394039744206E-16,0.));
#1853=CARTESIAN_POINT('Origin',(69.,0.,0.));
#1854=CARTESIAN_POINT('',(72.,3.67394039744206E-16,5.5));
#1855=CARTESIAN_POINT('Origin',(-69.,0.,5.5));
#1856=CARTESIAN_POINT('',(-66.,3.67394039744206E-16,0.));
#1857=CARTESIAN_POINT('Origin',(-69.,0.,0.));
#1858=CARTESIAN_POINT('',(-66.,3.67394039744206E-16,5.5));
#1859=CARTESIAN_POINT('Origin',(34.5,-59.76,5.5));
#1860=CARTESIAN_POINT('',(37.5,-59.76,0.));
#1861=CARTESIAN_POINT('Origin',(34.5,-59.76,0.));
#1862=CARTESIAN_POINT('',(37.5,-59.76,5.5));
#1863=CARTESIAN_POINT('Origin',(0.,0.,0.));
#1864=CARTESIAN_POINT('',(-9.18485099360515E-15,-75.,0.));
#1865=CARTESIAN_POINT('Origin',(0.,0.,0.));
#1866=CARTESIAN_POINT('Origin',(0.,35.,5.));
#1867=CARTESIAN_POINT('',(-4.28626379701574E-15,-35.,5.));
#1868=CARTESIAN_POINT('Origin',(0.,0.,5.));
#1869=CARTESIAN_POINT('Origin',(0.,0.,10.));
#1870=CARTESIAN_POINT('',(-4.28626379701574E-15,-35.,15.));
#1871=CARTESIAN_POINT('',(-4.28626379701574E-15,-35.,10.));
#1872=CARTESIAN_POINT('Origin',(0.,0.,15.));
#1873=CARTESIAN_POINT('Origin',(0.,47.,15.));
#1874=CARTESIAN_POINT('',(-5.75583995599256E-15,-47.,15.));
#1875=CARTESIAN_POINT('Origin',(0.,0.,15.));
#1876=CARTESIAN_POINT('Origin',(0.,0.,30.));
#1877=CARTESIAN_POINT('',(-5.75583995599256E-15,-47.,44.9999999999999));
#1878=CARTESIAN_POINT('',(-5.75583995599256E-15,-47.,30.));
#1879=CARTESIAN_POINT('Origin',(0.,0.,44.9999999999999));
#1880=CARTESIAN_POINT('Origin',(0.,50.,44.9999999999999));
#1881=CARTESIAN_POINT('',(-6.12323399573677E-15,-50.,44.9999999999999));
#1882=CARTESIAN_POINT('Origin',(0.,0.,44.9999999999999));
#1883=CARTESIAN_POINT('Origin',(0.,0.,44.2499999999999));
#1884=CARTESIAN_POINT('',(-6.12323399573677E-15,-50.,43.4999999999999));
#1885=CARTESIAN_POINT('Origin',(0.,0.,43.4999999999999));
#1886=CARTESIAN_POINT('',(-6.12323399573677E-15,-50.,44.2499999999999));
#1887=CARTESIAN_POINT('Origin',(0.,53.,43.4999999999999));
#1888=CARTESIAN_POINT('',(-6.49062803548098E-15,-53.,43.4999999999999));
#1889=CARTESIAN_POINT('Origin',(0.,0.,43.4999999999999));
#1890=CARTESIAN_POINT('Origin',(0.,0.,44.2499999999999));
#1891=CARTESIAN_POINT('',(-6.49062803548098E-15,-53.,44.2499999999999));
#1892=CARTESIAN_POINT('Origin',(0.,0.,25.));
#1893=CARTESIAN_POINT('',(-7.53157781475622E-15,-61.5,25.));
#1894=CARTESIAN_POINT('Origin',(0.,0.,5.));
#1895=CARTESIAN_POINT('',(-9.18485099360515E-15,-75.,5.));
#1896=UNCERTAINTY_MEASURE_WITH_UNIT(LENGTH_MEASURE(0.01),#1900,
'DISTANCE_ACCURACY_VALUE',
'Maximum model space distance between geometric entities at asserted c
onnectivities');
#1897=UNCERTAINTY_MEASURE_WITH_UNIT(LENGTH_MEASURE(0.01),#1900,
'DISTANCE_ACCURACY_VALUE',
'Maximum model space distance between geometric entities at asserted c
onnectivities');
#1898=(
GEOMETRIC_REPRESENTATION_CONTEXT(3)
GLOBAL_UNCERTAINTY_ASSIGNED_CONTEXT((#1896))
GLOBAL_UNIT_ASSIGNED_CONTEXT((#1900,#1902,#1903))
REPRESENTATION_CONTEXT('','3D')
);
#1899=(
GEOMETRIC_REPRESENTATION_CONTEXT(3)
GLOBAL_UNCERTAINTY_ASSIGNED_CONTEXT((#1897))
GLOBAL_UNIT_ASSIGNED_CONTEXT((#1900,#1902,#1903))
REPRESENTATION_CONTEXT('','3D')
);
#1900=(
LENGTH_UNIT()
NAMED_UNIT(*)
SI_UNIT(.MILLI.,.METRE.)
);
#1901=(
LENGTH_UNIT()
NAMED_UNIT(*)
SI_UNIT($,.METRE.)
);
#1902=(
NAMED_UNIT(*)
PLANE_ANGLE_UNIT()
SI_UNIT($,.RADIAN.)
);
#1903=(
NAMED_UNIT(*)
SI_UNIT($,.STERADIAN.)
SOLID_ANGLE_UNIT()
);
#1904=SHAPE_DEFINITION_REPRESENTATION(#1905,#1906);
#1905=PRODUCT_DEFINITION_SHAPE('',$,#1908);
#1906=SHAPE_REPRESENTATION('',(#1068),#1898);
#1907=PRODUCT_DEFINITION_CONTEXT('part definition',#1912,'design');
#1908=PRODUCT_DEFINITION('2026-08-25-10-28-37-783','casing_base',#1909,
#1907);
#1909=PRODUCT_DEFINITION_FORMATION('',$,#1914);
#1910=PRODUCT_RELATED_PRODUCT_CATEGORY('casing_base','casing_base',(#1914));
#1911=APPLICATION_PROTOCOL_DEFINITION('international standard',
'automotive_design',2009,#1912);
#1912=APPLICATION_CONTEXT(
'Core Data for Automotive Mechanical Design Process');
#1913=PRODUCT_CONTEXT('part definition',#1912,'mechanical');
#1914=PRODUCT('2026-08-25-10-28-37-783','casing_base',$,(#1913));
#1915=PRESENTATION_STYLE_ASSIGNMENT((#1916));
#1916=SURFACE_STYLE_USAGE(.BOTH.,#1917);
#1917=SURFACE_SIDE_STYLE('',(#1918));
#1918=SURFACE_STYLE_FILL_AREA(#1919);
#1919=FILL_AREA_STYLE('Steel - Satin',(#1920));
#1920=FILL_AREA_STYLE_COLOUR('Steel - Satin',#1921);
#1921=COLOUR_RGB('Steel - Satin',0.627450980392157,0.627450980392157,0.627450980392157);
ENDSEC;
END-ISO-10303-21;
