ISO-10303-21;
HEADER;
/* Generated by software containing ST-Developer
 * from STEP Tools, Inc. (www.steptools.com) 
 */

FILE_DESCRIPTION(
/* description */ (''),
/* implementation_level */ '2;1');

FILE_NAME(
/* name */ 'cavity_casette.step',
/* time_stamp */ '2026-09-23T13:10:10+05:30',
/* author */ (''),
/* organization */ (''),
/* preprocessor_version */ 'ST-DEVELOPER v20.1',
/* originating_system */ 'Autodesk Translation Framework v15.8.0.0',
/* authorisation */ '');

FILE_SCHEMA (('AUTOMOTIVE_DESIGN { 1 0 10303 214 3 1 1 }'));
ENDSEC;

DATA;
#10=MECHANICAL_DESIGN_GEOMETRIC_PRESENTATION_REPRESENTATION('',(#13),#1212);
#11=SHAPE_REPRESENTATION_RELATIONSHIP('SRR','None',#1219,#12);
#12=ADVANCED_BREP_SHAPE_REPRESENTATION('',(#14),#1211);
#13=STYLED_ITEM('',(#1228),#14);
#14=MANIFOLD_SOLID_BREP('Body1',#688);
#15=FACE_BOUND('',#90,.T.);
#16=FACE_BOUND('',#91,.T.);
#17=FACE_BOUND('',#92,.T.);
#18=FACE_BOUND('',#93,.T.);
#19=FACE_BOUND('',#94,.T.);
#20=FACE_BOUND('',#95,.T.);
#21=FACE_BOUND('',#96,.T.);
#22=FACE_BOUND('',#97,.T.);
#23=FACE_BOUND('',#98,.T.);
#24=FACE_BOUND('',#99,.T.);
#25=FACE_BOUND('',#100,.T.);
#26=FACE_BOUND('',#101,.T.);
#27=FACE_BOUND('',#102,.T.);
#28=FACE_BOUND('',#103,.T.);
#29=FACE_BOUND('',#104,.T.);
#30=FACE_BOUND('',#105,.T.);
#31=FACE_BOUND('',#106,.T.);
#32=FACE_BOUND('',#107,.T.);
#33=FACE_BOUND('',#108,.T.);
#34=FACE_BOUND('',#114,.T.);
#35=FACE_BOUND('',#115,.T.);
#36=FACE_BOUND('',#116,.T.);
#37=FACE_BOUND('',#117,.T.);
#38=FACE_BOUND('',#118,.T.);
#39=FACE_BOUND('',#119,.T.);
#40=FACE_BOUND('',#120,.T.);
#41=FACE_BOUND('',#121,.T.);
#42=FACE_BOUND('',#122,.T.);
#43=FACE_BOUND('',#123,.T.);
#44=FACE_BOUND('',#124,.T.);
#45=FACE_BOUND('',#125,.T.);
#46=FACE_BOUND('',#126,.T.);
#47=FACE_BOUND('',#127,.T.);
#48=FACE_BOUND('',#128,.T.);
#49=FACE_BOUND('',#129,.T.);
#50=FACE_BOUND('',#130,.T.);
#51=FACE_BOUND('',#131,.T.);
#52=FACE_BOUND('',#132,.T.);
#53=PLANE('',#705);
#54=PLANE('',#744);
#55=FACE_OUTER_BOUND('',#88,.T.);
#56=FACE_OUTER_BOUND('',#89,.T.);
#57=FACE_OUTER_BOUND('',#109,.T.);
#58=FACE_OUTER_BOUND('',#110,.T.);
#59=FACE_OUTER_BOUND('',#111,.T.);
#60=FACE_OUTER_BOUND('',#112,.T.);
#61=FACE_OUTER_BOUND('',#113,.T.);
#62=FACE_OUTER_BOUND('',#133,.T.);
#63=FACE_OUTER_BOUND('',#134,.T.);
#64=FACE_OUTER_BOUND('',#135,.T.);
#65=FACE_OUTER_BOUND('',#136,.T.);
#66=FACE_OUTER_BOUND('',#137,.T.);
#67=FACE_OUTER_BOUND('',#138,.T.);
#68=FACE_OUTER_BOUND('',#139,.T.);
#69=FACE_OUTER_BOUND('',#140,.T.);
#70=FACE_OUTER_BOUND('',#141,.T.);
#71=FACE_OUTER_BOUND('',#142,.T.);
#72=FACE_OUTER_BOUND('',#143,.T.);
#73=FACE_OUTER_BOUND('',#144,.T.);
#74=FACE_OUTER_BOUND('',#145,.T.);
#75=FACE_OUTER_BOUND('',#146,.T.);
#76=FACE_OUTER_BOUND('',#147,.T.);
#77=FACE_OUTER_BOUND('',#148,.T.);
#78=FACE_OUTER_BOUND('',#149,.T.);
#79=FACE_OUTER_BOUND('',#150,.T.);
#80=FACE_OUTER_BOUND('',#151,.T.);
#81=FACE_OUTER_BOUND('',#152,.T.);
#82=FACE_OUTER_BOUND('',#153,.T.);
#83=FACE_OUTER_BOUND('',#154,.T.);
#84=FACE_OUTER_BOUND('',#155,.T.);
#85=FACE_OUTER_BOUND('',#156,.T.);
#86=FACE_OUTER_BOUND('',#157,.T.);
#87=FACE_OUTER_BOUND('',#158,.T.);
#88=EDGE_LOOP('',(#438,#439,#440,#441));
#89=EDGE_LOOP('',(#442,#443,#444,#445,#446,#447,#448,#449,#450,#451,#452,
#453));
#90=EDGE_LOOP('',(#454));
#91=EDGE_LOOP('',(#455));
#92=EDGE_LOOP('',(#456));
#93=EDGE_LOOP('',(#457));
#94=EDGE_LOOP('',(#458));
#95=EDGE_LOOP('',(#459));
#96=EDGE_LOOP('',(#460));
#97=EDGE_LOOP('',(#461));
#98=EDGE_LOOP('',(#462));
#99=EDGE_LOOP('',(#463));
#100=EDGE_LOOP('',(#464));
#101=EDGE_LOOP('',(#465));
#102=EDGE_LOOP('',(#466));
#103=EDGE_LOOP('',(#467));
#104=EDGE_LOOP('',(#468));
#105=EDGE_LOOP('',(#469));
#106=EDGE_LOOP('',(#470));
#107=EDGE_LOOP('',(#471));
#108=EDGE_LOOP('',(#472));
#109=EDGE_LOOP('',(#473,#474,#475,#476));
#110=EDGE_LOOP('',(#477,#478,#479,#480));
#111=EDGE_LOOP('',(#481,#482,#483,#484));
#112=EDGE_LOOP('',(#485,#486,#487,#488));
#113=EDGE_LOOP('',(#489,#490,#491,#492,#493,#494,#495,#496,#497,#498,#499,
#500));
#114=EDGE_LOOP('',(#501));
#115=EDGE_LOOP('',(#502));
#116=EDGE_LOOP('',(#503));
#117=EDGE_LOOP('',(#504));
#118=EDGE_LOOP('',(#505));
#119=EDGE_LOOP('',(#506));
#120=EDGE_LOOP('',(#507));
#121=EDGE_LOOP('',(#508));
#122=EDGE_LOOP('',(#509));
#123=EDGE_LOOP('',(#510));
#124=EDGE_LOOP('',(#511));
#125=EDGE_LOOP('',(#512));
#126=EDGE_LOOP('',(#513));
#127=EDGE_LOOP('',(#514));
#128=EDGE_LOOP('',(#515));
#129=EDGE_LOOP('',(#516));
#130=EDGE_LOOP('',(#517));
#131=EDGE_LOOP('',(#518));
#132=EDGE_LOOP('',(#519));
#133=EDGE_LOOP('',(#520,#521,#522,#523));
#134=EDGE_LOOP('',(#524,#525,#526,#527));
#135=EDGE_LOOP('',(#528,#529,#530,#531));
#136=EDGE_LOOP('',(#532,#533,#534,#535));
#137=EDGE_LOOP('',(#536,#537,#538,#539));
#138=EDGE_LOOP('',(#540,#541,#542,#543));
#139=EDGE_LOOP('',(#544,#545,#546,#547));
#140=EDGE_LOOP('',(#548,#549,#550,#551));
#141=EDGE_LOOP('',(#552,#553,#554,#555));
#142=EDGE_LOOP('',(#556,#557,#558,#559));
#143=EDGE_LOOP('',(#560,#561,#562,#563));
#144=EDGE_LOOP('',(#564,#565,#566,#567));
#145=EDGE_LOOP('',(#568,#569,#570,#571));
#146=EDGE_LOOP('',(#572,#573,#574,#575));
#147=EDGE_LOOP('',(#576,#577,#578,#579));
#148=EDGE_LOOP('',(#580,#581,#582,#583));
#149=EDGE_LOOP('',(#584,#585,#586,#587));
#150=EDGE_LOOP('',(#588,#589,#590,#591));
#151=EDGE_LOOP('',(#592,#593,#594,#595));
#152=EDGE_LOOP('',(#596,#597,#598,#599));
#153=EDGE_LOOP('',(#600,#601,#602,#603));
#154=EDGE_LOOP('',(#604,#605,#606,#607));
#155=EDGE_LOOP('',(#608,#609,#610,#611));
#156=EDGE_LOOP('',(#612,#613,#614,#615));
#157=EDGE_LOOP('',(#616,#617,#618,#619));
#158=EDGE_LOOP('',(#620,#621,#622,#623));
#159=CIRCLE('',#703,4.75);
#160=CIRCLE('',#704,4.75);
#161=CIRCLE('',#706,46.5);
#162=CIRCLE('',#707,4.75);
#163=CIRCLE('',#708,46.5);
#164=CIRCLE('',#709,4.75);
#165=CIRCLE('',#710,46.5);
#166=CIRCLE('',#711,4.75);
#167=CIRCLE('',#712,46.5);
#168=CIRCLE('',#713,4.75);
#169=CIRCLE('',#714,46.5);
#170=CIRCLE('',#715,4.75);
#171=CIRCLE('',#716,46.5);
#172=CIRCLE('',#717,5.);
#173=CIRCLE('',#718,5.);
#174=CIRCLE('',#719,2.);
#175=CIRCLE('',#720,2.);
#176=CIRCLE('',#721,2.);
#177=CIRCLE('',#722,2.);
#178=CIRCLE('',#723,2.);
#179=CIRCLE('',#724,2.);
#180=CIRCLE('',#725,5.);
#181=CIRCLE('',#726,2.);
#182=CIRCLE('',#727,2.);
#183=CIRCLE('',#728,2.);
#184=CIRCLE('',#729,2.);
#185=CIRCLE('',#730,5.);
#186=CIRCLE('',#731,2.);
#187=CIRCLE('',#732,5.);
#188=CIRCLE('',#733,5.);
#189=CIRCLE('',#734,5.);
#190=CIRCLE('',#735,2.);
#191=CIRCLE('',#737,46.5);
#192=CIRCLE('',#739,4.75);
#193=CIRCLE('',#741,46.5);
#194=CIRCLE('',#743,46.5);
#195=CIRCLE('',#745,4.75);
#196=CIRCLE('',#746,46.5);
#197=CIRCLE('',#747,4.75);
#198=CIRCLE('',#748,46.5);
#199=CIRCLE('',#749,4.75);
#200=CIRCLE('',#750,46.5);
#201=CIRCLE('',#751,4.75);
#202=CIRCLE('',#752,5.);
#203=CIRCLE('',#753,5.);
#204=CIRCLE('',#754,2.);
#205=CIRCLE('',#755,2.);
#206=CIRCLE('',#756,2.);
#207=CIRCLE('',#757,2.);
#208=CIRCLE('',#758,2.);
#209=CIRCLE('',#759,2.);
#210=CIRCLE('',#760,5.);
#211=CIRCLE('',#761,2.);
#212=CIRCLE('',#762,2.);
#213=CIRCLE('',#763,2.);
#214=CIRCLE('',#764,2.);
#215=CIRCLE('',#765,5.);
#216=CIRCLE('',#766,2.);
#217=CIRCLE('',#767,5.);
#218=CIRCLE('',#768,5.);
#219=CIRCLE('',#769,5.);
#220=CIRCLE('',#770,2.);
#221=LINE('',#1024,#252);
#222=LINE('',#1028,#253);
#223=LINE('',#1093,#254);
#224=LINE('',#1096,#255);
#225=LINE('',#1099,#256);
#226=LINE('',#1102,#257);
#227=LINE('',#1159,#258);
#228=LINE('',#1160,#259);
#229=LINE('',#1162,#260);
#230=LINE('',#1165,#261);
#231=LINE('',#1167,#262);
#232=LINE('',#1169,#263);
#233=LINE('',#1172,#264);
#234=LINE('',#1174,#265);
#235=LINE('',#1176,#266);
#236=LINE('',#1178,#267);
#237=LINE('',#1180,#268);
#238=LINE('',#1182,#269);
#239=LINE('',#1184,#270);
#240=LINE('',#1186,#271);
#241=LINE('',#1188,#272);
#242=LINE('',#1190,#273);
#243=LINE('',#1192,#274);
#244=LINE('',#1194,#275);
#245=LINE('',#1196,#276);
#246=LINE('',#1198,#277);
#247=LINE('',#1200,#278);
#248=LINE('',#1202,#279);
#249=LINE('',#1204,#280);
#250=LINE('',#1206,#281);
#251=LINE('',#1208,#282);
#252=VECTOR('',#801,10.);
#253=VECTOR('',#804,10.);
#254=VECTOR('',#873,10.);
#255=VECTOR('',#876,10.);
#256=VECTOR('',#879,10.);
#257=VECTOR('',#882,10.);
#258=VECTOR('',#945,10.);
#259=VECTOR('',#946,10.);
#260=VECTOR('',#949,10.);
#261=VECTOR('',#954,10.);
#262=VECTOR('',#957,10.);
#263=VECTOR('',#960,10.);
#264=VECTOR('',#965,5.);
#265=VECTOR('',#968,5.);
#266=VECTOR('',#971,2.);
#267=VECTOR('',#974,2.);
#268=VECTOR('',#977,2.);
#269=VECTOR('',#980,2.);
#270=VECTOR('',#983,2.);
#271=VECTOR('',#986,2.);
#272=VECTOR('',#989,5.);
#273=VECTOR('',#992,2.);
#274=VECTOR('',#995,2.);
#275=VECTOR('',#998,2.);
#276=VECTOR('',#1001,2.);
#277=VECTOR('',#1004,5.);
#278=VECTOR('',#1007,2.);
#279=VECTOR('',#1010,5.);
#280=VECTOR('',#1013,5.);
#281=VECTOR('',#1016,5.);
#282=VECTOR('',#1019,2.);
#283=VERTEX_POINT('',#1022);
#284=VERTEX_POINT('',#1023);
#285=VERTEX_POINT('',#1025);
#286=VERTEX_POINT('',#1027);
#287=VERTEX_POINT('',#1031);
#288=VERTEX_POINT('',#1033);
#289=VERTEX_POINT('',#1035);
#290=VERTEX_POINT('',#1037);
#291=VERTEX_POINT('',#1039);
#292=VERTEX_POINT('',#1041);
#293=VERTEX_POINT('',#1043);
#294=VERTEX_POINT('',#1045);
#295=VERTEX_POINT('',#1047);
#296=VERTEX_POINT('',#1049);
#297=VERTEX_POINT('',#1052);
#298=VERTEX_POINT('',#1054);
#299=VERTEX_POINT('',#1056);
#300=VERTEX_POINT('',#1058);
#301=VERTEX_POINT('',#1060);
#302=VERTEX_POINT('',#1062);
#303=VERTEX_POINT('',#1064);
#304=VERTEX_POINT('',#1066);
#305=VERTEX_POINT('',#1068);
#306=VERTEX_POINT('',#1070);
#307=VERTEX_POINT('',#1072);
#308=VERTEX_POINT('',#1074);
#309=VERTEX_POINT('',#1076);
#310=VERTEX_POINT('',#1078);
#311=VERTEX_POINT('',#1080);
#312=VERTEX_POINT('',#1082);
#313=VERTEX_POINT('',#1084);
#314=VERTEX_POINT('',#1086);
#315=VERTEX_POINT('',#1088);
#316=VERTEX_POINT('',#1091);
#317=VERTEX_POINT('',#1095);
#318=VERTEX_POINT('',#1097);
#319=VERTEX_POINT('',#1101);
#320=VERTEX_POINT('',#1107);
#321=VERTEX_POINT('',#1109);
#322=VERTEX_POINT('',#1111);
#323=VERTEX_POINT('',#1113);
#324=VERTEX_POINT('',#1115);
#325=VERTEX_POINT('',#1117);
#326=VERTEX_POINT('',#1120);
#327=VERTEX_POINT('',#1122);
#328=VERTEX_POINT('',#1124);
#329=VERTEX_POINT('',#1126);
#330=VERTEX_POINT('',#1128);
#331=VERTEX_POINT('',#1130);
#332=VERTEX_POINT('',#1132);
#333=VERTEX_POINT('',#1134);
#334=VERTEX_POINT('',#1136);
#335=VERTEX_POINT('',#1138);
#336=VERTEX_POINT('',#1140);
#337=VERTEX_POINT('',#1142);
#338=VERTEX_POINT('',#1144);
#339=VERTEX_POINT('',#1146);
#340=VERTEX_POINT('',#1148);
#341=VERTEX_POINT('',#1150);
#342=VERTEX_POINT('',#1152);
#343=VERTEX_POINT('',#1154);
#344=VERTEX_POINT('',#1156);
#345=EDGE_CURVE('',#283,#284,#221,.T.);
#346=EDGE_CURVE('',#284,#285,#159,.T.);
#347=EDGE_CURVE('',#285,#286,#222,.T.);
#348=EDGE_CURVE('',#286,#283,#160,.T.);
#349=EDGE_CURVE('',#284,#287,#161,.T.);
#350=EDGE_CURVE('',#288,#287,#162,.T.);
#351=EDGE_CURVE('',#288,#289,#163,.T.);
#352=EDGE_CURVE('',#290,#289,#164,.T.);
#353=EDGE_CURVE('',#290,#291,#165,.T.);
#354=EDGE_CURVE('',#291,#292,#166,.T.);
#355=EDGE_CURVE('',#292,#293,#167,.T.);
#356=EDGE_CURVE('',#293,#294,#168,.T.);
#357=EDGE_CURVE('',#294,#295,#169,.T.);
#358=EDGE_CURVE('',#296,#295,#170,.T.);
#359=EDGE_CURVE('',#296,#285,#171,.T.);
#360=EDGE_CURVE('',#297,#297,#172,.T.);
#361=EDGE_CURVE('',#298,#298,#173,.T.);
#362=EDGE_CURVE('',#299,#299,#174,.T.);
#363=EDGE_CURVE('',#300,#300,#175,.T.);
#364=EDGE_CURVE('',#301,#301,#176,.T.);
#365=EDGE_CURVE('',#302,#302,#177,.T.);
#366=EDGE_CURVE('',#303,#303,#178,.T.);
#367=EDGE_CURVE('',#304,#304,#179,.T.);
#368=EDGE_CURVE('',#305,#305,#180,.T.);
#369=EDGE_CURVE('',#306,#306,#181,.T.);
#370=EDGE_CURVE('',#307,#307,#182,.T.);
#371=EDGE_CURVE('',#308,#308,#183,.T.);
#372=EDGE_CURVE('',#309,#309,#184,.T.);
#373=EDGE_CURVE('',#310,#310,#185,.T.);
#374=EDGE_CURVE('',#311,#311,#186,.T.);
#375=EDGE_CURVE('',#312,#312,#187,.T.);
#376=EDGE_CURVE('',#313,#313,#188,.T.);
#377=EDGE_CURVE('',#314,#314,#189,.T.);
#378=EDGE_CURVE('',#315,#315,#190,.T.);
#379=EDGE_CURVE('',#283,#316,#191,.T.);
#380=EDGE_CURVE('',#287,#316,#223,.T.);
#381=EDGE_CURVE('',#295,#317,#224,.T.);
#382=EDGE_CURVE('',#317,#318,#192,.T.);
#383=EDGE_CURVE('',#318,#296,#225,.T.);
#384=EDGE_CURVE('',#294,#319,#226,.T.);
#385=EDGE_CURVE('',#319,#317,#193,.T.);
#386=EDGE_CURVE('',#318,#286,#194,.T.);
#387=EDGE_CURVE('',#319,#320,#195,.T.);
#388=EDGE_CURVE('',#321,#320,#196,.T.);
#389=EDGE_CURVE('',#321,#322,#197,.T.);
#390=EDGE_CURVE('',#323,#322,#198,.T.);
#391=EDGE_CURVE('',#324,#323,#199,.T.);
#392=EDGE_CURVE('',#325,#324,#200,.T.);
#393=EDGE_CURVE('',#316,#325,#201,.T.);
#394=EDGE_CURVE('',#326,#326,#202,.T.);
#395=EDGE_CURVE('',#327,#327,#203,.T.);
#396=EDGE_CURVE('',#328,#328,#204,.T.);
#397=EDGE_CURVE('',#329,#329,#205,.T.);
#398=EDGE_CURVE('',#330,#330,#206,.T.);
#399=EDGE_CURVE('',#331,#331,#207,.T.);
#400=EDGE_CURVE('',#332,#332,#208,.T.);
#401=EDGE_CURVE('',#333,#333,#209,.T.);
#402=EDGE_CURVE('',#334,#334,#210,.T.);
#403=EDGE_CURVE('',#335,#335,#211,.T.);
#404=EDGE_CURVE('',#336,#336,#212,.T.);
#405=EDGE_CURVE('',#337,#337,#213,.T.);
#406=EDGE_CURVE('',#338,#338,#214,.T.);
#407=EDGE_CURVE('',#339,#339,#215,.T.);
#408=EDGE_CURVE('',#340,#340,#216,.T.);
#409=EDGE_CURVE('',#341,#341,#217,.T.);
#410=EDGE_CURVE('',#342,#342,#218,.T.);
#411=EDGE_CURVE('',#343,#343,#219,.T.);
#412=EDGE_CURVE('',#344,#344,#220,.T.);
#413=EDGE_CURVE('',#289,#324,#227,.T.);
#414=EDGE_CURVE('',#323,#290,#228,.T.);
#415=EDGE_CURVE('',#325,#288,#229,.T.);
#416=EDGE_CURVE('',#322,#291,#230,.T.);
#417=EDGE_CURVE('',#292,#321,#231,.T.);
#418=EDGE_CURVE('',#320,#293,#232,.T.);
#419=EDGE_CURVE('',#297,#326,#233,.T.);
#420=EDGE_CURVE('',#298,#327,#234,.T.);
#421=EDGE_CURVE('',#299,#328,#235,.T.);
#422=EDGE_CURVE('',#300,#329,#236,.T.);
#423=EDGE_CURVE('',#301,#330,#237,.T.);
#424=EDGE_CURVE('',#302,#331,#238,.T.);
#425=EDGE_CURVE('',#303,#332,#239,.T.);
#426=EDGE_CURVE('',#304,#333,#240,.T.);
#427=EDGE_CURVE('',#305,#334,#241,.T.);
#428=EDGE_CURVE('',#306,#335,#242,.T.);
#429=EDGE_CURVE('',#307,#336,#243,.T.);
#430=EDGE_CURVE('',#308,#337,#244,.T.);
#431=EDGE_CURVE('',#309,#338,#245,.T.);
#432=EDGE_CURVE('',#310,#339,#246,.T.);
#433=EDGE_CURVE('',#311,#340,#247,.T.);
#434=EDGE_CURVE('',#312,#341,#248,.T.);
#435=EDGE_CURVE('',#313,#342,#249,.T.);
#436=EDGE_CURVE('',#314,#343,#250,.T.);
#437=EDGE_CURVE('',#315,#344,#251,.T.);
#438=ORIENTED_EDGE('',*,*,#345,.T.);
#439=ORIENTED_EDGE('',*,*,#346,.T.);
#440=ORIENTED_EDGE('',*,*,#347,.T.);
#441=ORIENTED_EDGE('',*,*,#348,.T.);
#442=ORIENTED_EDGE('',*,*,#346,.F.);
#443=ORIENTED_EDGE('',*,*,#349,.T.);
#444=ORIENTED_EDGE('',*,*,#350,.F.);
#445=ORIENTED_EDGE('',*,*,#351,.T.);
#446=ORIENTED_EDGE('',*,*,#352,.F.);
#447=ORIENTED_EDGE('',*,*,#353,.T.);
#448=ORIENTED_EDGE('',*,*,#354,.T.);
#449=ORIENTED_EDGE('',*,*,#355,.T.);
#450=ORIENTED_EDGE('',*,*,#356,.T.);
#451=ORIENTED_EDGE('',*,*,#357,.T.);
#452=ORIENTED_EDGE('',*,*,#358,.F.);
#453=ORIENTED_EDGE('',*,*,#359,.T.);
#454=ORIENTED_EDGE('',*,*,#360,.T.);
#455=ORIENTED_EDGE('',*,*,#361,.T.);
#456=ORIENTED_EDGE('',*,*,#362,.T.);
#457=ORIENTED_EDGE('',*,*,#363,.T.);
#458=ORIENTED_EDGE('',*,*,#364,.T.);
#459=ORIENTED_EDGE('',*,*,#365,.T.);
#460=ORIENTED_EDGE('',*,*,#366,.T.);
#461=ORIENTED_EDGE('',*,*,#367,.T.);
#462=ORIENTED_EDGE('',*,*,#368,.T.);
#463=ORIENTED_EDGE('',*,*,#369,.T.);
#464=ORIENTED_EDGE('',*,*,#370,.T.);
#465=ORIENTED_EDGE('',*,*,#371,.T.);
#466=ORIENTED_EDGE('',*,*,#372,.T.);
#467=ORIENTED_EDGE('',*,*,#373,.T.);
#468=ORIENTED_EDGE('',*,*,#374,.T.);
#469=ORIENTED_EDGE('',*,*,#375,.T.);
#470=ORIENTED_EDGE('',*,*,#376,.T.);
#471=ORIENTED_EDGE('',*,*,#377,.T.);
#472=ORIENTED_EDGE('',*,*,#378,.T.);
#473=ORIENTED_EDGE('',*,*,#345,.F.);
#474=ORIENTED_EDGE('',*,*,#379,.T.);
#475=ORIENTED_EDGE('',*,*,#380,.F.);
#476=ORIENTED_EDGE('',*,*,#349,.F.);
#477=ORIENTED_EDGE('',*,*,#381,.T.);
#478=ORIENTED_EDGE('',*,*,#382,.T.);
#479=ORIENTED_EDGE('',*,*,#383,.T.);
#480=ORIENTED_EDGE('',*,*,#358,.T.);
#481=ORIENTED_EDGE('',*,*,#381,.F.);
#482=ORIENTED_EDGE('',*,*,#357,.F.);
#483=ORIENTED_EDGE('',*,*,#384,.T.);
#484=ORIENTED_EDGE('',*,*,#385,.T.);
#485=ORIENTED_EDGE('',*,*,#347,.F.);
#486=ORIENTED_EDGE('',*,*,#359,.F.);
#487=ORIENTED_EDGE('',*,*,#383,.F.);
#488=ORIENTED_EDGE('',*,*,#386,.T.);
#489=ORIENTED_EDGE('',*,*,#348,.F.);
#490=ORIENTED_EDGE('',*,*,#386,.F.);
#491=ORIENTED_EDGE('',*,*,#382,.F.);
#492=ORIENTED_EDGE('',*,*,#385,.F.);
#493=ORIENTED_EDGE('',*,*,#387,.T.);
#494=ORIENTED_EDGE('',*,*,#388,.F.);
#495=ORIENTED_EDGE('',*,*,#389,.T.);
#496=ORIENTED_EDGE('',*,*,#390,.F.);
#497=ORIENTED_EDGE('',*,*,#391,.F.);
#498=ORIENTED_EDGE('',*,*,#392,.F.);
#499=ORIENTED_EDGE('',*,*,#393,.F.);
#500=ORIENTED_EDGE('',*,*,#379,.F.);
#501=ORIENTED_EDGE('',*,*,#394,.F.);
#502=ORIENTED_EDGE('',*,*,#395,.F.);
#503=ORIENTED_EDGE('',*,*,#396,.F.);
#504=ORIENTED_EDGE('',*,*,#397,.F.);
#505=ORIENTED_EDGE('',*,*,#398,.F.);
#506=ORIENTED_EDGE('',*,*,#399,.F.);
#507=ORIENTED_EDGE('',*,*,#400,.F.);
#508=ORIENTED_EDGE('',*,*,#401,.F.);
#509=ORIENTED_EDGE('',*,*,#402,.F.);
#510=ORIENTED_EDGE('',*,*,#403,.F.);
#511=ORIENTED_EDGE('',*,*,#404,.F.);
#512=ORIENTED_EDGE('',*,*,#405,.F.);
#513=ORIENTED_EDGE('',*,*,#406,.F.);
#514=ORIENTED_EDGE('',*,*,#407,.F.);
#515=ORIENTED_EDGE('',*,*,#408,.F.);
#516=ORIENTED_EDGE('',*,*,#409,.F.);
#517=ORIENTED_EDGE('',*,*,#410,.F.);
#518=ORIENTED_EDGE('',*,*,#411,.F.);
#519=ORIENTED_EDGE('',*,*,#412,.F.);
#520=ORIENTED_EDGE('',*,*,#413,.T.);
#521=ORIENTED_EDGE('',*,*,#391,.T.);
#522=ORIENTED_EDGE('',*,*,#414,.T.);
#523=ORIENTED_EDGE('',*,*,#352,.T.);
#524=ORIENTED_EDGE('',*,*,#413,.F.);
#525=ORIENTED_EDGE('',*,*,#351,.F.);
#526=ORIENTED_EDGE('',*,*,#415,.F.);
#527=ORIENTED_EDGE('',*,*,#392,.T.);
#528=ORIENTED_EDGE('',*,*,#415,.T.);
#529=ORIENTED_EDGE('',*,*,#350,.T.);
#530=ORIENTED_EDGE('',*,*,#380,.T.);
#531=ORIENTED_EDGE('',*,*,#393,.T.);
#532=ORIENTED_EDGE('',*,*,#414,.F.);
#533=ORIENTED_EDGE('',*,*,#390,.T.);
#534=ORIENTED_EDGE('',*,*,#416,.T.);
#535=ORIENTED_EDGE('',*,*,#353,.F.);
#536=ORIENTED_EDGE('',*,*,#417,.F.);
#537=ORIENTED_EDGE('',*,*,#354,.F.);
#538=ORIENTED_EDGE('',*,*,#416,.F.);
#539=ORIENTED_EDGE('',*,*,#389,.F.);
#540=ORIENTED_EDGE('',*,*,#418,.F.);
#541=ORIENTED_EDGE('',*,*,#387,.F.);
#542=ORIENTED_EDGE('',*,*,#384,.F.);
#543=ORIENTED_EDGE('',*,*,#356,.F.);
#544=ORIENTED_EDGE('',*,*,#417,.T.);
#545=ORIENTED_EDGE('',*,*,#388,.T.);
#546=ORIENTED_EDGE('',*,*,#418,.T.);
#547=ORIENTED_EDGE('',*,*,#355,.F.);
#548=ORIENTED_EDGE('',*,*,#360,.F.);
#549=ORIENTED_EDGE('',*,*,#419,.T.);
#550=ORIENTED_EDGE('',*,*,#394,.T.);
#551=ORIENTED_EDGE('',*,*,#419,.F.);
#552=ORIENTED_EDGE('',*,*,#361,.F.);
#553=ORIENTED_EDGE('',*,*,#420,.T.);
#554=ORIENTED_EDGE('',*,*,#395,.T.);
#555=ORIENTED_EDGE('',*,*,#420,.F.);
#556=ORIENTED_EDGE('',*,*,#362,.F.);
#557=ORIENTED_EDGE('',*,*,#421,.T.);
#558=ORIENTED_EDGE('',*,*,#396,.T.);
#559=ORIENTED_EDGE('',*,*,#421,.F.);
#560=ORIENTED_EDGE('',*,*,#363,.F.);
#561=ORIENTED_EDGE('',*,*,#422,.T.);
#562=ORIENTED_EDGE('',*,*,#397,.T.);
#563=ORIENTED_EDGE('',*,*,#422,.F.);
#564=ORIENTED_EDGE('',*,*,#364,.F.);
#565=ORIENTED_EDGE('',*,*,#423,.T.);
#566=ORIENTED_EDGE('',*,*,#398,.T.);
#567=ORIENTED_EDGE('',*,*,#423,.F.);
#568=ORIENTED_EDGE('',*,*,#365,.F.);
#569=ORIENTED_EDGE('',*,*,#424,.T.);
#570=ORIENTED_EDGE('',*,*,#399,.T.);
#571=ORIENTED_EDGE('',*,*,#424,.F.);
#572=ORIENTED_EDGE('',*,*,#366,.F.);
#573=ORIENTED_EDGE('',*,*,#425,.T.);
#574=ORIENTED_EDGE('',*,*,#400,.T.);
#575=ORIENTED_EDGE('',*,*,#425,.F.);
#576=ORIENTED_EDGE('',*,*,#367,.F.);
#577=ORIENTED_EDGE('',*,*,#426,.T.);
#578=ORIENTED_EDGE('',*,*,#401,.T.);
#579=ORIENTED_EDGE('',*,*,#426,.F.);
#580=ORIENTED_EDGE('',*,*,#368,.F.);
#581=ORIENTED_EDGE('',*,*,#427,.T.);
#582=ORIENTED_EDGE('',*,*,#402,.T.);
#583=ORIENTED_EDGE('',*,*,#427,.F.);
#584=ORIENTED_EDGE('',*,*,#369,.F.);
#585=ORIENTED_EDGE('',*,*,#428,.T.);
#586=ORIENTED_EDGE('',*,*,#403,.T.);
#587=ORIENTED_EDGE('',*,*,#428,.F.);
#588=ORIENTED_EDGE('',*,*,#370,.F.);
#589=ORIENTED_EDGE('',*,*,#429,.T.);
#590=ORIENTED_EDGE('',*,*,#404,.T.);
#591=ORIENTED_EDGE('',*,*,#429,.F.);
#592=ORIENTED_EDGE('',*,*,#371,.F.);
#593=ORIENTED_EDGE('',*,*,#430,.T.);
#594=ORIENTED_EDGE('',*,*,#405,.T.);
#595=ORIENTED_EDGE('',*,*,#430,.F.);
#596=ORIENTED_EDGE('',*,*,#372,.F.);
#597=ORIENTED_EDGE('',*,*,#431,.T.);
#598=ORIENTED_EDGE('',*,*,#406,.T.);
#599=ORIENTED_EDGE('',*,*,#431,.F.);
#600=ORIENTED_EDGE('',*,*,#373,.F.);
#601=ORIENTED_EDGE('',*,*,#432,.T.);
#602=ORIENTED_EDGE('',*,*,#407,.T.);
#603=ORIENTED_EDGE('',*,*,#432,.F.);
#604=ORIENTED_EDGE('',*,*,#374,.F.);
#605=ORIENTED_EDGE('',*,*,#433,.T.);
#606=ORIENTED_EDGE('',*,*,#408,.T.);
#607=ORIENTED_EDGE('',*,*,#433,.F.);
#608=ORIENTED_EDGE('',*,*,#375,.F.);
#609=ORIENTED_EDGE('',*,*,#434,.T.);
#610=ORIENTED_EDGE('',*,*,#409,.T.);
#611=ORIENTED_EDGE('',*,*,#434,.F.);
#612=ORIENTED_EDGE('',*,*,#376,.F.);
#613=ORIENTED_EDGE('',*,*,#435,.T.);
#614=ORIENTED_EDGE('',*,*,#410,.T.);
#615=ORIENTED_EDGE('',*,*,#435,.F.);
#616=ORIENTED_EDGE('',*,*,#377,.F.);
#617=ORIENTED_EDGE('',*,*,#436,.T.);
#618=ORIENTED_EDGE('',*,*,#411,.T.);
#619=ORIENTED_EDGE('',*,*,#436,.F.);
#620=ORIENTED_EDGE('',*,*,#378,.F.);
#621=ORIENTED_EDGE('',*,*,#437,.T.);
#622=ORIENTED_EDGE('',*,*,#412,.T.);
#623=ORIENTED_EDGE('',*,*,#437,.F.);
#624=CYLINDRICAL_SURFACE('',#702,4.75);
#625=CYLINDRICAL_SURFACE('',#736,46.5);
#626=CYLINDRICAL_SURFACE('',#738,4.75);
#627=CYLINDRICAL_SURFACE('',#740,46.5);
#628=CYLINDRICAL_SURFACE('',#742,46.5);
#629=CYLINDRICAL_SURFACE('',#771,4.75);
#630=CYLINDRICAL_SURFACE('',#772,46.5);
#631=CYLINDRICAL_SURFACE('',#773,4.75);
#632=CYLINDRICAL_SURFACE('',#774,46.5);
#633=CYLINDRICAL_SURFACE('',#775,4.75);
#634=CYLINDRICAL_SURFACE('',#776,4.75);
#635=CYLINDRICAL_SURFACE('',#777,46.5);
#636=CYLINDRICAL_SURFACE('',#778,5.);
#637=CYLINDRICAL_SURFACE('',#779,5.);
#638=CYLINDRICAL_SURFACE('',#780,2.);
#639=CYLINDRICAL_SURFACE('',#781,2.);
#640=CYLINDRICAL_SURFACE('',#782,2.);
#641=CYLINDRICAL_SURFACE('',#783,2.);
#642=CYLINDRICAL_SURFACE('',#784,2.);
#643=CYLINDRICAL_SURFACE('',#785,2.);
#644=CYLINDRICAL_SURFACE('',#786,5.);
#645=CYLINDRICAL_SURFACE('',#787,2.);
#646=CYLINDRICAL_SURFACE('',#788,2.);
#647=CYLINDRICAL_SURFACE('',#789,2.);
#648=CYLINDRICAL_SURFACE('',#790,2.);
#649=CYLINDRICAL_SURFACE('',#791,5.);
#650=CYLINDRICAL_SURFACE('',#792,2.);
#651=CYLINDRICAL_SURFACE('',#793,5.);
#652=CYLINDRICAL_SURFACE('',#794,5.);
#653=CYLINDRICAL_SURFACE('',#795,5.);
#654=CYLINDRICAL_SURFACE('',#796,2.);
#655=ADVANCED_FACE('',(#55),#624,.F.);
#656=ADVANCED_FACE('',(#56,#15,#16,#17,#18,#19,#20,#21,#22,#23,#24,#25,
#26,#27,#28,#29,#30,#31,#32,#33),#53,.T.);
#657=ADVANCED_FACE('',(#57),#625,.T.);
#658=ADVANCED_FACE('',(#58),#626,.F.);
#659=ADVANCED_FACE('',(#59),#627,.T.);
#660=ADVANCED_FACE('',(#60),#628,.T.);
#661=ADVANCED_FACE('',(#61,#34,#35,#36,#37,#38,#39,#40,#41,#42,#43,#44,
#45,#46,#47,#48,#49,#50,#51,#52),#54,.F.);
#662=ADVANCED_FACE('',(#62),#629,.F.);
#663=ADVANCED_FACE('',(#63),#630,.T.);
#664=ADVANCED_FACE('',(#64),#631,.F.);
#665=ADVANCED_FACE('',(#65),#632,.T.);
#666=ADVANCED_FACE('',(#66),#633,.F.);
#667=ADVANCED_FACE('',(#67),#634,.F.);
#668=ADVANCED_FACE('',(#68),#635,.T.);
#669=ADVANCED_FACE('',(#69),#636,.F.);
#670=ADVANCED_FACE('',(#70),#637,.F.);
#671=ADVANCED_FACE('',(#71),#638,.F.);
#672=ADVANCED_FACE('',(#72),#639,.F.);
#673=ADVANCED_FACE('',(#73),#640,.F.);
#674=ADVANCED_FACE('',(#74),#641,.F.);
#675=ADVANCED_FACE('',(#75),#642,.F.);
#676=ADVANCED_FACE('',(#76),#643,.F.);
#677=ADVANCED_FACE('',(#77),#644,.F.);
#678=ADVANCED_FACE('',(#78),#645,.F.);
#679=ADVANCED_FACE('',(#79),#646,.F.);
#680=ADVANCED_FACE('',(#80),#647,.F.);
#681=ADVANCED_FACE('',(#81),#648,.F.);
#682=ADVANCED_FACE('',(#82),#649,.F.);
#683=ADVANCED_FACE('',(#83),#650,.F.);
#684=ADVANCED_FACE('',(#84),#651,.F.);
#685=ADVANCED_FACE('',(#85),#652,.F.);
#686=ADVANCED_FACE('',(#86),#653,.F.);
#687=ADVANCED_FACE('',(#87),#654,.F.);
#688=CLOSED_SHELL('',(#655,#656,#657,#658,#659,#660,#661,#662,#663,#664,
#665,#666,#667,#668,#669,#670,#671,#672,#673,#674,#675,#676,#677,#678,#679,
#680,#681,#682,#683,#684,#685,#686,#687));
#689=DERIVED_UNIT_ELEMENT(#691,1.);
#690=DERIVED_UNIT_ELEMENT(#1214,-3.);
#691=(
MASS_UNIT()
NAMED_UNIT(*)
SI_UNIT(.KILO.,.GRAM.)
);
#692=DERIVED_UNIT((#689,#690));
#693=MEASURE_REPRESENTATION_ITEM('density measure',
POSITIVE_RATIO_MEASURE(7850.),#692);
#694=PROPERTY_DEFINITION_REPRESENTATION(#699,#696);
#695=PROPERTY_DEFINITION_REPRESENTATION(#700,#697);
#696=REPRESENTATION('material name',(#698),#1211);
#697=REPRESENTATION('density',(#693),#1211);
#698=DESCRIPTIVE_REPRESENTATION_ITEM('Steel','Steel');
#699=PROPERTY_DEFINITION('material property','material name',#1221);
#700=PROPERTY_DEFINITION('material property','density of part',#1221);
#701=AXIS2_PLACEMENT_3D('',#1020,#797,#798);
#702=AXIS2_PLACEMENT_3D('',#1021,#799,#800);
#703=AXIS2_PLACEMENT_3D('',#1026,#802,#803);
#704=AXIS2_PLACEMENT_3D('',#1029,#805,#806);
#705=AXIS2_PLACEMENT_3D('',#1030,#807,#808);
#706=AXIS2_PLACEMENT_3D('',#1032,#809,#810);
#707=AXIS2_PLACEMENT_3D('',#1034,#811,#812);
#708=AXIS2_PLACEMENT_3D('',#1036,#813,#814);
#709=AXIS2_PLACEMENT_3D('',#1038,#815,#816);
#710=AXIS2_PLACEMENT_3D('',#1040,#817,#818);
#711=AXIS2_PLACEMENT_3D('',#1042,#819,#820);
#712=AXIS2_PLACEMENT_3D('',#1044,#821,#822);
#713=AXIS2_PLACEMENT_3D('',#1046,#823,#824);
#714=AXIS2_PLACEMENT_3D('',#1048,#825,#826);
#715=AXIS2_PLACEMENT_3D('',#1050,#827,#828);
#716=AXIS2_PLACEMENT_3D('',#1051,#829,#830);
#717=AXIS2_PLACEMENT_3D('',#1053,#831,#832);
#718=AXIS2_PLACEMENT_3D('',#1055,#833,#834);
#719=AXIS2_PLACEMENT_3D('',#1057,#835,#836);
#720=AXIS2_PLACEMENT_3D('',#1059,#837,#838);
#721=AXIS2_PLACEMENT_3D('',#1061,#839,#840);
#722=AXIS2_PLACEMENT_3D('',#1063,#841,#842);
#723=AXIS2_PLACEMENT_3D('',#1065,#843,#844);
#724=AXIS2_PLACEMENT_3D('',#1067,#845,#846);
#725=AXIS2_PLACEMENT_3D('',#1069,#847,#848);
#726=AXIS2_PLACEMENT_3D('',#1071,#849,#850);
#727=AXIS2_PLACEMENT_3D('',#1073,#851,#852);
#728=AXIS2_PLACEMENT_3D('',#1075,#853,#854);
#729=AXIS2_PLACEMENT_3D('',#1077,#855,#856);
#730=AXIS2_PLACEMENT_3D('',#1079,#857,#858);
#731=AXIS2_PLACEMENT_3D('',#1081,#859,#860);
#732=AXIS2_PLACEMENT_3D('',#1083,#861,#862);
#733=AXIS2_PLACEMENT_3D('',#1085,#863,#864);
#734=AXIS2_PLACEMENT_3D('',#1087,#865,#866);
#735=AXIS2_PLACEMENT_3D('',#1089,#867,#868);
#736=AXIS2_PLACEMENT_3D('',#1090,#869,#870);
#737=AXIS2_PLACEMENT_3D('',#1092,#871,#872);
#738=AXIS2_PLACEMENT_3D('',#1094,#874,#875);
#739=AXIS2_PLACEMENT_3D('',#1098,#877,#878);
#740=AXIS2_PLACEMENT_3D('',#1100,#880,#881);
#741=AXIS2_PLACEMENT_3D('',#1103,#883,#884);
#742=AXIS2_PLACEMENT_3D('',#1104,#885,#886);
#743=AXIS2_PLACEMENT_3D('',#1105,#887,#888);
#744=AXIS2_PLACEMENT_3D('',#1106,#889,#890);
#745=AXIS2_PLACEMENT_3D('',#1108,#891,#892);
#746=AXIS2_PLACEMENT_3D('',#1110,#893,#894);
#747=AXIS2_PLACEMENT_3D('',#1112,#895,#896);
#748=AXIS2_PLACEMENT_3D('',#1114,#897,#898);
#749=AXIS2_PLACEMENT_3D('',#1116,#899,#900);
#750=AXIS2_PLACEMENT_3D('',#1118,#901,#902);
#751=AXIS2_PLACEMENT_3D('',#1119,#903,#904);
#752=AXIS2_PLACEMENT_3D('',#1121,#905,#906);
#753=AXIS2_PLACEMENT_3D('',#1123,#907,#908);
#754=AXIS2_PLACEMENT_3D('',#1125,#909,#910);
#755=AXIS2_PLACEMENT_3D('',#1127,#911,#912);
#756=AXIS2_PLACEMENT_3D('',#1129,#913,#914);
#757=AXIS2_PLACEMENT_3D('',#1131,#915,#916);
#758=AXIS2_PLACEMENT_3D('',#1133,#917,#918);
#759=AXIS2_PLACEMENT_3D('',#1135,#919,#920);
#760=AXIS2_PLACEMENT_3D('',#1137,#921,#922);
#761=AXIS2_PLACEMENT_3D('',#1139,#923,#924);
#762=AXIS2_PLACEMENT_3D('',#1141,#925,#926);
#763=AXIS2_PLACEMENT_3D('',#1143,#927,#928);
#764=AXIS2_PLACEMENT_3D('',#1145,#929,#930);
#765=AXIS2_PLACEMENT_3D('',#1147,#931,#932);
#766=AXIS2_PLACEMENT_3D('',#1149,#933,#934);
#767=AXIS2_PLACEMENT_3D('',#1151,#935,#936);
#768=AXIS2_PLACEMENT_3D('',#1153,#937,#938);
#769=AXIS2_PLACEMENT_3D('',#1155,#939,#940);
#770=AXIS2_PLACEMENT_3D('',#1157,#941,#942);
#771=AXIS2_PLACEMENT_3D('',#1158,#943,#944);
#772=AXIS2_PLACEMENT_3D('',#1161,#947,#948);
#773=AXIS2_PLACEMENT_3D('',#1163,#950,#951);
#774=AXIS2_PLACEMENT_3D('',#1164,#952,#953);
#775=AXIS2_PLACEMENT_3D('',#1166,#955,#956);
#776=AXIS2_PLACEMENT_3D('',#1168,#958,#959);
#777=AXIS2_PLACEMENT_3D('',#1170,#961,#962);
#778=AXIS2_PLACEMENT_3D('',#1171,#963,#964);
#779=AXIS2_PLACEMENT_3D('',#1173,#966,#967);
#780=AXIS2_PLACEMENT_3D('',#1175,#969,#970);
#781=AXIS2_PLACEMENT_3D('',#1177,#972,#973);
#782=AXIS2_PLACEMENT_3D('',#1179,#975,#976);
#783=AXIS2_PLACEMENT_3D('',#1181,#978,#979);
#784=AXIS2_PLACEMENT_3D('',#1183,#981,#982);
#785=AXIS2_PLACEMENT_3D('',#1185,#984,#985);
#786=AXIS2_PLACEMENT_3D('',#1187,#987,#988);
#787=AXIS2_PLACEMENT_3D('',#1189,#990,#991);
#788=AXIS2_PLACEMENT_3D('',#1191,#993,#994);
#789=AXIS2_PLACEMENT_3D('',#1193,#996,#997);
#790=AXIS2_PLACEMENT_3D('',#1195,#999,#1000);
#791=AXIS2_PLACEMENT_3D('',#1197,#1002,#1003);
#792=AXIS2_PLACEMENT_3D('',#1199,#1005,#1006);
#793=AXIS2_PLACEMENT_3D('',#1201,#1008,#1009);
#794=AXIS2_PLACEMENT_3D('',#1203,#1011,#1012);
#795=AXIS2_PLACEMENT_3D('',#1205,#1014,#1015);
#796=AXIS2_PLACEMENT_3D('',#1207,#1017,#1018);
#797=DIRECTION('axis',(0.,0.,1.));
#798=DIRECTION('refdir',(1.,0.,0.));
#799=DIRECTION('center_axis',(0.,0.,-1.));
#800=DIRECTION('ref_axis',(0.500029427676982,-0.86600841304056,0.));
#801=DIRECTION('',(0.,0.,1.));
#802=DIRECTION('center_axis',(0.,0.,1.));
#803=DIRECTION('ref_axis',(-1.,0.,0.));
#804=DIRECTION('',(0.,0.,-1.));
#805=DIRECTION('center_axis',(0.,0.,-1.));
#806=DIRECTION('ref_axis',(-1.,0.,0.));
#807=DIRECTION('center_axis',(0.,0.,1.));
#808=DIRECTION('ref_axis',(1.,0.,0.));
#809=DIRECTION('center_axis',(0.,0.,1.));
#810=DIRECTION('ref_axis',(1.,0.,0.));
#811=DIRECTION('center_axis',(0.,0.,1.));
#812=DIRECTION('ref_axis',(-1.,0.,0.));
#813=DIRECTION('center_axis',(0.,0.,1.));
#814=DIRECTION('ref_axis',(1.,0.,0.));
#815=DIRECTION('center_axis',(0.,0.,1.));
#816=DIRECTION('ref_axis',(-1.,0.,0.));
#817=DIRECTION('center_axis',(0.,0.,1.));
#818=DIRECTION('ref_axis',(1.,0.,0.));
#819=DIRECTION('center_axis',(0.,0.,-1.));
#820=DIRECTION('ref_axis',(1.,0.,0.));
#821=DIRECTION('center_axis',(0.,0.,1.));
#822=DIRECTION('ref_axis',(1.,0.,0.));
#823=DIRECTION('center_axis',(0.,0.,-1.));
#824=DIRECTION('ref_axis',(1.,0.,0.));
#825=DIRECTION('center_axis',(0.,0.,1.));
#826=DIRECTION('ref_axis',(1.,0.,0.));
#827=DIRECTION('center_axis',(0.,0.,1.));
#828=DIRECTION('ref_axis',(1.,0.,0.));
#829=DIRECTION('center_axis',(0.,0.,1.));
#830=DIRECTION('ref_axis',(1.,0.,0.));
#831=DIRECTION('center_axis',(0.,0.,-1.));
#832=DIRECTION('ref_axis',(1.,0.,0.));
#833=DIRECTION('center_axis',(0.,0.,-1.));
#834=DIRECTION('ref_axis',(1.,0.,0.));
#835=DIRECTION('center_axis',(0.,0.,-1.));
#836=DIRECTION('ref_axis',(1.,0.,0.));
#837=DIRECTION('center_axis',(0.,0.,-1.));
#838=DIRECTION('ref_axis',(1.,0.,0.));
#839=DIRECTION('center_axis',(0.,0.,-1.));
#840=DIRECTION('ref_axis',(1.,0.,0.));
#841=DIRECTION('center_axis',(0.,0.,-1.));
#842=DIRECTION('ref_axis',(1.,0.,0.));
#843=DIRECTION('center_axis',(0.,0.,-1.));
#844=DIRECTION('ref_axis',(1.,0.,0.));
#845=DIRECTION('center_axis',(0.,0.,-1.));
#846=DIRECTION('ref_axis',(1.,0.,0.));
#847=DIRECTION('center_axis',(0.,0.,-1.));
#848=DIRECTION('ref_axis',(1.,0.,0.));
#849=DIRECTION('center_axis',(0.,0.,-1.));
#850=DIRECTION('ref_axis',(1.,0.,0.));
#851=DIRECTION('center_axis',(0.,0.,-1.));
#852=DIRECTION('ref_axis',(1.,0.,0.));
#853=DIRECTION('center_axis',(0.,0.,-1.));
#854=DIRECTION('ref_axis',(1.,0.,0.));
#855=DIRECTION('center_axis',(0.,0.,-1.));
#856=DIRECTION('ref_axis',(1.,0.,0.));
#857=DIRECTION('center_axis',(0.,0.,-1.));
#858=DIRECTION('ref_axis',(1.,0.,0.));
#859=DIRECTION('center_axis',(0.,0.,-1.));
#860=DIRECTION('ref_axis',(1.,0.,0.));
#861=DIRECTION('center_axis',(0.,0.,-1.));
#862=DIRECTION('ref_axis',(1.,0.,0.));
#863=DIRECTION('center_axis',(0.,0.,-1.));
#864=DIRECTION('ref_axis',(1.,0.,0.));
#865=DIRECTION('center_axis',(0.,0.,-1.));
#866=DIRECTION('ref_axis',(1.,0.,0.));
#867=DIRECTION('center_axis',(0.,0.,-1.));
#868=DIRECTION('ref_axis',(1.,0.,0.));
#869=DIRECTION('center_axis',(0.,0.,1.));
#870=DIRECTION('ref_axis',(1.,0.,0.));
#871=DIRECTION('center_axis',(0.,0.,1.));
#872=DIRECTION('ref_axis',(1.,0.,0.));
#873=DIRECTION('',(0.,0.,-1.));
#874=DIRECTION('center_axis',(0.,0.,1.));
#875=DIRECTION('ref_axis',(-0.500029427676982,-0.86600841304056,0.));
#876=DIRECTION('',(0.,0.,-1.));
#877=DIRECTION('center_axis',(0.,0.,-1.));
#878=DIRECTION('ref_axis',(1.,0.,0.));
#879=DIRECTION('',(0.,0.,1.));
#880=DIRECTION('center_axis',(0.,0.,1.));
#881=DIRECTION('ref_axis',(1.,0.,0.));
#882=DIRECTION('',(0.,0.,-1.));
#883=DIRECTION('center_axis',(0.,0.,1.));
#884=DIRECTION('ref_axis',(1.,0.,0.));
#885=DIRECTION('center_axis',(0.,0.,1.));
#886=DIRECTION('ref_axis',(1.,0.,0.));
#887=DIRECTION('center_axis',(0.,0.,1.));
#888=DIRECTION('ref_axis',(1.,0.,0.));
#889=DIRECTION('center_axis',(0.,0.,1.));
#890=DIRECTION('ref_axis',(1.,0.,0.));
#891=DIRECTION('center_axis',(0.,0.,1.));
#892=DIRECTION('ref_axis',(1.,0.,0.));
#893=DIRECTION('center_axis',(0.,0.,1.));
#894=DIRECTION('ref_axis',(1.,0.,0.));
#895=DIRECTION('center_axis',(0.,0.,1.));
#896=DIRECTION('ref_axis',(1.,0.,0.));
#897=DIRECTION('center_axis',(0.,0.,1.));
#898=DIRECTION('ref_axis',(1.,0.,0.));
#899=DIRECTION('center_axis',(0.,0.,-1.));
#900=DIRECTION('ref_axis',(-1.,0.,0.));
#901=DIRECTION('center_axis',(0.,0.,1.));
#902=DIRECTION('ref_axis',(1.,0.,0.));
#903=DIRECTION('center_axis',(0.,0.,-1.));
#904=DIRECTION('ref_axis',(-1.,0.,0.));
#905=DIRECTION('center_axis',(0.,0.,-1.));
#906=DIRECTION('ref_axis',(1.,0.,0.));
#907=DIRECTION('center_axis',(0.,0.,-1.));
#908=DIRECTION('ref_axis',(1.,0.,0.));
#909=DIRECTION('center_axis',(0.,0.,-1.));
#910=DIRECTION('ref_axis',(1.,0.,0.));
#911=DIRECTION('center_axis',(0.,0.,-1.));
#912=DIRECTION('ref_axis',(1.,0.,0.));
#913=DIRECTION('center_axis',(0.,0.,-1.));
#914=DIRECTION('ref_axis',(1.,0.,0.));
#915=DIRECTION('center_axis',(0.,0.,-1.));
#916=DIRECTION('ref_axis',(1.,0.,0.));
#917=DIRECTION('center_axis',(0.,0.,-1.));
#918=DIRECTION('ref_axis',(1.,0.,0.));
#919=DIRECTION('center_axis',(0.,0.,-1.));
#920=DIRECTION('ref_axis',(1.,0.,0.));
#921=DIRECTION('center_axis',(0.,0.,-1.));
#922=DIRECTION('ref_axis',(1.,0.,0.));
#923=DIRECTION('center_axis',(0.,0.,-1.));
#924=DIRECTION('ref_axis',(1.,0.,0.));
#925=DIRECTION('center_axis',(0.,0.,-1.));
#926=DIRECTION('ref_axis',(1.,0.,0.));
#927=DIRECTION('center_axis',(0.,0.,-1.));
#928=DIRECTION('ref_axis',(1.,0.,0.));
#929=DIRECTION('center_axis',(0.,0.,-1.));
#930=DIRECTION('ref_axis',(1.,0.,0.));
#931=DIRECTION('center_axis',(0.,0.,-1.));
#932=DIRECTION('ref_axis',(1.,0.,0.));
#933=DIRECTION('center_axis',(0.,0.,-1.));
#934=DIRECTION('ref_axis',(1.,0.,0.));
#935=DIRECTION('center_axis',(0.,0.,-1.));
#936=DIRECTION('ref_axis',(1.,0.,0.));
#937=DIRECTION('center_axis',(0.,0.,-1.));
#938=DIRECTION('ref_axis',(1.,0.,0.));
#939=DIRECTION('center_axis',(0.,0.,-1.));
#940=DIRECTION('ref_axis',(1.,0.,0.));
#941=DIRECTION('center_axis',(0.,0.,-1.));
#942=DIRECTION('ref_axis',(1.,0.,0.));
#943=DIRECTION('center_axis',(0.,0.,1.));
#944=DIRECTION('ref_axis',(0.500029427676982,0.86600841304056,0.));
#945=DIRECTION('',(0.,0.,-1.));
#946=DIRECTION('',(0.,0.,1.));
#947=DIRECTION('center_axis',(0.,0.,1.));
#948=DIRECTION('ref_axis',(1.,0.,0.));
#949=DIRECTION('',(0.,0.,1.));
#950=DIRECTION('center_axis',(0.,0.,1.));
#951=DIRECTION('ref_axis',(1.,7.6571373978539E-16,0.));
#952=DIRECTION('center_axis',(0.,0.,1.));
#953=DIRECTION('ref_axis',(1.,0.,0.));
#954=DIRECTION('',(0.,0.,1.));
#955=DIRECTION('center_axis',(0.,0.,-1.));
#956=DIRECTION('ref_axis',(-0.500029427676982,0.86600841304056,0.));
#957=DIRECTION('',(0.,0.,-1.));
#958=DIRECTION('center_axis',(0.,0.,-1.));
#959=DIRECTION('ref_axis',(-1.,7.6571373978539E-16,0.));
#960=DIRECTION('',(0.,0.,1.));
#961=DIRECTION('center_axis',(0.,0.,1.));
#962=DIRECTION('ref_axis',(1.,0.,0.));
#963=DIRECTION('center_axis',(0.,0.,1.));
#964=DIRECTION('ref_axis',(1.,0.,0.));
#965=DIRECTION('',(0.,0.,-1.));
#966=DIRECTION('center_axis',(0.,0.,1.));
#967=DIRECTION('ref_axis',(1.,0.,0.));
#968=DIRECTION('',(0.,0.,-1.));
#969=DIRECTION('center_axis',(0.,0.,1.));
#970=DIRECTION('ref_axis',(1.,0.,0.));
#971=DIRECTION('',(0.,0.,-1.));
#972=DIRECTION('center_axis',(0.,0.,1.));
#973=DIRECTION('ref_axis',(1.,0.,0.));
#974=DIRECTION('',(0.,0.,-1.));
#975=DIRECTION('center_axis',(0.,0.,1.));
#976=DIRECTION('ref_axis',(1.,0.,0.));
#977=DIRECTION('',(0.,0.,-1.));
#978=DIRECTION('center_axis',(0.,0.,1.));
#979=DIRECTION('ref_axis',(1.,0.,0.));
#980=DIRECTION('',(0.,0.,-1.));
#981=DIRECTION('center_axis',(0.,0.,1.));
#982=DIRECTION('ref_axis',(1.,0.,0.));
#983=DIRECTION('',(0.,0.,-1.));
#984=DIRECTION('center_axis',(0.,0.,1.));
#985=DIRECTION('ref_axis',(1.,0.,0.));
#986=DIRECTION('',(0.,0.,-1.));
#987=DIRECTION('center_axis',(0.,0.,1.));
#988=DIRECTION('ref_axis',(1.,0.,0.));
#989=DIRECTION('',(0.,0.,-1.));
#990=DIRECTION('center_axis',(0.,0.,1.));
#991=DIRECTION('ref_axis',(1.,0.,0.));
#992=DIRECTION('',(0.,0.,-1.));
#993=DIRECTION('center_axis',(0.,0.,1.));
#994=DIRECTION('ref_axis',(1.,0.,0.));
#995=DIRECTION('',(0.,0.,-1.));
#996=DIRECTION('center_axis',(0.,0.,1.));
#997=DIRECTION('ref_axis',(1.,0.,0.));
#998=DIRECTION('',(0.,0.,-1.));
#999=DIRECTION('center_axis',(0.,0.,1.));
#1000=DIRECTION('ref_axis',(1.,0.,0.));
#1001=DIRECTION('',(0.,0.,-1.));
#1002=DIRECTION('center_axis',(0.,0.,1.));
#1003=DIRECTION('ref_axis',(1.,0.,0.));
#1004=DIRECTION('',(0.,0.,-1.));
#1005=DIRECTION('center_axis',(0.,0.,1.));
#1006=DIRECTION('ref_axis',(1.,0.,0.));
#1007=DIRECTION('',(0.,0.,-1.));
#1008=DIRECTION('center_axis',(0.,0.,1.));
#1009=DIRECTION('ref_axis',(1.,0.,0.));
#1010=DIRECTION('',(0.,0.,-1.));
#1011=DIRECTION('center_axis',(0.,0.,1.));
#1012=DIRECTION('ref_axis',(1.,0.,0.));
#1013=DIRECTION('',(0.,0.,-1.));
#1014=DIRECTION('center_axis',(0.,0.,1.));
#1015=DIRECTION('ref_axis',(1.,0.,0.));
#1016=DIRECTION('',(0.,0.,-1.));
#1017=DIRECTION('center_axis',(0.,0.,1.));
#1018=DIRECTION('ref_axis',(1.,0.,0.));
#1019=DIRECTION('',(0.,0.,-1.));
#1020=CARTESIAN_POINT('',(0.,0.,0.));
#1021=CARTESIAN_POINT('Origin',(-23.5,40.7,7.5));
#1022=CARTESIAN_POINT('',(-27.1966998111681,37.7172310672617,0.));
#1023=CARTESIAN_POINT('',(-27.1966998111681,37.7172310672617,20.));
#1024=CARTESIAN_POINT('',(-27.1966998111682,37.7172310672616,7.5));
#1025=CARTESIAN_POINT('',(-19.0686126520462,42.4103526456244,20.));
#1026=CARTESIAN_POINT('Origin',(-23.5,40.7,20.));
#1027=CARTESIAN_POINT('',(-19.0686126520462,42.4103526456244,0.));
#1028=CARTESIAN_POINT('',(-19.0686126520462,42.4103526456245,7.5));
#1029=CARTESIAN_POINT('Origin',(-23.5,40.7,0.));
#1030=CARTESIAN_POINT('Origin',(0.,0.,20.));
#1031=CARTESIAN_POINT('',(-46.2626329787234,4.69241833982582,20.));
#1032=CARTESIAN_POINT('Origin',(0.,0.,20.));
#1033=CARTESIAN_POINT('',(-46.2626329787234,-4.69241833982582,20.));
#1034=CARTESIAN_POINT('Origin',(-47.,0.,20.));
#1035=CARTESIAN_POINT('',(-27.1966998111681,-37.7172310672617,20.));
#1036=CARTESIAN_POINT('Origin',(0.,0.,20.));
#1037=CARTESIAN_POINT('',(-19.0686126520462,-42.4103526456244,20.));
#1038=CARTESIAN_POINT('Origin',(-23.5,-40.7,20.));
#1039=CARTESIAN_POINT('',(19.0686126520462,-42.4103526456244,20.));
#1040=CARTESIAN_POINT('Origin',(0.,0.,20.));
#1041=CARTESIAN_POINT('',(27.1966998111681,-37.7172310672617,20.));
#1042=CARTESIAN_POINT('Origin',(23.5,-40.7,20.));
#1043=CARTESIAN_POINT('',(46.2626329787234,-4.69241833982582,20.));
#1044=CARTESIAN_POINT('Origin',(0.,0.,20.));
#1045=CARTESIAN_POINT('',(46.2626329787234,4.69241833982582,20.));
#1046=CARTESIAN_POINT('Origin',(47.,0.,20.));
#1047=CARTESIAN_POINT('',(27.1966998111681,37.7172310672617,20.));
#1048=CARTESIAN_POINT('Origin',(0.,0.,20.));
#1049=CARTESIAN_POINT('',(19.0686126520462,42.4103526456244,20.));
#1050=CARTESIAN_POINT('Origin',(23.5,40.7,20.));
#1051=CARTESIAN_POINT('Origin',(0.,0.,20.));
#1052=CARTESIAN_POINT('',(5.,17.32,20.));
#1053=CARTESIAN_POINT('Origin',(10.,17.32,20.));
#1054=CARTESIAN_POINT('',(15.,0.,20.));
#1055=CARTESIAN_POINT('Origin',(20.,0.,20.));
#1056=CARTESIAN_POINT('',(32.64,-20.,20.));
#1057=CARTESIAN_POINT('Origin',(34.64,-20.,20.));
#1058=CARTESIAN_POINT('',(-2.,40.,20.));
#1059=CARTESIAN_POINT('Origin',(0.,40.,20.));
#1060=CARTESIAN_POINT('',(32.64,20.,20.));
#1061=CARTESIAN_POINT('Origin',(34.64,20.,20.));
#1062=CARTESIAN_POINT('',(-2.,-40.,20.));
#1063=CARTESIAN_POINT('Origin',(0.,-40.,20.));
#1064=CARTESIAN_POINT('',(23.98,-15.,20.));
#1065=CARTESIAN_POINT('Origin',(25.98,-15.,20.));
#1066=CARTESIAN_POINT('',(-27.98,15.,20.));
#1067=CARTESIAN_POINT('Origin',(-25.98,15.,20.));
#1068=CARTESIAN_POINT('',(5.,-17.32,20.));
#1069=CARTESIAN_POINT('Origin',(10.,-17.32,20.));
#1070=CARTESIAN_POINT('',(-36.64,-20.,20.));
#1071=CARTESIAN_POINT('Origin',(-34.64,-20.,20.));
#1072=CARTESIAN_POINT('',(-2.,-30.,20.));
#1073=CARTESIAN_POINT('Origin',(0.,-30.,20.));
#1074=CARTESIAN_POINT('',(-27.98,-15.,20.));
#1075=CARTESIAN_POINT('Origin',(-25.98,-15.,20.));
#1076=CARTESIAN_POINT('',(-36.64,20.,20.));
#1077=CARTESIAN_POINT('Origin',(-34.64,20.,20.));
#1078=CARTESIAN_POINT('',(-25.,0.,20.));
#1079=CARTESIAN_POINT('Origin',(-20.,0.,20.));
#1080=CARTESIAN_POINT('',(-2.,30.,20.));
#1081=CARTESIAN_POINT('Origin',(0.,30.,20.));
#1082=CARTESIAN_POINT('',(-5.,0.,20.));
#1083=CARTESIAN_POINT('Origin',(0.,0.,20.));
#1084=CARTESIAN_POINT('',(-15.,17.32,20.));
#1085=CARTESIAN_POINT('Origin',(-10.,17.32,20.));
#1086=CARTESIAN_POINT('',(-15.,-17.32,20.));
#1087=CARTESIAN_POINT('Origin',(-10.,-17.32,20.));
#1088=CARTESIAN_POINT('',(23.98,15.,20.));
#1089=CARTESIAN_POINT('Origin',(25.98,15.,20.));
#1090=CARTESIAN_POINT('Origin',(0.,0.,0.));
#1091=CARTESIAN_POINT('',(-46.2626329787234,4.69241833982591,0.));
#1092=CARTESIAN_POINT('Origin',(0.,0.,0.));
#1093=CARTESIAN_POINT('',(-46.2626329787234,4.69241833982582,7.5));
#1094=CARTESIAN_POINT('Origin',(23.5,40.7,7.5));
#1095=CARTESIAN_POINT('',(27.1966998111681,37.7172310672617,0.));
#1096=CARTESIAN_POINT('',(27.1966998111682,37.7172310672616,7.5));
#1097=CARTESIAN_POINT('',(19.0686126520462,42.4103526456244,0.));
#1098=CARTESIAN_POINT('Origin',(23.5,40.7,0.));
#1099=CARTESIAN_POINT('',(19.0686126520462,42.4103526456245,7.5));
#1100=CARTESIAN_POINT('Origin',(0.,0.,0.));
#1101=CARTESIAN_POINT('',(46.2626329787234,4.69241833982591,0.));
#1102=CARTESIAN_POINT('',(46.2626329787234,4.69241833982582,7.5));
#1103=CARTESIAN_POINT('Origin',(0.,0.,0.));
#1104=CARTESIAN_POINT('Origin',(0.,0.,0.));
#1105=CARTESIAN_POINT('Origin',(0.,0.,0.));
#1106=CARTESIAN_POINT('Origin',(0.,0.,0.));
#1107=CARTESIAN_POINT('',(46.2626329787234,-4.69241833982591,0.));
#1108=CARTESIAN_POINT('Origin',(47.,0.,0.));
#1109=CARTESIAN_POINT('',(27.1966998111681,-37.7172310672617,0.));
#1110=CARTESIAN_POINT('Origin',(0.,0.,0.));
#1111=CARTESIAN_POINT('',(19.0686126520462,-42.4103526456244,0.));
#1112=CARTESIAN_POINT('Origin',(23.5,-40.7,0.));
#1113=CARTESIAN_POINT('',(-19.0686126520462,-42.4103526456244,0.));
#1114=CARTESIAN_POINT('Origin',(0.,0.,0.));
#1115=CARTESIAN_POINT('',(-27.1966998111681,-37.7172310672617,0.));
#1116=CARTESIAN_POINT('Origin',(-23.5,-40.7,0.));
#1117=CARTESIAN_POINT('',(-46.2626329787234,-4.69241833982591,0.));
#1118=CARTESIAN_POINT('Origin',(0.,0.,0.));
#1119=CARTESIAN_POINT('Origin',(-47.,0.,0.));
#1120=CARTESIAN_POINT('',(5.,17.32,0.));
#1121=CARTESIAN_POINT('Origin',(10.,17.32,0.));
#1122=CARTESIAN_POINT('',(15.,-6.12323399573677E-16,0.));
#1123=CARTESIAN_POINT('Origin',(20.,0.,0.));
#1124=CARTESIAN_POINT('',(32.64,-20.,0.));
#1125=CARTESIAN_POINT('Origin',(34.64,-20.,0.));
#1126=CARTESIAN_POINT('',(-2.,40.,0.));
#1127=CARTESIAN_POINT('Origin',(0.,40.,0.));
#1128=CARTESIAN_POINT('',(32.64,20.,0.));
#1129=CARTESIAN_POINT('Origin',(34.64,20.,0.));
#1130=CARTESIAN_POINT('',(-2.,-40.,0.));
#1131=CARTESIAN_POINT('Origin',(0.,-40.,0.));
#1132=CARTESIAN_POINT('',(23.98,-15.,0.));
#1133=CARTESIAN_POINT('Origin',(25.98,-15.,0.));
#1134=CARTESIAN_POINT('',(-27.98,15.,0.));
#1135=CARTESIAN_POINT('Origin',(-25.98,15.,0.));
#1136=CARTESIAN_POINT('',(5.,-17.32,0.));
#1137=CARTESIAN_POINT('Origin',(10.,-17.32,0.));
#1138=CARTESIAN_POINT('',(-36.64,-20.,0.));
#1139=CARTESIAN_POINT('Origin',(-34.64,-20.,0.));
#1140=CARTESIAN_POINT('',(-2.,-30.,0.));
#1141=CARTESIAN_POINT('Origin',(0.,-30.,0.));
#1142=CARTESIAN_POINT('',(-27.98,-15.,0.));
#1143=CARTESIAN_POINT('Origin',(-25.98,-15.,0.));
#1144=CARTESIAN_POINT('',(-36.64,20.,0.));
#1145=CARTESIAN_POINT('Origin',(-34.64,20.,0.));
#1146=CARTESIAN_POINT('',(-25.,-6.12323399573677E-16,0.));
#1147=CARTESIAN_POINT('Origin',(-20.,0.,0.));
#1148=CARTESIAN_POINT('',(-2.,30.,0.));
#1149=CARTESIAN_POINT('Origin',(0.,30.,0.));
#1150=CARTESIAN_POINT('',(-5.,-6.12323399573677E-16,0.));
#1151=CARTESIAN_POINT('Origin',(0.,0.,0.));
#1152=CARTESIAN_POINT('',(-15.,17.32,0.));
#1153=CARTESIAN_POINT('Origin',(-10.,17.32,0.));
#1154=CARTESIAN_POINT('',(-15.,-17.32,0.));
#1155=CARTESIAN_POINT('Origin',(-10.,-17.32,0.));
#1156=CARTESIAN_POINT('',(23.98,15.,0.));
#1157=CARTESIAN_POINT('Origin',(25.98,15.,0.));
#1158=CARTESIAN_POINT('Origin',(-23.5,-40.7,7.5));
#1159=CARTESIAN_POINT('',(-27.1966998111682,-37.7172310672616,7.5));
#1160=CARTESIAN_POINT('',(-19.0686126520462,-42.4103526456245,7.5));
#1161=CARTESIAN_POINT('Origin',(0.,0.,0.));
#1162=CARTESIAN_POINT('',(-46.2626329787234,-4.69241833982582,7.5));
#1163=CARTESIAN_POINT('Origin',(-47.,0.,7.5));
#1164=CARTESIAN_POINT('Origin',(0.,0.,0.));
#1165=CARTESIAN_POINT('',(19.0686126520462,-42.4103526456245,7.5));
#1166=CARTESIAN_POINT('Origin',(23.5,-40.7,7.5));
#1167=CARTESIAN_POINT('',(27.1966998111682,-37.7172310672616,7.5));
#1168=CARTESIAN_POINT('Origin',(47.,0.,7.5));
#1169=CARTESIAN_POINT('',(46.2626329787234,-4.69241833982582,7.5));
#1170=CARTESIAN_POINT('Origin',(0.,0.,0.));
#1171=CARTESIAN_POINT('Origin',(10.,17.32,0.));
#1172=CARTESIAN_POINT('',(5.,17.32,0.));
#1173=CARTESIAN_POINT('Origin',(20.,0.,0.));
#1174=CARTESIAN_POINT('',(15.,-6.12323399573677E-16,0.));
#1175=CARTESIAN_POINT('Origin',(34.64,-20.,0.));
#1176=CARTESIAN_POINT('',(32.64,-20.,0.));
#1177=CARTESIAN_POINT('Origin',(0.,40.,0.));
#1178=CARTESIAN_POINT('',(-2.,40.,0.));
#1179=CARTESIAN_POINT('Origin',(34.64,20.,0.));
#1180=CARTESIAN_POINT('',(32.64,20.,0.));
#1181=CARTESIAN_POINT('Origin',(0.,-40.,0.));
#1182=CARTESIAN_POINT('',(-2.,-40.,0.));
#1183=CARTESIAN_POINT('Origin',(25.98,-15.,0.));
#1184=CARTESIAN_POINT('',(23.98,-15.,0.));
#1185=CARTESIAN_POINT('Origin',(-25.98,15.,0.));
#1186=CARTESIAN_POINT('',(-27.98,15.,0.));
#1187=CARTESIAN_POINT('Origin',(10.,-17.32,0.));
#1188=CARTESIAN_POINT('',(5.,-17.32,0.));
#1189=CARTESIAN_POINT('Origin',(-34.64,-20.,0.));
#1190=CARTESIAN_POINT('',(-36.64,-20.,0.));
#1191=CARTESIAN_POINT('Origin',(0.,-30.,0.));
#1192=CARTESIAN_POINT('',(-2.,-30.,0.));
#1193=CARTESIAN_POINT('Origin',(-25.98,-15.,0.));
#1194=CARTESIAN_POINT('',(-27.98,-15.,0.));
#1195=CARTESIAN_POINT('Origin',(-34.64,20.,0.));
#1196=CARTESIAN_POINT('',(-36.64,20.,0.));
#1197=CARTESIAN_POINT('Origin',(-20.,0.,0.));
#1198=CARTESIAN_POINT('',(-25.,-6.12323399573677E-16,0.));
#1199=CARTESIAN_POINT('Origin',(0.,30.,0.));
#1200=CARTESIAN_POINT('',(-2.,30.,0.));
#1201=CARTESIAN_POINT('Origin',(0.,0.,0.));
#1202=CARTESIAN_POINT('',(-5.,-6.12323399573677E-16,0.));
#1203=CARTESIAN_POINT('Origin',(-10.,17.32,0.));
#1204=CARTESIAN_POINT('',(-15.,17.32,0.));
#1205=CARTESIAN_POINT('Origin',(-10.,-17.32,0.));
#1206=CARTESIAN_POINT('',(-15.,-17.32,0.));
#1207=CARTESIAN_POINT('Origin',(25.98,15.,0.));
#1208=CARTESIAN_POINT('',(23.98,15.,0.));
#1209=UNCERTAINTY_MEASURE_WITH_UNIT(LENGTH_MEASURE(0.01),#1213,
'DISTANCE_ACCURACY_VALUE',
'Maximum model space distance between geometric entities at asserted c
onnectivities');
#1210=UNCERTAINTY_MEASURE_WITH_UNIT(LENGTH_MEASURE(0.01),#1213,
'DISTANCE_ACCURACY_VALUE',
'Maximum model space distance between geometric entities at asserted c
onnectivities');
#1211=(
GEOMETRIC_REPRESENTATION_CONTEXT(3)
GLOBAL_UNCERTAINTY_ASSIGNED_CONTEXT((#1209))
GLOBAL_UNIT_ASSIGNED_CONTEXT((#1213,#1215,#1216))
REPRESENTATION_CONTEXT('','3D')
);
#1212=(
GEOMETRIC_REPRESENTATION_CONTEXT(3)
GLOBAL_UNCERTAINTY_ASSIGNED_CONTEXT((#1210))
GLOBAL_UNIT_ASSIGNED_CONTEXT((#1213,#1215,#1216))
REPRESENTATION_CONTEXT('','3D')
);
#1213=(
LENGTH_UNIT()
NAMED_UNIT(*)
SI_UNIT(.MILLI.,.METRE.)
);
#1214=(
LENGTH_UNIT()
NAMED_UNIT(*)
SI_UNIT($,.METRE.)
);
#1215=(
NAMED_UNIT(*)
PLANE_ANGLE_UNIT()
SI_UNIT($,.RADIAN.)
);
#1216=(
NAMED_UNIT(*)
SI_UNIT($,.STERADIAN.)
SOLID_ANGLE_UNIT()
);
#1217=SHAPE_DEFINITION_REPRESENTATION(#1218,#1219);
#1218=PRODUCT_DEFINITION_SHAPE('',$,#1221);
#1219=SHAPE_REPRESENTATION('',(#701),#1211);
#1220=PRODUCT_DEFINITION_CONTEXT('part definition',#1225,'design');
#1221=PRODUCT_DEFINITION('2026-08-20-16-03-45-338','cavity_casette',#1222,
#1220);
#1222=PRODUCT_DEFINITION_FORMATION('',$,#1227);
#1223=PRODUCT_RELATED_PRODUCT_CATEGORY('cavity_casette',
'cavity_casette',(#1227));
#1224=APPLICATION_PROTOCOL_DEFINITION('international standard',
'automotive_design',2009,#1225);
#1225=APPLICATION_CONTEXT(
'Core Data for Automotive Mechanical Design Process');
#1226=PRODUCT_CONTEXT('part definition',#1225,'mechanical');
#1227=PRODUCT('2026-08-20-16-03-45-338','cavity_casette',$,(#1226));
#1228=PRESENTATION_STYLE_ASSIGNMENT((#1229));
#1229=SURFACE_STYLE_USAGE(.BOTH.,#1230);
#1230=SURFACE_SIDE_STYLE('',(#1231));
#1231=SURFACE_STYLE_FILL_AREA(#1232);
#1232=FILL_AREA_STYLE('Steel - Satin',(#1233));
#1233=FILL_AREA_STYLE_COLOUR('Steel - Satin',#1234);
#1234=COLOUR_RGB('Steel - Satin',0.627450980392157,0.627450980392157,0.627450980392157);
ENDSEC;
END-ISO-10303-21;
