ISO-10303-21;
HEADER;
/* Generated by software containing ST-Developer
 * from STEP Tools, Inc. (www.steptools.com) 
 */

FILE_DESCRIPTION(
/* description */ (''),
/* implementation_level */ '2;1');

FILE_NAME(
/* name */ 'cover_casette.step',
/* time_stamp */ '2026-09-23T13:10:47+05:30',
/* author */ (''),
/* organization */ (''),
/* preprocessor_version */ 'ST-DEVELOPER v20.1',
/* originating_system */ 'Autodesk Translation Framework v15.8.0.0',
/* authorisation */ '');

FILE_SCHEMA (('AUTOMOTIVE_DESIGN { 1 0 10303 214 3 1 1 }'));
ENDSEC;

DATA;
#10=MECHANICAL_DESIGN_GEOMETRIC_PRESENTATION_REPRESENTATION('',(#13),#642);
#11=SHAPE_REPRESENTATION_RELATIONSHIP('SRR','None',#649,#12);
#12=ADVANCED_BREP_SHAPE_REPRESENTATION('',(#14),#641);
#13=STYLED_ITEM('',(#658),#14);
#14=MANIFOLD_SOLID_BREP('Body1',#348);
#15=LINE('',#626,#22);
#16=LINE('',#628,#23);
#17=LINE('',#630,#24);
#18=LINE('',#632,#25);
#19=LINE('',#634,#26);
#20=LINE('',#636,#27);
#21=LINE('',#638,#28);
#22=VECTOR('',#526,2.);
#23=VECTOR('',#529,2.);
#24=VECTOR('',#532,2.);
#25=VECTOR('',#535,2.);
#26=VECTOR('',#538,2.);
#27=VECTOR('',#541,2.);
#28=VECTOR('',#544,34.5);
#29=CYLINDRICAL_SURFACE('',#413,2.);
#30=CYLINDRICAL_SURFACE('',#414,2.);
#31=CYLINDRICAL_SURFACE('',#415,2.);
#32=CYLINDRICAL_SURFACE('',#416,2.);
#33=CYLINDRICAL_SURFACE('',#417,2.);
#34=CYLINDRICAL_SURFACE('',#418,2.);
#35=CYLINDRICAL_SURFACE('',#419,34.5);
#36=FACE_BOUND('',#90,.T.);
#37=FACE_BOUND('',#91,.T.);
#38=FACE_BOUND('',#92,.T.);
#39=FACE_BOUND('',#93,.T.);
#40=FACE_BOUND('',#94,.T.);
#41=FACE_BOUND('',#95,.T.);
#42=FACE_BOUND('',#96,.T.);
#43=FACE_BOUND('',#97,.T.);
#44=FACE_BOUND('',#98,.T.);
#45=FACE_BOUND('',#99,.T.);
#46=FACE_BOUND('',#100,.T.);
#47=FACE_BOUND('',#101,.T.);
#48=FACE_BOUND('',#102,.T.);
#49=FACE_BOUND('',#116,.T.);
#50=FACE_BOUND('',#117,.T.);
#51=FACE_BOUND('',#118,.T.);
#52=FACE_BOUND('',#119,.T.);
#53=FACE_BOUND('',#120,.T.);
#54=FACE_BOUND('',#121,.T.);
#55=PLANE('',#366);
#56=PLANE('',#367);
#57=PLANE('',#384);
#58=PLANE('',#388);
#59=PLANE('',#392);
#60=PLANE('',#396);
#61=PLANE('',#400);
#62=PLANE('',#404);
#63=PLANE('',#405);
#64=FACE_OUTER_BOUND('',#87,.T.);
#65=FACE_OUTER_BOUND('',#88,.T.);
#66=FACE_OUTER_BOUND('',#89,.T.);
#67=FACE_OUTER_BOUND('',#103,.T.);
#68=FACE_OUTER_BOUND('',#104,.T.);
#69=FACE_OUTER_BOUND('',#105,.T.);
#70=FACE_OUTER_BOUND('',#106,.T.);
#71=FACE_OUTER_BOUND('',#107,.T.);
#72=FACE_OUTER_BOUND('',#108,.T.);
#73=FACE_OUTER_BOUND('',#109,.T.);
#74=FACE_OUTER_BOUND('',#110,.T.);
#75=FACE_OUTER_BOUND('',#111,.T.);
#76=FACE_OUTER_BOUND('',#112,.T.);
#77=FACE_OUTER_BOUND('',#113,.T.);
#78=FACE_OUTER_BOUND('',#114,.T.);
#79=FACE_OUTER_BOUND('',#115,.T.);
#80=FACE_OUTER_BOUND('',#122,.T.);
#81=FACE_OUTER_BOUND('',#123,.T.);
#82=FACE_OUTER_BOUND('',#124,.T.);
#83=FACE_OUTER_BOUND('',#125,.T.);
#84=FACE_OUTER_BOUND('',#126,.T.);
#85=FACE_OUTER_BOUND('',#127,.T.);
#86=FACE_OUTER_BOUND('',#128,.T.);
#87=EDGE_LOOP('',(#234,#235,#236,#237));
#88=EDGE_LOOP('',(#238));
#89=EDGE_LOOP('',(#239));
#90=EDGE_LOOP('',(#240));
#91=EDGE_LOOP('',(#241));
#92=EDGE_LOOP('',(#242));
#93=EDGE_LOOP('',(#243));
#94=EDGE_LOOP('',(#244));
#95=EDGE_LOOP('',(#245));
#96=EDGE_LOOP('',(#246));
#97=EDGE_LOOP('',(#247));
#98=EDGE_LOOP('',(#248));
#99=EDGE_LOOP('',(#249));
#100=EDGE_LOOP('',(#250));
#101=EDGE_LOOP('',(#251));
#102=EDGE_LOOP('',(#252));
#103=EDGE_LOOP('',(#253,#254,#255,#256));
#104=EDGE_LOOP('',(#257));
#105=EDGE_LOOP('',(#258,#259,#260,#261));
#106=EDGE_LOOP('',(#262));
#107=EDGE_LOOP('',(#263,#264,#265,#266));
#108=EDGE_LOOP('',(#267));
#109=EDGE_LOOP('',(#268,#269,#270,#271));
#110=EDGE_LOOP('',(#272));
#111=EDGE_LOOP('',(#273,#274,#275,#276));
#112=EDGE_LOOP('',(#277));
#113=EDGE_LOOP('',(#278,#279,#280,#281));
#114=EDGE_LOOP('',(#282));
#115=EDGE_LOOP('',(#283));
#116=EDGE_LOOP('',(#284));
#117=EDGE_LOOP('',(#285));
#118=EDGE_LOOP('',(#286));
#119=EDGE_LOOP('',(#287));
#120=EDGE_LOOP('',(#288));
#121=EDGE_LOOP('',(#289));
#122=EDGE_LOOP('',(#290,#291,#292,#293));
#123=EDGE_LOOP('',(#294,#295,#296,#297));
#124=EDGE_LOOP('',(#298,#299,#300,#301));
#125=EDGE_LOOP('',(#302,#303,#304,#305));
#126=EDGE_LOOP('',(#306,#307,#308,#309));
#127=EDGE_LOOP('',(#310,#311,#312,#313));
#128=EDGE_LOOP('',(#314,#315,#316,#317));
#129=CIRCLE('',#363,6.);
#130=CIRCLE('',#364,1.);
#131=CIRCLE('',#365,8.);
#132=CIRCLE('',#368,34.5);
#133=CIRCLE('',#369,8.);
#134=CIRCLE('',#370,8.);
#135=CIRCLE('',#371,8.00000050663948);
#136=CIRCLE('',#372,2.);
#137=CIRCLE('',#373,2.);
#138=CIRCLE('',#374,2.);
#139=CIRCLE('',#375,2.);
#140=CIRCLE('',#376,2.);
#141=CIRCLE('',#377,2.);
#142=CIRCLE('',#378,8.00000011920929);
#143=CIRCLE('',#379,8.00000050663948);
#144=CIRCLE('',#380,8.);
#145=CIRCLE('',#382,6.);
#146=CIRCLE('',#383,1.);
#147=CIRCLE('',#386,6.);
#148=CIRCLE('',#387,1.);
#149=CIRCLE('',#390,6.);
#150=CIRCLE('',#391,1.);
#151=CIRCLE('',#394,1.00000020861626);
#152=CIRCLE('',#395,6.00000008940697);
#153=CIRCLE('',#398,1.00000020861626);
#154=CIRCLE('',#399,6.00000008940697);
#155=CIRCLE('',#402,1.00000001490116);
#156=CIRCLE('',#403,6.00000008940697);
#157=CIRCLE('',#406,34.5);
#158=CIRCLE('',#407,2.);
#159=CIRCLE('',#408,2.);
#160=CIRCLE('',#409,2.);
#161=CIRCLE('',#410,2.);
#162=CIRCLE('',#411,2.);
#163=CIRCLE('',#412,2.);
#164=VERTEX_POINT('',#547);
#165=VERTEX_POINT('',#549);
#166=VERTEX_POINT('',#554);
#167=VERTEX_POINT('',#556);
#168=VERTEX_POINT('',#558);
#169=VERTEX_POINT('',#560);
#170=VERTEX_POINT('',#562);
#171=VERTEX_POINT('',#564);
#172=VERTEX_POINT('',#566);
#173=VERTEX_POINT('',#568);
#174=VERTEX_POINT('',#570);
#175=VERTEX_POINT('',#572);
#176=VERTEX_POINT('',#574);
#177=VERTEX_POINT('',#576);
#178=VERTEX_POINT('',#578);
#179=VERTEX_POINT('',#581);
#180=VERTEX_POINT('',#586);
#181=VERTEX_POINT('',#591);
#182=VERTEX_POINT('',#596);
#183=VERTEX_POINT('',#601);
#184=VERTEX_POINT('',#606);
#185=VERTEX_POINT('',#611);
#186=VERTEX_POINT('',#613);
#187=VERTEX_POINT('',#615);
#188=VERTEX_POINT('',#617);
#189=VERTEX_POINT('',#619);
#190=VERTEX_POINT('',#621);
#191=VERTEX_POINT('',#623);
#192=EDGE_CURVE('',#164,#164,#129,.T.);
#193=EDGE_CURVE('',#164,#165,#130,.T.);
#194=EDGE_CURVE('',#165,#165,#131,.T.);
#195=EDGE_CURVE('',#166,#166,#132,.T.);
#196=EDGE_CURVE('',#167,#167,#133,.T.);
#197=EDGE_CURVE('',#168,#168,#134,.T.);
#198=EDGE_CURVE('',#169,#169,#135,.T.);
#199=EDGE_CURVE('',#170,#170,#136,.T.);
#200=EDGE_CURVE('',#171,#171,#137,.T.);
#201=EDGE_CURVE('',#172,#172,#138,.T.);
#202=EDGE_CURVE('',#173,#173,#139,.T.);
#203=EDGE_CURVE('',#174,#174,#140,.T.);
#204=EDGE_CURVE('',#175,#175,#141,.T.);
#205=EDGE_CURVE('',#176,#176,#142,.T.);
#206=EDGE_CURVE('',#177,#177,#143,.T.);
#207=EDGE_CURVE('',#178,#178,#144,.T.);
#208=EDGE_CURVE('',#179,#179,#145,.T.);
#209=EDGE_CURVE('',#179,#167,#146,.T.);
#210=EDGE_CURVE('',#180,#180,#147,.T.);
#211=EDGE_CURVE('',#180,#178,#148,.T.);
#212=EDGE_CURVE('',#181,#181,#149,.T.);
#213=EDGE_CURVE('',#181,#168,#150,.T.);
#214=EDGE_CURVE('',#177,#182,#151,.T.);
#215=EDGE_CURVE('',#182,#182,#152,.T.);
#216=EDGE_CURVE('',#169,#183,#153,.T.);
#217=EDGE_CURVE('',#183,#183,#154,.T.);
#218=EDGE_CURVE('',#176,#184,#155,.T.);
#219=EDGE_CURVE('',#184,#184,#156,.T.);
#220=EDGE_CURVE('',#185,#185,#157,.T.);
#221=EDGE_CURVE('',#186,#186,#158,.T.);
#222=EDGE_CURVE('',#187,#187,#159,.T.);
#223=EDGE_CURVE('',#188,#188,#160,.T.);
#224=EDGE_CURVE('',#189,#189,#161,.T.);
#225=EDGE_CURVE('',#190,#190,#162,.T.);
#226=EDGE_CURVE('',#191,#191,#163,.T.);
#227=EDGE_CURVE('',#191,#170,#15,.T.);
#228=EDGE_CURVE('',#190,#171,#16,.T.);
#229=EDGE_CURVE('',#189,#172,#17,.T.);
#230=EDGE_CURVE('',#188,#173,#18,.T.);
#231=EDGE_CURVE('',#187,#174,#19,.T.);
#232=EDGE_CURVE('',#186,#175,#20,.T.);
#233=EDGE_CURVE('',#185,#166,#21,.T.);
#234=ORIENTED_EDGE('',*,*,#192,.T.);
#235=ORIENTED_EDGE('',*,*,#193,.T.);
#236=ORIENTED_EDGE('',*,*,#194,.T.);
#237=ORIENTED_EDGE('',*,*,#193,.F.);
#238=ORIENTED_EDGE('',*,*,#192,.F.);
#239=ORIENTED_EDGE('',*,*,#195,.F.);
#240=ORIENTED_EDGE('',*,*,#196,.F.);
#241=ORIENTED_EDGE('',*,*,#197,.T.);
#242=ORIENTED_EDGE('',*,*,#198,.T.);
#243=ORIENTED_EDGE('',*,*,#199,.F.);
#244=ORIENTED_EDGE('',*,*,#200,.F.);
#245=ORIENTED_EDGE('',*,*,#201,.F.);
#246=ORIENTED_EDGE('',*,*,#202,.F.);
#247=ORIENTED_EDGE('',*,*,#203,.F.);
#248=ORIENTED_EDGE('',*,*,#204,.F.);
#249=ORIENTED_EDGE('',*,*,#205,.T.);
#250=ORIENTED_EDGE('',*,*,#206,.F.);
#251=ORIENTED_EDGE('',*,*,#207,.F.);
#252=ORIENTED_EDGE('',*,*,#194,.F.);
#253=ORIENTED_EDGE('',*,*,#208,.T.);
#254=ORIENTED_EDGE('',*,*,#209,.T.);
#255=ORIENTED_EDGE('',*,*,#196,.T.);
#256=ORIENTED_EDGE('',*,*,#209,.F.);
#257=ORIENTED_EDGE('',*,*,#208,.F.);
#258=ORIENTED_EDGE('',*,*,#210,.T.);
#259=ORIENTED_EDGE('',*,*,#211,.T.);
#260=ORIENTED_EDGE('',*,*,#207,.T.);
#261=ORIENTED_EDGE('',*,*,#211,.F.);
#262=ORIENTED_EDGE('',*,*,#210,.F.);
#263=ORIENTED_EDGE('',*,*,#212,.F.);
#264=ORIENTED_EDGE('',*,*,#213,.T.);
#265=ORIENTED_EDGE('',*,*,#197,.F.);
#266=ORIENTED_EDGE('',*,*,#213,.F.);
#267=ORIENTED_EDGE('',*,*,#212,.T.);
#268=ORIENTED_EDGE('',*,*,#206,.T.);
#269=ORIENTED_EDGE('',*,*,#214,.T.);
#270=ORIENTED_EDGE('',*,*,#215,.T.);
#271=ORIENTED_EDGE('',*,*,#214,.F.);
#272=ORIENTED_EDGE('',*,*,#215,.F.);
#273=ORIENTED_EDGE('',*,*,#198,.F.);
#274=ORIENTED_EDGE('',*,*,#216,.T.);
#275=ORIENTED_EDGE('',*,*,#217,.F.);
#276=ORIENTED_EDGE('',*,*,#216,.F.);
#277=ORIENTED_EDGE('',*,*,#217,.T.);
#278=ORIENTED_EDGE('',*,*,#205,.F.);
#279=ORIENTED_EDGE('',*,*,#218,.T.);
#280=ORIENTED_EDGE('',*,*,#219,.F.);
#281=ORIENTED_EDGE('',*,*,#218,.F.);
#282=ORIENTED_EDGE('',*,*,#219,.T.);
#283=ORIENTED_EDGE('',*,*,#220,.T.);
#284=ORIENTED_EDGE('',*,*,#221,.T.);
#285=ORIENTED_EDGE('',*,*,#222,.T.);
#286=ORIENTED_EDGE('',*,*,#223,.T.);
#287=ORIENTED_EDGE('',*,*,#224,.T.);
#288=ORIENTED_EDGE('',*,*,#225,.T.);
#289=ORIENTED_EDGE('',*,*,#226,.T.);
#290=ORIENTED_EDGE('',*,*,#226,.F.);
#291=ORIENTED_EDGE('',*,*,#227,.T.);
#292=ORIENTED_EDGE('',*,*,#199,.T.);
#293=ORIENTED_EDGE('',*,*,#227,.F.);
#294=ORIENTED_EDGE('',*,*,#225,.F.);
#295=ORIENTED_EDGE('',*,*,#228,.T.);
#296=ORIENTED_EDGE('',*,*,#200,.T.);
#297=ORIENTED_EDGE('',*,*,#228,.F.);
#298=ORIENTED_EDGE('',*,*,#224,.F.);
#299=ORIENTED_EDGE('',*,*,#229,.T.);
#300=ORIENTED_EDGE('',*,*,#201,.T.);
#301=ORIENTED_EDGE('',*,*,#229,.F.);
#302=ORIENTED_EDGE('',*,*,#223,.F.);
#303=ORIENTED_EDGE('',*,*,#230,.T.);
#304=ORIENTED_EDGE('',*,*,#202,.T.);
#305=ORIENTED_EDGE('',*,*,#230,.F.);
#306=ORIENTED_EDGE('',*,*,#222,.F.);
#307=ORIENTED_EDGE('',*,*,#231,.T.);
#308=ORIENTED_EDGE('',*,*,#203,.T.);
#309=ORIENTED_EDGE('',*,*,#231,.F.);
#310=ORIENTED_EDGE('',*,*,#221,.F.);
#311=ORIENTED_EDGE('',*,*,#232,.T.);
#312=ORIENTED_EDGE('',*,*,#204,.T.);
#313=ORIENTED_EDGE('',*,*,#232,.F.);
#314=ORIENTED_EDGE('',*,*,#220,.F.);
#315=ORIENTED_EDGE('',*,*,#233,.T.);
#316=ORIENTED_EDGE('',*,*,#195,.T.);
#317=ORIENTED_EDGE('',*,*,#233,.F.);
#318=TOROIDAL_SURFACE('',#362,7.,1.);
#319=TOROIDAL_SURFACE('',#381,7.,1.);
#320=TOROIDAL_SURFACE('',#385,7.,1.);
#321=TOROIDAL_SURFACE('',#389,7.,1.);
#322=TOROIDAL_SURFACE('',#393,7.00000029802322,1.00000020861626);
#323=TOROIDAL_SURFACE('',#397,7.00000029802322,1.00000020861626);
#324=TOROIDAL_SURFACE('',#401,7.00000010430813,1.00000001490116);
#325=ADVANCED_FACE('',(#64),#318,.F.);
#326=ADVANCED_FACE('',(#65),#55,.F.);
#327=ADVANCED_FACE('',(#66,#36,#37,#38,#39,#40,#41,#42,#43,#44,#45,#46,
#47,#48),#56,.F.);
#328=ADVANCED_FACE('',(#67),#319,.F.);
#329=ADVANCED_FACE('',(#68),#57,.F.);
#330=ADVANCED_FACE('',(#69),#320,.F.);
#331=ADVANCED_FACE('',(#70),#58,.F.);
#332=ADVANCED_FACE('',(#71),#321,.F.);
#333=ADVANCED_FACE('',(#72),#59,.F.);
#334=ADVANCED_FACE('',(#73),#322,.F.);
#335=ADVANCED_FACE('',(#74),#60,.F.);
#336=ADVANCED_FACE('',(#75),#323,.F.);
#337=ADVANCED_FACE('',(#76),#61,.F.);
#338=ADVANCED_FACE('',(#77),#324,.F.);
#339=ADVANCED_FACE('',(#78),#62,.F.);
#340=ADVANCED_FACE('',(#79,#49,#50,#51,#52,#53,#54),#63,.T.);
#341=ADVANCED_FACE('',(#80),#29,.F.);
#342=ADVANCED_FACE('',(#81),#30,.F.);
#343=ADVANCED_FACE('',(#82),#31,.F.);
#344=ADVANCED_FACE('',(#83),#32,.F.);
#345=ADVANCED_FACE('',(#84),#33,.F.);
#346=ADVANCED_FACE('',(#85),#34,.F.);
#347=ADVANCED_FACE('',(#86),#35,.T.);
#348=CLOSED_SHELL('',(#325,#326,#327,#328,#329,#330,#331,#332,#333,#334,
#335,#336,#337,#338,#339,#340,#341,#342,#343,#344,#345,#346,#347));
#349=DERIVED_UNIT_ELEMENT(#351,1.);
#350=DERIVED_UNIT_ELEMENT(#644,-3.);
#351=(
MASS_UNIT()
NAMED_UNIT(*)
SI_UNIT(.KILO.,.GRAM.)
);
#352=DERIVED_UNIT((#349,#350));
#353=MEASURE_REPRESENTATION_ITEM('density measure',
POSITIVE_RATIO_MEASURE(7850.),#352);
#354=PROPERTY_DEFINITION_REPRESENTATION(#359,#356);
#355=PROPERTY_DEFINITION_REPRESENTATION(#360,#357);
#356=REPRESENTATION('material name',(#358),#641);
#357=REPRESENTATION('density',(#353),#641);
#358=DESCRIPTIVE_REPRESENTATION_ITEM('Steel','Steel');
#359=PROPERTY_DEFINITION('material property','material name',#651);
#360=PROPERTY_DEFINITION('material property','density of part',#651);
#361=AXIS2_PLACEMENT_3D('',#545,#420,#421);
#362=AXIS2_PLACEMENT_3D('',#546,#422,#423);
#363=AXIS2_PLACEMENT_3D('',#548,#424,#425);
#364=AXIS2_PLACEMENT_3D('',#550,#426,#427);
#365=AXIS2_PLACEMENT_3D('',#551,#428,#429);
#366=AXIS2_PLACEMENT_3D('',#552,#430,#431);
#367=AXIS2_PLACEMENT_3D('',#553,#432,#433);
#368=AXIS2_PLACEMENT_3D('',#555,#434,#435);
#369=AXIS2_PLACEMENT_3D('',#557,#436,#437);
#370=AXIS2_PLACEMENT_3D('',#559,#438,#439);
#371=AXIS2_PLACEMENT_3D('',#561,#440,#441);
#372=AXIS2_PLACEMENT_3D('',#563,#442,#443);
#373=AXIS2_PLACEMENT_3D('',#565,#444,#445);
#374=AXIS2_PLACEMENT_3D('',#567,#446,#447);
#375=AXIS2_PLACEMENT_3D('',#569,#448,#449);
#376=AXIS2_PLACEMENT_3D('',#571,#450,#451);
#377=AXIS2_PLACEMENT_3D('',#573,#452,#453);
#378=AXIS2_PLACEMENT_3D('',#575,#454,#455);
#379=AXIS2_PLACEMENT_3D('',#577,#456,#457);
#380=AXIS2_PLACEMENT_3D('',#579,#458,#459);
#381=AXIS2_PLACEMENT_3D('',#580,#460,#461);
#382=AXIS2_PLACEMENT_3D('',#582,#462,#463);
#383=AXIS2_PLACEMENT_3D('',#583,#464,#465);
#384=AXIS2_PLACEMENT_3D('',#584,#466,#467);
#385=AXIS2_PLACEMENT_3D('',#585,#468,#469);
#386=AXIS2_PLACEMENT_3D('',#587,#470,#471);
#387=AXIS2_PLACEMENT_3D('',#588,#472,#473);
#388=AXIS2_PLACEMENT_3D('',#589,#474,#475);
#389=AXIS2_PLACEMENT_3D('',#590,#476,#477);
#390=AXIS2_PLACEMENT_3D('',#592,#478,#479);
#391=AXIS2_PLACEMENT_3D('',#593,#480,#481);
#392=AXIS2_PLACEMENT_3D('',#594,#482,#483);
#393=AXIS2_PLACEMENT_3D('',#595,#484,#485);
#394=AXIS2_PLACEMENT_3D('',#597,#486,#487);
#395=AXIS2_PLACEMENT_3D('',#598,#488,#489);
#396=AXIS2_PLACEMENT_3D('',#599,#490,#491);
#397=AXIS2_PLACEMENT_3D('',#600,#492,#493);
#398=AXIS2_PLACEMENT_3D('',#602,#494,#495);
#399=AXIS2_PLACEMENT_3D('',#603,#496,#497);
#400=AXIS2_PLACEMENT_3D('',#604,#498,#499);
#401=AXIS2_PLACEMENT_3D('',#605,#500,#501);
#402=AXIS2_PLACEMENT_3D('',#607,#502,#503);
#403=AXIS2_PLACEMENT_3D('',#608,#504,#505);
#404=AXIS2_PLACEMENT_3D('',#609,#506,#507);
#405=AXIS2_PLACEMENT_3D('',#610,#508,#509);
#406=AXIS2_PLACEMENT_3D('',#612,#510,#511);
#407=AXIS2_PLACEMENT_3D('',#614,#512,#513);
#408=AXIS2_PLACEMENT_3D('',#616,#514,#515);
#409=AXIS2_PLACEMENT_3D('',#618,#516,#517);
#410=AXIS2_PLACEMENT_3D('',#620,#518,#519);
#411=AXIS2_PLACEMENT_3D('',#622,#520,#521);
#412=AXIS2_PLACEMENT_3D('',#624,#522,#523);
#413=AXIS2_PLACEMENT_3D('',#625,#524,#525);
#414=AXIS2_PLACEMENT_3D('',#627,#527,#528);
#415=AXIS2_PLACEMENT_3D('',#629,#530,#531);
#416=AXIS2_PLACEMENT_3D('',#631,#533,#534);
#417=AXIS2_PLACEMENT_3D('',#633,#536,#537);
#418=AXIS2_PLACEMENT_3D('',#635,#539,#540);
#419=AXIS2_PLACEMENT_3D('',#637,#542,#543);
#420=DIRECTION('axis',(0.,0.,1.));
#421=DIRECTION('refdir',(1.,0.,0.));
#422=DIRECTION('center_axis',(0.,0.,-1.));
#423=DIRECTION('ref_axis',(1.,0.,0.));
#424=DIRECTION('center_axis',(0.,0.,1.));
#425=DIRECTION('ref_axis',(-1.,0.,0.));
#426=DIRECTION('center_axis',(0.,-1.,0.));
#427=DIRECTION('ref_axis',(-1.,0.,0.));
#428=DIRECTION('center_axis',(0.,0.,-1.));
#429=DIRECTION('ref_axis',(-1.,0.,0.));
#430=DIRECTION('center_axis',(0.,0.,1.));
#431=DIRECTION('ref_axis',(1.,0.,0.));
#432=DIRECTION('center_axis',(0.,0.,1.));
#433=DIRECTION('ref_axis',(1.,0.,0.));
#434=DIRECTION('center_axis',(0.,0.,1.));
#435=DIRECTION('ref_axis',(1.,0.,0.));
#436=DIRECTION('center_axis',(0.,0.,-1.));
#437=DIRECTION('ref_axis',(-1.,0.,0.));
#438=DIRECTION('center_axis',(0.,0.,1.));
#439=DIRECTION('ref_axis',(-1.,0.,0.));
#440=DIRECTION('center_axis',(0.,0.,1.));
#441=DIRECTION('ref_axis',(1.,0.,0.));
#442=DIRECTION('center_axis',(0.,0.,-1.));
#443=DIRECTION('ref_axis',(1.,0.,0.));
#444=DIRECTION('center_axis',(0.,0.,-1.));
#445=DIRECTION('ref_axis',(1.,0.,0.));
#446=DIRECTION('center_axis',(0.,0.,-1.));
#447=DIRECTION('ref_axis',(1.,0.,0.));
#448=DIRECTION('center_axis',(0.,0.,-1.));
#449=DIRECTION('ref_axis',(1.,0.,0.));
#450=DIRECTION('center_axis',(0.,0.,-1.));
#451=DIRECTION('ref_axis',(1.,0.,0.));
#452=DIRECTION('center_axis',(0.,0.,-1.));
#453=DIRECTION('ref_axis',(1.,0.,0.));
#454=DIRECTION('center_axis',(0.,0.,1.));
#455=DIRECTION('ref_axis',(1.,0.,0.));
#456=DIRECTION('center_axis',(0.,0.,-1.));
#457=DIRECTION('ref_axis',(1.,0.,0.));
#458=DIRECTION('center_axis',(0.,0.,-1.));
#459=DIRECTION('ref_axis',(-1.,0.,0.));
#460=DIRECTION('center_axis',(0.,0.,-1.));
#461=DIRECTION('ref_axis',(-1.,0.,0.));
#462=DIRECTION('center_axis',(0.,0.,1.));
#463=DIRECTION('ref_axis',(-1.,0.,0.));
#464=DIRECTION('center_axis',(0.,1.,0.));
#465=DIRECTION('ref_axis',(1.,0.,0.));
#466=DIRECTION('center_axis',(0.,0.,1.));
#467=DIRECTION('ref_axis',(1.,0.,0.));
#468=DIRECTION('center_axis',(0.,0.,-1.));
#469=DIRECTION('ref_axis',(1.,0.,0.));
#470=DIRECTION('center_axis',(0.,0.,1.));
#471=DIRECTION('ref_axis',(-1.,0.,0.));
#472=DIRECTION('center_axis',(0.,-1.,0.));
#473=DIRECTION('ref_axis',(-1.,0.,0.));
#474=DIRECTION('center_axis',(0.,0.,1.));
#475=DIRECTION('ref_axis',(1.,0.,0.));
#476=DIRECTION('center_axis',(0.,0.,-1.));
#477=DIRECTION('ref_axis',(-1.,0.,0.));
#478=DIRECTION('center_axis',(0.,0.,-1.));
#479=DIRECTION('ref_axis',(-1.,0.,0.));
#480=DIRECTION('center_axis',(0.,1.,0.));
#481=DIRECTION('ref_axis',(1.,0.,0.));
#482=DIRECTION('center_axis',(0.,0.,1.));
#483=DIRECTION('ref_axis',(1.,0.,0.));
#484=DIRECTION('center_axis',(0.,0.,1.));
#485=DIRECTION('ref_axis',(-1.,0.,0.));
#486=DIRECTION('center_axis',(-1.22464679914735E-16,-1.,0.));
#487=DIRECTION('ref_axis',(1.,-1.22464679914735E-16,0.));
#488=DIRECTION('center_axis',(0.,0.,1.));
#489=DIRECTION('ref_axis',(1.,0.,0.));
#490=DIRECTION('center_axis',(0.,0.,1.));
#491=DIRECTION('ref_axis',(1.,0.,0.));
#492=DIRECTION('center_axis',(0.,0.,1.));
#493=DIRECTION('ref_axis',(1.,0.,0.));
#494=DIRECTION('center_axis',(-1.22464679914735E-16,1.,0.));
#495=DIRECTION('ref_axis',(-1.,-1.22464679914735E-16,0.));
#496=DIRECTION('center_axis',(0.,0.,-1.));
#497=DIRECTION('ref_axis',(1.,0.,0.));
#498=DIRECTION('center_axis',(0.,0.,1.));
#499=DIRECTION('ref_axis',(1.,0.,0.));
#500=DIRECTION('center_axis',(0.,0.,1.));
#501=DIRECTION('ref_axis',(1.,0.,0.));
#502=DIRECTION('center_axis',(-1.22464679914735E-16,1.,0.));
#503=DIRECTION('ref_axis',(-1.,-1.22464679914735E-16,0.));
#504=DIRECTION('center_axis',(0.,0.,-1.));
#505=DIRECTION('ref_axis',(1.,0.,0.));
#506=DIRECTION('center_axis',(0.,0.,1.));
#507=DIRECTION('ref_axis',(1.,0.,0.));
#508=DIRECTION('center_axis',(0.,0.,1.));
#509=DIRECTION('ref_axis',(1.,0.,0.));
#510=DIRECTION('center_axis',(0.,0.,1.));
#511=DIRECTION('ref_axis',(1.,0.,0.));
#512=DIRECTION('center_axis',(0.,0.,-1.));
#513=DIRECTION('ref_axis',(1.,0.,0.));
#514=DIRECTION('center_axis',(0.,0.,-1.));
#515=DIRECTION('ref_axis',(1.,0.,0.));
#516=DIRECTION('center_axis',(0.,0.,-1.));
#517=DIRECTION('ref_axis',(1.,0.,0.));
#518=DIRECTION('center_axis',(0.,0.,-1.));
#519=DIRECTION('ref_axis',(1.,0.,0.));
#520=DIRECTION('center_axis',(0.,0.,-1.));
#521=DIRECTION('ref_axis',(1.,0.,0.));
#522=DIRECTION('center_axis',(0.,0.,-1.));
#523=DIRECTION('ref_axis',(1.,0.,0.));
#524=DIRECTION('center_axis',(0.,0.,1.));
#525=DIRECTION('ref_axis',(1.,0.,0.));
#526=DIRECTION('',(0.,0.,-1.));
#527=DIRECTION('center_axis',(0.,0.,1.));
#528=DIRECTION('ref_axis',(1.,0.,0.));
#529=DIRECTION('',(0.,0.,-1.));
#530=DIRECTION('center_axis',(0.,0.,1.));
#531=DIRECTION('ref_axis',(1.,0.,0.));
#532=DIRECTION('',(0.,0.,-1.));
#533=DIRECTION('center_axis',(0.,0.,1.));
#534=DIRECTION('ref_axis',(1.,0.,0.));
#535=DIRECTION('',(0.,0.,-1.));
#536=DIRECTION('center_axis',(0.,0.,1.));
#537=DIRECTION('ref_axis',(1.,0.,0.));
#538=DIRECTION('',(0.,0.,-1.));
#539=DIRECTION('center_axis',(0.,0.,1.));
#540=DIRECTION('ref_axis',(1.,0.,0.));
#541=DIRECTION('',(0.,0.,-1.));
#542=DIRECTION('center_axis',(0.,0.,1.));
#543=DIRECTION('ref_axis',(1.,0.,0.));
#544=DIRECTION('',(0.,0.,-1.));
#545=CARTESIAN_POINT('',(0.,0.,0.));
#546=CARTESIAN_POINT('Origin',(10.,-17.32,0.));
#547=CARTESIAN_POINT('',(4.,-17.32,0.));
#548=CARTESIAN_POINT('Origin',(10.,-17.32,0.));
#549=CARTESIAN_POINT('',(2.,-17.32,0.));
#550=CARTESIAN_POINT('Origin',(3.,-17.32,0.));
#551=CARTESIAN_POINT('Origin',(10.,-17.32,0.));
#552=CARTESIAN_POINT('Origin',(0.,0.,0.));
#553=CARTESIAN_POINT('Origin',(0.,0.,0.));
#554=CARTESIAN_POINT('',(-34.5,-4.22503145705837E-15,0.));
#555=CARTESIAN_POINT('Origin',(0.,0.,0.));
#556=CARTESIAN_POINT('',(-2.,-17.32,0.));
#557=CARTESIAN_POINT('Origin',(-10.,-17.32,0.));
#558=CARTESIAN_POINT('',(-2.,17.32,0.));
#559=CARTESIAN_POINT('Origin',(-10.,17.32,0.));
#560=CARTESIAN_POINT('',(-28.0000008046627,-9.79717501363324E-16,0.));
#561=CARTESIAN_POINT('Origin',(-20.0000002980232,0.,0.));
#562=CARTESIAN_POINT('',(23.98,15.,0.));
#563=CARTESIAN_POINT('Origin',(25.98,15.,0.));
#564=CARTESIAN_POINT('',(23.98,-15.,0.));
#565=CARTESIAN_POINT('Origin',(25.98,-15.,0.));
#566=CARTESIAN_POINT('',(-2.,-30.,0.));
#567=CARTESIAN_POINT('Origin',(0.,-30.,0.));
#568=CARTESIAN_POINT('',(-27.98,-15.,0.));
#569=CARTESIAN_POINT('Origin',(-25.98,-15.,0.));
#570=CARTESIAN_POINT('',(-27.98,15.,0.));
#571=CARTESIAN_POINT('Origin',(-25.98,15.,0.));
#572=CARTESIAN_POINT('',(-2.,30.,0.));
#573=CARTESIAN_POINT('Origin',(0.,30.,0.));
#574=CARTESIAN_POINT('',(-8.00000011920929,-9.7971745391681E-16,0.));
#575=CARTESIAN_POINT('Origin',(0.,0.,0.));
#576=CARTESIAN_POINT('',(28.0000008046627,-9.79717501363324E-16,0.));
#577=CARTESIAN_POINT('Origin',(20.0000002980232,0.,0.));
#578=CARTESIAN_POINT('',(2.,17.32,0.));
#579=CARTESIAN_POINT('Origin',(10.,17.32,0.));
#580=CARTESIAN_POINT('Origin',(-10.,-17.32,0.));
#581=CARTESIAN_POINT('',(-4.,-17.32,0.));
#582=CARTESIAN_POINT('Origin',(-10.,-17.32,0.));
#583=CARTESIAN_POINT('Origin',(-3.,-17.32,0.));
#584=CARTESIAN_POINT('Origin',(0.,0.,0.));
#585=CARTESIAN_POINT('Origin',(10.,17.32,0.));
#586=CARTESIAN_POINT('',(4.,17.32,0.));
#587=CARTESIAN_POINT('Origin',(10.,17.32,0.));
#588=CARTESIAN_POINT('Origin',(3.,17.32,0.));
#589=CARTESIAN_POINT('Origin',(0.,0.,0.));
#590=CARTESIAN_POINT('Origin',(-10.,17.32,0.));
#591=CARTESIAN_POINT('',(-4.,17.32,0.));
#592=CARTESIAN_POINT('Origin',(-10.,17.32,0.));
#593=CARTESIAN_POINT('Origin',(-3.,17.32,0.));
#594=CARTESIAN_POINT('Origin',(0.,0.,0.));
#595=CARTESIAN_POINT('Origin',(20.0000002980232,0.,0.));
#596=CARTESIAN_POINT('',(26.0000003874302,-7.34788090437607E-16,0.));
#597=CARTESIAN_POINT('Origin',(27.0000005960464,-8.57252795900466E-16,0.));
#598=CARTESIAN_POINT('Origin',(20.0000002980232,0.,0.));
#599=CARTESIAN_POINT('Origin',(0.,0.,0.));
#600=CARTESIAN_POINT('Origin',(-20.0000002980232,0.,0.));
#601=CARTESIAN_POINT('',(-26.0000003874302,-7.34788090437607E-16,0.));
#602=CARTESIAN_POINT('Origin',(-27.0000005960464,-8.57252795900466E-16,
0.));
#603=CARTESIAN_POINT('Origin',(-20.0000002980232,0.,0.));
#604=CARTESIAN_POINT('Origin',(0.,0.,0.));
#605=CARTESIAN_POINT('Origin',(0.,0.,0.));
#606=CARTESIAN_POINT('',(-6.00000008940697,-7.34788090437607E-16,0.));
#607=CARTESIAN_POINT('Origin',(-7.00000010430813,-8.57252772177209E-16,
0.));
#608=CARTESIAN_POINT('Origin',(0.,0.,0.));
#609=CARTESIAN_POINT('Origin',(0.,0.,0.));
#610=CARTESIAN_POINT('Origin',(0.,0.,6.));
#611=CARTESIAN_POINT('',(-34.5,-4.44089209850063E-15,6.));
#612=CARTESIAN_POINT('Origin',(0.,0.,6.));
#613=CARTESIAN_POINT('',(-2.,30.,6.));
#614=CARTESIAN_POINT('Origin',(0.,30.,6.));
#615=CARTESIAN_POINT('',(-27.98,15.,6.));
#616=CARTESIAN_POINT('Origin',(-25.98,15.,6.));
#617=CARTESIAN_POINT('',(-27.98,-15.,6.));
#618=CARTESIAN_POINT('Origin',(-25.98,-15.,6.));
#619=CARTESIAN_POINT('',(-2.,-30.,6.));
#620=CARTESIAN_POINT('Origin',(0.,-30.,6.));
#621=CARTESIAN_POINT('',(23.98,-15.,6.));
#622=CARTESIAN_POINT('Origin',(25.98,-15.,6.));
#623=CARTESIAN_POINT('',(23.98,15.,6.));
#624=CARTESIAN_POINT('Origin',(25.98,15.,6.));
#625=CARTESIAN_POINT('Origin',(25.98,15.,0.));
#626=CARTESIAN_POINT('',(23.98,15.,0.));
#627=CARTESIAN_POINT('Origin',(25.98,-15.,0.));
#628=CARTESIAN_POINT('',(23.98,-15.,0.));
#629=CARTESIAN_POINT('Origin',(0.,-30.,0.));
#630=CARTESIAN_POINT('',(-2.,-30.,0.));
#631=CARTESIAN_POINT('Origin',(-25.98,-15.,0.));
#632=CARTESIAN_POINT('',(-27.98,-15.,0.));
#633=CARTESIAN_POINT('Origin',(-25.98,15.,0.));
#634=CARTESIAN_POINT('',(-27.98,15.,0.));
#635=CARTESIAN_POINT('Origin',(0.,30.,0.));
#636=CARTESIAN_POINT('',(-2.,30.,0.));
#637=CARTESIAN_POINT('Origin',(0.,0.,0.));
#638=CARTESIAN_POINT('',(-34.5,-4.22503145705837E-15,0.));
#639=UNCERTAINTY_MEASURE_WITH_UNIT(LENGTH_MEASURE(0.01),#643,
'DISTANCE_ACCURACY_VALUE',
'Maximum model space distance between geometric entities at asserted c
onnectivities');
#640=UNCERTAINTY_MEASURE_WITH_UNIT(LENGTH_MEASURE(0.01),#643,
'DISTANCE_ACCURACY_VALUE',
'Maximum model space distance between geometric entities at asserted c
onnectivities');
#641=(
GEOMETRIC_REPRESENTATION_CONTEXT(3)
GLOBAL_UNCERTAINTY_ASSIGNED_CONTEXT((#639))
GLOBAL_UNIT_ASSIGNED_CONTEXT((#643,#645,#646))
REPRESENTATION_CONTEXT('','3D')
);
#642=(
GEOMETRIC_REPRESENTATION_CONTEXT(3)
GLOBAL_UNCERTAINTY_ASSIGNED_CONTEXT((#640))
GLOBAL_UNIT_ASSIGNED_CONTEXT((#643,#645,#646))
REPRESENTATION_CONTEXT('','3D')
);
#643=(
LENGTH_UNIT()
NAMED_UNIT(*)
SI_UNIT(.MILLI.,.METRE.)
);
#644=(
LENGTH_UNIT()
NAMED_UNIT(*)
SI_UNIT($,.METRE.)
);
#645=(
NAMED_UNIT(*)
PLANE_ANGLE_UNIT()
SI_UNIT($,.RADIAN.)
);
#646=(
NAMED_UNIT(*)
SI_UNIT($,.STERADIAN.)
SOLID_ANGLE_UNIT()
);
#647=SHAPE_DEFINITION_REPRESENTATION(#648,#649);
#648=PRODUCT_DEFINITION_SHAPE('',$,#651);
#649=SHAPE_REPRESENTATION('',(#361),#641);
#650=PRODUCT_DEFINITION_CONTEXT('part definition',#655,'design');
#651=PRODUCT_DEFINITION('2026-08-20-17-12-46-829','cover_casette',#652,
#650);
#652=PRODUCT_DEFINITION_FORMATION('',$,#657);
#653=PRODUCT_RELATED_PRODUCT_CATEGORY('cover_casette','cover_casette',(#657));
#654=APPLICATION_PROTOCOL_DEFINITION('international standard',
'automotive_design',2009,#655);
#655=APPLICATION_CONTEXT(
'Core Data for Automotive Mechanical Design Process');
#656=PRODUCT_CONTEXT('part definition',#655,'mechanical');
#657=PRODUCT('2026-08-20-17-12-46-829','cover_casette',$,(#656));
#658=PRESENTATION_STYLE_ASSIGNMENT((#659));
#659=SURFACE_STYLE_USAGE(.BOTH.,#660);
#660=SURFACE_SIDE_STYLE('',(#661));
#661=SURFACE_STYLE_FILL_AREA(#662);
#662=FILL_AREA_STYLE('Steel - Satin',(#663));
#663=FILL_AREA_STYLE_COLOUR('Steel - Satin',#664);
#664=COLOUR_RGB('Steel - Satin',0.627450980392157,0.627450980392157,0.627450980392157);
ENDSEC;
END-ISO-10303-21;
