ISO-10303-21;
HEADER;
/* Generated by software containing ST-Developer
 * from STEP Tools, Inc. (www.steptools.com) 
 */

FILE_DESCRIPTION(
/* description */ (''),
/* implementation_level */ '2;1');

FILE_NAME(
/* name */ 'M4_nuts.step',
/* time_stamp */ '2026-09-23T13:16:20+05:30',
/* author */ (''),
/* organization */ (''),
/* preprocessor_version */ 'ST-DEVELOPER v20.1',
/* originating_system */ 'Autodesk Translation Framework v15.8.0.0',
/* authorisation */ '');

FILE_SCHEMA (('AUTOMOTIVE_DESIGN { 1 0 10303 214 3 1 1 }'));
ENDSEC;

DATA;
#10=MECHANICAL_DESIGN_GEOMETRIC_PRESENTATION_REPRESENTATION('',(#17),#420);
#11=ITEM_DEFINED_TRANSFORMATION($,$,#244,#264);
#12=(
REPRESENTATION_RELATIONSHIP($,$,#431,#430)
REPRESENTATION_RELATIONSHIP_WITH_TRANSFORMATION(#11)
SHAPE_REPRESENTATION_RELATIONSHIP()
);
#13=CONTEXT_DEPENDENT_SHAPE_REPRESENTATION(#12,#429);
#14=NEXT_ASSEMBLY_USAGE_OCCURRENCE(
'Hexagon Regular Nut ISO 4032 - M4 Steel 6 Plain:1',
'Hexagon Regular Nut ISO 4032 - M4 Steel 6 Plain:1',
'Hexagon Regular Nut ISO 4032 - M4 Steel 6 Plain:1',#433,#434,
'Hexagon Regular Nut ISO 4032 - M4 Steel 6 Plain:1');
#15=SHAPE_REPRESENTATION_RELATIONSHIP('SRR','None',#431,#16);
#16=ADVANCED_BREP_SHAPE_REPRESENTATION('',(#18),#419);
#17=STYLED_ITEM('',(#445),#18);
#18=MANIFOLD_SOLID_BREP('Body1',#230);
#19=CYLINDRICAL_SURFACE('',#263,1.666);
#20=FACE_BOUND('',#67,.T.);
#21=FACE_BOUND('',#70,.T.);
#22=(
BOUNDED_CURVE()
B_SPLINE_CURVE(2,(#339,#340,#341),.UNSPECIFIED.,.F.,.F.)
B_SPLINE_CURVE_WITH_KNOTS((3,3),(0.000183619858829034,0.409201691716139),
 .UNSPECIFIED.)
CURVE()
GEOMETRIC_REPRESENTATION_ITEM()
RATIONAL_B_SPLINE_CURVE((1.00013898062186,1.15486101937814,1.00013898062186))
REPRESENTATION_ITEM('')
);
#23=(
BOUNDED_CURVE()
B_SPLINE_CURVE(2,(#344,#345,#346),.UNSPECIFIED.,.F.,.F.)
B_SPLINE_CURVE_WITH_KNOTS((3,3),(0.000183619858829376,0.409201691716139),
 .UNSPECIFIED.)
CURVE()
GEOMETRIC_REPRESENTATION_ITEM()
RATIONAL_B_SPLINE_CURVE((1.00013898062186,1.15486101937814,1.00013898062186))
REPRESENTATION_ITEM('')
);
#24=(
BOUNDED_CURVE()
B_SPLINE_CURVE(2,(#349,#350,#351),.UNSPECIFIED.,.F.,.F.)
B_SPLINE_CURVE_WITH_KNOTS((3,3),(0.000183619858829293,0.409201691716139),
 .UNSPECIFIED.)
CURVE()
GEOMETRIC_REPRESENTATION_ITEM()
RATIONAL_B_SPLINE_CURVE((1.00013898062186,1.15486101937814,1.00013898062186))
REPRESENTATION_ITEM('')
);
#25=(
BOUNDED_CURVE()
B_SPLINE_CURVE(2,(#354,#355,#356),.UNSPECIFIED.,.F.,.F.)
B_SPLINE_CURVE_WITH_KNOTS((3,3),(0.000183619858828961,0.409201691716139),
 .UNSPECIFIED.)
CURVE()
GEOMETRIC_REPRESENTATION_ITEM()
RATIONAL_B_SPLINE_CURVE((1.00013898062186,1.15486101937814,1.00013898062186))
REPRESENTATION_ITEM('')
);
#26=(
BOUNDED_CURVE()
B_SPLINE_CURVE(2,(#363,#364,#365),.UNSPECIFIED.,.F.,.F.)
B_SPLINE_CURVE_WITH_KNOTS((3,3),(0.204692655787484,0.409201691716139),
 .UNSPECIFIED.)
CURVE()
GEOMETRIC_REPRESENTATION_ITEM()
RATIONAL_B_SPLINE_CURVE((1.0775,1.0775,1.00013898062186))
REPRESENTATION_ITEM('')
);
#27=(
BOUNDED_CURVE()
B_SPLINE_CURVE(2,(#367,#368,#369),.UNSPECIFIED.,.F.,.F.)
B_SPLINE_CURVE_WITH_KNOTS((3,3),(0.000183619858829213,0.409201691716139),
 .UNSPECIFIED.)
CURVE()
GEOMETRIC_REPRESENTATION_ITEM()
RATIONAL_B_SPLINE_CURVE((1.00013898062186,1.15486101937814,1.00013898062186))
REPRESENTATION_ITEM('')
);
#28=(
BOUNDED_CURVE()
B_SPLINE_CURVE(2,(#370,#371,#372),.UNSPECIFIED.,.F.,.F.)
B_SPLINE_CURVE_WITH_KNOTS((3,3),(0.000183619858829199,0.409201691716139),
 .UNSPECIFIED.)
CURVE()
GEOMETRIC_REPRESENTATION_ITEM()
RATIONAL_B_SPLINE_CURVE((1.00013898062186,1.15486101937814,1.00013898062186))
REPRESENTATION_ITEM('')
);
#29=(
BOUNDED_CURVE()
B_SPLINE_CURVE(2,(#374,#375,#376),.UNSPECIFIED.,.F.,.F.)
B_SPLINE_CURVE_WITH_KNOTS((3,3),(0.000183619858829503,0.409201691716139),
 .UNSPECIFIED.)
CURVE()
GEOMETRIC_REPRESENTATION_ITEM()
RATIONAL_B_SPLINE_CURVE((1.00013898062186,1.15486101937814,1.00013898062186))
REPRESENTATION_ITEM('')
);
#30=(
BOUNDED_CURVE()
B_SPLINE_CURVE(2,(#377,#378,#379),.UNSPECIFIED.,.F.,.F.)
B_SPLINE_CURVE_WITH_KNOTS((3,3),(0.000183619858829456,0.204692655787484),
 .UNSPECIFIED.)
CURVE()
GEOMETRIC_REPRESENTATION_ITEM()
RATIONAL_B_SPLINE_CURVE((1.00013898062186,1.0775,1.0775))
REPRESENTATION_ITEM('')
);
#31=(
BOUNDED_CURVE()
B_SPLINE_CURVE(2,(#382,#383,#384),.UNSPECIFIED.,.F.,.F.)
B_SPLINE_CURVE_WITH_KNOTS((3,3),(0.000183619858829246,0.409201691716139),
 .UNSPECIFIED.)
CURVE()
GEOMETRIC_REPRESENTATION_ITEM()
RATIONAL_B_SPLINE_CURVE((1.00013898062186,1.15486101937814,1.00013898062186))
REPRESENTATION_ITEM('')
);
#32=(
BOUNDED_CURVE()
B_SPLINE_CURVE(2,(#388,#389,#390),.UNSPECIFIED.,.F.,.F.)
B_SPLINE_CURVE_WITH_KNOTS((3,3),(0.204692655787484,0.409201691716139),
 .UNSPECIFIED.)
CURVE()
GEOMETRIC_REPRESENTATION_ITEM()
RATIONAL_B_SPLINE_CURVE((1.0775,1.0775,1.00013898062186))
REPRESENTATION_ITEM('')
);
#33=(
BOUNDED_CURVE()
B_SPLINE_CURVE(2,(#392,#393,#394),.UNSPECIFIED.,.F.,.F.)
B_SPLINE_CURVE_WITH_KNOTS((3,3),(0.000183619858828992,0.204692655787484),
 .UNSPECIFIED.)
CURVE()
GEOMETRIC_REPRESENTATION_ITEM()
RATIONAL_B_SPLINE_CURVE((1.00013898062186,1.0775,1.0775))
REPRESENTATION_ITEM('')
);
#34=(
BOUNDED_CURVE()
B_SPLINE_CURVE(2,(#398,#399,#400),.UNSPECIFIED.,.F.,.F.)
B_SPLINE_CURVE_WITH_KNOTS((3,3),(0.000183619858829216,0.409201691716139),
 .UNSPECIFIED.)
CURVE()
GEOMETRIC_REPRESENTATION_ITEM()
RATIONAL_B_SPLINE_CURVE((1.00013898062186,1.15486101937813,1.00013898062186))
REPRESENTATION_ITEM('')
);
#35=(
BOUNDED_CURVE()
B_SPLINE_CURVE(2,(#403,#404,#405),.UNSPECIFIED.,.F.,.F.)
B_SPLINE_CURVE_WITH_KNOTS((3,3),(0.000183619858829075,0.409201691716139),
 .UNSPECIFIED.)
CURVE()
GEOMETRIC_REPRESENTATION_ITEM()
RATIONAL_B_SPLINE_CURVE((1.00013898062186,1.15486101937814,1.00013898062186))
REPRESENTATION_ITEM('')
);
#36=PLANE('',#251);
#37=PLANE('',#252);
#38=PLANE('',#255);
#39=PLANE('',#256);
#40=PLANE('',#257);
#41=PLANE('',#258);
#42=PLANE('',#259);
#43=PLANE('',#262);
#44=FACE_OUTER_BOUND('',#57,.T.);
#45=FACE_OUTER_BOUND('',#58,.T.);
#46=FACE_OUTER_BOUND('',#59,.T.);
#47=FACE_OUTER_BOUND('',#60,.T.);
#48=FACE_OUTER_BOUND('',#61,.T.);
#49=FACE_OUTER_BOUND('',#62,.T.);
#50=FACE_OUTER_BOUND('',#63,.T.);
#51=FACE_OUTER_BOUND('',#64,.T.);
#52=FACE_OUTER_BOUND('',#65,.T.);
#53=FACE_OUTER_BOUND('',#66,.T.);
#54=FACE_OUTER_BOUND('',#68,.T.);
#55=FACE_OUTER_BOUND('',#69,.T.);
#56=FACE_OUTER_BOUND('',#71,.T.);
#57=EDGE_LOOP('',(#151,#152,#153,#154));
#58=EDGE_LOOP('',(#155,#156,#157,#158));
#59=EDGE_LOOP('',(#159,#160,#161,#162));
#60=EDGE_LOOP('',(#163,#164,#165,#166));
#61=EDGE_LOOP('',(#167,#168,#169,#170,#171,#172,#173,#174,#175,#176));
#62=EDGE_LOOP('',(#177,#178,#179,#180));
#63=EDGE_LOOP('',(#181,#182,#183,#184,#185,#186));
#64=EDGE_LOOP('',(#187,#188,#189,#190));
#65=EDGE_LOOP('',(#191,#192,#193,#194));
#66=EDGE_LOOP('',(#195));
#67=EDGE_LOOP('',(#196));
#68=EDGE_LOOP('',(#197,#198,#199,#200,#201,#202,#203,#204,#205,#206));
#69=EDGE_LOOP('',(#207));
#70=EDGE_LOOP('',(#208));
#71=EDGE_LOOP('',(#209,#210,#211,#212));
#72=LINE('',#326,#83);
#73=LINE('',#332,#84);
#74=LINE('',#337,#85);
#75=LINE('',#343,#86);
#76=LINE('',#353,#87);
#77=LINE('',#361,#88);
#78=LINE('',#385,#89);
#79=LINE('',#395,#90);
#80=LINE('',#401,#91);
#81=LINE('',#410,#92);
#82=LINE('',#413,#93);
#83=VECTOR('',#273,1.5381197846483);
#84=VECTOR('',#280,1.5381197846483);
#85=VECTOR('',#285,10.);
#86=VECTOR('',#286,10.);
#87=VECTOR('',#289,10.);
#88=VECTOR('',#294,3.73625);
#89=VECTOR('',#297,10.);
#90=VECTOR('',#300,10.);
#91=VECTOR('',#303,10.);
#92=VECTOR('',#312,3.73625);
#93=VECTOR('',#317,2.);
#94=CIRCLE('',#246,1.666);
#95=CIRCLE('',#247,2.);
#96=CIRCLE('',#249,2.);
#97=CIRCLE('',#250,1.666);
#98=CIRCLE('',#254,3.43);
#99=CIRCLE('',#260,3.43);
#100=VERTEX_POINT('',#323);
#101=VERTEX_POINT('',#325);
#102=VERTEX_POINT('',#329);
#103=VERTEX_POINT('',#331);
#104=VERTEX_POINT('',#335);
#105=VERTEX_POINT('',#336);
#106=VERTEX_POINT('',#338);
#107=VERTEX_POINT('',#342);
#108=VERTEX_POINT('',#348);
#109=VERTEX_POINT('',#352);
#110=VERTEX_POINT('',#358);
#111=VERTEX_POINT('',#360);
#112=VERTEX_POINT('',#362);
#113=VERTEX_POINT('',#366);
#114=VERTEX_POINT('',#373);
#115=VERTEX_POINT('',#381);
#116=VERTEX_POINT('',#387);
#117=VERTEX_POINT('',#391);
#118=VERTEX_POINT('',#397);
#119=VERTEX_POINT('',#407);
#120=EDGE_CURVE('',#100,#100,#94,.T.);
#121=EDGE_CURVE('',#100,#101,#72,.T.);
#122=EDGE_CURVE('',#101,#101,#95,.T.);
#123=EDGE_CURVE('',#102,#102,#96,.T.);
#124=EDGE_CURVE('',#102,#103,#73,.T.);
#125=EDGE_CURVE('',#103,#103,#97,.T.);
#126=EDGE_CURVE('',#104,#105,#74,.T.);
#127=EDGE_CURVE('',#106,#104,#22,.T.);
#128=EDGE_CURVE('',#107,#106,#75,.T.);
#129=EDGE_CURVE('',#105,#107,#23,.T.);
#130=EDGE_CURVE('',#108,#106,#24,.T.);
#131=EDGE_CURVE('',#108,#109,#76,.T.);
#132=EDGE_CURVE('',#107,#109,#25,.T.);
#133=EDGE_CURVE('',#110,#110,#98,.T.);
#134=EDGE_CURVE('',#110,#111,#77,.T.);
#135=EDGE_CURVE('',#111,#112,#26,.T.);
#136=EDGE_CURVE('',#112,#113,#27,.T.);
#137=EDGE_CURVE('',#113,#108,#28,.T.);
#138=EDGE_CURVE('',#104,#114,#29,.T.);
#139=EDGE_CURVE('',#114,#111,#30,.T.);
#140=EDGE_CURVE('',#115,#105,#31,.T.);
#141=EDGE_CURVE('',#114,#115,#78,.T.);
#142=EDGE_CURVE('',#116,#115,#32,.T.);
#143=EDGE_CURVE('',#117,#116,#33,.T.);
#144=EDGE_CURVE('',#112,#117,#79,.T.);
#145=EDGE_CURVE('',#118,#117,#34,.T.);
#146=EDGE_CURVE('',#113,#118,#80,.T.);
#147=EDGE_CURVE('',#109,#118,#35,.T.);
#148=EDGE_CURVE('',#119,#119,#99,.T.);
#149=EDGE_CURVE('',#116,#119,#81,.T.);
#150=EDGE_CURVE('',#100,#103,#82,.T.);
#151=ORIENTED_EDGE('',*,*,#120,.F.);
#152=ORIENTED_EDGE('',*,*,#121,.T.);
#153=ORIENTED_EDGE('',*,*,#122,.F.);
#154=ORIENTED_EDGE('',*,*,#121,.F.);
#155=ORIENTED_EDGE('',*,*,#123,.F.);
#156=ORIENTED_EDGE('',*,*,#124,.T.);
#157=ORIENTED_EDGE('',*,*,#125,.F.);
#158=ORIENTED_EDGE('',*,*,#124,.F.);
#159=ORIENTED_EDGE('',*,*,#126,.F.);
#160=ORIENTED_EDGE('',*,*,#127,.F.);
#161=ORIENTED_EDGE('',*,*,#128,.F.);
#162=ORIENTED_EDGE('',*,*,#129,.F.);
#163=ORIENTED_EDGE('',*,*,#128,.T.);
#164=ORIENTED_EDGE('',*,*,#130,.F.);
#165=ORIENTED_EDGE('',*,*,#131,.T.);
#166=ORIENTED_EDGE('',*,*,#132,.F.);
#167=ORIENTED_EDGE('',*,*,#133,.F.);
#168=ORIENTED_EDGE('',*,*,#134,.T.);
#169=ORIENTED_EDGE('',*,*,#135,.T.);
#170=ORIENTED_EDGE('',*,*,#136,.T.);
#171=ORIENTED_EDGE('',*,*,#137,.T.);
#172=ORIENTED_EDGE('',*,*,#130,.T.);
#173=ORIENTED_EDGE('',*,*,#127,.T.);
#174=ORIENTED_EDGE('',*,*,#138,.T.);
#175=ORIENTED_EDGE('',*,*,#139,.T.);
#176=ORIENTED_EDGE('',*,*,#134,.F.);
#177=ORIENTED_EDGE('',*,*,#126,.T.);
#178=ORIENTED_EDGE('',*,*,#140,.F.);
#179=ORIENTED_EDGE('',*,*,#141,.F.);
#180=ORIENTED_EDGE('',*,*,#138,.F.);
#181=ORIENTED_EDGE('',*,*,#141,.T.);
#182=ORIENTED_EDGE('',*,*,#142,.F.);
#183=ORIENTED_EDGE('',*,*,#143,.F.);
#184=ORIENTED_EDGE('',*,*,#144,.F.);
#185=ORIENTED_EDGE('',*,*,#135,.F.);
#186=ORIENTED_EDGE('',*,*,#139,.F.);
#187=ORIENTED_EDGE('',*,*,#144,.T.);
#188=ORIENTED_EDGE('',*,*,#145,.F.);
#189=ORIENTED_EDGE('',*,*,#146,.F.);
#190=ORIENTED_EDGE('',*,*,#136,.F.);
#191=ORIENTED_EDGE('',*,*,#146,.T.);
#192=ORIENTED_EDGE('',*,*,#147,.F.);
#193=ORIENTED_EDGE('',*,*,#131,.F.);
#194=ORIENTED_EDGE('',*,*,#137,.F.);
#195=ORIENTED_EDGE('',*,*,#148,.F.);
#196=ORIENTED_EDGE('',*,*,#123,.T.);
#197=ORIENTED_EDGE('',*,*,#129,.T.);
#198=ORIENTED_EDGE('',*,*,#132,.T.);
#199=ORIENTED_EDGE('',*,*,#147,.T.);
#200=ORIENTED_EDGE('',*,*,#145,.T.);
#201=ORIENTED_EDGE('',*,*,#143,.T.);
#202=ORIENTED_EDGE('',*,*,#149,.T.);
#203=ORIENTED_EDGE('',*,*,#148,.T.);
#204=ORIENTED_EDGE('',*,*,#149,.F.);
#205=ORIENTED_EDGE('',*,*,#142,.T.);
#206=ORIENTED_EDGE('',*,*,#140,.T.);
#207=ORIENTED_EDGE('',*,*,#133,.T.);
#208=ORIENTED_EDGE('',*,*,#122,.T.);
#209=ORIENTED_EDGE('',*,*,#120,.T.);
#210=ORIENTED_EDGE('',*,*,#150,.T.);
#211=ORIENTED_EDGE('',*,*,#125,.T.);
#212=ORIENTED_EDGE('',*,*,#150,.F.);
#213=CONICAL_SURFACE('',#245,1.5381197846483,0.523598775598299);
#214=CONICAL_SURFACE('',#248,1.5381197846483,0.5235987755983);
#215=CONICAL_SURFACE('',#253,3.73625,1.0471975511966);
#216=CONICAL_SURFACE('',#261,3.73625,1.0471975511966);
#217=ADVANCED_FACE('',(#44),#213,.F.);
#218=ADVANCED_FACE('',(#45),#214,.F.);
#219=ADVANCED_FACE('',(#46),#36,.F.);
#220=ADVANCED_FACE('',(#47),#37,.F.);
#221=ADVANCED_FACE('',(#48),#215,.T.);
#222=ADVANCED_FACE('',(#49),#38,.F.);
#223=ADVANCED_FACE('',(#50),#39,.F.);
#224=ADVANCED_FACE('',(#51),#40,.F.);
#225=ADVANCED_FACE('',(#52),#41,.F.);
#226=ADVANCED_FACE('',(#53,#20),#42,.T.);
#227=ADVANCED_FACE('',(#54),#216,.T.);
#228=ADVANCED_FACE('',(#55,#21),#43,.T.);
#229=ADVANCED_FACE('',(#56),#19,.F.);
#230=CLOSED_SHELL('',(#217,#218,#219,#220,#221,#222,#223,#224,#225,#226,
#227,#228,#229));
#231=DERIVED_UNIT_ELEMENT(#233,1.);
#232=DERIVED_UNIT_ELEMENT(#422,-3.);
#233=(
MASS_UNIT()
NAMED_UNIT(*)
SI_UNIT(.KILO.,.GRAM.)
);
#234=DERIVED_UNIT((#231,#232));
#235=MEASURE_REPRESENTATION_ITEM('density measure',
POSITIVE_RATIO_MEASURE(8030.),#234);
#236=PROPERTY_DEFINITION_REPRESENTATION(#241,#238);
#237=PROPERTY_DEFINITION_REPRESENTATION(#242,#239);
#238=REPRESENTATION('material name',(#240),#419);
#239=REPRESENTATION('density',(#235),#419);
#240=DESCRIPTIVE_REPRESENTATION_ITEM('Steel 6, Plain','Steel 6, Plain');
#241=PROPERTY_DEFINITION('material property','material name',#434);
#242=PROPERTY_DEFINITION('material property','density of part',#434);
#243=AXIS2_PLACEMENT_3D('',#320,#265,#266);
#244=AXIS2_PLACEMENT_3D('',#321,#267,#268);
#245=AXIS2_PLACEMENT_3D('',#322,#269,#270);
#246=AXIS2_PLACEMENT_3D('',#324,#271,#272);
#247=AXIS2_PLACEMENT_3D('',#327,#274,#275);
#248=AXIS2_PLACEMENT_3D('',#328,#276,#277);
#249=AXIS2_PLACEMENT_3D('',#330,#278,#279);
#250=AXIS2_PLACEMENT_3D('',#333,#281,#282);
#251=AXIS2_PLACEMENT_3D('',#334,#283,#284);
#252=AXIS2_PLACEMENT_3D('',#347,#287,#288);
#253=AXIS2_PLACEMENT_3D('',#357,#290,#291);
#254=AXIS2_PLACEMENT_3D('',#359,#292,#293);
#255=AXIS2_PLACEMENT_3D('',#380,#295,#296);
#256=AXIS2_PLACEMENT_3D('',#386,#298,#299);
#257=AXIS2_PLACEMENT_3D('',#396,#301,#302);
#258=AXIS2_PLACEMENT_3D('',#402,#304,#305);
#259=AXIS2_PLACEMENT_3D('',#406,#306,#307);
#260=AXIS2_PLACEMENT_3D('',#408,#308,#309);
#261=AXIS2_PLACEMENT_3D('',#409,#310,#311);
#262=AXIS2_PLACEMENT_3D('',#411,#313,#314);
#263=AXIS2_PLACEMENT_3D('',#412,#315,#316);
#264=AXIS2_PLACEMENT_3D('',#414,#318,#319);
#265=DIRECTION('axis',(0.,0.,1.));
#266=DIRECTION('refdir',(1.,0.,0.));
#267=DIRECTION('axis',(0.,0.,1.));
#268=DIRECTION('refdir',(1.,0.,0.));
#269=DIRECTION('center_axis',(0.,0.,-1.));
#270=DIRECTION('ref_axis',(-1.,0.,0.));
#271=DIRECTION('center_axis',(0.,0.,-1.));
#272=DIRECTION('ref_axis',(-1.,0.,0.));
#273=DIRECTION('',(0.5,-6.12323399573677E-17,-0.866025403784438));
#274=DIRECTION('center_axis',(0.,0.,1.));
#275=DIRECTION('ref_axis',(-1.,0.,0.));
#276=DIRECTION('center_axis',(0.,0.,1.));
#277=DIRECTION('ref_axis',(-1.,0.,0.));
#278=DIRECTION('center_axis',(0.,0.,-1.));
#279=DIRECTION('ref_axis',(-1.,0.,0.));
#280=DIRECTION('',(-0.500000000000001,6.12323399573678E-17,-0.866025403784438));
#281=DIRECTION('center_axis',(0.,0.,1.));
#282=DIRECTION('ref_axis',(-1.,0.,0.));
#283=DIRECTION('center_axis',(0.499999999999999,-0.866025403784439,0.));
#284=DIRECTION('ref_axis',(-0.866025403784439,-0.499999999999999,0.));
#285=DIRECTION('',(0.,0.,1.));
#286=DIRECTION('',(0.,0.,-1.));
#287=DIRECTION('center_axis',(1.,-8.23273162316132E-16,0.));
#288=DIRECTION('ref_axis',(-8.23273162316132E-16,-1.,0.));
#289=DIRECTION('',(0.,0.,1.));
#290=DIRECTION('center_axis',(0.,0.,1.));
#291=DIRECTION('ref_axis',(-1.,0.,0.));
#292=DIRECTION('center_axis',(0.,0.,-1.));
#293=DIRECTION('ref_axis',(1.,0.,0.));
#294=DIRECTION('',(0.866025403784439,-1.06057523872491E-16,0.5));
#295=DIRECTION('center_axis',(-0.500000000000001,-0.866025403784438,0.));
#296=DIRECTION('ref_axis',(-0.866025403784438,0.500000000000001,0.));
#297=DIRECTION('',(0.,0.,1.));
#298=DIRECTION('center_axis',(-1.,9.45737842230867E-16,0.));
#299=DIRECTION('ref_axis',(9.45737842230867E-16,1.,0.));
#300=DIRECTION('',(0.,0.,1.));
#301=DIRECTION('center_axis',(-0.499999999999999,0.866025403784439,0.));
#302=DIRECTION('ref_axis',(0.866025403784439,0.499999999999999,0.));
#303=DIRECTION('',(0.,0.,1.));
#304=DIRECTION('center_axis',(0.500000000000001,0.866025403784438,0.));
#305=DIRECTION('ref_axis',(0.866025403784438,-0.500000000000001,0.));
#306=DIRECTION('center_axis',(0.,0.,1.));
#307=DIRECTION('ref_axis',(1.,0.,0.));
#308=DIRECTION('center_axis',(0.,0.,-1.));
#309=DIRECTION('ref_axis',(1.,0.,0.));
#310=DIRECTION('center_axis',(0.,0.,-1.));
#311=DIRECTION('ref_axis',(-1.,0.,0.));
#312=DIRECTION('',(-0.866025403784439,1.06057523872491E-16,0.499999999999999));
#313=DIRECTION('center_axis',(0.,0.,-1.));
#314=DIRECTION('ref_axis',(-1.,0.,0.));
#315=DIRECTION('center_axis',(0.,0.,-1.));
#316=DIRECTION('ref_axis',(-1.,0.,0.));
#317=DIRECTION('',(0.,0.,1.));
#318=DIRECTION('',(0.,0.,1.));
#319=DIRECTION('',(1.,0.,0.));
#320=CARTESIAN_POINT('',(0.,0.,0.));
#321=CARTESIAN_POINT('',(0.,0.,0.));
#322=CARTESIAN_POINT('Origin',(0.,0.,0.800000000000001));
#323=CARTESIAN_POINT('',(1.666,-2.04026156737949E-16,0.578504969728005));
#324=CARTESIAN_POINT('Origin',(0.,0.,0.578504969728005));
#325=CARTESIAN_POINT('',(2.,-2.44929359829471E-16,0.));
#326=CARTESIAN_POINT('',(1.5381197846483,-1.88365347097476E-16,0.800000000000001));
#327=CARTESIAN_POINT('Origin',(0.,0.,0.));
#328=CARTESIAN_POINT('Origin',(0.,0.,2.4));
#329=CARTESIAN_POINT('',(2.,-2.44929359829471E-16,3.2));
#330=CARTESIAN_POINT('Origin',(0.,0.,3.2));
#331=CARTESIAN_POINT('',(1.666,2.04026156737949E-16,2.621495030272));
#332=CARTESIAN_POINT('',(1.5381197846483,-1.88365347097476E-16,2.4));
#333=CARTESIAN_POINT('Origin',(0.,0.,2.621495030272));
#334=CARTESIAN_POINT('Origin',(0.00181468412044916,4.04249959269281,3.2));
#335=CARTESIAN_POINT('',(5.74903489351022E-15,4.04145188432738,0.353021910012916));
#336=CARTESIAN_POINT('',(5.50692357106372E-15,4.04145188432738,2.84697808998709));
#337=CARTESIAN_POINT('',(5.55111512312578E-15,4.04145188432738,3.2));
#338=CARTESIAN_POINT('',(-3.5,2.02072594216369,0.353021910012917));
#339=CARTESIAN_POINT('Ctrl Pts',(-3.5,2.02072594216369,0.353021910012917));
#340=CARTESIAN_POINT('Ctrl Pts',(-1.74999999999999,3.03108891324554,-0.230311423320418));
#341=CARTESIAN_POINT('Ctrl Pts',(5.74903489351022E-15,4.04145188432738,
0.353021910012916));
#342=CARTESIAN_POINT('',(-3.5,2.02072594216369,2.84697808998708));
#343=CARTESIAN_POINT('',(-3.5,2.02072594216369,3.2));
#344=CARTESIAN_POINT('Ctrl Pts',(5.50692357106372E-15,4.04145188432738,
2.84697808998709));
#345=CARTESIAN_POINT('Ctrl Pts',(-1.75,3.03108891324554,3.43031142332042));
#346=CARTESIAN_POINT('Ctrl Pts',(-3.5,2.02072594216369,2.84697808998708));
#347=CARTESIAN_POINT('Origin',(-3.5,2.02282135889456,3.2));
#348=CARTESIAN_POINT('',(-3.5,-2.02072594216369,0.353021910012916));
#349=CARTESIAN_POINT('Ctrl Pts',(-3.5,-2.02072594216369,0.353021910012916));
#350=CARTESIAN_POINT('Ctrl Pts',(-3.5,2.4980018054066E-15,-0.230311423320417));
#351=CARTESIAN_POINT('Ctrl Pts',(-3.5,2.02072594216369,0.353021910012917));
#352=CARTESIAN_POINT('',(-3.5,-2.02072594216369,2.84697808998708));
#353=CARTESIAN_POINT('',(-3.5,-2.02072594216369,3.2));
#354=CARTESIAN_POINT('Ctrl Pts',(-3.5,2.02072594216369,2.84697808998708));
#355=CARTESIAN_POINT('Ctrl Pts',(-3.5,3.88578058618805E-15,3.43031142332042));
#356=CARTESIAN_POINT('Ctrl Pts',(-3.5,-2.02072594216369,2.84697808998708));
#357=CARTESIAN_POINT('Origin',(0.,0.,0.176813519939323));
#358=CARTESIAN_POINT('',(3.43,-4.20053852107542E-16,-3.46944695195361E-17));
#359=CARTESIAN_POINT('Origin',(0.,0.,0.));
#360=CARTESIAN_POINT('',(3.5,-4.71905538951751E-16,0.0404145188432727));
#361=CARTESIAN_POINT('',(3.73625,-4.5755866033143E-16,0.176813519939323));
#362=CARTESIAN_POINT('',(3.5,-2.02072594216369,0.353021910012917));
#363=CARTESIAN_POINT('Ctrl Pts',(3.5,-5.15184698201929E-16,0.0404145188432727));
#364=CARTESIAN_POINT('Ctrl Pts',(3.5,-0.937822173508931,0.0404145188432724));
#365=CARTESIAN_POINT('Ctrl Pts',(3.5,-2.02072594216369,0.353021910012917));
#366=CARTESIAN_POINT('',(-3.75500453595104E-15,-4.04145188432738,0.353021910012917));
#367=CARTESIAN_POINT('Ctrl Pts',(3.5,-2.02072594216369,0.353021910012917));
#368=CARTESIAN_POINT('Ctrl Pts',(1.75,-3.03108891324554,-0.230311423320417));
#369=CARTESIAN_POINT('Ctrl Pts',(-3.75500453595104E-15,-4.04145188432738,
0.353021910012917));
#370=CARTESIAN_POINT('Ctrl Pts',(-3.61476976120362E-15,-4.04145188432738,
0.353021910012917));
#371=CARTESIAN_POINT('Ctrl Pts',(-1.75,-3.03108891324553,-0.230311423320417));
#372=CARTESIAN_POINT('Ctrl Pts',(-3.5,-2.02072594216369,0.353021910012916));
#373=CARTESIAN_POINT('',(3.5,2.02072594216369,0.353021910012916));
#374=CARTESIAN_POINT('Ctrl Pts',(5.71417101740123E-15,4.04145188432738,
0.353021910012916));
#375=CARTESIAN_POINT('Ctrl Pts',(1.75,3.03108891324553,-0.230311423320418));
#376=CARTESIAN_POINT('Ctrl Pts',(3.5,2.02072594216369,0.353021910012916));
#377=CARTESIAN_POINT('Ctrl Pts',(3.5,2.02072594216369,0.353021910012916));
#378=CARTESIAN_POINT('Ctrl Pts',(3.5,0.937822173508927,0.0404145188432731));
#379=CARTESIAN_POINT('Ctrl Pts',(3.5,-5.15184698201929E-16,0.0404145188432727));
#380=CARTESIAN_POINT('Origin',(3.50181468412044,2.01967823379825,3.2));
#381=CARTESIAN_POINT('',(3.5,2.02072594216369,2.84697808998708));
#382=CARTESIAN_POINT('Ctrl Pts',(3.5,2.02072594216369,2.84697808998708));
#383=CARTESIAN_POINT('Ctrl Pts',(1.75,3.03108891324553,3.43031142332042));
#384=CARTESIAN_POINT('Ctrl Pts',(5.43746686938887E-15,4.04145188432738,
2.84697808998709));
#385=CARTESIAN_POINT('',(3.5,2.02072594216369,3.2));
#386=CARTESIAN_POINT('Origin',(3.5,-2.02282135889456,3.2));
#387=CARTESIAN_POINT('',(3.5,-2.46512233488407E-16,3.15958548115673));
#388=CARTESIAN_POINT('Ctrl Pts',(3.5,-6.4398087275241E-17,3.15958548115673));
#389=CARTESIAN_POINT('Ctrl Pts',(3.5,0.937822173508926,3.15958548115673));
#390=CARTESIAN_POINT('Ctrl Pts',(3.5,2.02072594216369,2.84697808998708));
#391=CARTESIAN_POINT('',(3.5,-2.02072594216369,2.84697808998708));
#392=CARTESIAN_POINT('Ctrl Pts',(3.5,-2.02072594216369,2.84697808998708));
#393=CARTESIAN_POINT('Ctrl Pts',(3.5,-0.937822173508929,3.15958548115673));
#394=CARTESIAN_POINT('Ctrl Pts',(3.5,-6.4398087275241E-17,3.15958548115673));
#395=CARTESIAN_POINT('',(3.5,-2.02072594216369,3.2));
#396=CARTESIAN_POINT('Origin',(-0.00181468412044694,-4.04249959269281,3.2));
#397=CARTESIAN_POINT('',(-4.00612685766587E-15,-4.04145188432738,2.84697808998708));
#398=CARTESIAN_POINT('Ctrl Pts',(-4.00612685766587E-15,-4.04145188432738,
2.84697808998708));
#399=CARTESIAN_POINT('Ctrl Pts',(1.75,-3.03108891324554,3.43031142332042));
#400=CARTESIAN_POINT('Ctrl Pts',(3.5,-2.02072594216369,2.84697808998708));
#401=CARTESIAN_POINT('',(-2.63677968348475E-15,-4.04145188432738,3.2));
#402=CARTESIAN_POINT('Origin',(-3.50181468412044,-2.01967823379825,3.2));
#403=CARTESIAN_POINT('Ctrl Pts',(-3.5,-2.02072594216369,2.84697808998708));
#404=CARTESIAN_POINT('Ctrl Pts',(-1.75,-3.03108891324553,3.43031142332042));
#405=CARTESIAN_POINT('Ctrl Pts',(-3.90177239856414E-15,-4.04145188432738,
2.84697808998708));
#406=CARTESIAN_POINT('Origin',(-3.43,0.,3.2));
#407=CARTESIAN_POINT('',(3.43,-4.20053852107542E-16,3.2));
#408=CARTESIAN_POINT('Origin',(0.,0.,3.2));
#409=CARTESIAN_POINT('Origin',(0.,0.,3.02318648006068));
#410=CARTESIAN_POINT('',(3.73625,-4.5755866033143E-16,3.02318648006068));
#411=CARTESIAN_POINT('Origin',(-2.,0.,0.));
#412=CARTESIAN_POINT('Origin',(0.,0.,1.6));
#413=CARTESIAN_POINT('',(1.666,-2.04026156737949E-16,1.6));
#414=CARTESIAN_POINT('',(0.,0.,0.));
#415=UNCERTAINTY_MEASURE_WITH_UNIT(LENGTH_MEASURE(0.01),#421,
'DISTANCE_ACCURACY_VALUE',
'Maximum model space distance between geometric entities at asserted c
onnectivities');
#416=UNCERTAINTY_MEASURE_WITH_UNIT(LENGTH_MEASURE(0.01),#421,
'DISTANCE_ACCURACY_VALUE',
'Maximum model space distance between geometric entities at asserted c
onnectivities');
#417=UNCERTAINTY_MEASURE_WITH_UNIT(LENGTH_MEASURE(0.01),#421,
'DISTANCE_ACCURACY_VALUE',
'Maximum model space distance between geometric entities at asserted c
onnectivities');
#418=(
GEOMETRIC_REPRESENTATION_CONTEXT(3)
GLOBAL_UNCERTAINTY_ASSIGNED_CONTEXT((#415))
GLOBAL_UNIT_ASSIGNED_CONTEXT((#421,#423,#424))
REPRESENTATION_CONTEXT('','3D')
);
#419=(
GEOMETRIC_REPRESENTATION_CONTEXT(3)
GLOBAL_UNCERTAINTY_ASSIGNED_CONTEXT((#416))
GLOBAL_UNIT_ASSIGNED_CONTEXT((#421,#423,#424))
REPRESENTATION_CONTEXT('','3D')
);
#420=(
GEOMETRIC_REPRESENTATION_CONTEXT(3)
GLOBAL_UNCERTAINTY_ASSIGNED_CONTEXT((#417))
GLOBAL_UNIT_ASSIGNED_CONTEXT((#421,#423,#424))
REPRESENTATION_CONTEXT('','3D')
);
#421=(
LENGTH_UNIT()
NAMED_UNIT(*)
SI_UNIT(.MILLI.,.METRE.)
);
#422=(
LENGTH_UNIT()
NAMED_UNIT(*)
SI_UNIT($,.METRE.)
);
#423=(
NAMED_UNIT(*)
PLANE_ANGLE_UNIT()
SI_UNIT($,.RADIAN.)
);
#424=(
NAMED_UNIT(*)
SI_UNIT($,.STERADIAN.)
SOLID_ANGLE_UNIT()
);
#425=SHAPE_DEFINITION_REPRESENTATION(#427,#430);
#426=SHAPE_DEFINITION_REPRESENTATION(#428,#431);
#427=PRODUCT_DEFINITION_SHAPE('',$,#433);
#428=PRODUCT_DEFINITION_SHAPE('',$,#434);
#429=PRODUCT_DEFINITION_SHAPE($,$,#14);
#430=SHAPE_REPRESENTATION('',(#243,#264),#418);
#431=SHAPE_REPRESENTATION('',(#244),#419);
#432=PRODUCT_DEFINITION_CONTEXT('part definition',#440,'design');
#433=PRODUCT_DEFINITION('2026-08-27-10-53-43-732','M4_nuts',#435,#432);
#434=PRODUCT_DEFINITION('ISO 4032 - M4 Steel 6 Plain',
'Hexagon Regular Nut ISO 4032 - M4 Steel 6 Plain',#436,#432);
#435=PRODUCT_DEFINITION_FORMATION('',$,#442);
#436=PRODUCT_DEFINITION_FORMATION('',$,#443);
#437=PRODUCT_RELATED_PRODUCT_CATEGORY('M4_nuts','M4_nuts',(#442));
#438=PRODUCT_RELATED_PRODUCT_CATEGORY(
'Hexagon Regular Nut ISO 4032 - M4 Steel 6 Plain',
'Hexagon Regular Nut ISO 4032 - M4 Steel 6 Plain',(#443));
#439=APPLICATION_PROTOCOL_DEFINITION('international standard',
'automotive_design',2009,#440);
#440=APPLICATION_CONTEXT(
'Core Data for Automotive Mechanical Design Process');
#441=PRODUCT_CONTEXT('part definition',#440,'mechanical');
#442=PRODUCT('2026-08-27-10-53-43-732','M4_nuts',$,(#441));
#443=PRODUCT('ISO 4032 - M4 Steel 6 Plain',
'Hexagon Regular Nut ISO 4032 - M4 Steel 6 Plain',
'Hexagon Regular Nut ISO 4032 - M4',(#441));
#444=PRESENTATION_STYLE_ASSIGNMENT((#446));
#445=PRESENTATION_STYLE_ASSIGNMENT((#447));
#446=SURFACE_STYLE_USAGE(.BOTH.,#448);
#447=SURFACE_STYLE_USAGE(.BOTH.,#449);
#448=SURFACE_SIDE_STYLE('',(#450));
#449=SURFACE_SIDE_STYLE('',(#451));
#450=SURFACE_STYLE_FILL_AREA(#452);
#451=SURFACE_STYLE_FILL_AREA(#453);
#452=FILL_AREA_STYLE('Steel - Satin',(#454));
#453=FILL_AREA_STYLE('Stainless Steel - Satin',(#455));
#454=FILL_AREA_STYLE_COLOUR('Steel - Satin',#456);
#455=FILL_AREA_STYLE_COLOUR('Stainless Steel - Satin',#457);
#456=COLOUR_RGB('Steel - Satin',0.627450980392157,0.627450980392157,0.627450980392157);
#457=COLOUR_RGB('Stainless Steel - Satin',0.796078431372549,0.796078431372549,
0.796078431372549);
ENDSEC;
END-ISO-10303-21;
