ISO-10303-21;
HEADER;
/* Generated by software containing ST-Developer
 * from STEP Tools, Inc. (www.steptools.com) 
 */

FILE_DESCRIPTION(
/* description */ (''),
/* implementation_level */ '2;1');

FILE_NAME(
/* name */ 'M6_bolts.step',
/* time_stamp */ '2026-09-23T13:15:42+05:30',
/* author */ (''),
/* organization */ (''),
/* preprocessor_version */ 'ST-DEVELOPER v20.1',
/* originating_system */ 'Autodesk Translation Framework v15.8.0.0',
/* authorisation */ '');

FILE_SCHEMA (('AUTOMOTIVE_DESIGN { 1 0 10303 214 3 1 1 }'));
ENDSEC;

DATA;
#10=MECHANICAL_DESIGN_GEOMETRIC_PRESENTATION_REPRESENTATION('',(#17),#488);
#11=ITEM_DEFINED_TRANSFORMATION($,$,#295,#322);
#12=(
REPRESENTATION_RELATIONSHIP($,$,#499,#498)
REPRESENTATION_RELATIONSHIP_WITH_TRANSFORMATION(#11)
SHAPE_REPRESENTATION_RELATIONSHIP()
);
#13=CONTEXT_DEPENDENT_SHAPE_REPRESENTATION(#12,#497);
#14=NEXT_ASSEMBLY_USAGE_OCCURRENCE(
'Hexagon Socket Head Cap Screw ISO 4762 - M6 x 25 Steel 4.6 Plain:1',
'Hexagon Socket Head Cap Screw ISO 4762 - M6 x 25 Steel 4.6 Plain:1',
'Hexagon Socket Head Cap Screw ISO 4762 - M6 x 25 Steel 4.6 Plain:1',#501,
#502,
'Hexagon Socket Head Cap Screw ISO 4762 - M6 x 25 Steel 4.6 Plain:1');
#15=SHAPE_REPRESENTATION_RELATIONSHIP('SRR','None',#499,#16);
#16=ADVANCED_BREP_SHAPE_REPRESENTATION('',(#18),#487);
#17=STYLED_ITEM('',(#512),#18);
#18=MANIFOLD_SOLID_BREP('Body1',#281);
#19=CYLINDRICAL_SURFACE('',#304,4.99999999999998);
#20=CYLINDRICAL_SURFACE('',#318,2.942);
#21=FACE_BOUND('',#61,.T.);
#22=FACE_BOUND('',#78,.T.);
#23=PLANE('',#303);
#24=PLANE('',#306);
#25=PLANE('',#307);
#26=PLANE('',#308);
#27=PLANE('',#309);
#28=PLANE('',#310);
#29=PLANE('',#311);
#30=PLANE('',#312);
#31=PLANE('',#313);
#32=PLANE('',#314);
#33=PLANE('',#315);
#34=PLANE('',#316);
#35=PLANE('',#317);
#36=PLANE('',#320);
#37=PLANE('',#321);
#38=TOROIDAL_SURFACE('',#299,4.39999999999998,0.6);
#39=FACE_OUTER_BOUND('',#58,.T.);
#40=FACE_OUTER_BOUND('',#59,.T.);
#41=FACE_OUTER_BOUND('',#60,.T.);
#42=FACE_OUTER_BOUND('',#62,.T.);
#43=FACE_OUTER_BOUND('',#63,.T.);
#44=FACE_OUTER_BOUND('',#64,.T.);
#45=FACE_OUTER_BOUND('',#65,.T.);
#46=FACE_OUTER_BOUND('',#66,.T.);
#47=FACE_OUTER_BOUND('',#67,.T.);
#48=FACE_OUTER_BOUND('',#68,.T.);
#49=FACE_OUTER_BOUND('',#69,.T.);
#50=FACE_OUTER_BOUND('',#70,.T.);
#51=FACE_OUTER_BOUND('',#71,.T.);
#52=FACE_OUTER_BOUND('',#72,.T.);
#53=FACE_OUTER_BOUND('',#73,.T.);
#54=FACE_OUTER_BOUND('',#74,.T.);
#55=FACE_OUTER_BOUND('',#75,.T.);
#56=FACE_OUTER_BOUND('',#76,.T.);
#57=FACE_OUTER_BOUND('',#77,.T.);
#58=EDGE_LOOP('',(#193,#194,#195,#196));
#59=EDGE_LOOP('',(#197,#198,#199,#200));
#60=EDGE_LOOP('',(#201));
#61=EDGE_LOOP('',(#202,#203,#204,#205,#206,#207));
#62=EDGE_LOOP('',(#208,#209,#210,#211));
#63=EDGE_LOOP('',(#212,#213,#214));
#64=EDGE_LOOP('',(#215,#216,#217));
#65=EDGE_LOOP('',(#218,#219,#220));
#66=EDGE_LOOP('',(#221,#222,#223));
#67=EDGE_LOOP('',(#224,#225,#226));
#68=EDGE_LOOP('',(#227,#228,#229));
#69=EDGE_LOOP('',(#230,#231,#232,#233));
#70=EDGE_LOOP('',(#234,#235,#236,#237));
#71=EDGE_LOOP('',(#238,#239,#240,#241));
#72=EDGE_LOOP('',(#242,#243,#244,#245));
#73=EDGE_LOOP('',(#246,#247,#248,#249));
#74=EDGE_LOOP('',(#250,#251,#252,#253));
#75=EDGE_LOOP('',(#254,#255,#256,#257));
#76=EDGE_LOOP('',(#258));
#77=EDGE_LOOP('',(#259));
#78=EDGE_LOOP('',(#260));
#79=LINE('',#414,#106);
#80=LINE('',#425,#107);
#81=LINE('',#427,#108);
#82=LINE('',#429,#109);
#83=LINE('',#431,#110);
#84=LINE('',#433,#111);
#85=LINE('',#434,#112);
#86=LINE('',#438,#113);
#87=LINE('',#442,#114);
#88=LINE('',#444,#115);
#89=LINE('',#445,#116);
#90=LINE('',#448,#117);
#91=LINE('',#449,#118);
#92=LINE('',#452,#119);
#93=LINE('',#453,#120);
#94=LINE('',#456,#121);
#95=LINE('',#457,#122);
#96=LINE('',#460,#123);
#97=LINE('',#461,#124);
#98=LINE('',#463,#125);
#99=LINE('',#465,#126);
#100=LINE('',#466,#127);
#101=LINE('',#468,#128);
#102=LINE('',#470,#129);
#103=LINE('',#472,#130);
#104=LINE('',#474,#131);
#105=LINE('',#478,#132);
#106=VECTOR('',#331,2.76000000000619);
#107=VECTOR('',#344,10.);
#108=VECTOR('',#345,10.);
#109=VECTOR('',#346,10.);
#110=VECTOR('',#347,10.);
#111=VECTOR('',#348,10.);
#112=VECTOR('',#349,10.);
#113=VECTOR('',#354,4.99999999999998);
#114=VECTOR('',#357,10.);
#115=VECTOR('',#358,10.);
#116=VECTOR('',#359,10.);
#117=VECTOR('',#362,10.);
#118=VECTOR('',#363,10.);
#119=VECTOR('',#366,10.);
#120=VECTOR('',#367,10.);
#121=VECTOR('',#370,10.);
#122=VECTOR('',#371,10.);
#123=VECTOR('',#374,10.);
#124=VECTOR('',#375,10.);
#125=VECTOR('',#378,10.);
#126=VECTOR('',#381,10.);
#127=VECTOR('',#382,10.);
#128=VECTOR('',#385,10.);
#129=VECTOR('',#388,10.);
#130=VECTOR('',#391,10.);
#131=VECTOR('',#394,10.);
#132=VECTOR('',#399,3.00000000000001);
#133=CIRCLE('',#297,2.942);
#134=CIRCLE('',#298,2.46000000000589);
#135=CIRCLE('',#300,4.99999999999998);
#136=CIRCLE('',#301,0.6);
#137=CIRCLE('',#302,4.39999999999998);
#138=CIRCLE('',#305,4.99999999999999);
#139=CIRCLE('',#319,2.942);
#140=VERTEX_POINT('',#411);
#141=VERTEX_POINT('',#413);
#142=VERTEX_POINT('',#417);
#143=VERTEX_POINT('',#419);
#144=VERTEX_POINT('',#423);
#145=VERTEX_POINT('',#424);
#146=VERTEX_POINT('',#426);
#147=VERTEX_POINT('',#428);
#148=VERTEX_POINT('',#430);
#149=VERTEX_POINT('',#432);
#150=VERTEX_POINT('',#436);
#151=VERTEX_POINT('',#440);
#152=VERTEX_POINT('',#441);
#153=VERTEX_POINT('',#443);
#154=VERTEX_POINT('',#447);
#155=VERTEX_POINT('',#451);
#156=VERTEX_POINT('',#455);
#157=VERTEX_POINT('',#459);
#158=VERTEX_POINT('',#477);
#159=EDGE_CURVE('',#140,#140,#133,.T.);
#160=EDGE_CURVE('',#140,#141,#79,.T.);
#161=EDGE_CURVE('',#141,#141,#134,.T.);
#162=EDGE_CURVE('',#142,#142,#135,.T.);
#163=EDGE_CURVE('',#142,#143,#136,.T.);
#164=EDGE_CURVE('',#143,#143,#137,.T.);
#165=EDGE_CURVE('',#144,#145,#80,.T.);
#166=EDGE_CURVE('',#145,#146,#81,.T.);
#167=EDGE_CURVE('',#146,#147,#82,.T.);
#168=EDGE_CURVE('',#147,#148,#83,.T.);
#169=EDGE_CURVE('',#148,#149,#84,.T.);
#170=EDGE_CURVE('',#149,#144,#85,.T.);
#171=EDGE_CURVE('',#150,#150,#138,.T.);
#172=EDGE_CURVE('',#150,#142,#86,.T.);
#173=EDGE_CURVE('',#151,#152,#87,.T.);
#174=EDGE_CURVE('',#153,#151,#88,.T.);
#175=EDGE_CURVE('',#153,#152,#89,.T.);
#176=EDGE_CURVE('',#154,#153,#90,.T.);
#177=EDGE_CURVE('',#154,#152,#91,.T.);
#178=EDGE_CURVE('',#155,#154,#92,.T.);
#179=EDGE_CURVE('',#155,#152,#93,.T.);
#180=EDGE_CURVE('',#156,#155,#94,.T.);
#181=EDGE_CURVE('',#156,#152,#95,.T.);
#182=EDGE_CURVE('',#157,#156,#96,.T.);
#183=EDGE_CURVE('',#157,#152,#97,.T.);
#184=EDGE_CURVE('',#151,#157,#98,.T.);
#185=EDGE_CURVE('',#144,#153,#99,.T.);
#186=EDGE_CURVE('',#145,#151,#100,.T.);
#187=EDGE_CURVE('',#149,#154,#101,.T.);
#188=EDGE_CURVE('',#148,#155,#102,.T.);
#189=EDGE_CURVE('',#147,#156,#103,.T.);
#190=EDGE_CURVE('',#146,#157,#104,.T.);
#191=EDGE_CURVE('',#140,#158,#105,.T.);
#192=EDGE_CURVE('',#158,#158,#139,.F.);
#193=ORIENTED_EDGE('',*,*,#159,.F.);
#194=ORIENTED_EDGE('',*,*,#160,.T.);
#195=ORIENTED_EDGE('',*,*,#161,.F.);
#196=ORIENTED_EDGE('',*,*,#160,.F.);
#197=ORIENTED_EDGE('',*,*,#162,.T.);
#198=ORIENTED_EDGE('',*,*,#163,.T.);
#199=ORIENTED_EDGE('',*,*,#164,.T.);
#200=ORIENTED_EDGE('',*,*,#163,.F.);
#201=ORIENTED_EDGE('',*,*,#164,.F.);
#202=ORIENTED_EDGE('',*,*,#165,.T.);
#203=ORIENTED_EDGE('',*,*,#166,.T.);
#204=ORIENTED_EDGE('',*,*,#167,.T.);
#205=ORIENTED_EDGE('',*,*,#168,.T.);
#206=ORIENTED_EDGE('',*,*,#169,.T.);
#207=ORIENTED_EDGE('',*,*,#170,.T.);
#208=ORIENTED_EDGE('',*,*,#171,.F.);
#209=ORIENTED_EDGE('',*,*,#172,.T.);
#210=ORIENTED_EDGE('',*,*,#162,.F.);
#211=ORIENTED_EDGE('',*,*,#172,.F.);
#212=ORIENTED_EDGE('',*,*,#173,.F.);
#213=ORIENTED_EDGE('',*,*,#174,.F.);
#214=ORIENTED_EDGE('',*,*,#175,.T.);
#215=ORIENTED_EDGE('',*,*,#175,.F.);
#216=ORIENTED_EDGE('',*,*,#176,.F.);
#217=ORIENTED_EDGE('',*,*,#177,.T.);
#218=ORIENTED_EDGE('',*,*,#177,.F.);
#219=ORIENTED_EDGE('',*,*,#178,.F.);
#220=ORIENTED_EDGE('',*,*,#179,.T.);
#221=ORIENTED_EDGE('',*,*,#179,.F.);
#222=ORIENTED_EDGE('',*,*,#180,.F.);
#223=ORIENTED_EDGE('',*,*,#181,.T.);
#224=ORIENTED_EDGE('',*,*,#181,.F.);
#225=ORIENTED_EDGE('',*,*,#182,.F.);
#226=ORIENTED_EDGE('',*,*,#183,.T.);
#227=ORIENTED_EDGE('',*,*,#183,.F.);
#228=ORIENTED_EDGE('',*,*,#184,.F.);
#229=ORIENTED_EDGE('',*,*,#173,.T.);
#230=ORIENTED_EDGE('',*,*,#165,.F.);
#231=ORIENTED_EDGE('',*,*,#185,.T.);
#232=ORIENTED_EDGE('',*,*,#174,.T.);
#233=ORIENTED_EDGE('',*,*,#186,.F.);
#234=ORIENTED_EDGE('',*,*,#170,.F.);
#235=ORIENTED_EDGE('',*,*,#187,.T.);
#236=ORIENTED_EDGE('',*,*,#176,.T.);
#237=ORIENTED_EDGE('',*,*,#185,.F.);
#238=ORIENTED_EDGE('',*,*,#169,.F.);
#239=ORIENTED_EDGE('',*,*,#188,.T.);
#240=ORIENTED_EDGE('',*,*,#178,.T.);
#241=ORIENTED_EDGE('',*,*,#187,.F.);
#242=ORIENTED_EDGE('',*,*,#168,.F.);
#243=ORIENTED_EDGE('',*,*,#189,.T.);
#244=ORIENTED_EDGE('',*,*,#180,.T.);
#245=ORIENTED_EDGE('',*,*,#188,.F.);
#246=ORIENTED_EDGE('',*,*,#167,.F.);
#247=ORIENTED_EDGE('',*,*,#190,.T.);
#248=ORIENTED_EDGE('',*,*,#182,.T.);
#249=ORIENTED_EDGE('',*,*,#189,.F.);
#250=ORIENTED_EDGE('',*,*,#166,.F.);
#251=ORIENTED_EDGE('',*,*,#186,.T.);
#252=ORIENTED_EDGE('',*,*,#184,.T.);
#253=ORIENTED_EDGE('',*,*,#190,.F.);
#254=ORIENTED_EDGE('',*,*,#159,.T.);
#255=ORIENTED_EDGE('',*,*,#191,.T.);
#256=ORIENTED_EDGE('',*,*,#192,.T.);
#257=ORIENTED_EDGE('',*,*,#191,.F.);
#258=ORIENTED_EDGE('',*,*,#161,.T.);
#259=ORIENTED_EDGE('',*,*,#171,.T.);
#260=ORIENTED_EDGE('',*,*,#192,.F.);
#261=CONICAL_SURFACE('',#296,2.76000000000619,0.785398163397966);
#262=ADVANCED_FACE('',(#39),#261,.T.);
#263=ADVANCED_FACE('',(#40),#38,.T.);
#264=ADVANCED_FACE('',(#41,#21),#23,.T.);
#265=ADVANCED_FACE('',(#42),#19,.T.);
#266=ADVANCED_FACE('',(#43),#24,.F.);
#267=ADVANCED_FACE('',(#44),#25,.F.);
#268=ADVANCED_FACE('',(#45),#26,.F.);
#269=ADVANCED_FACE('',(#46),#27,.F.);
#270=ADVANCED_FACE('',(#47),#28,.F.);
#271=ADVANCED_FACE('',(#48),#29,.F.);
#272=ADVANCED_FACE('',(#49),#30,.F.);
#273=ADVANCED_FACE('',(#50),#31,.F.);
#274=ADVANCED_FACE('',(#51),#32,.F.);
#275=ADVANCED_FACE('',(#52),#33,.F.);
#276=ADVANCED_FACE('',(#53),#34,.F.);
#277=ADVANCED_FACE('',(#54),#35,.F.);
#278=ADVANCED_FACE('',(#55),#20,.T.);
#279=ADVANCED_FACE('',(#56),#36,.T.);
#280=ADVANCED_FACE('',(#57,#22),#37,.T.);
#281=CLOSED_SHELL('',(#262,#263,#264,#265,#266,#267,#268,#269,#270,#271,
#272,#273,#274,#275,#276,#277,#278,#279,#280));
#282=DERIVED_UNIT_ELEMENT(#284,1.);
#283=DERIVED_UNIT_ELEMENT(#490,-3.);
#284=(
MASS_UNIT()
NAMED_UNIT(*)
SI_UNIT(.KILO.,.GRAM.)
);
#285=DERIVED_UNIT((#282,#283));
#286=MEASURE_REPRESENTATION_ITEM('density measure',
POSITIVE_RATIO_MEASURE(7750.),#285);
#287=PROPERTY_DEFINITION_REPRESENTATION(#292,#289);
#288=PROPERTY_DEFINITION_REPRESENTATION(#293,#290);
#289=REPRESENTATION('material name',(#291),#487);
#290=REPRESENTATION('density',(#286),#487);
#291=DESCRIPTIVE_REPRESENTATION_ITEM('Steel 4.6, Plain',
'Steel 4.6, Plain');
#292=PROPERTY_DEFINITION('material property','material name',#502);
#293=PROPERTY_DEFINITION('material property','density of part',#502);
#294=AXIS2_PLACEMENT_3D('',#408,#323,#324);
#295=AXIS2_PLACEMENT_3D('',#409,#325,#326);
#296=AXIS2_PLACEMENT_3D('',#410,#327,#328);
#297=AXIS2_PLACEMENT_3D('',#412,#329,#330);
#298=AXIS2_PLACEMENT_3D('',#415,#332,#333);
#299=AXIS2_PLACEMENT_3D('',#416,#334,#335);
#300=AXIS2_PLACEMENT_3D('',#418,#336,#337);
#301=AXIS2_PLACEMENT_3D('',#420,#338,#339);
#302=AXIS2_PLACEMENT_3D('',#421,#340,#341);
#303=AXIS2_PLACEMENT_3D('',#422,#342,#343);
#304=AXIS2_PLACEMENT_3D('',#435,#350,#351);
#305=AXIS2_PLACEMENT_3D('',#437,#352,#353);
#306=AXIS2_PLACEMENT_3D('',#439,#355,#356);
#307=AXIS2_PLACEMENT_3D('',#446,#360,#361);
#308=AXIS2_PLACEMENT_3D('',#450,#364,#365);
#309=AXIS2_PLACEMENT_3D('',#454,#368,#369);
#310=AXIS2_PLACEMENT_3D('',#458,#372,#373);
#311=AXIS2_PLACEMENT_3D('',#462,#376,#377);
#312=AXIS2_PLACEMENT_3D('',#464,#379,#380);
#313=AXIS2_PLACEMENT_3D('',#467,#383,#384);
#314=AXIS2_PLACEMENT_3D('',#469,#386,#387);
#315=AXIS2_PLACEMENT_3D('',#471,#389,#390);
#316=AXIS2_PLACEMENT_3D('',#473,#392,#393);
#317=AXIS2_PLACEMENT_3D('',#475,#395,#396);
#318=AXIS2_PLACEMENT_3D('',#476,#397,#398);
#319=AXIS2_PLACEMENT_3D('',#479,#400,#401);
#320=AXIS2_PLACEMENT_3D('',#480,#402,#403);
#321=AXIS2_PLACEMENT_3D('',#481,#404,#405);
#322=AXIS2_PLACEMENT_3D('',#482,#406,#407);
#323=DIRECTION('axis',(0.,0.,1.));
#324=DIRECTION('refdir',(1.,0.,0.));
#325=DIRECTION('axis',(0.,0.,1.));
#326=DIRECTION('refdir',(1.,0.,0.));
#327=DIRECTION('center_axis',(0.,0.,1.));
#328=DIRECTION('ref_axis',(-1.,0.,0.));
#329=DIRECTION('center_axis',(-2.4238991428046E-15,0.,1.));
#330=DIRECTION('ref_axis',(-1.,0.,-2.29581418523015E-15));
#331=DIRECTION('',(-0.707106781186914,8.65956056235942E-17,-0.707106781186181));
#332=DIRECTION('center_axis',(2.4238991428046E-15,0.,-1.));
#333=DIRECTION('ref_axis',(-1.,0.,0.));
#334=DIRECTION('center_axis',(2.4238991428046E-15,0.,-1.));
#335=DIRECTION('ref_axis',(-1.,0.,-2.48689957516036E-15));
#336=DIRECTION('center_axis',(-2.4238991428046E-15,0.,1.));
#337=DIRECTION('ref_axis',(1.,0.,2.42861286636754E-15));
#338=DIRECTION('center_axis',(-1.22464679914735E-16,-1.,-2.96842032669167E-31));
#339=DIRECTION('ref_axis',(1.,-1.22464679914735E-16,2.44249065417535E-15));
#340=DIRECTION('center_axis',(2.4238991428046E-15,0.,-1.));
#341=DIRECTION('ref_axis',(1.,0.,2.4238991428046E-15));
#342=DIRECTION('center_axis',(-2.4238991428046E-15,0.,1.));
#343=DIRECTION('ref_axis',(1.,0.,2.4238991428046E-15));
#344=DIRECTION('',(0.,1.,0.));
#345=DIRECTION('',(0.866025403784439,0.499999999999999,2.09915823388011E-15));
#346=DIRECTION('',(0.866025403784438,-0.500000000000001,2.09915823388011E-15));
#347=DIRECTION('',(0.,-1.,0.));
#348=DIRECTION('',(-0.866025403784439,-0.5,-2.09915823388011E-15));
#349=DIRECTION('',(-0.866025403784438,0.500000000000001,-2.09915823388011E-15));
#350=DIRECTION('center_axis',(2.4238991428046E-15,0.,-1.));
#351=DIRECTION('ref_axis',(-1.,0.,-2.29581418523015E-15));
#352=DIRECTION('center_axis',(2.4238991428046E-15,0.,-1.));
#353=DIRECTION('ref_axis',(1.,0.,2.4238991428046E-15));
#354=DIRECTION('',(-2.4238991428046E-15,0.,1.));
#355=DIRECTION('center_axis',(-0.0871557427476581,0.,-0.996194698091746));
#356=DIRECTION('ref_axis',(0.,1.,0.));
#357=DIRECTION('',(0.863550259614423,-0.498570974847158,-0.0755508581011305));
#358=DIRECTION('',(0.,1.,0.));
#359=DIRECTION('',(0.863550259614423,0.498570974847158,-0.0755508581011305));
#360=DIRECTION('center_axis',(-0.0435778713738291,-0.0754790873051733,-0.996194698091746));
#361=DIRECTION('ref_axis',(-0.866025403784438,0.500000000000001,0.));
#362=DIRECTION('',(-0.866025403784438,0.500000000000001,0.));
#363=DIRECTION('',(4.78143493748744E-16,0.997141949694316,-0.0755508581011305));
#364=DIRECTION('center_axis',(0.0435778713738291,-0.0754790873051733,-0.996194698091746));
#365=DIRECTION('ref_axis',(-0.866025403784439,-0.5,0.));
#366=DIRECTION('',(-0.866025403784439,-0.5,0.));
#367=DIRECTION('',(-0.863550259614423,0.498570974847158,-0.0755508581011305));
#368=DIRECTION('center_axis',(0.0871557427476581,0.,-0.996194698091746));
#369=DIRECTION('ref_axis',(0.,-1.,0.));
#370=DIRECTION('',(0.,-1.,0.));
#371=DIRECTION('',(-0.863550259614423,-0.498570974847158,-0.0755508581011305));
#372=DIRECTION('center_axis',(0.0435778713738291,0.0754790873051733,-0.996194698091746));
#373=DIRECTION('ref_axis',(0.866025403784438,-0.500000000000001,0.));
#374=DIRECTION('',(0.866025403784438,-0.500000000000001,0.));
#375=DIRECTION('',(-7.96905822914574E-16,-0.997141949694316,-0.0755508581011305));
#376=DIRECTION('center_axis',(-0.043577871373829,0.0754790873051733,-0.996194698091746));
#377=DIRECTION('ref_axis',(0.866025403784439,0.499999999999999,0.));
#378=DIRECTION('',(0.866025403784439,0.499999999999999,0.));
#379=DIRECTION('center_axis',(-1.,0.,0.));
#380=DIRECTION('ref_axis',(0.,1.,0.));
#381=DIRECTION('',(0.,0.,-1.));
#382=DIRECTION('',(0.,0.,-1.));
#383=DIRECTION('center_axis',(-0.500000000000001,-0.866025403784438,0.));
#384=DIRECTION('ref_axis',(-0.866025403784438,0.500000000000001,0.));
#385=DIRECTION('',(0.,0.,-1.));
#386=DIRECTION('center_axis',(0.5,-0.866025403784439,0.));
#387=DIRECTION('ref_axis',(-0.866025403784439,-0.5,0.));
#388=DIRECTION('',(0.,0.,-1.));
#389=DIRECTION('center_axis',(1.,0.,0.));
#390=DIRECTION('ref_axis',(0.,-1.,0.));
#391=DIRECTION('',(0.,0.,-1.));
#392=DIRECTION('center_axis',(0.500000000000001,0.866025403784438,0.));
#393=DIRECTION('ref_axis',(0.866025403784438,-0.500000000000001,0.));
#394=DIRECTION('',(0.,0.,-1.));
#395=DIRECTION('center_axis',(-0.5,0.866025403784439,0.));
#396=DIRECTION('ref_axis',(0.866025403784439,0.499999999999999,0.));
#397=DIRECTION('center_axis',(2.4238991428046E-15,0.,-1.));
#398=DIRECTION('ref_axis',(-1.,0.,-2.29581418523015E-15));
#399=DIRECTION('',(-2.4238991428046E-15,0.,1.));
#400=DIRECTION('center_axis',(-2.4238991428046E-15,0.,1.));
#401=DIRECTION('ref_axis',(-1.,0.,-2.29581418523015E-15));
#402=DIRECTION('center_axis',(2.4238991428046E-15,0.,-1.));
#403=DIRECTION('ref_axis',(-1.,0.,-2.4238991428046E-15));
#404=DIRECTION('center_axis',(2.4238991428046E-15,0.,-1.));
#405=DIRECTION('ref_axis',(-1.,0.,-2.4238991428046E-15));
#406=DIRECTION('',(0.,0.,1.));
#407=DIRECTION('',(1.,0.,0.));
#408=CARTESIAN_POINT('',(0.,0.,0.));
#409=CARTESIAN_POINT('',(0.,0.,0.));
#410=CARTESIAN_POINT('Origin',(0.,0.,-24.7));
#411=CARTESIAN_POINT('',(2.94200000000004,3.60291088309151E-16,-24.5180000000064));
#412=CARTESIAN_POINT('Origin',(4.45925486513993E-14,0.,-24.5180000000064));
#413=CARTESIAN_POINT('',(2.46000000000589,-3.0126311259097E-16,-25.));
#414=CARTESIAN_POINT('',(2.76000000000619,-3.38002516565428E-16,-24.7));
#415=CARTESIAN_POINT('Origin',(0.,0.,-25.));
#416=CARTESIAN_POINT('Origin',(-2.7925665903043E-14,0.,5.39999999999951));
#417=CARTESIAN_POINT('',(4.99999999999996,-6.12323399573675E-16,5.39999999999952));
#418=CARTESIAN_POINT('Origin',(-2.7925665903043E-14,0.,5.39999999999951));
#419=CARTESIAN_POINT('',(4.39999999999996,-5.38844591624834E-16,5.99999999999952));
#420=CARTESIAN_POINT('Origin',(4.39999999999996,-5.38844591624834E-16,5.39999999999952));
#421=CARTESIAN_POINT('Origin',(-2.93800053887258E-14,0.,5.99999999999951));
#422=CARTESIAN_POINT('Origin',(-5.00000000000001,0.,5.9999999999995));
#423=CARTESIAN_POINT('',(-2.5,-1.44337567297406,6.));
#424=CARTESIAN_POINT('',(-2.5,1.44337567297406,6.));
#425=CARTESIAN_POINT('',(-2.5,-0.721687836487031,5.9999999999995));
#426=CARTESIAN_POINT('',(2.36076533307182E-15,2.88675134594813,6.));
#427=CARTESIAN_POINT('',(-3.75,0.721687836487031,5.9999999999995));
#428=CARTESIAN_POINT('',(2.5,1.44337567297406,6.));
#429=CARTESIAN_POINT('',(-1.25,3.60843918243516,5.99999999999951));
#430=CARTESIAN_POINT('',(2.5,-1.44337567297406,6.));
#431=CARTESIAN_POINT('',(2.5,0.721687836487031,5.99999999999952));
#432=CARTESIAN_POINT('',(-2.03830008427275E-16,-2.88675134594813,6.));
#433=CARTESIAN_POINT('',(-4.99600361081277E-15,-2.88675134594813,5.99999999999951));
#434=CARTESIAN_POINT('',(-2.5,-1.44337567297406,5.9999999999995));
#435=CARTESIAN_POINT('Origin',(-2.21083079603109E-14,0.,2.99999999999907));
#436=CARTESIAN_POINT('',(4.99999999999997,-6.12323399573675E-16,-1.35724764760425E-12));
#437=CARTESIAN_POINT('Origin',(-1.48366105318961E-14,0.,-1.36858807885608E-12));
#438=CARTESIAN_POINT('',(4.99999999999996,-6.12323399573675E-16,2.99999999999908));
#439=CARTESIAN_POINT('Origin',(-2.5,1.44337567297406,3.));
#440=CARTESIAN_POINT('',(-2.5,1.44337567297406,3.));
#441=CARTESIAN_POINT('',(1.94289029309402E-15,1.94289029309402E-15,2.78127834118519));
#442=CARTESIAN_POINT('',(-1.87856745759988,1.08459142733617,2.9456316973939));
#443=CARTESIAN_POINT('',(-2.5,-1.44337567297406,3.));
#444=CARTESIAN_POINT('',(-2.5,1.44337567297406,3.));
#445=CARTESIAN_POINT('',(-1.87856745759989,-1.08459142733616,2.9456316973939));
#446=CARTESIAN_POINT('Origin',(-2.5,-1.44337567297406,3.));
#447=CARTESIAN_POINT('',(-2.03830008427275E-16,-2.88675134594813,3.));
#448=CARTESIAN_POINT('',(-2.5,-1.44337567297406,3.));
#449=CARTESIAN_POINT('',(-1.80411241501588E-15,-2.16918285467233,2.9456316973939));
#450=CARTESIAN_POINT('Origin',(-2.03830008427275E-16,-2.88675134594813,
3.));
#451=CARTESIAN_POINT('',(2.5,-1.44337567297406,3.));
#452=CARTESIAN_POINT('',(-2.03830008427275E-16,-2.88675134594813,3.));
#453=CARTESIAN_POINT('',(1.87856745759989,-1.08459142733617,2.9456316973939));
#454=CARTESIAN_POINT('Origin',(2.5,-1.44337567297406,3.));
#455=CARTESIAN_POINT('',(2.5,1.44337567297406,3.));
#456=CARTESIAN_POINT('',(2.5,-1.44337567297406,3.));
#457=CARTESIAN_POINT('',(1.87856745759989,1.08459142733616,2.9456316973939));
#458=CARTESIAN_POINT('Origin',(2.5,1.44337567297406,3.));
#459=CARTESIAN_POINT('',(2.36076533307182E-15,2.88675134594813,3.));
#460=CARTESIAN_POINT('',(2.5,1.44337567297406,3.));
#461=CARTESIAN_POINT('',(3.05311331771918E-15,2.16918285467233,2.9456316973939));
#462=CARTESIAN_POINT('Origin',(2.36076533307182E-15,2.88675134594813,3.));
#463=CARTESIAN_POINT('',(2.36076533307182E-15,2.88675134594813,3.));
#464=CARTESIAN_POINT('Origin',(-2.5,-1.44337567297406,6.));
#465=CARTESIAN_POINT('',(-2.5,-1.44337567297406,6.));
#466=CARTESIAN_POINT('',(-2.5,1.44337567297406,6.));
#467=CARTESIAN_POINT('Origin',(-5.55111512312578E-16,-2.88675134594813,
6.));
#468=CARTESIAN_POINT('',(-2.03830008427275E-16,-2.88675134594813,6.));
#469=CARTESIAN_POINT('Origin',(2.5,-1.44337567297406,6.));
#470=CARTESIAN_POINT('',(2.5,-1.44337567297406,6.));
#471=CARTESIAN_POINT('Origin',(2.5,1.44337567297406,6.));
#472=CARTESIAN_POINT('',(2.5,1.44337567297406,6.));
#473=CARTESIAN_POINT('Origin',(2.77555756156289E-15,2.88675134594813,6.));
#474=CARTESIAN_POINT('',(2.36076533307182E-15,2.88675134594813,6.));
#475=CARTESIAN_POINT('Origin',(-2.5,1.44337567297406,6.));
#476=CARTESIAN_POINT('Origin',(1.54621287531591E-14,0.,-12.5000000000004));
#477=CARTESIAN_POINT('',(2.94199999999999,3.60291088309151E-16,-8.14810752889669E-13));
#478=CARTESIAN_POINT('',(2.94200000000002,-3.60291088309151E-16,-12.5000000000004));
#479=CARTESIAN_POINT('Origin',(-1.48366105318974E-14,0.,-8.21565038222616E-13));
#480=CARTESIAN_POINT('Origin',(4.55191440096314E-14,0.,-25.));
#481=CARTESIAN_POINT('Origin',(-3.,0.,-8.2842454474206E-13));
#482=CARTESIAN_POINT('',(0.,0.,0.));
#483=UNCERTAINTY_MEASURE_WITH_UNIT(LENGTH_MEASURE(0.01),#489,
'DISTANCE_ACCURACY_VALUE',
'Maximum model space distance between geometric entities at asserted c
onnectivities');
#484=UNCERTAINTY_MEASURE_WITH_UNIT(LENGTH_MEASURE(0.01),#489,
'DISTANCE_ACCURACY_VALUE',
'Maximum model space distance between geometric entities at asserted c
onnectivities');
#485=UNCERTAINTY_MEASURE_WITH_UNIT(LENGTH_MEASURE(0.01),#489,
'DISTANCE_ACCURACY_VALUE',
'Maximum model space distance between geometric entities at asserted c
onnectivities');
#486=(
GEOMETRIC_REPRESENTATION_CONTEXT(3)
GLOBAL_UNCERTAINTY_ASSIGNED_CONTEXT((#483))
GLOBAL_UNIT_ASSIGNED_CONTEXT((#489,#491,#492))
REPRESENTATION_CONTEXT('','3D')
);
#487=(
GEOMETRIC_REPRESENTATION_CONTEXT(3)
GLOBAL_UNCERTAINTY_ASSIGNED_CONTEXT((#484))
GLOBAL_UNIT_ASSIGNED_CONTEXT((#489,#491,#492))
REPRESENTATION_CONTEXT('','3D')
);
#488=(
GEOMETRIC_REPRESENTATION_CONTEXT(3)
GLOBAL_UNCERTAINTY_ASSIGNED_CONTEXT((#485))
GLOBAL_UNIT_ASSIGNED_CONTEXT((#489,#491,#492))
REPRESENTATION_CONTEXT('','3D')
);
#489=(
LENGTH_UNIT()
NAMED_UNIT(*)
SI_UNIT(.MILLI.,.METRE.)
);
#490=(
LENGTH_UNIT()
NAMED_UNIT(*)
SI_UNIT($,.METRE.)
);
#491=(
NAMED_UNIT(*)
PLANE_ANGLE_UNIT()
SI_UNIT($,.RADIAN.)
);
#492=(
NAMED_UNIT(*)
SI_UNIT($,.STERADIAN.)
SOLID_ANGLE_UNIT()
);
#493=SHAPE_DEFINITION_REPRESENTATION(#495,#498);
#494=SHAPE_DEFINITION_REPRESENTATION(#496,#499);
#495=PRODUCT_DEFINITION_SHAPE('',$,#501);
#496=PRODUCT_DEFINITION_SHAPE('',$,#502);
#497=PRODUCT_DEFINITION_SHAPE($,$,#14);
#498=SHAPE_REPRESENTATION('',(#294,#322),#486);
#499=SHAPE_REPRESENTATION('',(#295),#487);
#500=PRODUCT_DEFINITION_CONTEXT('part definition',#508,'design');
#501=PRODUCT_DEFINITION('2026-08-27-10-58-41-734','M6_bolts',#503,#500);
#502=PRODUCT_DEFINITION('ISO 4762 - M6 x 25 Steel 4.6 Plain',
'Hexagon Socket Head Cap Screw ISO 4762 - M6 x 25 Steel 4.6 Plain',#504,
#500);
#503=PRODUCT_DEFINITION_FORMATION('',$,#510);
#504=PRODUCT_DEFINITION_FORMATION('',$,#511);
#505=PRODUCT_RELATED_PRODUCT_CATEGORY('M6_bolts','M6_bolts',(#510));
#506=PRODUCT_RELATED_PRODUCT_CATEGORY(
'Hexagon Socket Head Cap Screw ISO 4762 - M6 x 25 Steel 4.6 Plain',
'Hexagon Socket Head Cap Screw ISO 4762 - M6 x 25 Steel 4.6 Plain',(#511));
#507=APPLICATION_PROTOCOL_DEFINITION('international standard',
'automotive_design',2009,#508);
#508=APPLICATION_CONTEXT(
'Core Data for Automotive Mechanical Design Process');
#509=PRODUCT_CONTEXT('part definition',#508,'mechanical');
#510=PRODUCT('2026-08-27-10-58-41-734','M6_bolts',$,(#509));
#511=PRODUCT('ISO 4762 - M6 x 25 Steel 4.6 Plain',
'Hexagon Socket Head Cap Screw ISO 4762 - M6 x 25 Steel 4.6 Plain',
'Hexagon Socket Head Cap Screw ISO 4762 - M6 x 25',(#509));
#512=PRESENTATION_STYLE_ASSIGNMENT((#513));
#513=SURFACE_STYLE_USAGE(.BOTH.,#514);
#514=SURFACE_SIDE_STYLE('',(#515));
#515=SURFACE_STYLE_FILL_AREA(#516);
#516=FILL_AREA_STYLE('Steel - Satin',(#517));
#517=FILL_AREA_STYLE_COLOUR('Steel - Satin',#518);
#518=COLOUR_RGB('Steel - Satin',0.627450980392157,0.627450980392157,0.627450980392157);
ENDSEC;
END-ISO-10303-21;
