ISO-10303-21;
HEADER;
/* Generated by software containing ST-Developer
 * from STEP Tools, Inc. (www.steptools.com) 
 */

FILE_DESCRIPTION(
/* description */ (''),
/* implementation_level */ '2;1');

FILE_NAME(
/* name */ 'top_plate.step',
/* time_stamp */ '2026-09-23T13:11:21+05:30',
/* author */ (''),
/* organization */ (''),
/* preprocessor_version */ 'ST-DEVELOPER v20.1',
/* originating_system */ 'Autodesk Translation Framework v15.8.0.0',
/* authorisation */ '');

FILE_SCHEMA (('AUTOMOTIVE_DESIGN { 1 0 10303 214 3 1 1 }'));
ENDSEC;

DATA;
#10=MECHANICAL_DESIGN_GEOMETRIC_PRESENTATION_REPRESENTATION('',(#13),#1125);
#11=SHAPE_REPRESENTATION_RELATIONSHIP('SRR','None',#1132,#12);
#12=ADVANCED_BREP_SHAPE_REPRESENTATION('',(#14),#1124);
#13=STYLED_ITEM('',(#1141),#14);
#14=MANIFOLD_SOLID_BREP('Body1',#617);
#15=FACE_BOUND('',#92,.T.);
#16=FACE_BOUND('',#93,.T.);
#17=FACE_BOUND('',#94,.T.);
#18=FACE_BOUND('',#95,.T.);
#19=FACE_BOUND('',#96,.T.);
#20=FACE_BOUND('',#97,.T.);
#21=FACE_BOUND('',#99,.T.);
#22=FACE_BOUND('',#100,.T.);
#23=FACE_BOUND('',#101,.T.);
#24=FACE_BOUND('',#102,.T.);
#25=FACE_BOUND('',#103,.T.);
#26=FACE_BOUND('',#104,.T.);
#27=PLANE('',#721);
#28=PLANE('',#722);
#29=FACE_OUTER_BOUND('',#61,.T.);
#30=FACE_OUTER_BOUND('',#62,.T.);
#31=FACE_OUTER_BOUND('',#63,.T.);
#32=FACE_OUTER_BOUND('',#64,.T.);
#33=FACE_OUTER_BOUND('',#65,.T.);
#34=FACE_OUTER_BOUND('',#66,.T.);
#35=FACE_OUTER_BOUND('',#67,.T.);
#36=FACE_OUTER_BOUND('',#68,.T.);
#37=FACE_OUTER_BOUND('',#69,.T.);
#38=FACE_OUTER_BOUND('',#70,.T.);
#39=FACE_OUTER_BOUND('',#71,.T.);
#40=FACE_OUTER_BOUND('',#72,.T.);
#41=FACE_OUTER_BOUND('',#73,.T.);
#42=FACE_OUTER_BOUND('',#74,.T.);
#43=FACE_OUTER_BOUND('',#75,.T.);
#44=FACE_OUTER_BOUND('',#76,.T.);
#45=FACE_OUTER_BOUND('',#77,.T.);
#46=FACE_OUTER_BOUND('',#78,.T.);
#47=FACE_OUTER_BOUND('',#79,.T.);
#48=FACE_OUTER_BOUND('',#80,.T.);
#49=FACE_OUTER_BOUND('',#81,.T.);
#50=FACE_OUTER_BOUND('',#82,.T.);
#51=FACE_OUTER_BOUND('',#83,.T.);
#52=FACE_OUTER_BOUND('',#84,.T.);
#53=FACE_OUTER_BOUND('',#85,.T.);
#54=FACE_OUTER_BOUND('',#86,.T.);
#55=FACE_OUTER_BOUND('',#87,.T.);
#56=FACE_OUTER_BOUND('',#88,.T.);
#57=FACE_OUTER_BOUND('',#89,.T.);
#58=FACE_OUTER_BOUND('',#90,.T.);
#59=FACE_OUTER_BOUND('',#91,.T.);
#60=FACE_OUTER_BOUND('',#98,.T.);
#61=EDGE_LOOP('',(#375,#376,#377,#378));
#62=EDGE_LOOP('',(#379,#380,#381,#382));
#63=EDGE_LOOP('',(#383,#384,#385,#386));
#64=EDGE_LOOP('',(#387,#388,#389,#390));
#65=EDGE_LOOP('',(#391,#392,#393,#394));
#66=EDGE_LOOP('',(#395,#396,#397,#398));
#67=EDGE_LOOP('',(#399,#400,#401,#402));
#68=EDGE_LOOP('',(#403,#404,#405,#406));
#69=EDGE_LOOP('',(#407,#408,#409,#410));
#70=EDGE_LOOP('',(#411,#412,#413,#414));
#71=EDGE_LOOP('',(#415,#416,#417,#418));
#72=EDGE_LOOP('',(#419,#420,#421,#422));
#73=EDGE_LOOP('',(#423,#424,#425,#426));
#74=EDGE_LOOP('',(#427,#428,#429,#430));
#75=EDGE_LOOP('',(#431,#432,#433,#434));
#76=EDGE_LOOP('',(#435,#436,#437,#438));
#77=EDGE_LOOP('',(#439,#440,#441,#442));
#78=EDGE_LOOP('',(#443,#444,#445,#446));
#79=EDGE_LOOP('',(#447,#448,#449,#450));
#80=EDGE_LOOP('',(#451,#452,#453,#454));
#81=EDGE_LOOP('',(#455,#456,#457,#458));
#82=EDGE_LOOP('',(#459,#460,#461,#462));
#83=EDGE_LOOP('',(#463,#464,#465,#466));
#84=EDGE_LOOP('',(#467,#468,#469,#470));
#85=EDGE_LOOP('',(#471,#472,#473,#474));
#86=EDGE_LOOP('',(#475,#476,#477,#478));
#87=EDGE_LOOP('',(#479,#480,#481,#482));
#88=EDGE_LOOP('',(#483,#484,#485,#486));
#89=EDGE_LOOP('',(#487,#488,#489,#490));
#90=EDGE_LOOP('',(#491,#492,#493,#494));
#91=EDGE_LOOP('',(#495,#496,#497,#498,#499,#500,#501,#502,#503,#504,#505,
#506,#507,#508,#509,#510,#511,#512,#513,#514,#515,#516,#517,#518));
#92=EDGE_LOOP('',(#519));
#93=EDGE_LOOP('',(#520));
#94=EDGE_LOOP('',(#521));
#95=EDGE_LOOP('',(#522));
#96=EDGE_LOOP('',(#523));
#97=EDGE_LOOP('',(#524));
#98=EDGE_LOOP('',(#525,#526,#527,#528,#529,#530,#531,#532,#533,#534,#535,
#536,#537,#538,#539,#540,#541,#542,#543,#544,#545,#546,#547,#548));
#99=EDGE_LOOP('',(#549));
#100=EDGE_LOOP('',(#550));
#101=EDGE_LOOP('',(#551));
#102=EDGE_LOOP('',(#552));
#103=EDGE_LOOP('',(#553));
#104=EDGE_LOOP('',(#554));
#105=LINE('',#944,#135);
#106=LINE('',#950,#136);
#107=LINE('',#956,#137);
#108=LINE('',#962,#138);
#109=LINE('',#968,#139);
#110=LINE('',#974,#140);
#111=LINE('',#981,#141);
#112=LINE('',#984,#142);
#113=LINE('',#990,#143);
#114=LINE('',#996,#144);
#115=LINE('',#1002,#145);
#116=LINE('',#1008,#146);
#117=LINE('',#1014,#147);
#118=LINE('',#1020,#148);
#119=LINE('',#1026,#149);
#120=LINE('',#1032,#150);
#121=LINE('',#1038,#151);
#122=LINE('',#1044,#152);
#123=LINE('',#1050,#153);
#124=LINE('',#1056,#154);
#125=LINE('',#1062,#155);
#126=LINE('',#1068,#156);
#127=LINE('',#1074,#157);
#128=LINE('',#1080,#158);
#129=LINE('',#1086,#159);
#130=LINE('',#1092,#160);
#131=LINE('',#1098,#161);
#132=LINE('',#1104,#162);
#133=LINE('',#1110,#163);
#134=LINE('',#1116,#164);
#135=VECTOR('',#729,3.00000000000001);
#136=VECTOR('',#736,3.);
#137=VECTOR('',#743,3.00000000000001);
#138=VECTOR('',#750,3.);
#139=VECTOR('',#757,3.00000000000001);
#140=VECTOR('',#764,3.00000000000001);
#141=VECTOR('',#771,10.);
#142=VECTOR('',#774,10.);
#143=VECTOR('',#781,10.);
#144=VECTOR('',#788,10.);
#145=VECTOR('',#795,10.);
#146=VECTOR('',#802,10.);
#147=VECTOR('',#809,10.);
#148=VECTOR('',#816,10.);
#149=VECTOR('',#823,10.);
#150=VECTOR('',#830,10.);
#151=VECTOR('',#837,10.);
#152=VECTOR('',#844,10.);
#153=VECTOR('',#851,10.);
#154=VECTOR('',#858,10.);
#155=VECTOR('',#865,10.);
#156=VECTOR('',#872,10.);
#157=VECTOR('',#879,10.);
#158=VECTOR('',#886,10.);
#159=VECTOR('',#893,10.);
#160=VECTOR('',#900,10.);
#161=VECTOR('',#907,10.);
#162=VECTOR('',#914,10.);
#163=VECTOR('',#921,10.);
#164=VECTOR('',#928,10.);
#165=CIRCLE('',#632,3.00000000000001);
#166=CIRCLE('',#633,3.00000000000001);
#167=CIRCLE('',#635,3.);
#168=CIRCLE('',#636,3.);
#169=CIRCLE('',#638,3.00000000000001);
#170=CIRCLE('',#639,3.00000000000001);
#171=CIRCLE('',#641,3.);
#172=CIRCLE('',#642,3.);
#173=CIRCLE('',#644,3.00000000000001);
#174=CIRCLE('',#645,3.00000000000001);
#175=CIRCLE('',#647,3.00000000000001);
#176=CIRCLE('',#648,3.00000000000001);
#177=CIRCLE('',#650,6.50000000000015);
#178=CIRCLE('',#651,6.50000000000015);
#179=CIRCLE('',#653,5.00000000000005);
#180=CIRCLE('',#654,5.00000000000005);
#181=CIRCLE('',#656,75.);
#182=CIRCLE('',#657,75.);
#183=CIRCLE('',#659,5.00000000000003);
#184=CIRCLE('',#660,5.00000000000003);
#185=CIRCLE('',#662,6.50000000000015);
#186=CIRCLE('',#663,6.50000000000015);
#187=CIRCLE('',#665,5.00000000000001);
#188=CIRCLE('',#666,5.00000000000001);
#189=CIRCLE('',#668,75.);
#190=CIRCLE('',#669,75.);
#191=CIRCLE('',#671,5.00000000000001);
#192=CIRCLE('',#672,5.00000000000001);
#193=CIRCLE('',#674,6.5);
#194=CIRCLE('',#675,6.5);
#195=CIRCLE('',#677,5.00000000000001);
#196=CIRCLE('',#678,5.00000000000001);
#197=CIRCLE('',#680,75.);
#198=CIRCLE('',#681,75.);
#199=CIRCLE('',#683,5.00000000000001);
#200=CIRCLE('',#684,5.00000000000001);
#201=CIRCLE('',#686,6.50000000000015);
#202=CIRCLE('',#687,6.50000000000015);
#203=CIRCLE('',#689,5.00000000000004);
#204=CIRCLE('',#690,5.00000000000004);
#205=CIRCLE('',#692,75.);
#206=CIRCLE('',#693,75.);
#207=CIRCLE('',#695,5.00000000000004);
#208=CIRCLE('',#696,5.00000000000004);
#209=CIRCLE('',#698,6.50000000000013);
#210=CIRCLE('',#699,6.50000000000013);
#211=CIRCLE('',#701,5.00000000000002);
#212=CIRCLE('',#702,5.00000000000002);
#213=CIRCLE('',#704,75.);
#214=CIRCLE('',#705,75.);
#215=CIRCLE('',#707,5.00000000000002);
#216=CIRCLE('',#708,5.00000000000002);
#217=CIRCLE('',#710,6.5);
#218=CIRCLE('',#711,6.5);
#219=CIRCLE('',#713,5.00000000000001);
#220=CIRCLE('',#714,5.00000000000001);
#221=CIRCLE('',#716,75.);
#222=CIRCLE('',#717,75.);
#223=CIRCLE('',#719,5.00000000000001);
#224=CIRCLE('',#720,5.00000000000001);
#225=VERTEX_POINT('',#941);
#226=VERTEX_POINT('',#943);
#227=VERTEX_POINT('',#947);
#228=VERTEX_POINT('',#949);
#229=VERTEX_POINT('',#953);
#230=VERTEX_POINT('',#955);
#231=VERTEX_POINT('',#959);
#232=VERTEX_POINT('',#961);
#233=VERTEX_POINT('',#965);
#234=VERTEX_POINT('',#967);
#235=VERTEX_POINT('',#971);
#236=VERTEX_POINT('',#973);
#237=VERTEX_POINT('',#977);
#238=VERTEX_POINT('',#978);
#239=VERTEX_POINT('',#980);
#240=VERTEX_POINT('',#982);
#241=VERTEX_POINT('',#986);
#242=VERTEX_POINT('',#988);
#243=VERTEX_POINT('',#992);
#244=VERTEX_POINT('',#994);
#245=VERTEX_POINT('',#998);
#246=VERTEX_POINT('',#1000);
#247=VERTEX_POINT('',#1004);
#248=VERTEX_POINT('',#1006);
#249=VERTEX_POINT('',#1010);
#250=VERTEX_POINT('',#1012);
#251=VERTEX_POINT('',#1016);
#252=VERTEX_POINT('',#1018);
#253=VERTEX_POINT('',#1022);
#254=VERTEX_POINT('',#1024);
#255=VERTEX_POINT('',#1028);
#256=VERTEX_POINT('',#1030);
#257=VERTEX_POINT('',#1034);
#258=VERTEX_POINT('',#1036);
#259=VERTEX_POINT('',#1040);
#260=VERTEX_POINT('',#1042);
#261=VERTEX_POINT('',#1046);
#262=VERTEX_POINT('',#1048);
#263=VERTEX_POINT('',#1052);
#264=VERTEX_POINT('',#1054);
#265=VERTEX_POINT('',#1058);
#266=VERTEX_POINT('',#1060);
#267=VERTEX_POINT('',#1064);
#268=VERTEX_POINT('',#1066);
#269=VERTEX_POINT('',#1070);
#270=VERTEX_POINT('',#1072);
#271=VERTEX_POINT('',#1076);
#272=VERTEX_POINT('',#1078);
#273=VERTEX_POINT('',#1082);
#274=VERTEX_POINT('',#1084);
#275=VERTEX_POINT('',#1088);
#276=VERTEX_POINT('',#1090);
#277=VERTEX_POINT('',#1094);
#278=VERTEX_POINT('',#1096);
#279=VERTEX_POINT('',#1100);
#280=VERTEX_POINT('',#1102);
#281=VERTEX_POINT('',#1106);
#282=VERTEX_POINT('',#1108);
#283=VERTEX_POINT('',#1112);
#284=VERTEX_POINT('',#1114);
#285=EDGE_CURVE('',#225,#225,#165,.T.);
#286=EDGE_CURVE('',#225,#226,#105,.T.);
#287=EDGE_CURVE('',#226,#226,#166,.T.);
#288=EDGE_CURVE('',#227,#227,#167,.T.);
#289=EDGE_CURVE('',#227,#228,#106,.T.);
#290=EDGE_CURVE('',#228,#228,#168,.T.);
#291=EDGE_CURVE('',#229,#229,#169,.T.);
#292=EDGE_CURVE('',#229,#230,#107,.T.);
#293=EDGE_CURVE('',#230,#230,#170,.T.);
#294=EDGE_CURVE('',#231,#231,#171,.T.);
#295=EDGE_CURVE('',#231,#232,#108,.T.);
#296=EDGE_CURVE('',#232,#232,#172,.T.);
#297=EDGE_CURVE('',#233,#233,#173,.T.);
#298=EDGE_CURVE('',#233,#234,#109,.T.);
#299=EDGE_CURVE('',#234,#234,#174,.T.);
#300=EDGE_CURVE('',#235,#235,#175,.T.);
#301=EDGE_CURVE('',#235,#236,#110,.T.);
#302=EDGE_CURVE('',#236,#236,#176,.T.);
#303=EDGE_CURVE('',#237,#238,#177,.T.);
#304=EDGE_CURVE('',#237,#239,#111,.T.);
#305=EDGE_CURVE('',#240,#239,#178,.T.);
#306=EDGE_CURVE('',#238,#240,#112,.T.);
#307=EDGE_CURVE('',#241,#238,#179,.T.);
#308=EDGE_CURVE('',#242,#240,#180,.T.);
#309=EDGE_CURVE('',#241,#242,#113,.T.);
#310=EDGE_CURVE('',#243,#241,#181,.T.);
#311=EDGE_CURVE('',#244,#242,#182,.T.);
#312=EDGE_CURVE('',#243,#244,#114,.T.);
#313=EDGE_CURVE('',#245,#243,#183,.T.);
#314=EDGE_CURVE('',#246,#244,#184,.T.);
#315=EDGE_CURVE('',#245,#246,#115,.T.);
#316=EDGE_CURVE('',#245,#247,#185,.T.);
#317=EDGE_CURVE('',#248,#246,#186,.T.);
#318=EDGE_CURVE('',#247,#248,#116,.T.);
#319=EDGE_CURVE('',#249,#247,#187,.T.);
#320=EDGE_CURVE('',#250,#248,#188,.T.);
#321=EDGE_CURVE('',#249,#250,#117,.T.);
#322=EDGE_CURVE('',#251,#249,#189,.T.);
#323=EDGE_CURVE('',#252,#250,#190,.T.);
#324=EDGE_CURVE('',#251,#252,#118,.T.);
#325=EDGE_CURVE('',#253,#251,#191,.T.);
#326=EDGE_CURVE('',#254,#252,#192,.T.);
#327=EDGE_CURVE('',#253,#254,#119,.T.);
#328=EDGE_CURVE('',#253,#255,#193,.T.);
#329=EDGE_CURVE('',#256,#254,#194,.T.);
#330=EDGE_CURVE('',#255,#256,#120,.T.);
#331=EDGE_CURVE('',#257,#255,#195,.T.);
#332=EDGE_CURVE('',#258,#256,#196,.T.);
#333=EDGE_CURVE('',#257,#258,#121,.T.);
#334=EDGE_CURVE('',#259,#257,#197,.T.);
#335=EDGE_CURVE('',#260,#258,#198,.T.);
#336=EDGE_CURVE('',#259,#260,#122,.T.);
#337=EDGE_CURVE('',#261,#259,#199,.T.);
#338=EDGE_CURVE('',#262,#260,#200,.T.);
#339=EDGE_CURVE('',#261,#262,#123,.T.);
#340=EDGE_CURVE('',#261,#263,#201,.T.);
#341=EDGE_CURVE('',#264,#262,#202,.T.);
#342=EDGE_CURVE('',#263,#264,#124,.T.);
#343=EDGE_CURVE('',#265,#263,#203,.T.);
#344=EDGE_CURVE('',#266,#264,#204,.T.);
#345=EDGE_CURVE('',#265,#266,#125,.T.);
#346=EDGE_CURVE('',#267,#265,#205,.T.);
#347=EDGE_CURVE('',#268,#266,#206,.T.);
#348=EDGE_CURVE('',#267,#268,#126,.T.);
#349=EDGE_CURVE('',#269,#267,#207,.T.);
#350=EDGE_CURVE('',#270,#268,#208,.T.);
#351=EDGE_CURVE('',#269,#270,#127,.T.);
#352=EDGE_CURVE('',#269,#271,#209,.T.);
#353=EDGE_CURVE('',#272,#270,#210,.T.);
#354=EDGE_CURVE('',#271,#272,#128,.T.);
#355=EDGE_CURVE('',#273,#271,#211,.T.);
#356=EDGE_CURVE('',#274,#272,#212,.T.);
#357=EDGE_CURVE('',#273,#274,#129,.T.);
#358=EDGE_CURVE('',#275,#273,#213,.T.);
#359=EDGE_CURVE('',#276,#274,#214,.T.);
#360=EDGE_CURVE('',#275,#276,#130,.T.);
#361=EDGE_CURVE('',#277,#275,#215,.T.);
#362=EDGE_CURVE('',#278,#276,#216,.T.);
#363=EDGE_CURVE('',#277,#278,#131,.T.);
#364=EDGE_CURVE('',#277,#279,#217,.T.);
#365=EDGE_CURVE('',#280,#278,#218,.T.);
#366=EDGE_CURVE('',#279,#280,#132,.T.);
#367=EDGE_CURVE('',#281,#279,#219,.T.);
#368=EDGE_CURVE('',#282,#280,#220,.T.);
#369=EDGE_CURVE('',#281,#282,#133,.T.);
#370=EDGE_CURVE('',#283,#281,#221,.T.);
#371=EDGE_CURVE('',#284,#282,#222,.T.);
#372=EDGE_CURVE('',#283,#284,#134,.T.);
#373=EDGE_CURVE('',#237,#283,#223,.T.);
#374=EDGE_CURVE('',#239,#284,#224,.T.);
#375=ORIENTED_EDGE('',*,*,#285,.F.);
#376=ORIENTED_EDGE('',*,*,#286,.T.);
#377=ORIENTED_EDGE('',*,*,#287,.T.);
#378=ORIENTED_EDGE('',*,*,#286,.F.);
#379=ORIENTED_EDGE('',*,*,#288,.F.);
#380=ORIENTED_EDGE('',*,*,#289,.T.);
#381=ORIENTED_EDGE('',*,*,#290,.T.);
#382=ORIENTED_EDGE('',*,*,#289,.F.);
#383=ORIENTED_EDGE('',*,*,#291,.F.);
#384=ORIENTED_EDGE('',*,*,#292,.T.);
#385=ORIENTED_EDGE('',*,*,#293,.T.);
#386=ORIENTED_EDGE('',*,*,#292,.F.);
#387=ORIENTED_EDGE('',*,*,#294,.F.);
#388=ORIENTED_EDGE('',*,*,#295,.T.);
#389=ORIENTED_EDGE('',*,*,#296,.T.);
#390=ORIENTED_EDGE('',*,*,#295,.F.);
#391=ORIENTED_EDGE('',*,*,#297,.F.);
#392=ORIENTED_EDGE('',*,*,#298,.T.);
#393=ORIENTED_EDGE('',*,*,#299,.T.);
#394=ORIENTED_EDGE('',*,*,#298,.F.);
#395=ORIENTED_EDGE('',*,*,#300,.F.);
#396=ORIENTED_EDGE('',*,*,#301,.T.);
#397=ORIENTED_EDGE('',*,*,#302,.T.);
#398=ORIENTED_EDGE('',*,*,#301,.F.);
#399=ORIENTED_EDGE('',*,*,#303,.F.);
#400=ORIENTED_EDGE('',*,*,#304,.T.);
#401=ORIENTED_EDGE('',*,*,#305,.F.);
#402=ORIENTED_EDGE('',*,*,#306,.F.);
#403=ORIENTED_EDGE('',*,*,#307,.T.);
#404=ORIENTED_EDGE('',*,*,#306,.T.);
#405=ORIENTED_EDGE('',*,*,#308,.F.);
#406=ORIENTED_EDGE('',*,*,#309,.F.);
#407=ORIENTED_EDGE('',*,*,#310,.T.);
#408=ORIENTED_EDGE('',*,*,#309,.T.);
#409=ORIENTED_EDGE('',*,*,#311,.F.);
#410=ORIENTED_EDGE('',*,*,#312,.F.);
#411=ORIENTED_EDGE('',*,*,#313,.T.);
#412=ORIENTED_EDGE('',*,*,#312,.T.);
#413=ORIENTED_EDGE('',*,*,#314,.F.);
#414=ORIENTED_EDGE('',*,*,#315,.F.);
#415=ORIENTED_EDGE('',*,*,#316,.F.);
#416=ORIENTED_EDGE('',*,*,#315,.T.);
#417=ORIENTED_EDGE('',*,*,#317,.F.);
#418=ORIENTED_EDGE('',*,*,#318,.F.);
#419=ORIENTED_EDGE('',*,*,#319,.T.);
#420=ORIENTED_EDGE('',*,*,#318,.T.);
#421=ORIENTED_EDGE('',*,*,#320,.F.);
#422=ORIENTED_EDGE('',*,*,#321,.F.);
#423=ORIENTED_EDGE('',*,*,#322,.T.);
#424=ORIENTED_EDGE('',*,*,#321,.T.);
#425=ORIENTED_EDGE('',*,*,#323,.F.);
#426=ORIENTED_EDGE('',*,*,#324,.F.);
#427=ORIENTED_EDGE('',*,*,#325,.T.);
#428=ORIENTED_EDGE('',*,*,#324,.T.);
#429=ORIENTED_EDGE('',*,*,#326,.F.);
#430=ORIENTED_EDGE('',*,*,#327,.F.);
#431=ORIENTED_EDGE('',*,*,#328,.F.);
#432=ORIENTED_EDGE('',*,*,#327,.T.);
#433=ORIENTED_EDGE('',*,*,#329,.F.);
#434=ORIENTED_EDGE('',*,*,#330,.F.);
#435=ORIENTED_EDGE('',*,*,#331,.T.);
#436=ORIENTED_EDGE('',*,*,#330,.T.);
#437=ORIENTED_EDGE('',*,*,#332,.F.);
#438=ORIENTED_EDGE('',*,*,#333,.F.);
#439=ORIENTED_EDGE('',*,*,#334,.T.);
#440=ORIENTED_EDGE('',*,*,#333,.T.);
#441=ORIENTED_EDGE('',*,*,#335,.F.);
#442=ORIENTED_EDGE('',*,*,#336,.F.);
#443=ORIENTED_EDGE('',*,*,#337,.T.);
#444=ORIENTED_EDGE('',*,*,#336,.T.);
#445=ORIENTED_EDGE('',*,*,#338,.F.);
#446=ORIENTED_EDGE('',*,*,#339,.F.);
#447=ORIENTED_EDGE('',*,*,#340,.F.);
#448=ORIENTED_EDGE('',*,*,#339,.T.);
#449=ORIENTED_EDGE('',*,*,#341,.F.);
#450=ORIENTED_EDGE('',*,*,#342,.F.);
#451=ORIENTED_EDGE('',*,*,#343,.T.);
#452=ORIENTED_EDGE('',*,*,#342,.T.);
#453=ORIENTED_EDGE('',*,*,#344,.F.);
#454=ORIENTED_EDGE('',*,*,#345,.F.);
#455=ORIENTED_EDGE('',*,*,#346,.T.);
#456=ORIENTED_EDGE('',*,*,#345,.T.);
#457=ORIENTED_EDGE('',*,*,#347,.F.);
#458=ORIENTED_EDGE('',*,*,#348,.F.);
#459=ORIENTED_EDGE('',*,*,#349,.T.);
#460=ORIENTED_EDGE('',*,*,#348,.T.);
#461=ORIENTED_EDGE('',*,*,#350,.F.);
#462=ORIENTED_EDGE('',*,*,#351,.F.);
#463=ORIENTED_EDGE('',*,*,#352,.F.);
#464=ORIENTED_EDGE('',*,*,#351,.T.);
#465=ORIENTED_EDGE('',*,*,#353,.F.);
#466=ORIENTED_EDGE('',*,*,#354,.F.);
#467=ORIENTED_EDGE('',*,*,#355,.T.);
#468=ORIENTED_EDGE('',*,*,#354,.T.);
#469=ORIENTED_EDGE('',*,*,#356,.F.);
#470=ORIENTED_EDGE('',*,*,#357,.F.);
#471=ORIENTED_EDGE('',*,*,#358,.T.);
#472=ORIENTED_EDGE('',*,*,#357,.T.);
#473=ORIENTED_EDGE('',*,*,#359,.F.);
#474=ORIENTED_EDGE('',*,*,#360,.F.);
#475=ORIENTED_EDGE('',*,*,#361,.T.);
#476=ORIENTED_EDGE('',*,*,#360,.T.);
#477=ORIENTED_EDGE('',*,*,#362,.F.);
#478=ORIENTED_EDGE('',*,*,#363,.F.);
#479=ORIENTED_EDGE('',*,*,#364,.F.);
#480=ORIENTED_EDGE('',*,*,#363,.T.);
#481=ORIENTED_EDGE('',*,*,#365,.F.);
#482=ORIENTED_EDGE('',*,*,#366,.F.);
#483=ORIENTED_EDGE('',*,*,#367,.T.);
#484=ORIENTED_EDGE('',*,*,#366,.T.);
#485=ORIENTED_EDGE('',*,*,#368,.F.);
#486=ORIENTED_EDGE('',*,*,#369,.F.);
#487=ORIENTED_EDGE('',*,*,#370,.T.);
#488=ORIENTED_EDGE('',*,*,#369,.T.);
#489=ORIENTED_EDGE('',*,*,#371,.F.);
#490=ORIENTED_EDGE('',*,*,#372,.F.);
#491=ORIENTED_EDGE('',*,*,#373,.T.);
#492=ORIENTED_EDGE('',*,*,#372,.T.);
#493=ORIENTED_EDGE('',*,*,#374,.F.);
#494=ORIENTED_EDGE('',*,*,#304,.F.);
#495=ORIENTED_EDGE('',*,*,#374,.T.);
#496=ORIENTED_EDGE('',*,*,#371,.T.);
#497=ORIENTED_EDGE('',*,*,#368,.T.);
#498=ORIENTED_EDGE('',*,*,#365,.T.);
#499=ORIENTED_EDGE('',*,*,#362,.T.);
#500=ORIENTED_EDGE('',*,*,#359,.T.);
#501=ORIENTED_EDGE('',*,*,#356,.T.);
#502=ORIENTED_EDGE('',*,*,#353,.T.);
#503=ORIENTED_EDGE('',*,*,#350,.T.);
#504=ORIENTED_EDGE('',*,*,#347,.T.);
#505=ORIENTED_EDGE('',*,*,#344,.T.);
#506=ORIENTED_EDGE('',*,*,#341,.T.);
#507=ORIENTED_EDGE('',*,*,#338,.T.);
#508=ORIENTED_EDGE('',*,*,#335,.T.);
#509=ORIENTED_EDGE('',*,*,#332,.T.);
#510=ORIENTED_EDGE('',*,*,#329,.T.);
#511=ORIENTED_EDGE('',*,*,#326,.T.);
#512=ORIENTED_EDGE('',*,*,#323,.T.);
#513=ORIENTED_EDGE('',*,*,#320,.T.);
#514=ORIENTED_EDGE('',*,*,#317,.T.);
#515=ORIENTED_EDGE('',*,*,#314,.T.);
#516=ORIENTED_EDGE('',*,*,#311,.T.);
#517=ORIENTED_EDGE('',*,*,#308,.T.);
#518=ORIENTED_EDGE('',*,*,#305,.T.);
#519=ORIENTED_EDGE('',*,*,#300,.T.);
#520=ORIENTED_EDGE('',*,*,#297,.T.);
#521=ORIENTED_EDGE('',*,*,#294,.T.);
#522=ORIENTED_EDGE('',*,*,#291,.T.);
#523=ORIENTED_EDGE('',*,*,#288,.T.);
#524=ORIENTED_EDGE('',*,*,#285,.T.);
#525=ORIENTED_EDGE('',*,*,#373,.F.);
#526=ORIENTED_EDGE('',*,*,#303,.T.);
#527=ORIENTED_EDGE('',*,*,#307,.F.);
#528=ORIENTED_EDGE('',*,*,#310,.F.);
#529=ORIENTED_EDGE('',*,*,#313,.F.);
#530=ORIENTED_EDGE('',*,*,#316,.T.);
#531=ORIENTED_EDGE('',*,*,#319,.F.);
#532=ORIENTED_EDGE('',*,*,#322,.F.);
#533=ORIENTED_EDGE('',*,*,#325,.F.);
#534=ORIENTED_EDGE('',*,*,#328,.T.);
#535=ORIENTED_EDGE('',*,*,#331,.F.);
#536=ORIENTED_EDGE('',*,*,#334,.F.);
#537=ORIENTED_EDGE('',*,*,#337,.F.);
#538=ORIENTED_EDGE('',*,*,#340,.T.);
#539=ORIENTED_EDGE('',*,*,#343,.F.);
#540=ORIENTED_EDGE('',*,*,#346,.F.);
#541=ORIENTED_EDGE('',*,*,#349,.F.);
#542=ORIENTED_EDGE('',*,*,#352,.T.);
#543=ORIENTED_EDGE('',*,*,#355,.F.);
#544=ORIENTED_EDGE('',*,*,#358,.F.);
#545=ORIENTED_EDGE('',*,*,#361,.F.);
#546=ORIENTED_EDGE('',*,*,#364,.T.);
#547=ORIENTED_EDGE('',*,*,#367,.F.);
#548=ORIENTED_EDGE('',*,*,#370,.F.);
#549=ORIENTED_EDGE('',*,*,#302,.F.);
#550=ORIENTED_EDGE('',*,*,#299,.F.);
#551=ORIENTED_EDGE('',*,*,#296,.F.);
#552=ORIENTED_EDGE('',*,*,#293,.F.);
#553=ORIENTED_EDGE('',*,*,#290,.F.);
#554=ORIENTED_EDGE('',*,*,#287,.F.);
#555=CYLINDRICAL_SURFACE('',#631,3.00000000000001);
#556=CYLINDRICAL_SURFACE('',#634,3.);
#557=CYLINDRICAL_SURFACE('',#637,3.00000000000001);
#558=CYLINDRICAL_SURFACE('',#640,3.);
#559=CYLINDRICAL_SURFACE('',#643,3.00000000000001);
#560=CYLINDRICAL_SURFACE('',#646,3.00000000000001);
#561=CYLINDRICAL_SURFACE('',#649,6.50000000000015);
#562=CYLINDRICAL_SURFACE('',#652,5.00000000000005);
#563=CYLINDRICAL_SURFACE('',#655,75.);
#564=CYLINDRICAL_SURFACE('',#658,5.00000000000003);
#565=CYLINDRICAL_SURFACE('',#661,6.50000000000014);
#566=CYLINDRICAL_SURFACE('',#664,5.00000000000001);
#567=CYLINDRICAL_SURFACE('',#667,75.);
#568=CYLINDRICAL_SURFACE('',#670,5.00000000000001);
#569=CYLINDRICAL_SURFACE('',#673,6.5);
#570=CYLINDRICAL_SURFACE('',#676,5.00000000000001);
#571=CYLINDRICAL_SURFACE('',#679,75.);
#572=CYLINDRICAL_SURFACE('',#682,5.00000000000001);
#573=CYLINDRICAL_SURFACE('',#685,6.50000000000015);
#574=CYLINDRICAL_SURFACE('',#688,5.00000000000004);
#575=CYLINDRICAL_SURFACE('',#691,75.);
#576=CYLINDRICAL_SURFACE('',#694,5.00000000000004);
#577=CYLINDRICAL_SURFACE('',#697,6.50000000000013);
#578=CYLINDRICAL_SURFACE('',#700,5.00000000000002);
#579=CYLINDRICAL_SURFACE('',#703,75.);
#580=CYLINDRICAL_SURFACE('',#706,5.00000000000002);
#581=CYLINDRICAL_SURFACE('',#709,6.5);
#582=CYLINDRICAL_SURFACE('',#712,5.00000000000001);
#583=CYLINDRICAL_SURFACE('',#715,75.);
#584=CYLINDRICAL_SURFACE('',#718,5.00000000000001);
#585=ADVANCED_FACE('',(#29),#555,.F.);
#586=ADVANCED_FACE('',(#30),#556,.F.);
#587=ADVANCED_FACE('',(#31),#557,.F.);
#588=ADVANCED_FACE('',(#32),#558,.F.);
#589=ADVANCED_FACE('',(#33),#559,.F.);
#590=ADVANCED_FACE('',(#34),#560,.F.);
#591=ADVANCED_FACE('',(#35),#561,.F.);
#592=ADVANCED_FACE('',(#36),#562,.T.);
#593=ADVANCED_FACE('',(#37),#563,.T.);
#594=ADVANCED_FACE('',(#38),#564,.T.);
#595=ADVANCED_FACE('',(#39),#565,.F.);
#596=ADVANCED_FACE('',(#40),#566,.T.);
#597=ADVANCED_FACE('',(#41),#567,.T.);
#598=ADVANCED_FACE('',(#42),#568,.T.);
#599=ADVANCED_FACE('',(#43),#569,.F.);
#600=ADVANCED_FACE('',(#44),#570,.T.);
#601=ADVANCED_FACE('',(#45),#571,.T.);
#602=ADVANCED_FACE('',(#46),#572,.T.);
#603=ADVANCED_FACE('',(#47),#573,.F.);
#604=ADVANCED_FACE('',(#48),#574,.T.);
#605=ADVANCED_FACE('',(#49),#575,.T.);
#606=ADVANCED_FACE('',(#50),#576,.T.);
#607=ADVANCED_FACE('',(#51),#577,.F.);
#608=ADVANCED_FACE('',(#52),#578,.T.);
#609=ADVANCED_FACE('',(#53),#579,.T.);
#610=ADVANCED_FACE('',(#54),#580,.T.);
#611=ADVANCED_FACE('',(#55),#581,.F.);
#612=ADVANCED_FACE('',(#56),#582,.T.);
#613=ADVANCED_FACE('',(#57),#583,.T.);
#614=ADVANCED_FACE('',(#58),#584,.T.);
#615=ADVANCED_FACE('',(#59,#15,#16,#17,#18,#19,#20),#27,.T.);
#616=ADVANCED_FACE('',(#60,#21,#22,#23,#24,#25,#26),#28,.F.);
#617=CLOSED_SHELL('',(#585,#586,#587,#588,#589,#590,#591,#592,#593,#594,
#595,#596,#597,#598,#599,#600,#601,#602,#603,#604,#605,#606,#607,#608,#609,
#610,#611,#612,#613,#614,#615,#616));
#618=DERIVED_UNIT_ELEMENT(#620,1.);
#619=DERIVED_UNIT_ELEMENT(#1127,-3.);
#620=(
MASS_UNIT()
NAMED_UNIT(*)
SI_UNIT(.KILO.,.GRAM.)
);
#621=DERIVED_UNIT((#618,#619));
#622=MEASURE_REPRESENTATION_ITEM('density measure',
POSITIVE_RATIO_MEASURE(7850.),#621);
#623=PROPERTY_DEFINITION_REPRESENTATION(#628,#625);
#624=PROPERTY_DEFINITION_REPRESENTATION(#629,#626);
#625=REPRESENTATION('material name',(#627),#1124);
#626=REPRESENTATION('density',(#622),#1124);
#627=DESCRIPTIVE_REPRESENTATION_ITEM('Steel','Steel');
#628=PROPERTY_DEFINITION('material property','material name',#1134);
#629=PROPERTY_DEFINITION('material property','density of part',#1134);
#630=AXIS2_PLACEMENT_3D('',#939,#723,#724);
#631=AXIS2_PLACEMENT_3D('',#940,#725,#726);
#632=AXIS2_PLACEMENT_3D('',#942,#727,#728);
#633=AXIS2_PLACEMENT_3D('',#945,#730,#731);
#634=AXIS2_PLACEMENT_3D('',#946,#732,#733);
#635=AXIS2_PLACEMENT_3D('',#948,#734,#735);
#636=AXIS2_PLACEMENT_3D('',#951,#737,#738);
#637=AXIS2_PLACEMENT_3D('',#952,#739,#740);
#638=AXIS2_PLACEMENT_3D('',#954,#741,#742);
#639=AXIS2_PLACEMENT_3D('',#957,#744,#745);
#640=AXIS2_PLACEMENT_3D('',#958,#746,#747);
#641=AXIS2_PLACEMENT_3D('',#960,#748,#749);
#642=AXIS2_PLACEMENT_3D('',#963,#751,#752);
#643=AXIS2_PLACEMENT_3D('',#964,#753,#754);
#644=AXIS2_PLACEMENT_3D('',#966,#755,#756);
#645=AXIS2_PLACEMENT_3D('',#969,#758,#759);
#646=AXIS2_PLACEMENT_3D('',#970,#760,#761);
#647=AXIS2_PLACEMENT_3D('',#972,#762,#763);
#648=AXIS2_PLACEMENT_3D('',#975,#765,#766);
#649=AXIS2_PLACEMENT_3D('',#976,#767,#768);
#650=AXIS2_PLACEMENT_3D('',#979,#769,#770);
#651=AXIS2_PLACEMENT_3D('',#983,#772,#773);
#652=AXIS2_PLACEMENT_3D('',#985,#775,#776);
#653=AXIS2_PLACEMENT_3D('',#987,#777,#778);
#654=AXIS2_PLACEMENT_3D('',#989,#779,#780);
#655=AXIS2_PLACEMENT_3D('',#991,#782,#783);
#656=AXIS2_PLACEMENT_3D('',#993,#784,#785);
#657=AXIS2_PLACEMENT_3D('',#995,#786,#787);
#658=AXIS2_PLACEMENT_3D('',#997,#789,#790);
#659=AXIS2_PLACEMENT_3D('',#999,#791,#792);
#660=AXIS2_PLACEMENT_3D('',#1001,#793,#794);
#661=AXIS2_PLACEMENT_3D('',#1003,#796,#797);
#662=AXIS2_PLACEMENT_3D('',#1005,#798,#799);
#663=AXIS2_PLACEMENT_3D('',#1007,#800,#801);
#664=AXIS2_PLACEMENT_3D('',#1009,#803,#804);
#665=AXIS2_PLACEMENT_3D('',#1011,#805,#806);
#666=AXIS2_PLACEMENT_3D('',#1013,#807,#808);
#667=AXIS2_PLACEMENT_3D('',#1015,#810,#811);
#668=AXIS2_PLACEMENT_3D('',#1017,#812,#813);
#669=AXIS2_PLACEMENT_3D('',#1019,#814,#815);
#670=AXIS2_PLACEMENT_3D('',#1021,#817,#818);
#671=AXIS2_PLACEMENT_3D('',#1023,#819,#820);
#672=AXIS2_PLACEMENT_3D('',#1025,#821,#822);
#673=AXIS2_PLACEMENT_3D('',#1027,#824,#825);
#674=AXIS2_PLACEMENT_3D('',#1029,#826,#827);
#675=AXIS2_PLACEMENT_3D('',#1031,#828,#829);
#676=AXIS2_PLACEMENT_3D('',#1033,#831,#832);
#677=AXIS2_PLACEMENT_3D('',#1035,#833,#834);
#678=AXIS2_PLACEMENT_3D('',#1037,#835,#836);
#679=AXIS2_PLACEMENT_3D('',#1039,#838,#839);
#680=AXIS2_PLACEMENT_3D('',#1041,#840,#841);
#681=AXIS2_PLACEMENT_3D('',#1043,#842,#843);
#682=AXIS2_PLACEMENT_3D('',#1045,#845,#846);
#683=AXIS2_PLACEMENT_3D('',#1047,#847,#848);
#684=AXIS2_PLACEMENT_3D('',#1049,#849,#850);
#685=AXIS2_PLACEMENT_3D('',#1051,#852,#853);
#686=AXIS2_PLACEMENT_3D('',#1053,#854,#855);
#687=AXIS2_PLACEMENT_3D('',#1055,#856,#857);
#688=AXIS2_PLACEMENT_3D('',#1057,#859,#860);
#689=AXIS2_PLACEMENT_3D('',#1059,#861,#862);
#690=AXIS2_PLACEMENT_3D('',#1061,#863,#864);
#691=AXIS2_PLACEMENT_3D('',#1063,#866,#867);
#692=AXIS2_PLACEMENT_3D('',#1065,#868,#869);
#693=AXIS2_PLACEMENT_3D('',#1067,#870,#871);
#694=AXIS2_PLACEMENT_3D('',#1069,#873,#874);
#695=AXIS2_PLACEMENT_3D('',#1071,#875,#876);
#696=AXIS2_PLACEMENT_3D('',#1073,#877,#878);
#697=AXIS2_PLACEMENT_3D('',#1075,#880,#881);
#698=AXIS2_PLACEMENT_3D('',#1077,#882,#883);
#699=AXIS2_PLACEMENT_3D('',#1079,#884,#885);
#700=AXIS2_PLACEMENT_3D('',#1081,#887,#888);
#701=AXIS2_PLACEMENT_3D('',#1083,#889,#890);
#702=AXIS2_PLACEMENT_3D('',#1085,#891,#892);
#703=AXIS2_PLACEMENT_3D('',#1087,#894,#895);
#704=AXIS2_PLACEMENT_3D('',#1089,#896,#897);
#705=AXIS2_PLACEMENT_3D('',#1091,#898,#899);
#706=AXIS2_PLACEMENT_3D('',#1093,#901,#902);
#707=AXIS2_PLACEMENT_3D('',#1095,#903,#904);
#708=AXIS2_PLACEMENT_3D('',#1097,#905,#906);
#709=AXIS2_PLACEMENT_3D('',#1099,#908,#909);
#710=AXIS2_PLACEMENT_3D('',#1101,#910,#911);
#711=AXIS2_PLACEMENT_3D('',#1103,#912,#913);
#712=AXIS2_PLACEMENT_3D('',#1105,#915,#916);
#713=AXIS2_PLACEMENT_3D('',#1107,#917,#918);
#714=AXIS2_PLACEMENT_3D('',#1109,#919,#920);
#715=AXIS2_PLACEMENT_3D('',#1111,#922,#923);
#716=AXIS2_PLACEMENT_3D('',#1113,#924,#925);
#717=AXIS2_PLACEMENT_3D('',#1115,#926,#927);
#718=AXIS2_PLACEMENT_3D('',#1117,#929,#930);
#719=AXIS2_PLACEMENT_3D('',#1118,#931,#932);
#720=AXIS2_PLACEMENT_3D('',#1119,#933,#934);
#721=AXIS2_PLACEMENT_3D('',#1120,#935,#936);
#722=AXIS2_PLACEMENT_3D('',#1121,#937,#938);
#723=DIRECTION('axis',(0.,0.,1.));
#724=DIRECTION('refdir',(1.,0.,0.));
#725=DIRECTION('center_axis',(0.,0.,1.));
#726=DIRECTION('ref_axis',(1.,0.,0.));
#727=DIRECTION('center_axis',(0.,0.,-1.));
#728=DIRECTION('ref_axis',(1.,0.,0.));
#729=DIRECTION('',(0.,0.,-1.));
#730=DIRECTION('center_axis',(0.,0.,-1.));
#731=DIRECTION('ref_axis',(1.,0.,0.));
#732=DIRECTION('center_axis',(0.,0.,1.));
#733=DIRECTION('ref_axis',(1.,0.,0.));
#734=DIRECTION('center_axis',(0.,0.,-1.));
#735=DIRECTION('ref_axis',(1.,0.,0.));
#736=DIRECTION('',(0.,0.,-1.));
#737=DIRECTION('center_axis',(0.,0.,-1.));
#738=DIRECTION('ref_axis',(1.,0.,0.));
#739=DIRECTION('center_axis',(0.,0.,1.));
#740=DIRECTION('ref_axis',(1.,0.,0.));
#741=DIRECTION('center_axis',(0.,0.,-1.));
#742=DIRECTION('ref_axis',(1.,0.,0.));
#743=DIRECTION('',(0.,0.,-1.));
#744=DIRECTION('center_axis',(0.,0.,-1.));
#745=DIRECTION('ref_axis',(1.,0.,0.));
#746=DIRECTION('center_axis',(0.,0.,1.));
#747=DIRECTION('ref_axis',(1.,0.,0.));
#748=DIRECTION('center_axis',(0.,0.,-1.));
#749=DIRECTION('ref_axis',(1.,0.,0.));
#750=DIRECTION('',(0.,0.,-1.));
#751=DIRECTION('center_axis',(0.,0.,-1.));
#752=DIRECTION('ref_axis',(1.,0.,0.));
#753=DIRECTION('center_axis',(0.,0.,1.));
#754=DIRECTION('ref_axis',(1.,0.,0.));
#755=DIRECTION('center_axis',(0.,0.,-1.));
#756=DIRECTION('ref_axis',(1.,0.,0.));
#757=DIRECTION('',(0.,0.,-1.));
#758=DIRECTION('center_axis',(0.,0.,-1.));
#759=DIRECTION('ref_axis',(1.,0.,0.));
#760=DIRECTION('center_axis',(0.,0.,1.));
#761=DIRECTION('ref_axis',(1.,0.,0.));
#762=DIRECTION('center_axis',(0.,0.,-1.));
#763=DIRECTION('ref_axis',(1.,0.,0.));
#764=DIRECTION('',(0.,0.,-1.));
#765=DIRECTION('center_axis',(0.,0.,-1.));
#766=DIRECTION('ref_axis',(1.,0.,0.));
#767=DIRECTION('center_axis',(0.,0.,1.));
#768=DIRECTION('ref_axis',(-0.499973348066856,0.866040790738414,0.));
#769=DIRECTION('center_axis',(0.,0.,1.));
#770=DIRECTION('ref_axis',(0.868000611706414,0.496563125974221,0.));
#771=DIRECTION('',(0.,0.,1.));
#772=DIRECTION('center_axis',(0.,0.,-1.));
#773=DIRECTION('ref_axis',(0.868000611706414,0.496563125974221,0.));
#774=DIRECTION('',(0.,0.,1.));
#775=DIRECTION('center_axis',(0.,0.,1.));
#776=DIRECTION('ref_axis',(0.350903184653372,-0.936411744373233,0.));
#777=DIRECTION('center_axis',(0.,0.,1.));
#778=DIRECTION('ref_axis',(0.350903184653372,-0.936411744373233,0.));
#779=DIRECTION('center_axis',(0.,0.,1.));
#780=DIRECTION('ref_axis',(0.350903184653372,-0.936411744373233,0.));
#781=DIRECTION('',(0.,0.,1.));
#782=DIRECTION('center_axis',(0.,0.,1.));
#783=DIRECTION('ref_axis',(-0.350903184653367,-0.936411744373235,0.));
#784=DIRECTION('center_axis',(0.,0.,1.));
#785=DIRECTION('ref_axis',(-0.350903184653367,-0.936411744373235,0.));
#786=DIRECTION('center_axis',(0.,0.,1.));
#787=DIRECTION('ref_axis',(-0.350903184653367,-0.936411744373235,0.));
#788=DIRECTION('',(0.,0.,1.));
#789=DIRECTION('center_axis',(0.,0.,1.));
#790=DIRECTION('ref_axis',(-0.86406757167515,0.503375835315334,0.));
#791=DIRECTION('center_axis',(0.,0.,1.));
#792=DIRECTION('ref_axis',(-0.86406757167515,0.503375835315334,0.));
#793=DIRECTION('center_axis',(0.,0.,1.));
#794=DIRECTION('ref_axis',(-0.86406757167515,0.503375835315334,0.));
#795=DIRECTION('',(0.,0.,1.));
#796=DIRECTION('center_axis',(0.,0.,1.));
#797=DIRECTION('ref_axis',(0.499973348066856,0.866040790738415,0.));
#798=DIRECTION('center_axis',(0.,0.,1.));
#799=DIRECTION('ref_axis',(0.864067571675148,-0.503375835315337,0.));
#800=DIRECTION('center_axis',(0.,0.,-1.));
#801=DIRECTION('ref_axis',(0.864067571675148,-0.503375835315337,0.));
#802=DIRECTION('',(0.,0.,1.));
#803=DIRECTION('center_axis',(0.,0.,1.));
#804=DIRECTION('ref_axis',(-0.635457243351768,-0.772136057875665,0.));
#805=DIRECTION('center_axis',(0.,0.,1.));
#806=DIRECTION('ref_axis',(-0.635457243351768,-0.772136057875665,0.));
#807=DIRECTION('center_axis',(0.,0.,1.));
#808=DIRECTION('ref_axis',(-0.635457243351768,-0.772136057875665,0.));
#809=DIRECTION('',(0.,0.,1.));
#810=DIRECTION('center_axis',(0.,0.,1.));
#811=DIRECTION('ref_axis',(-0.986413043478261,-0.164284228262955,0.));
#812=DIRECTION('center_axis',(0.,0.,1.));
#813=DIRECTION('ref_axis',(-0.986413043478261,-0.164284228262955,0.));
#814=DIRECTION('center_axis',(0.,0.,1.));
#815=DIRECTION('ref_axis',(-0.986413043478261,-0.164284228262955,0.));
#816=DIRECTION('',(0.,0.,1.));
#817=DIRECTION('center_axis',(0.,0.,1.));
#818=DIRECTION('ref_axis',(0.00425330812854518,0.999990954644073,0.));
#819=DIRECTION('center_axis',(0.,0.,1.));
#820=DIRECTION('ref_axis',(0.00425330812854518,0.999990954644073,0.));
#821=DIRECTION('center_axis',(0.,0.,1.));
#822=DIRECTION('ref_axis',(0.00425330812854518,0.999990954644073,0.));
#823=DIRECTION('',(0.,0.,1.));
#824=DIRECTION('center_axis',(0.,0.,1.));
#825=DIRECTION('ref_axis',(1.,1.25300411072479E-15,0.));
#826=DIRECTION('center_axis',(0.,0.,1.));
#827=DIRECTION('ref_axis',(-0.00425330812854204,-0.999990954644073,0.));
#828=DIRECTION('center_axis',(0.,0.,-1.));
#829=DIRECTION('ref_axis',(-0.00425330812854204,-0.999990954644073,0.));
#830=DIRECTION('',(0.,0.,1.));
#831=DIRECTION('center_axis',(0.,0.,1.));
#832=DIRECTION('ref_axis',(-0.986413043478261,0.164284228262957,0.));
#833=DIRECTION('center_axis',(0.,0.,1.));
#834=DIRECTION('ref_axis',(-0.986413043478261,0.164284228262957,0.));
#835=DIRECTION('center_axis',(0.,0.,1.));
#836=DIRECTION('ref_axis',(-0.986413043478261,0.164284228262957,0.));
#837=DIRECTION('',(0.,0.,1.));
#838=DIRECTION('center_axis',(0.,0.,1.));
#839=DIRECTION('ref_axis',(-0.63545724335177,0.772136057875663,0.));
#840=DIRECTION('center_axis',(0.,0.,1.));
#841=DIRECTION('ref_axis',(-0.63545724335177,0.772136057875663,0.));
#842=DIRECTION('center_axis',(0.,0.,1.));
#843=DIRECTION('ref_axis',(-0.63545724335177,0.772136057875663,0.));
#844=DIRECTION('',(0.,0.,1.));
#845=DIRECTION('center_axis',(0.,0.,1.));
#846=DIRECTION('ref_axis',(0.868000611706415,0.49656312597422,0.));
#847=DIRECTION('center_axis',(0.,0.,1.));
#848=DIRECTION('ref_axis',(0.868000611706415,0.49656312597422,0.));
#849=DIRECTION('center_axis',(0.,0.,1.));
#850=DIRECTION('ref_axis',(0.868000611706415,0.49656312597422,0.));
#851=DIRECTION('',(0.,0.,1.));
#852=DIRECTION('center_axis',(0.,0.,1.));
#853=DIRECTION('ref_axis',(0.499973348066856,-0.866040790738415,0.));
#854=DIRECTION('center_axis',(0.,0.,1.));
#855=DIRECTION('ref_axis',(-0.868000611706415,-0.49656312597422,0.));
#856=DIRECTION('center_axis',(0.,0.,-1.));
#857=DIRECTION('ref_axis',(-0.868000611706415,-0.49656312597422,0.));
#858=DIRECTION('',(0.,0.,1.));
#859=DIRECTION('center_axis',(0.,0.,1.));
#860=DIRECTION('ref_axis',(-0.350903184653373,0.936411744373233,0.));
#861=DIRECTION('center_axis',(0.,0.,1.));
#862=DIRECTION('ref_axis',(-0.350903184653373,0.936411744373233,0.));
#863=DIRECTION('center_axis',(0.,0.,1.));
#864=DIRECTION('ref_axis',(-0.350903184653373,0.936411744373233,0.));
#865=DIRECTION('',(0.,0.,1.));
#866=DIRECTION('center_axis',(0.,0.,1.));
#867=DIRECTION('ref_axis',(0.350903184653367,0.936411744373235,0.));
#868=DIRECTION('center_axis',(0.,0.,1.));
#869=DIRECTION('ref_axis',(0.350903184653367,0.936411744373235,0.));
#870=DIRECTION('center_axis',(0.,0.,1.));
#871=DIRECTION('ref_axis',(0.350903184653367,0.936411744373235,0.));
#872=DIRECTION('',(0.,0.,1.));
#873=DIRECTION('center_axis',(0.,0.,1.));
#874=DIRECTION('ref_axis',(0.864067571675151,-0.503375835315331,0.));
#875=DIRECTION('center_axis',(0.,0.,1.));
#876=DIRECTION('ref_axis',(0.864067571675151,-0.503375835315331,0.));
#877=DIRECTION('center_axis',(0.,0.,1.));
#878=DIRECTION('ref_axis',(0.864067571675151,-0.503375835315331,0.));
#879=DIRECTION('',(0.,0.,1.));
#880=DIRECTION('center_axis',(0.,0.,1.));
#881=DIRECTION('ref_axis',(-0.499973348066853,-0.866040790738416,0.));
#882=DIRECTION('center_axis',(0.,0.,1.));
#883=DIRECTION('ref_axis',(-0.864067571675147,0.503375835315338,0.));
#884=DIRECTION('center_axis',(0.,0.,-1.));
#885=DIRECTION('ref_axis',(-0.864067571675147,0.503375835315338,0.));
#886=DIRECTION('',(0.,0.,1.));
#887=DIRECTION('center_axis',(0.,0.,1.));
#888=DIRECTION('ref_axis',(0.63545724335177,0.772136057875663,0.));
#889=DIRECTION('center_axis',(0.,0.,1.));
#890=DIRECTION('ref_axis',(0.63545724335177,0.772136057875663,0.));
#891=DIRECTION('center_axis',(0.,0.,1.));
#892=DIRECTION('ref_axis',(0.63545724335177,0.772136057875663,0.));
#893=DIRECTION('',(0.,0.,1.));
#894=DIRECTION('center_axis',(0.,0.,1.));
#895=DIRECTION('ref_axis',(0.986413043478261,0.164284228262955,0.));
#896=DIRECTION('center_axis',(0.,0.,1.));
#897=DIRECTION('ref_axis',(0.986413043478261,0.164284228262955,0.));
#898=DIRECTION('center_axis',(0.,0.,1.));
#899=DIRECTION('ref_axis',(0.986413043478261,0.164284228262955,0.));
#900=DIRECTION('',(0.,0.,1.));
#901=DIRECTION('center_axis',(0.,0.,1.));
#902=DIRECTION('ref_axis',(-0.00425330812854339,-0.999990954644073,0.));
#903=DIRECTION('center_axis',(0.,0.,1.));
#904=DIRECTION('ref_axis',(-0.00425330812854339,-0.999990954644073,0.));
#905=DIRECTION('center_axis',(0.,0.,1.));
#906=DIRECTION('ref_axis',(-0.00425330812854339,-0.999990954644073,0.));
#907=DIRECTION('',(0.,0.,1.));
#908=DIRECTION('center_axis',(0.,0.,1.));
#909=DIRECTION('ref_axis',(-1.,2.14972270753741E-15,0.));
#910=DIRECTION('center_axis',(0.,0.,1.));
#911=DIRECTION('ref_axis',(0.00425330812854478,0.999990954644073,0.));
#912=DIRECTION('center_axis',(0.,0.,-1.));
#913=DIRECTION('ref_axis',(0.00425330812854478,0.999990954644073,0.));
#914=DIRECTION('',(0.,0.,1.));
#915=DIRECTION('center_axis',(0.,0.,1.));
#916=DIRECTION('ref_axis',(0.986413043478261,-0.164284228262953,0.));
#917=DIRECTION('center_axis',(0.,0.,1.));
#918=DIRECTION('ref_axis',(0.986413043478261,-0.164284228262953,0.));
#919=DIRECTION('center_axis',(0.,0.,1.));
#920=DIRECTION('ref_axis',(0.986413043478261,-0.164284228262953,0.));
#921=DIRECTION('',(0.,0.,1.));
#922=DIRECTION('center_axis',(0.,0.,1.));
#923=DIRECTION('ref_axis',(0.63545724335177,-0.772136057875663,0.));
#924=DIRECTION('center_axis',(0.,0.,1.));
#925=DIRECTION('ref_axis',(0.63545724335177,-0.772136057875663,0.));
#926=DIRECTION('center_axis',(0.,0.,1.));
#927=DIRECTION('ref_axis',(0.63545724335177,-0.772136057875663,0.));
#928=DIRECTION('',(0.,0.,1.));
#929=DIRECTION('center_axis',(0.,0.,1.));
#930=DIRECTION('ref_axis',(-0.868000611706416,-0.496563125974219,0.));
#931=DIRECTION('center_axis',(0.,0.,1.));
#932=DIRECTION('ref_axis',(-0.868000611706416,-0.496563125974219,0.));
#933=DIRECTION('center_axis',(0.,0.,1.));
#934=DIRECTION('ref_axis',(-0.868000611706416,-0.496563125974219,0.));
#935=DIRECTION('center_axis',(0.,0.,1.));
#936=DIRECTION('ref_axis',(1.,0.,0.));
#937=DIRECTION('center_axis',(0.,0.,1.));
#938=DIRECTION('ref_axis',(1.,0.,0.));
#939=CARTESIAN_POINT('',(0.,0.,0.));
#940=CARTESIAN_POINT('Origin',(59.76,-34.5,0.));
#941=CARTESIAN_POINT('',(56.76,-34.5,5.));
#942=CARTESIAN_POINT('Origin',(59.76,-34.5,5.));
#943=CARTESIAN_POINT('',(56.76,-34.5,0.));
#944=CARTESIAN_POINT('',(56.76,-34.5,0.));
#945=CARTESIAN_POINT('Origin',(59.76,-34.5,0.));
#946=CARTESIAN_POINT('Origin',(0.,-69.,0.));
#947=CARTESIAN_POINT('',(-3.,-69.,5.));
#948=CARTESIAN_POINT('Origin',(0.,-69.,5.));
#949=CARTESIAN_POINT('',(-3.,-69.,0.));
#950=CARTESIAN_POINT('',(-3.,-69.,0.));
#951=CARTESIAN_POINT('Origin',(0.,-69.,0.));
#952=CARTESIAN_POINT('Origin',(-59.76,-34.5,0.));
#953=CARTESIAN_POINT('',(-62.76,-34.5,5.));
#954=CARTESIAN_POINT('Origin',(-59.76,-34.5,5.));
#955=CARTESIAN_POINT('',(-62.76,-34.5,0.));
#956=CARTESIAN_POINT('',(-62.76,-34.5,0.));
#957=CARTESIAN_POINT('Origin',(-59.76,-34.5,0.));
#958=CARTESIAN_POINT('Origin',(0.,69.,0.));
#959=CARTESIAN_POINT('',(-3.,69.,5.));
#960=CARTESIAN_POINT('Origin',(0.,69.,5.));
#961=CARTESIAN_POINT('',(-3.,69.,0.));
#962=CARTESIAN_POINT('',(-3.,69.,0.));
#963=CARTESIAN_POINT('Origin',(0.,69.,0.));
#964=CARTESIAN_POINT('Origin',(59.76,34.5,0.));
#965=CARTESIAN_POINT('',(56.76,34.5,5.));
#966=CARTESIAN_POINT('Origin',(59.76,34.5,5.));
#967=CARTESIAN_POINT('',(56.76,34.5,0.));
#968=CARTESIAN_POINT('',(56.76,34.5,0.));
#969=CARTESIAN_POINT('Origin',(59.76,34.5,0.));
#970=CARTESIAN_POINT('Origin',(-59.76,34.5,0.));
#971=CARTESIAN_POINT('',(-62.76,34.5,5.));
#972=CARTESIAN_POINT('Origin',(-59.76,34.5,5.));
#973=CARTESIAN_POINT('',(-62.76,34.5,0.));
#974=CARTESIAN_POINT('',(-62.76,34.5,0.));
#975=CARTESIAN_POINT('Origin',(-59.76,34.5,0.));
#976=CARTESIAN_POINT('Origin',(34.5,-59.76,0.));
#977=CARTESIAN_POINT('',(40.1420039760918,-56.5323396811675,0.));
#978=CARTESIAN_POINT('',(28.8835607841114,-63.0319429295498,0.));
#979=CARTESIAN_POINT('Origin',(34.5,-59.76,0.));
#980=CARTESIAN_POINT('',(40.1420039760918,-56.5323396811675,5.));
#981=CARTESIAN_POINT('',(40.1420039760918,-56.5323396811675,0.));
#982=CARTESIAN_POINT('',(28.8835607841114,-63.0319429295498,5.));
#983=CARTESIAN_POINT('Origin',(34.5,-59.76,5.));
#984=CARTESIAN_POINT('',(28.8835607841114,-63.0319429295498,0.));
#985=CARTESIAN_POINT('Origin',(24.5632229257356,-65.5488221061265,0.));
#986=CARTESIAN_POINT('',(26.3177388490025,-70.2308808279926,0.));
#987=CARTESIAN_POINT('Origin',(24.5632229257356,-65.5488221061265,0.));
#988=CARTESIAN_POINT('',(26.3177388490025,-70.2308808279926,5.));
#989=CARTESIAN_POINT('Origin',(24.5632229257356,-65.5488221061265,5.));
#990=CARTESIAN_POINT('',(26.3177388490025,-70.2308808279926,0.));
#991=CARTESIAN_POINT('Origin',(0.,0.,0.));
#992=CARTESIAN_POINT('',(-26.3177388490025,-70.2308808279926,0.));
#993=CARTESIAN_POINT('Origin',(0.,0.,0.));
#994=CARTESIAN_POINT('',(-26.3177388490025,-70.2308808279926,5.));
#995=CARTESIAN_POINT('Origin',(0.,0.,5.));
#996=CARTESIAN_POINT('',(-26.3177388490025,-70.2308808279926,0.));
#997=CARTESIAN_POINT('Origin',(-24.5632229257356,-65.5488221061265,0.));
#998=CARTESIAN_POINT('',(-28.8835607841114,-63.0319429295498,0.));
#999=CARTESIAN_POINT('Origin',(-24.5632229257356,-65.5488221061265,0.));
#1000=CARTESIAN_POINT('',(-28.8835607841114,-63.0319429295498,5.));
#1001=CARTESIAN_POINT('Origin',(-24.5632229257356,-65.5488221061265,5.));
#1002=CARTESIAN_POINT('',(-28.8835607841114,-63.0319429295498,0.));
#1003=CARTESIAN_POINT('Origin',(-34.5,-59.76,0.));
#1004=CARTESIAN_POINT('',(-40.1420039760918,-56.5323396811675,0.));
#1005=CARTESIAN_POINT('Origin',(-34.5,-59.76,0.));
#1006=CARTESIAN_POINT('',(-40.1420039760918,-56.5323396811675,5.));
#1007=CARTESIAN_POINT('Origin',(-34.5,-59.76,5.));
#1008=CARTESIAN_POINT('',(-40.1420039760918,-56.5323396811675,0.));
#1009=CARTESIAN_POINT('Origin',(-44.4820070346239,-54.0495240512964,0.));
#1010=CARTESIAN_POINT('',(-47.6592932513828,-57.9102043406747,0.));
#1011=CARTESIAN_POINT('Origin',(-44.4820070346239,-54.0495240512964,0.));
#1012=CARTESIAN_POINT('',(-47.6592932513828,-57.9102043406747,5.));
#1013=CARTESIAN_POINT('Origin',(-44.4820070346239,-54.0495240512964,5.));
#1014=CARTESIAN_POINT('',(-47.6592932513828,-57.9102043406747,0.));
#1015=CARTESIAN_POINT('Origin',(0.,0.,0.));
#1016=CARTESIAN_POINT('',(-73.9809782608696,-12.3213171197216,0.));
#1017=CARTESIAN_POINT('Origin',(0.,0.,0.));
#1018=CARTESIAN_POINT('',(-73.9809782608696,-12.3213171197216,5.));
#1019=CARTESIAN_POINT('Origin',(0.,0.,5.));
#1020=CARTESIAN_POINT('',(-73.9809782608696,-12.3213171197216,0.));
#1021=CARTESIAN_POINT('Origin',(-69.0489130434783,-11.4998959784068,0.));
#1022=CARTESIAN_POINT('',(-69.0276465028355,-6.49994120518648,0.));
#1023=CARTESIAN_POINT('Origin',(-69.0489130434783,-11.4998959784068,0.));
#1024=CARTESIAN_POINT('',(-69.0276465028355,-6.49994120518648,5.));
#1025=CARTESIAN_POINT('Origin',(-69.0489130434783,-11.4998959784068,5.));
#1026=CARTESIAN_POINT('',(-69.0276465028355,-6.49994120518648,0.));
#1027=CARTESIAN_POINT('Origin',(-69.,0.,0.));
#1028=CARTESIAN_POINT('',(-69.0276465028356,6.49994120518647,0.));
#1029=CARTESIAN_POINT('Origin',(-69.,0.,0.));
#1030=CARTESIAN_POINT('',(-69.0276465028356,6.49994120518647,5.));
#1031=CARTESIAN_POINT('Origin',(-69.,0.,5.));
#1032=CARTESIAN_POINT('',(-69.0276465028356,6.49994120518647,0.));
#1033=CARTESIAN_POINT('Origin',(-69.0489130434783,11.4998959784068,0.));
#1034=CARTESIAN_POINT('',(-73.9809782608696,12.3213171197216,0.));
#1035=CARTESIAN_POINT('Origin',(-69.0489130434783,11.4998959784068,0.));
#1036=CARTESIAN_POINT('',(-73.9809782608696,12.3213171197216,5.));
#1037=CARTESIAN_POINT('Origin',(-69.0489130434783,11.4998959784068,5.));
#1038=CARTESIAN_POINT('',(-73.9809782608696,12.3213171197216,0.));
#1039=CARTESIAN_POINT('Origin',(0.,0.,0.));
#1040=CARTESIAN_POINT('',(-47.6592932513828,57.9102043406747,0.));
#1041=CARTESIAN_POINT('Origin',(0.,0.,0.));
#1042=CARTESIAN_POINT('',(-47.6592932513828,57.9102043406747,5.));
#1043=CARTESIAN_POINT('Origin',(0.,0.,5.));
#1044=CARTESIAN_POINT('',(-47.6592932513828,57.9102043406747,0.));
#1045=CARTESIAN_POINT('Origin',(-44.4820070346239,54.0495240512964,0.));
#1046=CARTESIAN_POINT('',(-40.1420039760918,56.5323396811675,0.));
#1047=CARTESIAN_POINT('Origin',(-44.4820070346239,54.0495240512964,0.));
#1048=CARTESIAN_POINT('',(-40.1420039760918,56.5323396811675,5.));
#1049=CARTESIAN_POINT('Origin',(-44.4820070346239,54.0495240512964,5.));
#1050=CARTESIAN_POINT('',(-40.1420039760918,56.5323396811675,0.));
#1051=CARTESIAN_POINT('Origin',(-34.5,59.76,0.));
#1052=CARTESIAN_POINT('',(-28.8835607841114,63.0319429295498,0.));
#1053=CARTESIAN_POINT('Origin',(-34.5,59.76,0.));
#1054=CARTESIAN_POINT('',(-28.8835607841114,63.0319429295498,5.));
#1055=CARTESIAN_POINT('Origin',(-34.5,59.76,5.));
#1056=CARTESIAN_POINT('',(-28.8835607841114,63.0319429295498,0.));
#1057=CARTESIAN_POINT('Origin',(-24.5632229257356,65.5488221061265,0.));
#1058=CARTESIAN_POINT('',(-26.3177388490025,70.2308808279926,0.));
#1059=CARTESIAN_POINT('Origin',(-24.5632229257356,65.5488221061265,0.));
#1060=CARTESIAN_POINT('',(-26.3177388490025,70.2308808279926,5.));
#1061=CARTESIAN_POINT('Origin',(-24.5632229257356,65.5488221061265,5.));
#1062=CARTESIAN_POINT('',(-26.3177388490025,70.2308808279926,0.));
#1063=CARTESIAN_POINT('Origin',(0.,0.,0.));
#1064=CARTESIAN_POINT('',(26.3177388490025,70.2308808279926,0.));
#1065=CARTESIAN_POINT('Origin',(0.,0.,0.));
#1066=CARTESIAN_POINT('',(26.3177388490025,70.2308808279926,5.));
#1067=CARTESIAN_POINT('Origin',(0.,0.,5.));
#1068=CARTESIAN_POINT('',(26.3177388490025,70.2308808279926,0.));
#1069=CARTESIAN_POINT('Origin',(24.5632229257356,65.5488221061265,0.));
#1070=CARTESIAN_POINT('',(28.8835607841114,63.0319429295498,0.));
#1071=CARTESIAN_POINT('Origin',(24.5632229257356,65.5488221061265,0.));
#1072=CARTESIAN_POINT('',(28.8835607841114,63.0319429295498,5.));
#1073=CARTESIAN_POINT('Origin',(24.5632229257356,65.5488221061265,5.));
#1074=CARTESIAN_POINT('',(28.8835607841114,63.0319429295498,0.));
#1075=CARTESIAN_POINT('Origin',(34.5,59.76,0.));
#1076=CARTESIAN_POINT('',(40.1420039760918,56.5323396811675,0.));
#1077=CARTESIAN_POINT('Origin',(34.5,59.76,0.));
#1078=CARTESIAN_POINT('',(40.1420039760918,56.5323396811675,5.));
#1079=CARTESIAN_POINT('Origin',(34.5,59.76,5.));
#1080=CARTESIAN_POINT('',(40.1420039760918,56.5323396811675,0.));
#1081=CARTESIAN_POINT('Origin',(44.4820070346239,54.0495240512964,0.));
#1082=CARTESIAN_POINT('',(47.6592932513828,57.9102043406747,0.));
#1083=CARTESIAN_POINT('Origin',(44.4820070346239,54.0495240512964,0.));
#1084=CARTESIAN_POINT('',(47.6592932513828,57.9102043406747,5.));
#1085=CARTESIAN_POINT('Origin',(44.4820070346239,54.0495240512964,5.));
#1086=CARTESIAN_POINT('',(47.6592932513828,57.9102043406747,0.));
#1087=CARTESIAN_POINT('Origin',(0.,0.,0.));
#1088=CARTESIAN_POINT('',(73.9809782608696,12.3213171197216,0.));
#1089=CARTESIAN_POINT('Origin',(0.,0.,0.));
#1090=CARTESIAN_POINT('',(73.9809782608696,12.3213171197216,5.));
#1091=CARTESIAN_POINT('Origin',(0.,0.,5.));
#1092=CARTESIAN_POINT('',(73.9809782608696,12.3213171197216,0.));
#1093=CARTESIAN_POINT('Origin',(69.0489130434783,11.4998959784069,0.));
#1094=CARTESIAN_POINT('',(69.0276465028356,6.49994120518647,0.));
#1095=CARTESIAN_POINT('Origin',(69.0489130434783,11.4998959784069,0.));
#1096=CARTESIAN_POINT('',(69.0276465028356,6.49994120518647,5.));
#1097=CARTESIAN_POINT('Origin',(69.0489130434783,11.4998959784069,5.));
#1098=CARTESIAN_POINT('',(69.0276465028356,6.49994120518647,0.));
#1099=CARTESIAN_POINT('Origin',(69.,0.,0.));
#1100=CARTESIAN_POINT('',(69.0276465028355,-6.49994120518647,0.));
#1101=CARTESIAN_POINT('Origin',(69.,0.,0.));
#1102=CARTESIAN_POINT('',(69.0276465028355,-6.49994120518647,5.));
#1103=CARTESIAN_POINT('Origin',(69.,0.,5.));
#1104=CARTESIAN_POINT('',(69.0276465028355,-6.49994120518647,0.));
#1105=CARTESIAN_POINT('Origin',(69.0489130434783,-11.4998959784069,0.));
#1106=CARTESIAN_POINT('',(73.9809782608696,-12.3213171197216,0.));
#1107=CARTESIAN_POINT('Origin',(69.0489130434783,-11.4998959784069,0.));
#1108=CARTESIAN_POINT('',(73.9809782608696,-12.3213171197216,5.));
#1109=CARTESIAN_POINT('Origin',(69.0489130434783,-11.4998959784069,5.));
#1110=CARTESIAN_POINT('',(73.9809782608696,-12.3213171197216,0.));
#1111=CARTESIAN_POINT('Origin',(0.,0.,0.));
#1112=CARTESIAN_POINT('',(47.6592932513828,-57.9102043406747,0.));
#1113=CARTESIAN_POINT('Origin',(0.,0.,0.));
#1114=CARTESIAN_POINT('',(47.6592932513828,-57.9102043406748,5.));
#1115=CARTESIAN_POINT('Origin',(0.,0.,5.));
#1116=CARTESIAN_POINT('',(47.6592932513828,-57.9102043406747,0.));
#1117=CARTESIAN_POINT('Origin',(44.4820070346239,-54.0495240512964,0.));
#1118=CARTESIAN_POINT('Origin',(44.4820070346239,-54.0495240512964,0.));
#1119=CARTESIAN_POINT('Origin',(44.4820070346239,-54.0495240512964,5.));
#1120=CARTESIAN_POINT('Origin',(0.,0.,5.));
#1121=CARTESIAN_POINT('Origin',(0.,0.,0.));
#1122=UNCERTAINTY_MEASURE_WITH_UNIT(LENGTH_MEASURE(0.01),#1126,
'DISTANCE_ACCURACY_VALUE',
'Maximum model space distance between geometric entities at asserted c
onnectivities');
#1123=UNCERTAINTY_MEASURE_WITH_UNIT(LENGTH_MEASURE(0.01),#1126,
'DISTANCE_ACCURACY_VALUE',
'Maximum model space distance between geometric entities at asserted c
onnectivities');
#1124=(
GEOMETRIC_REPRESENTATION_CONTEXT(3)
GLOBAL_UNCERTAINTY_ASSIGNED_CONTEXT((#1122))
GLOBAL_UNIT_ASSIGNED_CONTEXT((#1126,#1128,#1129))
REPRESENTATION_CONTEXT('','3D')
);
#1125=(
GEOMETRIC_REPRESENTATION_CONTEXT(3)
GLOBAL_UNCERTAINTY_ASSIGNED_CONTEXT((#1123))
GLOBAL_UNIT_ASSIGNED_CONTEXT((#1126,#1128,#1129))
REPRESENTATION_CONTEXT('','3D')
);
#1126=(
LENGTH_UNIT()
NAMED_UNIT(*)
SI_UNIT(.MILLI.,.METRE.)
);
#1127=(
LENGTH_UNIT()
NAMED_UNIT(*)
SI_UNIT($,.METRE.)
);
#1128=(
NAMED_UNIT(*)
PLANE_ANGLE_UNIT()
SI_UNIT($,.RADIAN.)
);
#1129=(
NAMED_UNIT(*)
SI_UNIT($,.STERADIAN.)
SOLID_ANGLE_UNIT()
);
#1130=SHAPE_DEFINITION_REPRESENTATION(#1131,#1132);
#1131=PRODUCT_DEFINITION_SHAPE('',$,#1134);
#1132=SHAPE_REPRESENTATION('',(#630),#1124);
#1133=PRODUCT_DEFINITION_CONTEXT('part definition',#1138,'design');
#1134=PRODUCT_DEFINITION('2026-08-20-18-09-09-526','top_plate',#1135,#1133);
#1135=PRODUCT_DEFINITION_FORMATION('',$,#1140);
#1136=PRODUCT_RELATED_PRODUCT_CATEGORY('top_plate','top_plate',(#1140));
#1137=APPLICATION_PROTOCOL_DEFINITION('international standard',
'automotive_design',2009,#1138);
#1138=APPLICATION_CONTEXT(
'Core Data for Automotive Mechanical Design Process');
#1139=PRODUCT_CONTEXT('part definition',#1138,'mechanical');
#1140=PRODUCT('2026-08-20-18-09-09-526','top_plate',$,(#1139));
#1141=PRESENTATION_STYLE_ASSIGNMENT((#1142));
#1142=SURFACE_STYLE_USAGE(.BOTH.,#1143);
#1143=SURFACE_SIDE_STYLE('',(#1144));
#1144=SURFACE_STYLE_FILL_AREA(#1145);
#1145=FILL_AREA_STYLE('Steel - Satin',(#1146));
#1146=FILL_AREA_STYLE_COLOUR('Steel - Satin',#1147);
#1147=COLOUR_RGB('Steel - Satin',0.627450980392157,0.627450980392157,0.627450980392157);
ENDSEC;
END-ISO-10303-21;
